<?xml version="1.0" encoding="utf-8" standalone="no"?>
<!DOCTYPE svg PUBLIC "-//W3C//DTD SVG 1.1//EN"
  "http://www.w3.org/Graphics/SVG/1.1/DTD/svg11.dtd">
<svg xmlns:xlink="http://www.w3.org/1999/xlink" width="544.5pt" height="180.113906pt" viewBox="0 0 544.5 180.113906" xmlns="http://www.w3.org/2000/svg" version="1.1">
 <metadata>
  <rdf:RDF xmlns:dc="http://purl.org/dc/elements/1.1/" xmlns:cc="http://creativecommons.org/ns#" xmlns:rdf="http://www.w3.org/1999/02/22-rdf-syntax-ns#">
   <cc:Work>
    <dc:type rdf:resource="http://purl.org/dc/dcmitype/StillImage"/>
    <dc:date>2026-07-17T13:57:39.578415</dc:date>
    <dc:format>image/svg+xml</dc:format>
    <dc:creator>
     <cc:Agent>
      <dc:title>Matplotlib v3.10.9, https://matplotlib.org/</dc:title>
     </cc:Agent>
    </dc:creator>
   </cc:Work>
  </rdf:RDF>
 </metadata>
 <defs>
  <style type="text/css">*{stroke-linejoin: round; stroke-linecap: butt}</style>
 </defs>
 <g id="figure_1">
  <g id="patch_1">
   <path d="M 0 180.113906 
L 544.5 180.113906 
L 544.5 0 
L 0 0 
z
" style="fill: #ffffff"/>
  </g>
  <g id="axes_1">
   <g id="patch_2">
    <path d="M 297.926151 161.28486 
L 363.339535 161.28486 
L 363.339535 7.2 
L 297.926151 7.2 
z
" clip-path="url(#p7a649fcf39)" style="fill: #d9d9d9; stroke: #d9d9d9; stroke-linejoin: miter"/>
   </g>
   <g id="patch_3">
    <path d="M 7.2 161.28486 
L 363.339535 161.28486 
L 363.339535 152.563075 
L 7.2 152.563075 
z
" clip-path="url(#p7a649fcf39)" style="fill: #6b4a30; stroke: #6b4a30; stroke-linejoin: miter"/>
   </g>
   <g id="line2d_1">
    <path d="M 7.2 23.189938 
L 363.339535 23.189938 
" clip-path="url(#p7a649fcf39)" style="fill: none; stroke-dasharray: 4.81,2.08; stroke-dashoffset: 0; stroke: #000000; stroke-width: 1.3"/>
   </g>
   <g id="line2d_2">
    <path d="M 25.516448 151.109445 
L 28.129484 149.47103 
L 29.988484 147.832616 
L 31.490015 146.194202 
L 32.773842 144.555787 
L 33.908056 142.917373 
L 34.93171 141.278959 
L 35.869582 139.640544 
L 36.738521 138.00213 
L 37.550582 136.363716 
L 38.314725 134.725301 
L 39.037822 133.086887 
L 39.725274 131.448473 
L 40.381413 129.810058 
L 41.009776 128.171644 
L 41.613295 126.53323 
L 42.194427 124.894816 
L 42.755258 123.256401 
L 43.297577 121.617987 
L 43.822929 119.979573 
L 44.332659 118.341158 
L 44.827948 116.702744 
L 45.309838 115.06433 
L 45.779253 113.425915 
L 46.237021 111.787501 
L 46.68388 110.149087 
L 47.120499 108.510672 
L 47.547479 106.872258 
L 47.965368 105.233844 
L 48.374664 103.595429 
L 48.775824 101.957015 
L 49.169265 100.318601 
L 49.55537 98.680186 
L 49.934493 97.041772 
L 50.306962 95.403358 
L 50.673078 93.764943 
L 51.033123 92.126529 
L 51.387358 90.488115 
L 51.736027 88.8497 
L 52.079357 87.211286 
L 52.41756 85.572872 
L 52.750835 83.934457 
L 53.07937 82.296043 
L 53.403341 80.657629 
L 53.722912 79.019214 
L 54.038239 77.3808 
L 54.349469 75.742386 
L 54.656742 74.103971 
L 54.960189 72.465557 
L 55.259933 70.827143 
L 55.556094 69.188728 
L 55.848783 67.550314 
L 56.138107 65.9119 
L 56.424167 64.273485 
L 56.707059 62.635071 
L 56.986876 60.996657 
L 57.263704 59.358243 
L 57.537627 57.719828 
L 57.808726 56.081414 
L 58.077076 54.443 
" clip-path="url(#p7a649fcf39)" style="fill: none; stroke: #1f77b4; stroke-width: 1.6; stroke-linecap: square"/>
   </g>
   <g id="patch_4">
    <path d="M 72.613384 152.563075 
L 130.758614 152.563075 
L 130.758614 79.881538 
L 72.613384 79.881538 
z
" clip-path="url(#p7a649fcf39)" style="fill: #999999; stroke: #000000; stroke-linejoin: miter"/>
   </g>
   <g id="patch_5">
    <path d="M 203.440152 152.563075 
L 261.585382 152.563075 
L 261.585382 79.881538 
L 203.440152 79.881538 
z
" clip-path="url(#p7a649fcf39)" style="fill: #999999; stroke: #000000; stroke-linejoin: miter"/>
   </g>
   <g id="line2d_3">
    <path d="M 130.758614 79.881538 
L 203.440152 79.881538 
" clip-path="url(#p7a649fcf39)" style="fill: none; stroke: #ff8c00; stroke-width: 2.2; stroke-linecap: square"/>
   </g>
   <g id="line2d_4">
    <path d="M 177.378105 95.76817 
L 176.826071 95.24431 
L 176.247378 94.750059 
L 175.64361 94.286771 
L 175.016424 93.855718 
L 174.367537 93.45808 
L 173.698729 93.094946 
L 173.011832 92.767314 
L 172.30873 92.476079 
L 171.591349 92.222041 
L 170.861656 92.005896 
L 170.121651 91.828237 
L 169.373363 91.68955 
L 168.618841 91.590215 
L 167.860155 91.530505 
L 167.099383 91.510584 
L 166.338611 91.530505 
L 165.579925 91.590215 
L 164.825404 91.68955 
L 164.077115 91.828237 
L 163.33711 92.005896 
L 162.607417 92.222041 
L 161.890036 92.476079 
L 161.186934 92.767314 
L 160.500037 93.094946 
L 159.831229 93.45808 
L 159.182342 93.855718 
L 158.555156 94.286771 
L 157.951388 94.750059 
L 157.372695 95.24431 
L 156.820661 95.76817 
L 156.296801 96.320203 
L 155.80255 96.898897 
L 155.339263 97.502664 
L 154.90821 98.129851 
L 154.510571 98.778738 
L 154.147438 99.447546 
L 153.819805 100.134442 
L 153.528571 100.837545 
L 153.274533 101.554925 
L 153.058388 102.284618 
L 152.880729 103.024623 
L 152.742042 103.772912 
L 152.642707 104.527433 
L 152.582997 105.28612 
L 152.563075 106.046891 
L 152.582997 106.807663 
L 152.642707 107.566349 
L 152.742042 108.320871 
L 152.880729 109.06916 
L 153.058388 109.809165 
L 153.274533 110.538857 
L 153.528571 111.256238 
L 153.819805 111.95934 
L 154.147438 112.646237 
L 154.510571 113.315045 
L 154.90821 113.963932 
L 155.339263 114.591119 
L 155.80255 115.194886 
L 156.296801 115.77358 
L 156.820661 116.325613 
L 157.372695 116.849473 
L 157.951388 117.343724 
L 158.555156 117.807011 
L 159.182342 118.238065 
L 159.831229 118.635703 
L 160.500037 118.998836 
L 161.186934 119.326469 
L 161.890036 119.617704 
L 162.607417 119.871741 
L 163.33711 120.087886 
L 164.077115 120.265546 
L 164.825404 120.404233 
L 165.579925 120.503567 
L 166.338611 120.563277 
L 167.099383 120.583199 
L 167.860155 120.563277 
L 168.618841 120.503567 
L 169.373363 120.404233 
L 170.121651 120.265546 
L 170.861656 120.087886 
L 171.591349 119.871741 
L 172.30873 119.617704 
L 173.011832 119.326469 
L 173.698729 118.998836 
L 174.367537 118.635703 
L 175.016424 118.238065 
L 175.64361 117.807011 
L 176.247378 117.343724 
L 176.826071 116.849473 
L 177.378105 116.325613 
L 177.901965 115.77358 
L 178.396216 115.194886 
L 178.859503 114.591119 
L 179.290556 113.963932 
L 179.688195 113.315045 
L 180.051328 112.646237 
L 180.378961 111.95934 
L 180.670195 111.256238 
L 180.924233 110.538857 
" clip-path="url(#p7a649fcf39)" style="fill: none; stroke: #1f77b4; stroke-width: 1.8; stroke-linecap: square"/>
   </g>
   <g id="text_1">
    <!-- sponge -->
    <g style="fill: #666666" transform="translate(333.392218 105.407504) rotate(-90) scale(0.1 -0.1)">
     <defs>
      <path id="DejaVuSans-73" d="M 2834 3397 
L 2834 2853 
Q 2591 2978 2328 3040 
Q 2066 3103 1784 3103 
Q 1356 3103 1142 2972 
Q 928 2841 928 2578 
Q 928 2378 1081 2264 
Q 1234 2150 1697 2047 
L 1894 2003 
Q 2506 1872 2764 1633 
Q 3022 1394 3022 966 
Q 3022 478 2636 193 
Q 2250 -91 1575 -91 
Q 1294 -91 989 -36 
Q 684 19 347 128 
L 347 722 
Q 666 556 975 473 
Q 1284 391 1588 391 
Q 1994 391 2212 530 
Q 2431 669 2431 922 
Q 2431 1156 2273 1281 
Q 2116 1406 1581 1522 
L 1381 1569 
Q 847 1681 609 1914 
Q 372 2147 372 2553 
Q 372 3047 722 3315 
Q 1072 3584 1716 3584 
Q 2034 3584 2315 3537 
Q 2597 3491 2834 3397 
z
" transform="scale(0.015625)"/>
      <path id="DejaVuSans-70" d="M 1159 525 
L 1159 -1331 
L 581 -1331 
L 581 3500 
L 1159 3500 
L 1159 2969 
Q 1341 3281 1617 3432 
Q 1894 3584 2278 3584 
Q 2916 3584 3314 3078 
Q 3713 2572 3713 1747 
Q 3713 922 3314 415 
Q 2916 -91 2278 -91 
Q 1894 -91 1617 61 
Q 1341 213 1159 525 
z
M 3116 1747 
Q 3116 2381 2855 2742 
Q 2594 3103 2138 3103 
Q 1681 3103 1420 2742 
Q 1159 2381 1159 1747 
Q 1159 1113 1420 752 
Q 1681 391 2138 391 
Q 2594 391 2855 752 
Q 3116 1113 3116 1747 
z
" transform="scale(0.015625)"/>
      <path id="DejaVuSans-6f" d="M 1959 3097 
Q 1497 3097 1228 2736 
Q 959 2375 959 1747 
Q 959 1119 1226 758 
Q 1494 397 1959 397 
Q 2419 397 2687 759 
Q 2956 1122 2956 1747 
Q 2956 2369 2687 2733 
Q 2419 3097 1959 3097 
z
M 1959 3584 
Q 2709 3584 3137 3096 
Q 3566 2609 3566 1747 
Q 3566 888 3137 398 
Q 2709 -91 1959 -91 
Q 1206 -91 779 398 
Q 353 888 353 1747 
Q 353 2609 779 3096 
Q 1206 3584 1959 3584 
z
" transform="scale(0.015625)"/>
      <path id="DejaVuSans-6e" d="M 3513 2113 
L 3513 0 
L 2938 0 
L 2938 2094 
Q 2938 2591 2744 2837 
Q 2550 3084 2163 3084 
Q 1697 3084 1428 2787 
Q 1159 2491 1159 1978 
L 1159 0 
L 581 0 
L 581 3500 
L 1159 3500 
L 1159 2956 
Q 1366 3272 1645 3428 
Q 1925 3584 2291 3584 
Q 2894 3584 3203 3211 
Q 3513 2838 3513 2113 
z
" transform="scale(0.015625)"/>
      <path id="DejaVuSans-67" d="M 2906 1791 
Q 2906 2416 2648 2759 
Q 2391 3103 1925 3103 
Q 1463 3103 1205 2759 
Q 947 2416 947 1791 
Q 947 1169 1205 825 
Q 1463 481 1925 481 
Q 2391 481 2648 825 
Q 2906 1169 2906 1791 
z
M 3481 434 
Q 3481 -459 3084 -895 
Q 2688 -1331 1869 -1331 
Q 1566 -1331 1297 -1286 
Q 1028 -1241 775 -1147 
L 775 -588 
Q 1028 -725 1275 -790 
Q 1522 -856 1778 -856 
Q 2344 -856 2625 -561 
Q 2906 -266 2906 331 
L 2906 616 
Q 2728 306 2450 153 
Q 2172 0 1784 0 
Q 1141 0 747 490 
Q 353 981 353 1791 
Q 353 2603 747 3093 
Q 1141 3584 1784 3584 
Q 2172 3584 2450 3431 
Q 2728 3278 2906 2969 
L 2906 3500 
L 3481 3500 
L 3481 434 
z
" transform="scale(0.015625)"/>
      <path id="DejaVuSans-65" d="M 3597 1894 
L 3597 1613 
L 953 1613 
Q 991 1019 1311 708 
Q 1631 397 2203 397 
Q 2534 397 2845 478 
Q 3156 559 3463 722 
L 3463 178 
Q 3153 47 2828 -22 
Q 2503 -91 2169 -91 
Q 1331 -91 842 396 
Q 353 884 353 1716 
Q 353 2575 817 3079 
Q 1281 3584 2069 3584 
Q 2775 3584 3186 3129 
Q 3597 2675 3597 1894 
z
M 3022 2063 
Q 3016 2534 2758 2815 
Q 2500 3097 2075 3097 
Q 1594 3097 1305 2825 
Q 1016 2553 972 2059 
L 3022 2063 
z
" transform="scale(0.015625)"/>
     </defs>
     <use xlink:href="#DejaVuSans-73"/>
     <use xlink:href="#DejaVuSans-70" transform="translate(52.099609 0)"/>
     <use xlink:href="#DejaVuSans-6f" transform="translate(115.576172 0)"/>
     <use xlink:href="#DejaVuSans-6e" transform="translate(176.757812 0)"/>
     <use xlink:href="#DejaVuSans-67" transform="translate(240.136719 0)"/>
     <use xlink:href="#DejaVuSans-65" transform="translate(303.613281 0)"/>
    </g>
   </g>
   <g id="text_2">
    <!-- free-slip top -->
    <g transform="translate(177.074229 15.295728) scale(0.1 -0.1)">
     <defs>
      <path id="DejaVuSans-66" d="M 2375 4863 
L 2375 4384 
L 1825 4384 
Q 1516 4384 1395 4259 
Q 1275 4134 1275 3809 
L 1275 3500 
L 2222 3500 
L 2222 3053 
L 1275 3053 
L 1275 0 
L 697 0 
L 697 3053 
L 147 3053 
L 147 3500 
L 697 3500 
L 697 3744 
Q 697 4328 969 4595 
Q 1241 4863 1831 4863 
L 2375 4863 
z
" transform="scale(0.015625)"/>
      <path id="DejaVuSans-72" d="M 2631 2963 
Q 2534 3019 2420 3045 
Q 2306 3072 2169 3072 
Q 1681 3072 1420 2755 
Q 1159 2438 1159 1844 
L 1159 0 
L 581 0 
L 581 3500 
L 1159 3500 
L 1159 2956 
Q 1341 3275 1631 3429 
Q 1922 3584 2338 3584 
Q 2397 3584 2469 3576 
Q 2541 3569 2628 3553 
L 2631 2963 
z
" transform="scale(0.015625)"/>
      <path id="DejaVuSans-2d" d="M 313 2009 
L 1997 2009 
L 1997 1497 
L 313 1497 
L 313 2009 
z
" transform="scale(0.015625)"/>
      <path id="DejaVuSans-6c" d="M 603 4863 
L 1178 4863 
L 1178 0 
L 603 0 
L 603 4863 
z
" transform="scale(0.015625)"/>
      <path id="DejaVuSans-69" d="M 603 3500 
L 1178 3500 
L 1178 0 
L 603 0 
L 603 3500 
z
M 603 4863 
L 1178 4863 
L 1178 4134 
L 603 4134 
L 603 4863 
z
" transform="scale(0.015625)"/>
      <path id="DejaVuSans-20" transform="scale(0.015625)"/>
      <path id="DejaVuSans-74" d="M 1172 4494 
L 1172 3500 
L 2356 3500 
L 2356 3053 
L 1172 3053 
L 1172 1153 
Q 1172 725 1289 603 
Q 1406 481 1766 481 
L 2356 481 
L 2356 0 
L 1766 0 
Q 1100 0 847 248 
Q 594 497 594 1153 
L 594 3053 
L 172 3053 
L 172 3500 
L 594 3500 
L 594 4494 
L 1172 4494 
z
" transform="scale(0.015625)"/>
     </defs>
     <use xlink:href="#DejaVuSans-66"/>
     <use xlink:href="#DejaVuSans-72" transform="translate(35.205078 0)"/>
     <use xlink:href="#DejaVuSans-65" transform="translate(74.068359 0)"/>
     <use xlink:href="#DejaVuSans-65" transform="translate(135.591797 0)"/>
     <use xlink:href="#DejaVuSans-2d" transform="translate(197.115234 0)"/>
     <use xlink:href="#DejaVuSans-73" transform="translate(233.199219 0)"/>
     <use xlink:href="#DejaVuSans-6c" transform="translate(285.298828 0)"/>
     <use xlink:href="#DejaVuSans-69" transform="translate(313.082031 0)"/>
     <use xlink:href="#DejaVuSans-70" transform="translate(340.865234 0)"/>
     <use xlink:href="#DejaVuSans-20" transform="translate(404.341797 0)"/>
     <use xlink:href="#DejaVuSans-74" transform="translate(436.128906 0)"/>
     <use xlink:href="#DejaVuSans-6f" transform="translate(475.337891 0)"/>
     <use xlink:href="#DejaVuSans-70" transform="translate(536.519531 0)"/>
    </g>
   </g>
   <g id="text_3">
    <!-- (a) -->
    <g transform="translate(9.380446 20.051287) scale(0.15 -0.15)">
     <defs>
      <path id="DejaVuSans-Bold-28" d="M 2413 -844 
L 1484 -844 
Q 1006 -72 778 623 
Q 550 1319 550 2003 
Q 550 2688 779 3389 
Q 1009 4091 1484 4856 
L 2413 4856 
Q 2013 4116 1813 3408 
Q 1613 2700 1613 2009 
Q 1613 1319 1811 609 
Q 2009 -100 2413 -844 
z
" transform="scale(0.015625)"/>
      <path id="DejaVuSans-Bold-61" d="M 2106 1575 
Q 1756 1575 1579 1456 
Q 1403 1338 1403 1106 
Q 1403 894 1545 773 
Q 1688 653 1941 653 
Q 2256 653 2472 879 
Q 2688 1106 2688 1447 
L 2688 1575 
L 2106 1575 
z
M 3816 1997 
L 3816 0 
L 2688 0 
L 2688 519 
Q 2463 200 2181 54 
Q 1900 -91 1497 -91 
Q 953 -91 614 226 
Q 275 544 275 1050 
Q 275 1666 698 1953 
Q 1122 2241 2028 2241 
L 2688 2241 
L 2688 2328 
Q 2688 2594 2478 2717 
Q 2269 2841 1825 2841 
Q 1466 2841 1156 2769 
Q 847 2697 581 2553 
L 581 3406 
Q 941 3494 1303 3539 
Q 1666 3584 2028 3584 
Q 2975 3584 3395 3211 
Q 3816 2838 3816 1997 
z
" transform="scale(0.015625)"/>
      <path id="DejaVuSans-Bold-29" d="M 513 -844 
Q 913 -100 1113 609 
Q 1313 1319 1313 2009 
Q 1313 2700 1113 3408 
Q 913 4116 513 4856 
L 1441 4856 
Q 1916 4091 2145 3389 
Q 2375 2688 2375 2003 
Q 2375 1319 2147 623 
Q 1919 -72 1441 -844 
L 513 -844 
z
" transform="scale(0.015625)"/>
     </defs>
     <use xlink:href="#DejaVuSans-Bold-28"/>
     <use xlink:href="#DejaVuSans-Bold-61" transform="translate(45.703125 0)"/>
     <use xlink:href="#DejaVuSans-Bold-29" transform="translate(113.183594 0)"/>
    </g>
   </g>
   <g id="patch_6">
    <path d="M 20.104214 151.109445 
Q 21.810072 151.109445 21.950682 151.109445 
" style="fill: none; stroke: #1f77b4; stroke-width: 1.4; stroke-linecap: round"/>
    <path d="M 17.950682 149.109445 
L 21.950682 151.109445 
L 17.950682 153.109445 
z
" style="fill: #1f77b4; stroke: #1f77b4; stroke-width: 1.4; stroke-linecap: round"/>
   </g>
   <g id="patch_7">
    <path d="M 20.098295 134.998371 
Q 28.143885 134.998371 34.624228 134.998371 
" style="fill: none; stroke: #1f77b4; stroke-width: 1.4; stroke-linecap: round"/>
    <path d="M 30.624228 132.998371 
L 34.624228 134.998371 
L 30.624228 136.998371 
z
" style="fill: #1f77b4; stroke: #1f77b4; stroke-width: 1.4; stroke-linecap: round"/>
   </g>
   <g id="patch_8">
    <path d="M 20.103343 118.887296 
Q 31.133779 118.887296 40.598968 118.887296 
" style="fill: none; stroke: #1f77b4; stroke-width: 1.4; stroke-linecap: round"/>
    <path d="M 36.598968 116.887296 
L 40.598968 118.887296 
L 36.598968 120.887296 
z
" style="fill: #1f77b4; stroke: #1f77b4; stroke-width: 1.4; stroke-linecap: round"/>
   </g>
   <g id="patch_9">
    <path d="M 20.099855 102.776222 
Q 33.33866 102.776222 45.012218 102.776222 
" style="fill: none; stroke: #1f77b4; stroke-width: 1.4; stroke-linecap: round"/>
    <path d="M 41.012218 100.776222 
L 45.012218 102.776222 
L 41.012218 104.776222 
z
" style="fill: #1f77b4; stroke: #1f77b4; stroke-width: 1.4; stroke-linecap: round"/>
   </g>
   <g id="patch_10">
    <path d="M 20.103878 86.665148 
Q 35.147448 86.665148 48.625772 86.665148 
" style="fill: none; stroke: #1f77b4; stroke-width: 1.4; stroke-linecap: round"/>
    <path d="M 44.625772 84.665148 
L 48.625772 86.665148 
L 44.625772 88.665148 
z
" style="fill: #1f77b4; stroke: #1f77b4; stroke-width: 1.4; stroke-linecap: round"/>
   </g>
   <g id="patch_11">
    <path d="M 20.105212 70.554074 
Q 36.708229 70.554074 51.745999 70.554074 
" style="fill: none; stroke: #1f77b4; stroke-width: 1.4; stroke-linecap: round"/>
    <path d="M 47.745999 68.554074 
L 51.745999 70.554074 
L 47.745999 72.554074 
z
" style="fill: #1f77b4; stroke: #1f77b4; stroke-width: 1.4; stroke-linecap: round"/>
   </g>
   <g id="patch_12">
    <path d="M 20.098045 54.443 
Q 38.088479 54.443 54.513664 54.443 
" style="fill: none; stroke: #1f77b4; stroke-width: 1.4; stroke-linecap: round"/>
    <path d="M 50.513664 52.443 
L 54.513664 54.443 
L 50.513664 56.443 
z
" style="fill: #1f77b4; stroke: #1f77b4; stroke-width: 1.4; stroke-linecap: round"/>
   </g>
   <g id="text_4">
    <!-- inlet (log-law) -->
    <g style="fill: #1f77b4" transform="translate(18.102231 39.280635) scale(0.1 -0.1)">
     <defs>
      <path id="DejaVuSans-28" d="M 1984 4856 
Q 1566 4138 1362 3434 
Q 1159 2731 1159 2009 
Q 1159 1288 1364 580 
Q 1569 -128 1984 -844 
L 1484 -844 
Q 1016 -109 783 600 
Q 550 1309 550 2009 
Q 550 2706 781 3412 
Q 1013 4119 1484 4856 
L 1984 4856 
z
" transform="scale(0.015625)"/>
      <path id="DejaVuSans-61" d="M 2194 1759 
Q 1497 1759 1228 1600 
Q 959 1441 959 1056 
Q 959 750 1161 570 
Q 1363 391 1709 391 
Q 2188 391 2477 730 
Q 2766 1069 2766 1631 
L 2766 1759 
L 2194 1759 
z
M 3341 1997 
L 3341 0 
L 2766 0 
L 2766 531 
Q 2569 213 2275 61 
Q 1981 -91 1556 -91 
Q 1019 -91 701 211 
Q 384 513 384 1019 
Q 384 1609 779 1909 
Q 1175 2209 1959 2209 
L 2766 2209 
L 2766 2266 
Q 2766 2663 2505 2880 
Q 2244 3097 1772 3097 
Q 1472 3097 1187 3025 
Q 903 2953 641 2809 
L 641 3341 
Q 956 3463 1253 3523 
Q 1550 3584 1831 3584 
Q 2591 3584 2966 3190 
Q 3341 2797 3341 1997 
z
" transform="scale(0.015625)"/>
      <path id="DejaVuSans-77" d="M 269 3500 
L 844 3500 
L 1563 769 
L 2278 3500 
L 2956 3500 
L 3675 769 
L 4391 3500 
L 4966 3500 
L 4050 0 
L 3372 0 
L 2619 2869 
L 1863 0 
L 1184 0 
L 269 3500 
z
" transform="scale(0.015625)"/>
      <path id="DejaVuSans-29" d="M 513 4856 
L 1013 4856 
Q 1481 4119 1714 3412 
Q 1947 2706 1947 2009 
Q 1947 1309 1714 600 
Q 1481 -109 1013 -844 
L 513 -844 
Q 928 -128 1133 580 
Q 1338 1288 1338 2009 
Q 1338 2731 1133 3434 
Q 928 4138 513 4856 
z
" transform="scale(0.015625)"/>
     </defs>
     <use xlink:href="#DejaVuSans-69"/>
     <use xlink:href="#DejaVuSans-6e" transform="translate(27.783203 0)"/>
     <use xlink:href="#DejaVuSans-6c" transform="translate(91.162109 0)"/>
     <use xlink:href="#DejaVuSans-65" transform="translate(118.945312 0)"/>
     <use xlink:href="#DejaVuSans-74" transform="translate(180.46875 0)"/>
     <use xlink:href="#DejaVuSans-20" transform="translate(219.677734 0)"/>
     <use xlink:href="#DejaVuSans-28" transform="translate(251.464844 0)"/>
     <use xlink:href="#DejaVuSans-6c" transform="translate(290.478516 0)"/>
     <use xlink:href="#DejaVuSans-6f" transform="translate(318.261719 0)"/>
     <use xlink:href="#DejaVuSans-67" transform="translate(379.443359 0)"/>
     <use xlink:href="#DejaVuSans-2d" transform="translate(442.919922 0)"/>
     <use xlink:href="#DejaVuSans-6c" transform="translate(479.003906 0)"/>
     <use xlink:href="#DejaVuSans-61" transform="translate(506.787109 0)"/>
     <use xlink:href="#DejaVuSans-77" transform="translate(568.066406 0)"/>
     <use xlink:href="#DejaVuSans-29" transform="translate(649.853516 0)"/>
    </g>
   </g>
   <g id="text_5">
    <!-- roof exchange plane -->
    <g style="fill: #ff8c00" transform="translate(118.520985 72.818127) scale(0.095 -0.095)">
     <defs>
      <path id="DejaVuSans-78" d="M 3513 3500 
L 2247 1797 
L 3578 0 
L 2900 0 
L 1881 1375 
L 863 0 
L 184 0 
L 1544 1831 
L 300 3500 
L 978 3500 
L 1906 2253 
L 2834 3500 
L 3513 3500 
z
" transform="scale(0.015625)"/>
      <path id="DejaVuSans-63" d="M 3122 3366 
L 3122 2828 
Q 2878 2963 2633 3030 
Q 2388 3097 2138 3097 
Q 1578 3097 1268 2742 
Q 959 2388 959 1747 
Q 959 1106 1268 751 
Q 1578 397 2138 397 
Q 2388 397 2633 464 
Q 2878 531 3122 666 
L 3122 134 
Q 2881 22 2623 -34 
Q 2366 -91 2075 -91 
Q 1284 -91 818 406 
Q 353 903 353 1747 
Q 353 2603 823 3093 
Q 1294 3584 2113 3584 
Q 2378 3584 2631 3529 
Q 2884 3475 3122 3366 
z
" transform="scale(0.015625)"/>
      <path id="DejaVuSans-68" d="M 3513 2113 
L 3513 0 
L 2938 0 
L 2938 2094 
Q 2938 2591 2744 2837 
Q 2550 3084 2163 3084 
Q 1697 3084 1428 2787 
Q 1159 2491 1159 1978 
L 1159 0 
L 581 0 
L 581 4863 
L 1159 4863 
L 1159 2956 
Q 1366 3272 1645 3428 
Q 1925 3584 2291 3584 
Q 2894 3584 3203 3211 
Q 3513 2838 3513 2113 
z
" transform="scale(0.015625)"/>
     </defs>
     <use xlink:href="#DejaVuSans-72"/>
     <use xlink:href="#DejaVuSans-6f" transform="translate(38.863281 0)"/>
     <use xlink:href="#DejaVuSans-6f" transform="translate(100.044922 0)"/>
     <use xlink:href="#DejaVuSans-66" transform="translate(161.226562 0)"/>
     <use xlink:href="#DejaVuSans-20" transform="translate(196.431641 0)"/>
     <use xlink:href="#DejaVuSans-65" transform="translate(228.21875 0)"/>
     <use xlink:href="#DejaVuSans-78" transform="translate(287.992188 0)"/>
     <use xlink:href="#DejaVuSans-63" transform="translate(345.421875 0)"/>
     <use xlink:href="#DejaVuSans-68" transform="translate(400.402344 0)"/>
     <use xlink:href="#DejaVuSans-61" transform="translate(463.78125 0)"/>
     <use xlink:href="#DejaVuSans-6e" transform="translate(525.060547 0)"/>
     <use xlink:href="#DejaVuSans-67" transform="translate(588.439453 0)"/>
     <use xlink:href="#DejaVuSans-65" transform="translate(651.916016 0)"/>
     <use xlink:href="#DejaVuSans-20" transform="translate(713.439453 0)"/>
     <use xlink:href="#DejaVuSans-70" transform="translate(745.226562 0)"/>
     <use xlink:href="#DejaVuSans-6c" transform="translate(808.703125 0)"/>
     <use xlink:href="#DejaVuSans-61" transform="translate(836.486328 0)"/>
     <use xlink:href="#DejaVuSans-6e" transform="translate(897.765625 0)"/>
     <use xlink:href="#DejaVuSans-65" transform="translate(961.144531 0)"/>
    </g>
   </g>
   <g id="patch_13">
    <path d="M 182.715719 111.434601 
Q 183.273607 111.713544 182.031495 111.092488 
" style="fill: none; stroke: #1f77b4; stroke-width: 1.8; stroke-linecap: round"/>
    <path d="M 179.348213 107.514779 
L 182.031495 111.092488 
L 177.559359 111.092488 
z
" style="fill: #1f77b4; stroke: #1f77b4; stroke-width: 1.8; stroke-linecap: round"/>
   </g>
   <g id="patch_14">
    <path d="M 191.489255 128.578168 
Q 167.098946 128.578168 142.708637 128.578168 
" style="fill: none; stroke: #000000; stroke-width: 1.1; stroke-linecap: round"/>
    <path d="M 187.489255 126.578168 
L 191.489255 128.578168 
L 187.489255 130.578168 
" style="fill: none; stroke: #000000; stroke-width: 1.1; stroke-linecap: round"/>
    <path d="M 146.708637 130.578168 
L 142.708637 128.578168 
L 146.708637 126.578168 
" style="fill: none; stroke: #000000; stroke-width: 1.1; stroke-linecap: round"/>
   </g>
   <g id="patch_15">
    <path d="M 272.487613 83.112069 
Q 272.487613 116.223959 272.487613 149.335849 
" style="fill: none; stroke: #000000; stroke-width: 1.1; stroke-linecap: round"/>
    <path d="M 270.487613 87.112069 
L 272.487613 83.112069 
L 274.487613 87.112069 
" style="fill: none; stroke: #000000; stroke-width: 1.1; stroke-linecap: round"/>
    <path d="M 274.487613 145.335849 
L 272.487613 149.335849 
L 270.487613 145.335849 
" style="fill: none; stroke: #000000; stroke-width: 1.1; stroke-linecap: round"/>
   </g>
   <g id="text_6">
    <!-- H -->
    <g transform="translate(276.848505 119.533557) scale(0.12 -0.12)">
     <defs>
      <path id="DejaVuSans-48" d="M 628 4666 
L 1259 4666 
L 1259 2753 
L 3553 2753 
L 3553 4666 
L 4184 4666 
L 4184 0 
L 3553 0 
L 3553 2222 
L 1259 2222 
L 1259 0 
L 628 0 
L 628 4666 
z
" transform="scale(0.015625)"/>
     </defs>
     <use xlink:href="#DejaVuSans-48"/>
    </g>
   </g>
   <g id="line2d_5">
    <defs>
     <path id="m944b2e5c8b" d="M 0 2.5 
C 0.663008 2.5 1.29895 2.236584 1.767767 1.767767 
C 2.236584 1.29895 2.5 0.663008 2.5 0 
C 2.5 -0.663008 2.236584 -1.29895 1.767767 -1.767767 
C 1.29895 -2.236584 0.663008 -2.5 0 -2.5 
C -0.663008 -2.5 -1.29895 -2.236584 -1.767767 -1.767767 
C -2.236584 -1.29895 -2.5 -0.663008 -2.5 0 
C -2.5 0.663008 -2.236584 1.29895 -1.767767 1.767767 
C -1.29895 2.236584 -0.663008 2.5 0 2.5 
z
" style="stroke: #b22222"/>
    </defs>
    <g clip-path="url(#p7a649fcf39)">
     <use xlink:href="#m944b2e5c8b" x="141.660845" y="150.019222" style="fill: #b22222; stroke: #b22222"/>
     <use xlink:href="#m944b2e5c8b" x="148.928999" y="150.019222" style="fill: #b22222; stroke: #b22222"/>
     <use xlink:href="#m944b2e5c8b" x="156.197152" y="150.019222" style="fill: #b22222; stroke: #b22222"/>
     <use xlink:href="#m944b2e5c8b" x="163.465306" y="150.019222" style="fill: #b22222; stroke: #b22222"/>
     <use xlink:href="#m944b2e5c8b" x="170.73346" y="150.019222" style="fill: #b22222; stroke: #b22222"/>
     <use xlink:href="#m944b2e5c8b" x="178.001614" y="150.019222" style="fill: #b22222; stroke: #b22222"/>
     <use xlink:href="#m944b2e5c8b" x="185.269767" y="150.019222" style="fill: #b22222; stroke: #b22222"/>
     <use xlink:href="#m944b2e5c8b" x="192.537921" y="150.019222" style="fill: #b22222; stroke: #b22222"/>
    </g>
   </g>
   <g id="text_7">
    <g id="patch_16">
     <path d="M 159.726883 135.825043 
L 174.471883 135.825043 
L 174.471883 121.331293 
L 159.726883 121.331293 
z
" style="fill: #ffffff"/>
    </g>
    <!-- W -->
    <g transform="translate(161.166883 131.889418) scale(0.12 -0.12)">
     <defs>
      <path id="DejaVuSans-57" d="M 213 4666 
L 850 4666 
L 1831 722 
L 2809 4666 
L 3519 4666 
L 4500 722 
L 5478 4666 
L 6119 4666 
L 4947 0 
L 4153 0 
L 3169 4050 
L 2175 0 
L 1381 0 
L 213 4666 
z
" transform="scale(0.015625)"/>
     </defs>
     <use xlink:href="#DejaVuSans-57"/>
    </g>
   </g>
   <g id="text_8">
    <!-- street-level source -->
    <g style="fill: #ffffff" transform="translate(122.918446 159.690737) scale(0.095 -0.095)">
     <defs>
      <path id="DejaVuSans-76" d="M 191 3500 
L 800 3500 
L 1894 563 
L 2988 3500 
L 3597 3500 
L 2284 0 
L 1503 0 
L 191 3500 
z
" transform="scale(0.015625)"/>
      <path id="DejaVuSans-75" d="M 544 1381 
L 544 3500 
L 1119 3500 
L 1119 1403 
Q 1119 906 1312 657 
Q 1506 409 1894 409 
Q 2359 409 2629 706 
Q 2900 1003 2900 1516 
L 2900 3500 
L 3475 3500 
L 3475 0 
L 2900 0 
L 2900 538 
Q 2691 219 2414 64 
Q 2138 -91 1772 -91 
Q 1169 -91 856 284 
Q 544 659 544 1381 
z
M 1991 3584 
L 1991 3584 
z
" transform="scale(0.015625)"/>
     </defs>
     <use xlink:href="#DejaVuSans-73"/>
     <use xlink:href="#DejaVuSans-74" transform="translate(52.099609 0)"/>
     <use xlink:href="#DejaVuSans-72" transform="translate(91.308594 0)"/>
     <use xlink:href="#DejaVuSans-65" transform="translate(130.171875 0)"/>
     <use xlink:href="#DejaVuSans-65" transform="translate(191.695312 0)"/>
     <use xlink:href="#DejaVuSans-74" transform="translate(253.21875 0)"/>
     <use xlink:href="#DejaVuSans-2d" transform="translate(292.427734 0)"/>
     <use xlink:href="#DejaVuSans-6c" transform="translate(328.511719 0)"/>
     <use xlink:href="#DejaVuSans-65" transform="translate(356.294922 0)"/>
     <use xlink:href="#DejaVuSans-76" transform="translate(417.818359 0)"/>
     <use xlink:href="#DejaVuSans-65" transform="translate(476.998047 0)"/>
     <use xlink:href="#DejaVuSans-6c" transform="translate(538.521484 0)"/>
     <use xlink:href="#DejaVuSans-20" transform="translate(566.304688 0)"/>
     <use xlink:href="#DejaVuSans-73" transform="translate(598.091797 0)"/>
     <use xlink:href="#DejaVuSans-6f" transform="translate(650.191406 0)"/>
     <use xlink:href="#DejaVuSans-75" transform="translate(711.373047 0)"/>
     <use xlink:href="#DejaVuSans-72" transform="translate(774.751953 0)"/>
     <use xlink:href="#DejaVuSans-63" transform="translate(813.615234 0)"/>
     <use xlink:href="#DejaVuSans-65" transform="translate(868.595703 0)"/>
    </g>
   </g>
  </g>
  <g id="axes_2">
   <g id="patch_17">
    <path d="M 467.398198 91.470383 
Q 447.408413 111.460168 428.841653 130.026928 
" style="fill: none; stroke: #1f77b4; stroke-width: 1.8; stroke-linecap: round"/>
    <path d="M 433.084294 128.612715 
L 428.841653 130.026928 
L 430.255866 125.784287 
z
" style="fill: #1f77b4; stroke: #1f77b4; stroke-width: 1.8; stroke-linecap: round"/>
   </g>
   <g id="patch_18">
    <path d="M 466.812971 90.056953 
Q 447.408428 90.056953 430.016346 90.056953 
" style="fill: none; stroke: #1f77b4; stroke-width: 1.8; stroke-linecap: round"/>
    <path d="M 434.016346 92.056953 
L 430.016346 90.056953 
L 434.016346 88.056953 
z
" style="fill: #1f77b4; stroke: #1f77b4; stroke-width: 1.8; stroke-linecap: round"/>
   </g>
   <g id="patch_19">
    <path d="M 467.398198 88.643523 
Q 447.408413 68.653738 428.841653 50.086978 
" style="fill: none; stroke: #1f77b4; stroke-width: 1.8; stroke-linecap: round"/>
    <path d="M 430.255866 54.329619 
L 428.841653 50.086978 
L 433.084294 51.501191 
z
" style="fill: #1f77b4; stroke: #1f77b4; stroke-width: 1.8; stroke-linecap: round"/>
   </g>
   <g id="patch_20">
    <path d="M 468.811628 92.05561 
Q 468.811628 111.460153 468.811628 128.852235 
" style="fill: none; stroke: #1f77b4; stroke-width: 1.8; stroke-linecap: round"/>
    <path d="M 470.811628 124.852235 
L 468.811628 128.852235 
L 466.811628 124.852235 
z
" style="fill: #1f77b4; stroke: #1f77b4; stroke-width: 1.8; stroke-linecap: round"/>
   </g>
   <g id="patch_21">
    <path d="M 468.811628 88.058296 
Q 468.811628 68.653753 468.811628 51.261671 
" style="fill: none; stroke: #1f77b4; stroke-width: 1.8; stroke-linecap: round"/>
    <path d="M 466.811628 55.261671 
L 468.811628 51.261671 
L 470.811628 55.261671 
z
" style="fill: #1f77b4; stroke: #1f77b4; stroke-width: 1.8; stroke-linecap: round"/>
   </g>
   <g id="patch_22">
    <path d="M 470.225058 91.470383 
Q 490.214843 111.460168 508.781603 130.026928 
" style="fill: none; stroke: #1f77b4; stroke-width: 1.8; stroke-linecap: round"/>
    <path d="M 507.367389 125.784287 
L 508.781603 130.026928 
L 504.538962 128.612715 
z
" style="fill: #1f77b4; stroke: #1f77b4; stroke-width: 1.8; stroke-linecap: round"/>
   </g>
   <g id="patch_23">
    <path d="M 470.810285 90.056953 
Q 490.214828 90.056953 507.606909 90.056953 
" style="fill: none; stroke: #1f77b4; stroke-width: 1.8; stroke-linecap: round"/>
    <path d="M 503.606909 88.056953 
L 507.606909 90.056953 
L 503.606909 92.056953 
z
" style="fill: #1f77b4; stroke: #1f77b4; stroke-width: 1.8; stroke-linecap: round"/>
   </g>
   <g id="patch_24">
    <path d="M 470.225058 88.643523 
Q 490.214843 68.653738 508.781603 50.086978 
" style="fill: none; stroke: #1f77b4; stroke-width: 1.8; stroke-linecap: round"/>
    <path d="M 504.538962 51.501191 
L 508.781603 50.086978 
L 507.367389 54.329619 
z
" style="fill: #1f77b4; stroke: #1f77b4; stroke-width: 1.8; stroke-linecap: round"/>
   </g>
   <g id="line2d_6">
    <defs>
     <path id="mfdb49efd33" d="M 0 4.5 
C 1.193414 4.5 2.338109 4.025852 3.181981 3.181981 
C 4.025852 2.338109 4.5 1.193414 4.5 0 
C 4.5 -1.193414 4.025852 -2.338109 3.181981 -3.181981 
C 2.338109 -4.025852 1.193414 -4.5 0 -4.5 
C -1.193414 -4.5 -2.338109 -4.025852 -3.181981 -3.181981 
C -4.025852 -2.338109 -4.5 -1.193414 -4.5 0 
C -4.5 1.193414 -4.025852 2.338109 -3.181981 3.181981 
C -2.338109 4.025852 -1.193414 4.5 0 4.5 
z
" style="stroke: #000000"/>
    </defs>
    <g clip-path="url(#pf5710e7d04)">
     <use xlink:href="#mfdb49efd33" x="468.811628" y="90.056953" style="stroke: #000000"/>
    </g>
   </g>
   <g id="text_9">
    <!-- (b) -->
    <g transform="translate(469.667733 35.106499) scale(0.15 -0.15)">
     <defs>
      <path id="DejaVuSans-Bold-62" d="M 2400 722 
Q 2759 722 2948 984 
Q 3138 1247 3138 1747 
Q 3138 2247 2948 2509 
Q 2759 2772 2400 2772 
Q 2041 2772 1848 2508 
Q 1656 2244 1656 1747 
Q 1656 1250 1848 986 
Q 2041 722 2400 722 
z
M 1656 2988 
Q 1888 3294 2169 3439 
Q 2450 3584 2816 3584 
Q 3463 3584 3878 3070 
Q 4294 2556 4294 1747 
Q 4294 938 3878 423 
Q 3463 -91 2816 -91 
Q 2450 -91 2169 54 
Q 1888 200 1656 506 
L 1656 0 
L 538 0 
L 538 4863 
L 1656 4863 
L 1656 2988 
z
" transform="scale(0.015625)"/>
     </defs>
     <use xlink:href="#DejaVuSans-Bold-28"/>
     <use xlink:href="#DejaVuSans-Bold-62" transform="translate(45.703125 0)"/>
     <use xlink:href="#DejaVuSans-Bold-29" transform="translate(117.285156 0)"/>
    </g>
   </g>
   <g id="text_10">
    <!-- D2Q9 lattice -->
    <g transform="translate(435.919558 164.383423) scale(0.105 -0.105)">
     <defs>
      <path id="DejaVuSans-44" d="M 1259 4147 
L 1259 519 
L 2022 519 
Q 2988 519 3436 956 
Q 3884 1394 3884 2338 
Q 3884 3275 3436 3711 
Q 2988 4147 2022 4147 
L 1259 4147 
z
M 628 4666 
L 1925 4666 
Q 3281 4666 3915 4102 
Q 4550 3538 4550 2338 
Q 4550 1131 3912 565 
Q 3275 0 1925 0 
L 628 0 
L 628 4666 
z
" transform="scale(0.015625)"/>
      <path id="DejaVuSans-32" d="M 1228 531 
L 3431 531 
L 3431 0 
L 469 0 
L 469 531 
Q 828 903 1448 1529 
Q 2069 2156 2228 2338 
Q 2531 2678 2651 2914 
Q 2772 3150 2772 3378 
Q 2772 3750 2511 3984 
Q 2250 4219 1831 4219 
Q 1534 4219 1204 4116 
Q 875 4013 500 3803 
L 500 4441 
Q 881 4594 1212 4672 
Q 1544 4750 1819 4750 
Q 2544 4750 2975 4387 
Q 3406 4025 3406 3419 
Q 3406 3131 3298 2873 
Q 3191 2616 2906 2266 
Q 2828 2175 2409 1742 
Q 1991 1309 1228 531 
z
" transform="scale(0.015625)"/>
      <path id="DejaVuSans-51" d="M 2522 4238 
Q 1834 4238 1429 3725 
Q 1025 3213 1025 2328 
Q 1025 1447 1429 934 
Q 1834 422 2522 422 
Q 3209 422 3611 934 
Q 4013 1447 4013 2328 
Q 4013 3213 3611 3725 
Q 3209 4238 2522 4238 
z
M 3406 84 
L 4238 -825 
L 3475 -825 
L 2784 -78 
Q 2681 -84 2626 -87 
Q 2572 -91 2522 -91 
Q 1538 -91 948 567 
Q 359 1225 359 2328 
Q 359 3434 948 4092 
Q 1538 4750 2522 4750 
Q 3503 4750 4090 4092 
Q 4678 3434 4678 2328 
Q 4678 1516 4351 937 
Q 4025 359 3406 84 
z
" transform="scale(0.015625)"/>
      <path id="DejaVuSans-39" d="M 703 97 
L 703 672 
Q 941 559 1184 500 
Q 1428 441 1663 441 
Q 2288 441 2617 861 
Q 2947 1281 2994 2138 
Q 2813 1869 2534 1725 
Q 2256 1581 1919 1581 
Q 1219 1581 811 2004 
Q 403 2428 403 3163 
Q 403 3881 828 4315 
Q 1253 4750 1959 4750 
Q 2769 4750 3195 4129 
Q 3622 3509 3622 2328 
Q 3622 1225 3098 567 
Q 2575 -91 1691 -91 
Q 1453 -91 1209 -44 
Q 966 3 703 97 
z
M 1959 2075 
Q 2384 2075 2632 2365 
Q 2881 2656 2881 3163 
Q 2881 3666 2632 3958 
Q 2384 4250 1959 4250 
Q 1534 4250 1286 3958 
Q 1038 3666 1038 3163 
Q 1038 2656 1286 2365 
Q 1534 2075 1959 2075 
z
" transform="scale(0.015625)"/>
     </defs>
     <use xlink:href="#DejaVuSans-44"/>
     <use xlink:href="#DejaVuSans-32" transform="translate(77.001953 0)"/>
     <use xlink:href="#DejaVuSans-51" transform="translate(140.625 0)"/>
     <use xlink:href="#DejaVuSans-39" transform="translate(219.335938 0)"/>
     <use xlink:href="#DejaVuSans-20" transform="translate(282.958984 0)"/>
     <use xlink:href="#DejaVuSans-6c" transform="translate(314.746094 0)"/>
     <use xlink:href="#DejaVuSans-61" transform="translate(342.529297 0)"/>
     <use xlink:href="#DejaVuSans-74" transform="translate(403.808594 0)"/>
     <use xlink:href="#DejaVuSans-74" transform="translate(443.017578 0)"/>
     <use xlink:href="#DejaVuSans-69" transform="translate(482.226562 0)"/>
     <use xlink:href="#DejaVuSans-63" transform="translate(510.009766 0)"/>
     <use xlink:href="#DejaVuSans-65" transform="translate(564.990234 0)"/>
    </g>
   </g>
  </g>
 </g>
 <defs>
  <clipPath id="p7a649fcf39">
   <rect x="7.2" y="7.2" width="356.139535" height="165.713906"/>
  </clipPath>
  <clipPath id="pf5710e7d04">
   <rect x="400.323256" y="15.147796" width="136.976744" height="149.818314"/>
  </clipPath>
 </defs>
</svg>
