<?xml version="1.0" encoding="utf-8" standalone="no"?>
<!DOCTYPE svg PUBLIC "-//W3C//DTD SVG 1.1//EN"
  "http://www.w3.org/Graphics/SVG/1.1/DTD/svg11.dtd">
<svg xmlns:xlink="http://www.w3.org/1999/xlink" width="628.2pt" height="214.136499pt" viewBox="0 0 628.2 214.136499" xmlns="http://www.w3.org/2000/svg" version="1.1">
 <metadata>
  <rdf:RDF xmlns:dc="http://purl.org/dc/elements/1.1/" xmlns:cc="http://creativecommons.org/ns#" xmlns:rdf="http://www.w3.org/1999/02/22-rdf-syntax-ns#">
   <cc:Work>
    <dc:type rdf:resource="http://purl.org/dc/dcmitype/StillImage"/>
    <dc:date>2026-07-14T11:48:16.628779</dc:date>
    <dc:format>image/svg+xml</dc:format>
    <dc:creator>
     <cc:Agent>
      <dc:title>Matplotlib v3.10.9, https://matplotlib.org/</dc:title>
     </cc:Agent>
    </dc:creator>
   </cc:Work>
  </rdf:RDF>
 </metadata>
 <defs>
  <style type="text/css">*{stroke-linejoin: round; stroke-linecap: butt}</style>
 </defs>
 <g id="figure_1">
  <g id="patch_1">
   <path d="M 0 214.136499 
L 628.2 214.136499 
L 628.2 0 
L 0 0 
z
" style="fill: #ffffff"/>
  </g>
  <g id="axes_1">
   <g id="patch_2">
    <path d="M 7.2 161.387234 
L 205.2 161.387234 
L 205.2 154.646809 
L 7.2 154.646809 
z
" clip-path="url(#pf64018d9ed)" style="fill: #6b4a30; stroke: #6b4a30; stroke-linejoin: miter"/>
   </g>
   <g id="patch_3">
    <path d="M 36.689362 154.646809 
L 83.029787 154.646809 
L 83.029787 70.391489 
L 36.689362 70.391489 
z
" clip-path="url(#pf64018d9ed)" style="fill: #b7c4d9; stroke: #000000; stroke-linejoin: miter"/>
   </g>
   <g id="patch_4">
    <path d="M 129.370213 154.646809 
L 175.710638 154.646809 
L 175.710638 70.391489 
L 129.370213 70.391489 
z
" clip-path="url(#pf64018d9ed)" style="fill: #b7c4d9; stroke: #000000; stroke-linejoin: miter"/>
   </g>
   <g id="line2d_1">
    <defs>
     <path id="md64ae2ebd1" d="M 4.5 0 
L -4.5 -4.5 
L -4.5 4.5 
z
" style="stroke: #1f77b4; stroke-linejoin: miter"/>
    </defs>
    <g clip-path="url(#pf64018d9ed)">
     <use xlink:href="#md64ae2ebd1" x="19.838298" y="45.114894" style="fill: #1f77b4; stroke: #1f77b4; stroke-linejoin: miter"/>
    </g>
   </g>
   <g id="line2d_2">
    <g clip-path="url(#pf64018d9ed)">
     <use xlink:href="#md64ae2ebd1" x="63.019149" y="45.114894" style="fill: #1f77b4; stroke: #1f77b4; stroke-linejoin: miter"/>
    </g>
   </g>
   <g id="line2d_3">
    <g clip-path="url(#pf64018d9ed)">
     <use xlink:href="#md64ae2ebd1" x="106.2" y="45.114894" style="fill: #1f77b4; stroke: #1f77b4; stroke-linejoin: miter"/>
    </g>
   </g>
   <g id="line2d_4">
    <g clip-path="url(#pf64018d9ed)">
     <use xlink:href="#md64ae2ebd1" x="149.380851" y="45.114894" style="fill: #1f77b4; stroke: #1f77b4; stroke-linejoin: miter"/>
    </g>
   </g>
   <g id="line2d_5">
    <g clip-path="url(#pf64018d9ed)">
     <use xlink:href="#md64ae2ebd1" x="192.561702" y="45.114894" style="fill: #1f77b4; stroke: #1f77b4; stroke-linejoin: miter"/>
    </g>
   </g>
   <g id="patch_5">
    <path d="M 91.034043 65.654956 
Q 91.034043 102.832109 91.034043 137.996802 
" style="fill: none; stroke: #1f77b4; stroke-width: 1.8; stroke-linecap: round"/>
    <path d="M 93.034043 133.996802 
L 91.034043 137.996802 
L 89.034043 133.996802 
z
" style="fill: #1f77b4; stroke: #1f77b4; stroke-width: 1.8; stroke-linecap: round"/>
   </g>
   <g id="patch_6">
    <path d="M 121.365957 65.654956 
Q 121.365957 102.832109 121.365957 137.996802 
" style="fill: none; stroke: #1f77b4; stroke-width: 1.8; stroke-linecap: round"/>
    <path d="M 123.365957 133.996802 
L 121.365957 137.996802 
L 119.365957 133.996802 
z
" style="fill: #1f77b4; stroke: #1f77b4; stroke-width: 1.8; stroke-linecap: round"/>
   </g>
   <g id="patch_7">
    <path d="M 26.578723 73.619202 
Q 26.578723 112.517733 26.578723 151.416264 
" style="fill: none; stroke: #000000; stroke-width: 1.1; stroke-linecap: round"/>
    <path d="M 24.578723 77.619202 
L 26.578723 73.619202 
L 28.578723 77.619202 
" style="fill: none; stroke: #000000; stroke-width: 1.1; stroke-linecap: round"/>
    <path d="M 28.578723 147.416264 
L 26.578723 151.416264 
L 24.578723 147.416264 
" style="fill: none; stroke: #000000; stroke-width: 1.1; stroke-linecap: round"/>
   </g>
   <g id="text_1">
    <!-- H -->
    <g transform="translate(13.251061 115.554461) scale(0.11 -0.11)">
     <defs>
      <path id="DejaVuSans-48" d="M 628 4666 
L 1259 4666 
L 1259 2753 
L 3553 2753 
L 3553 4666 
L 4184 4666 
L 4184 0 
L 3553 0 
L 3553 2222 
L 1259 2222 
L 1259 0 
L 628 0 
L 628 4666 
z
" transform="scale(0.015625)"/>
     </defs>
     <use xlink:href="#DejaVuSans-48"/>
    </g>
   </g>
   <g id="patch_8">
    <path d="M 121.588153 126 
Q 106.19964 126 90.811128 126 
" style="fill: none; stroke: #1f77b4; stroke-width: 1.4; stroke-linecap: round"/>
    <path d="M 117.588153 124 
L 121.588153 126 
L 117.588153 128 
" style="fill: none; stroke: #1f77b4; stroke-width: 1.4; stroke-linecap: round"/>
    <path d="M 94.811128 128 
L 90.811128 126 
L 94.811128 124 
" style="fill: none; stroke: #1f77b4; stroke-width: 1.4; stroke-linecap: round"/>
   </g>
   <g id="text_2">
    <!-- W -->
    <g style="fill: #1f77b4" transform="translate(100.761875 116.129365) scale(0.11 -0.11)">
     <defs>
      <path id="DejaVuSans-57" d="M 213 4666 
L 850 4666 
L 1831 722 
L 2809 4666 
L 3519 4666 
L 4500 722 
L 5478 4666 
L 6119 4666 
L 4947 0 
L 4153 0 
L 3169 4050 
L 2175 0 
L 1381 0 
L 213 4666 
z
" transform="scale(0.015625)"/>
     </defs>
     <use xlink:href="#DejaVuSans-57"/>
    </g>
   </g>
   <g id="text_3">
    <!-- (a) -->
    <g transform="translate(10.570213 19.522919) scale(0.14 -0.14)">
     <defs>
      <path id="DejaVuSans-Bold-28" d="M 2413 -844 
L 1484 -844 
Q 1006 -72 778 623 
Q 550 1319 550 2003 
Q 550 2688 779 3389 
Q 1009 4091 1484 4856 
L 2413 4856 
Q 2013 4116 1813 3408 
Q 1613 2700 1613 2009 
Q 1613 1319 1811 609 
Q 2009 -100 2413 -844 
z
" transform="scale(0.015625)"/>
      <path id="DejaVuSans-Bold-61" d="M 2106 1575 
Q 1756 1575 1579 1456 
Q 1403 1338 1403 1106 
Q 1403 894 1545 773 
Q 1688 653 1941 653 
Q 2256 653 2472 879 
Q 2688 1106 2688 1447 
L 2688 1575 
L 2106 1575 
z
M 3816 1997 
L 3816 0 
L 2688 0 
L 2688 519 
Q 2463 200 2181 54 
Q 1900 -91 1497 -91 
Q 953 -91 614 226 
Q 275 544 275 1050 
Q 275 1666 698 1953 
Q 1122 2241 2028 2241 
L 2688 2241 
L 2688 2328 
Q 2688 2594 2478 2717 
Q 2269 2841 1825 2841 
Q 1466 2841 1156 2769 
Q 847 2697 581 2553 
L 581 3406 
Q 941 3494 1303 3539 
Q 1666 3584 2028 3584 
Q 2975 3584 3395 3211 
Q 3816 2838 3816 1997 
z
" transform="scale(0.015625)"/>
      <path id="DejaVuSans-Bold-29" d="M 513 -844 
Q 913 -100 1113 609 
Q 1313 1319 1313 2009 
Q 1313 2700 1113 3408 
Q 913 4116 513 4856 
L 1441 4856 
Q 1916 4091 2145 3389 
Q 2375 2688 2375 2003 
Q 2375 1319 2147 623 
Q 1919 -72 1441 -844 
L 513 -844 
z
" transform="scale(0.015625)"/>
     </defs>
     <use xlink:href="#DejaVuSans-Bold-28"/>
     <use xlink:href="#DejaVuSans-Bold-61" transform="translate(45.703125 0)"/>
     <use xlink:href="#DejaVuSans-Bold-29" transform="translate(113.183594 0)"/>
    </g>
   </g>
   <g id="text_4">
    <!-- Isolated roughness -->
    <g transform="translate(36.050781 189.801373) scale(0.13 -0.13)">
     <defs>
      <path id="DejaVuSans-Bold-49" d="M 588 4666 
L 1791 4666 
L 1791 0 
L 588 0 
L 588 4666 
z
" transform="scale(0.015625)"/>
      <path id="DejaVuSans-Bold-73" d="M 3272 3391 
L 3272 2541 
Q 2913 2691 2578 2766 
Q 2244 2841 1947 2841 
Q 1628 2841 1473 2761 
Q 1319 2681 1319 2516 
Q 1319 2381 1436 2309 
Q 1553 2238 1856 2203 
L 2053 2175 
Q 2913 2066 3209 1816 
Q 3506 1566 3506 1031 
Q 3506 472 3093 190 
Q 2681 -91 1863 -91 
Q 1516 -91 1145 -36 
Q 775 19 384 128 
L 384 978 
Q 719 816 1070 734 
Q 1422 653 1784 653 
Q 2113 653 2278 743 
Q 2444 834 2444 1013 
Q 2444 1163 2330 1236 
Q 2216 1309 1875 1350 
L 1678 1375 
Q 931 1469 631 1722 
Q 331 1975 331 2491 
Q 331 3047 712 3315 
Q 1094 3584 1881 3584 
Q 2191 3584 2531 3537 
Q 2872 3491 3272 3391 
z
" transform="scale(0.015625)"/>
      <path id="DejaVuSans-Bold-6f" d="M 2203 2784 
Q 1831 2784 1636 2517 
Q 1441 2250 1441 1747 
Q 1441 1244 1636 976 
Q 1831 709 2203 709 
Q 2569 709 2762 976 
Q 2956 1244 2956 1747 
Q 2956 2250 2762 2517 
Q 2569 2784 2203 2784 
z
M 2203 3584 
Q 3106 3584 3614 3096 
Q 4122 2609 4122 1747 
Q 4122 884 3614 396 
Q 3106 -91 2203 -91 
Q 1297 -91 786 396 
Q 275 884 275 1747 
Q 275 2609 786 3096 
Q 1297 3584 2203 3584 
z
" transform="scale(0.015625)"/>
      <path id="DejaVuSans-Bold-6c" d="M 538 4863 
L 1656 4863 
L 1656 0 
L 538 0 
L 538 4863 
z
" transform="scale(0.015625)"/>
      <path id="DejaVuSans-Bold-74" d="M 1759 4494 
L 1759 3500 
L 2913 3500 
L 2913 2700 
L 1759 2700 
L 1759 1216 
Q 1759 972 1856 886 
Q 1953 800 2241 800 
L 2816 800 
L 2816 0 
L 1856 0 
Q 1194 0 917 276 
Q 641 553 641 1216 
L 641 2700 
L 84 2700 
L 84 3500 
L 641 3500 
L 641 4494 
L 1759 4494 
z
" transform="scale(0.015625)"/>
      <path id="DejaVuSans-Bold-65" d="M 4031 1759 
L 4031 1441 
L 1416 1441 
Q 1456 1047 1700 850 
Q 1944 653 2381 653 
Q 2734 653 3104 758 
Q 3475 863 3866 1075 
L 3866 213 
Q 3469 63 3072 -14 
Q 2675 -91 2278 -91 
Q 1328 -91 801 392 
Q 275 875 275 1747 
Q 275 2603 792 3093 
Q 1309 3584 2216 3584 
Q 3041 3584 3536 3087 
Q 4031 2591 4031 1759 
z
M 2881 2131 
Q 2881 2450 2695 2645 
Q 2509 2841 2209 2841 
Q 1884 2841 1681 2658 
Q 1478 2475 1428 2131 
L 2881 2131 
z
" transform="scale(0.015625)"/>
      <path id="DejaVuSans-Bold-64" d="M 2919 2988 
L 2919 4863 
L 4044 4863 
L 4044 0 
L 2919 0 
L 2919 506 
Q 2688 197 2409 53 
Q 2131 -91 1766 -91 
Q 1119 -91 703 423 
Q 288 938 288 1747 
Q 288 2556 703 3070 
Q 1119 3584 1766 3584 
Q 2128 3584 2408 3439 
Q 2688 3294 2919 2988 
z
M 2181 722 
Q 2541 722 2730 984 
Q 2919 1247 2919 1747 
Q 2919 2247 2730 2509 
Q 2541 2772 2181 2772 
Q 1825 2772 1636 2509 
Q 1447 2247 1447 1747 
Q 1447 1247 1636 984 
Q 1825 722 2181 722 
z
" transform="scale(0.015625)"/>
      <path id="DejaVuSans-Bold-20" transform="scale(0.015625)"/>
      <path id="DejaVuSans-Bold-72" d="M 3138 2547 
Q 2991 2616 2845 2648 
Q 2700 2681 2553 2681 
Q 2122 2681 1889 2404 
Q 1656 2128 1656 1613 
L 1656 0 
L 538 0 
L 538 3500 
L 1656 3500 
L 1656 2925 
Q 1872 3269 2151 3426 
Q 2431 3584 2822 3584 
Q 2878 3584 2943 3579 
Q 3009 3575 3134 3559 
L 3138 2547 
z
" transform="scale(0.015625)"/>
      <path id="DejaVuSans-Bold-75" d="M 500 1363 
L 500 3500 
L 1625 3500 
L 1625 3150 
Q 1625 2866 1622 2436 
Q 1619 2006 1619 1863 
Q 1619 1441 1641 1255 
Q 1663 1069 1716 984 
Q 1784 875 1895 815 
Q 2006 756 2150 756 
Q 2500 756 2700 1025 
Q 2900 1294 2900 1772 
L 2900 3500 
L 4019 3500 
L 4019 0 
L 2900 0 
L 2900 506 
Q 2647 200 2364 54 
Q 2081 -91 1741 -91 
Q 1134 -91 817 281 
Q 500 653 500 1363 
z
" transform="scale(0.015625)"/>
      <path id="DejaVuSans-Bold-67" d="M 2919 594 
Q 2688 288 2409 144 
Q 2131 0 1766 0 
Q 1125 0 706 504 
Q 288 1009 288 1791 
Q 288 2575 706 3076 
Q 1125 3578 1766 3578 
Q 2131 3578 2409 3434 
Q 2688 3291 2919 2981 
L 2919 3500 
L 4044 3500 
L 4044 353 
Q 4044 -491 3511 -936 
Q 2978 -1381 1966 -1381 
Q 1638 -1381 1331 -1331 
Q 1025 -1281 716 -1178 
L 716 -306 
Q 1009 -475 1290 -558 
Q 1572 -641 1856 -641 
Q 2406 -641 2662 -400 
Q 2919 -159 2919 353 
L 2919 594 
z
M 2181 2772 
Q 1834 2772 1640 2515 
Q 1447 2259 1447 1791 
Q 1447 1309 1634 1061 
Q 1822 813 2181 813 
Q 2531 813 2725 1069 
Q 2919 1325 2919 1791 
Q 2919 2259 2725 2515 
Q 2531 2772 2181 2772 
z
" transform="scale(0.015625)"/>
      <path id="DejaVuSans-Bold-68" d="M 4056 2131 
L 4056 0 
L 2931 0 
L 2931 347 
L 2931 1625 
Q 2931 2084 2911 2256 
Q 2891 2428 2841 2509 
Q 2775 2619 2662 2680 
Q 2550 2741 2406 2741 
Q 2056 2741 1856 2470 
Q 1656 2200 1656 1722 
L 1656 0 
L 538 0 
L 538 4863 
L 1656 4863 
L 1656 2988 
Q 1909 3294 2193 3439 
Q 2478 3584 2822 3584 
Q 3428 3584 3742 3212 
Q 4056 2841 4056 2131 
z
" transform="scale(0.015625)"/>
      <path id="DejaVuSans-Bold-6e" d="M 4056 2131 
L 4056 0 
L 2931 0 
L 2931 347 
L 2931 1631 
Q 2931 2084 2911 2256 
Q 2891 2428 2841 2509 
Q 2775 2619 2662 2680 
Q 2550 2741 2406 2741 
Q 2056 2741 1856 2470 
Q 1656 2200 1656 1722 
L 1656 0 
L 538 0 
L 538 3500 
L 1656 3500 
L 1656 2988 
Q 1909 3294 2193 3439 
Q 2478 3584 2822 3584 
Q 3428 3584 3742 3212 
Q 4056 2841 4056 2131 
z
" transform="scale(0.015625)"/>
     </defs>
     <use xlink:href="#DejaVuSans-Bold-49"/>
     <use xlink:href="#DejaVuSans-Bold-73" transform="translate(37.207031 0)"/>
     <use xlink:href="#DejaVuSans-Bold-6f" transform="translate(96.728516 0)"/>
     <use xlink:href="#DejaVuSans-Bold-6c" transform="translate(165.429688 0)"/>
     <use xlink:href="#DejaVuSans-Bold-61" transform="translate(199.707031 0)"/>
     <use xlink:href="#DejaVuSans-Bold-74" transform="translate(267.1875 0)"/>
     <use xlink:href="#DejaVuSans-Bold-65" transform="translate(314.990234 0)"/>
     <use xlink:href="#DejaVuSans-Bold-64" transform="translate(382.8125 0)"/>
     <use xlink:href="#DejaVuSans-Bold-20" transform="translate(454.394531 0)"/>
     <use xlink:href="#DejaVuSans-Bold-72" transform="translate(489.208984 0)"/>
     <use xlink:href="#DejaVuSans-Bold-6f" transform="translate(538.525391 0)"/>
     <use xlink:href="#DejaVuSans-Bold-75" transform="translate(607.226562 0)"/>
     <use xlink:href="#DejaVuSans-Bold-67" transform="translate(678.417969 0)"/>
     <use xlink:href="#DejaVuSans-Bold-68" transform="translate(750 0)"/>
     <use xlink:href="#DejaVuSans-Bold-6e" transform="translate(821.191406 0)"/>
     <use xlink:href="#DejaVuSans-Bold-65" transform="translate(892.382812 0)"/>
     <use xlink:href="#DejaVuSans-Bold-73" transform="translate(960.205078 0)"/>
     <use xlink:href="#DejaVuSans-Bold-73" transform="translate(1019.726562 0)"/>
    </g>
   </g>
   <g id="text_5">
    <!-- H/W &lt; 0.3 -->
    <g style="fill: #808080" transform="translate(79.206797 204.752827) scale(0.105 -0.105)">
     <defs>
      <path id="DejaVuSans-2f" d="M 1625 4666 
L 2156 4666 
L 531 -594 
L 0 -594 
L 1625 4666 
z
" transform="scale(0.015625)"/>
      <path id="DejaVuSans-20" transform="scale(0.015625)"/>
      <path id="DejaVuSans-3c" d="M 4684 3150 
L 1459 2003 
L 4684 863 
L 4684 294 
L 678 1747 
L 678 2266 
L 4684 3719 
L 4684 3150 
z
" transform="scale(0.015625)"/>
      <path id="DejaVuSans-30" d="M 2034 4250 
Q 1547 4250 1301 3770 
Q 1056 3291 1056 2328 
Q 1056 1369 1301 889 
Q 1547 409 2034 409 
Q 2525 409 2770 889 
Q 3016 1369 3016 2328 
Q 3016 3291 2770 3770 
Q 2525 4250 2034 4250 
z
M 2034 4750 
Q 2819 4750 3233 4129 
Q 3647 3509 3647 2328 
Q 3647 1150 3233 529 
Q 2819 -91 2034 -91 
Q 1250 -91 836 529 
Q 422 1150 422 2328 
Q 422 3509 836 4129 
Q 1250 4750 2034 4750 
z
" transform="scale(0.015625)"/>
      <path id="DejaVuSans-2e" d="M 684 794 
L 1344 794 
L 1344 0 
L 684 0 
L 684 794 
z
" transform="scale(0.015625)"/>
      <path id="DejaVuSans-33" d="M 2597 2516 
Q 3050 2419 3304 2112 
Q 3559 1806 3559 1356 
Q 3559 666 3084 287 
Q 2609 -91 1734 -91 
Q 1441 -91 1130 -33 
Q 819 25 488 141 
L 488 750 
Q 750 597 1062 519 
Q 1375 441 1716 441 
Q 2309 441 2620 675 
Q 2931 909 2931 1356 
Q 2931 1769 2642 2001 
Q 2353 2234 1838 2234 
L 1294 2234 
L 1294 2753 
L 1863 2753 
Q 2328 2753 2575 2939 
Q 2822 3125 2822 3475 
Q 2822 3834 2567 4026 
Q 2313 4219 1838 4219 
Q 1578 4219 1281 4162 
Q 984 4106 628 3988 
L 628 4550 
Q 988 4650 1302 4700 
Q 1616 4750 1894 4750 
Q 2613 4750 3031 4423 
Q 3450 4097 3450 3541 
Q 3450 3153 3228 2886 
Q 3006 2619 2597 2516 
z
" transform="scale(0.015625)"/>
     </defs>
     <use xlink:href="#DejaVuSans-48"/>
     <use xlink:href="#DejaVuSans-2f" transform="translate(75.195312 0)"/>
     <use xlink:href="#DejaVuSans-57" transform="translate(108.886719 0)"/>
     <use xlink:href="#DejaVuSans-20" transform="translate(207.763672 0)"/>
     <use xlink:href="#DejaVuSans-3c" transform="translate(239.550781 0)"/>
     <use xlink:href="#DejaVuSans-20" transform="translate(323.339844 0)"/>
     <use xlink:href="#DejaVuSans-30" transform="translate(355.126953 0)"/>
     <use xlink:href="#DejaVuSans-2e" transform="translate(418.75 0)"/>
     <use xlink:href="#DejaVuSans-33" transform="translate(450.537109 0)"/>
    </g>
   </g>
  </g>
  <g id="axes_2">
   <g id="patch_9">
    <path d="M 215.1 161.387234 
L 413.1 161.387234 
L 413.1 154.646809 
L 215.1 154.646809 
z
" clip-path="url(#p5b836252b6)" style="fill: #6b4a30; stroke: #6b4a30; stroke-linejoin: miter"/>
   </g>
   <g id="patch_10">
    <path d="M 244.589362 154.646809 
L 290.929787 154.646809 
L 290.929787 70.391489 
L 244.589362 70.391489 
z
" clip-path="url(#p5b836252b6)" style="fill: #b7c4d9; stroke: #000000; stroke-linejoin: miter"/>
   </g>
   <g id="patch_11">
    <path d="M 337.270213 154.646809 
L 383.610638 154.646809 
L 383.610638 70.391489 
L 337.270213 70.391489 
z
" clip-path="url(#p5b836252b6)" style="fill: #b7c4d9; stroke: #000000; stroke-linejoin: miter"/>
   </g>
   <g id="line2d_6">
    <g clip-path="url(#p5b836252b6)">
     <use xlink:href="#md64ae2ebd1" x="227.738298" y="45.114894" style="fill: #1f77b4; stroke: #1f77b4; stroke-linejoin: miter"/>
    </g>
   </g>
   <g id="line2d_7">
    <g clip-path="url(#p5b836252b6)">
     <use xlink:href="#md64ae2ebd1" x="270.919149" y="45.114894" style="fill: #1f77b4; stroke: #1f77b4; stroke-linejoin: miter"/>
    </g>
   </g>
   <g id="line2d_8">
    <g clip-path="url(#p5b836252b6)">
     <use xlink:href="#md64ae2ebd1" x="314.1" y="45.114894" style="fill: #1f77b4; stroke: #1f77b4; stroke-linejoin: miter"/>
    </g>
   </g>
   <g id="line2d_9">
    <g clip-path="url(#p5b836252b6)">
     <use xlink:href="#md64ae2ebd1" x="357.280851" y="45.114894" style="fill: #1f77b4; stroke: #1f77b4; stroke-linejoin: miter"/>
    </g>
   </g>
   <g id="line2d_10">
    <g clip-path="url(#p5b836252b6)">
     <use xlink:href="#md64ae2ebd1" x="400.461702" y="45.114894" style="fill: #1f77b4; stroke: #1f77b4; stroke-linejoin: miter"/>
    </g>
   </g>
   <g id="line2d_11">
    <path d="M 335.120171 101.808837 
L 334.512088 100.691002 
L 333.844615 99.607582 
L 333.119694 98.561728 
L 332.339436 97.556484 
L 331.506109 96.594774 
L 330.622139 95.679396 
L 329.690098 94.813014 
L 328.712696 93.998148 
L 327.692779 93.237169 
L 326.633313 92.532292 
L 325.537381 91.885567 
L 324.408172 91.298876 
L 323.248971 90.773926 
L 322.063151 90.312245 
L 320.854161 89.915174 
L 319.625521 89.583871 
L 318.380804 89.319298 
L 317.123631 89.122226 
L 315.857662 88.993227 
L 314.586578 88.932678 
L 313.314079 88.940754 
L 312.043866 89.017432 
L 310.779636 89.162489 
L 309.525066 89.375503 
L 308.283808 89.655854 
L 307.059471 90.002725 
L 305.85562 90.415109 
L 304.675755 90.891806 
L 303.52331 91.431427 
L 302.401639 92.032404 
L 301.314004 92.692987 
L 300.263571 93.411255 
L 299.253395 94.185118 
L 298.286415 95.012324 
L 297.365445 95.890467 
L 296.493165 96.816991 
L 295.672113 97.789202 
L 294.904677 98.804269 
L 294.19309 99.85924 
L 293.539423 100.951045 
L 292.945577 102.076508 
L 292.41328 103.232354 
L 291.944082 104.41522 
L 291.539347 105.621665 
L 291.200252 106.848178 
L 290.927785 108.091191 
L 290.722738 109.347087 
L 290.585707 110.612213 
L 290.517092 111.882886 
L 290.517092 113.155411 
L 290.585707 114.426085 
L 290.722738 115.691211 
L 290.927785 116.947107 
L 291.200252 118.19012 
L 291.539347 119.416633 
L 291.944082 120.623078 
L 292.41328 121.805944 
L 292.945577 122.96179 
L 293.539423 124.087253 
L 294.19309 125.179058 
L 294.904677 126.234029 
L 295.672113 127.249096 
L 296.493165 128.221306 
L 297.365445 129.147831 
L 298.286415 130.025973 
L 299.253395 130.85318 
L 300.263571 131.627043 
L 301.314004 132.345311 
L 302.401639 133.005894 
L 303.52331 133.606871 
L 304.675755 134.146492 
L 305.85562 134.623188 
L 307.059471 135.035572 
L 308.283808 135.382444 
L 309.525066 135.662795 
L 310.779636 135.875809 
L 312.043866 136.020866 
L 313.314079 136.097544 
L 314.586578 136.10562 
L 315.857662 136.045071 
L 317.123631 135.916072 
L 318.380804 135.719 
L 319.625521 135.454427 
L 320.854161 135.123124 
L 322.063151 134.726053 
L 323.248971 134.264371 
L 324.408172 133.739421 
L 325.537381 133.15273 
L 326.633313 132.506006 
L 327.692779 131.801129 
L 328.712696 131.04015 
L 329.690098 130.225284 
L 330.622139 129.358902 
L 331.506109 128.443524 
L 332.339436 127.481814 
L 333.119694 126.47657 
L 333.844615 125.430716 
L 334.512088 124.347296 
L 335.120171 123.229461 
" clip-path="url(#p5b836252b6)" style="fill: none; stroke: #1f77b4; stroke-width: 2.2; stroke-linecap: square"/>
   </g>
   <g id="patch_12">
    <path d="M 333.120753 101.808837 
Q 332.856632 101.808837 335.052186 101.808837 
" style="fill: none; stroke: #1f77b4; stroke-width: 2.2; stroke-linecap: round"/>
    <path d="M 339.052186 103.808837 
L 335.052186 101.808837 
L 339.052186 99.808837 
z
" style="fill: #1f77b4; stroke: #1f77b4; stroke-width: 2.2; stroke-linecap: round"/>
   </g>
   <g id="text_6">
    <!-- (b) -->
    <g transform="translate(218.470213 19.522919) scale(0.14 -0.14)">
     <defs>
      <path id="DejaVuSans-Bold-62" d="M 2400 722 
Q 2759 722 2948 984 
Q 3138 1247 3138 1747 
Q 3138 2247 2948 2509 
Q 2759 2772 2400 2772 
Q 2041 2772 1848 2508 
Q 1656 2244 1656 1747 
Q 1656 1250 1848 986 
Q 2041 722 2400 722 
z
M 1656 2988 
Q 1888 3294 2169 3439 
Q 2450 3584 2816 3584 
Q 3463 3584 3878 3070 
Q 4294 2556 4294 1747 
Q 4294 938 3878 423 
Q 3463 -91 2816 -91 
Q 2450 -91 2169 54 
Q 1888 200 1656 506 
L 1656 0 
L 538 0 
L 538 4863 
L 1656 4863 
L 1656 2988 
z
" transform="scale(0.015625)"/>
     </defs>
     <use xlink:href="#DejaVuSans-Bold-28"/>
     <use xlink:href="#DejaVuSans-Bold-62" transform="translate(45.703125 0)"/>
     <use xlink:href="#DejaVuSans-Bold-29" transform="translate(117.285156 0)"/>
    </g>
   </g>
   <g id="text_7">
    <!-- Wake interference -->
    <g transform="translate(246.640156 189.801373) scale(0.13 -0.13)">
     <defs>
      <path id="DejaVuSans-Bold-57" d="M 191 4666 
L 1344 4666 
L 2150 1275 
L 2950 4666 
L 4109 4666 
L 4909 1275 
L 5716 4666 
L 6859 4666 
L 5759 0 
L 4372 0 
L 3525 3547 
L 2688 0 
L 1300 0 
L 191 4666 
z
" transform="scale(0.015625)"/>
      <path id="DejaVuSans-Bold-6b" d="M 538 4863 
L 1656 4863 
L 1656 2216 
L 2944 3500 
L 4244 3500 
L 2534 1894 
L 4378 0 
L 3022 0 
L 1656 1459 
L 1656 0 
L 538 0 
L 538 4863 
z
" transform="scale(0.015625)"/>
      <path id="DejaVuSans-Bold-69" d="M 538 3500 
L 1656 3500 
L 1656 0 
L 538 0 
L 538 3500 
z
M 538 4863 
L 1656 4863 
L 1656 3950 
L 538 3950 
L 538 4863 
z
" transform="scale(0.015625)"/>
      <path id="DejaVuSans-Bold-66" d="M 2841 4863 
L 2841 4128 
L 2222 4128 
Q 1984 4128 1890 4042 
Q 1797 3956 1797 3744 
L 1797 3500 
L 2753 3500 
L 2753 2700 
L 1797 2700 
L 1797 0 
L 678 0 
L 678 2700 
L 122 2700 
L 122 3500 
L 678 3500 
L 678 3744 
Q 678 4316 997 4589 
Q 1316 4863 1984 4863 
L 2841 4863 
z
" transform="scale(0.015625)"/>
      <path id="DejaVuSans-Bold-63" d="M 3366 3391 
L 3366 2478 
Q 3138 2634 2908 2709 
Q 2678 2784 2431 2784 
Q 1963 2784 1702 2511 
Q 1441 2238 1441 1747 
Q 1441 1256 1702 982 
Q 1963 709 2431 709 
Q 2694 709 2930 787 
Q 3166 866 3366 1019 
L 3366 103 
Q 3103 6 2833 -42 
Q 2563 -91 2291 -91 
Q 1344 -91 809 395 
Q 275 881 275 1747 
Q 275 2613 809 3098 
Q 1344 3584 2291 3584 
Q 2566 3584 2833 3536 
Q 3100 3488 3366 3391 
z
" transform="scale(0.015625)"/>
     </defs>
     <use xlink:href="#DejaVuSans-Bold-57"/>
     <use xlink:href="#DejaVuSans-Bold-61" transform="translate(106.677734 0)"/>
     <use xlink:href="#DejaVuSans-Bold-6b" transform="translate(174.158203 0)"/>
     <use xlink:href="#DejaVuSans-Bold-65" transform="translate(238.037109 0)"/>
     <use xlink:href="#DejaVuSans-Bold-20" transform="translate(305.859375 0)"/>
     <use xlink:href="#DejaVuSans-Bold-69" transform="translate(340.673828 0)"/>
     <use xlink:href="#DejaVuSans-Bold-6e" transform="translate(374.951172 0)"/>
     <use xlink:href="#DejaVuSans-Bold-74" transform="translate(446.142578 0)"/>
     <use xlink:href="#DejaVuSans-Bold-65" transform="translate(493.945312 0)"/>
     <use xlink:href="#DejaVuSans-Bold-72" transform="translate(561.767578 0)"/>
     <use xlink:href="#DejaVuSans-Bold-66" transform="translate(611.083984 0)"/>
     <use xlink:href="#DejaVuSans-Bold-65" transform="translate(654.589844 0)"/>
     <use xlink:href="#DejaVuSans-Bold-72" transform="translate(722.412109 0)"/>
     <use xlink:href="#DejaVuSans-Bold-65" transform="translate(771.728516 0)"/>
     <use xlink:href="#DejaVuSans-Bold-6e" transform="translate(839.550781 0)"/>
     <use xlink:href="#DejaVuSans-Bold-63" transform="translate(910.742188 0)"/>
     <use xlink:href="#DejaVuSans-Bold-65" transform="translate(970.019531 0)"/>
    </g>
   </g>
   <g id="text_8">
    <!-- 0.3 &lt; H/W &lt; 0.7 -->
    <g style="fill: #808080" transform="translate(271.021289 204.752827) scale(0.105 -0.105)">
     <defs>
      <path id="DejaVuSans-37" d="M 525 4666 
L 3525 4666 
L 3525 4397 
L 1831 0 
L 1172 0 
L 2766 4134 
L 525 4134 
L 525 4666 
z
" transform="scale(0.015625)"/>
     </defs>
     <use xlink:href="#DejaVuSans-30"/>
     <use xlink:href="#DejaVuSans-2e" transform="translate(63.623047 0)"/>
     <use xlink:href="#DejaVuSans-33" transform="translate(95.410156 0)"/>
     <use xlink:href="#DejaVuSans-20" transform="translate(159.033203 0)"/>
     <use xlink:href="#DejaVuSans-3c" transform="translate(190.820312 0)"/>
     <use xlink:href="#DejaVuSans-20" transform="translate(274.609375 0)"/>
     <use xlink:href="#DejaVuSans-48" transform="translate(306.396484 0)"/>
     <use xlink:href="#DejaVuSans-2f" transform="translate(381.591797 0)"/>
     <use xlink:href="#DejaVuSans-57" transform="translate(415.283203 0)"/>
     <use xlink:href="#DejaVuSans-20" transform="translate(514.160156 0)"/>
     <use xlink:href="#DejaVuSans-3c" transform="translate(545.947266 0)"/>
     <use xlink:href="#DejaVuSans-20" transform="translate(629.736328 0)"/>
     <use xlink:href="#DejaVuSans-30" transform="translate(661.523438 0)"/>
     <use xlink:href="#DejaVuSans-2e" transform="translate(725.146484 0)"/>
     <use xlink:href="#DejaVuSans-37" transform="translate(756.933594 0)"/>
    </g>
   </g>
  </g>
  <g id="axes_3">
   <g id="patch_13">
    <path d="M 423 161.387234 
L 621 161.387234 
L 621 154.646809 
L 423 154.646809 
z
" clip-path="url(#pf5bc369f8b)" style="fill: #6b4a30; stroke: #6b4a30; stroke-linejoin: miter"/>
   </g>
   <g id="patch_14">
    <path d="M 452.489362 154.646809 
L 498.829787 154.646809 
L 498.829787 70.391489 
L 452.489362 70.391489 
z
" clip-path="url(#pf5bc369f8b)" style="fill: #b7c4d9; stroke: #000000; stroke-linejoin: miter"/>
   </g>
   <g id="patch_15">
    <path d="M 545.170213 154.646809 
L 591.510638 154.646809 
L 591.510638 70.391489 
L 545.170213 70.391489 
z
" clip-path="url(#pf5bc369f8b)" style="fill: #b7c4d9; stroke: #000000; stroke-linejoin: miter"/>
   </g>
   <g id="line2d_12">
    <g clip-path="url(#pf5bc369f8b)">
     <use xlink:href="#md64ae2ebd1" x="435.638298" y="45.114894" style="fill: #1f77b4; stroke: #1f77b4; stroke-linejoin: miter"/>
    </g>
   </g>
   <g id="line2d_13">
    <g clip-path="url(#pf5bc369f8b)">
     <use xlink:href="#md64ae2ebd1" x="478.819149" y="45.114894" style="fill: #1f77b4; stroke: #1f77b4; stroke-linejoin: miter"/>
    </g>
   </g>
   <g id="line2d_14">
    <g clip-path="url(#pf5bc369f8b)">
     <use xlink:href="#md64ae2ebd1" x="522" y="45.114894" style="fill: #1f77b4; stroke: #1f77b4; stroke-linejoin: miter"/>
    </g>
   </g>
   <g id="line2d_15">
    <g clip-path="url(#pf5bc369f8b)">
     <use xlink:href="#md64ae2ebd1" x="565.180851" y="45.114894" style="fill: #1f77b4; stroke: #1f77b4; stroke-linejoin: miter"/>
    </g>
   </g>
   <g id="line2d_16">
    <g clip-path="url(#pf5bc369f8b)">
     <use xlink:href="#md64ae2ebd1" x="608.361702" y="45.114894" style="fill: #1f77b4; stroke: #1f77b4; stroke-linejoin: miter"/>
    </g>
   </g>
   <g id="line2d_17">
    <path d="M 535.512967 107.319055 
L 535.122056 106.600447 
L 534.692967 105.903962 
L 534.226946 105.231628 
L 533.725352 104.585399 
L 533.189642 103.967157 
L 532.621375 103.3787 
L 532.022206 102.82174 
L 531.393876 102.297897 
L 530.738215 101.808697 
L 530.05713 101.355562 
L 529.352602 100.93981 
L 528.626682 100.562652 
L 527.881481 100.225184 
L 527.119168 99.928388 
L 526.341961 99.673129 
L 525.552121 99.460148 
L 524.751945 99.290065 
L 523.943763 99.163376 
L 523.129925 99.080448 
L 522.3128 99.041524 
L 521.494765 99.046716 
L 520.6782 99.096009 
L 519.86548 99.18926 
L 519.058971 99.326197 
L 518.261019 99.506423 
L 517.473946 99.729412 
L 516.700041 99.994516 
L 515.941557 100.300963 
L 515.2007 100.647863 
L 514.479625 101.034205 
L 513.780431 101.458866 
L 513.105153 101.920609 
L 512.455754 102.418093 
L 511.834124 102.949868 
L 511.242072 103.514388 
L 510.681321 104.110011 
L 510.153501 104.735003 
L 509.660149 105.387547 
L 509.202701 106.065742 
L 508.782486 106.767617 
L 508.400728 107.491129 
L 508.058537 108.234173 
L 507.75691 108.994587 
L 507.496723 109.770158 
L 507.278733 110.558631 
L 507.103576 111.357711 
L 506.97176 112.165073 
L 506.883669 112.978368 
L 506.839559 113.795229 
L 506.839559 114.613281 
L 506.883669 115.430143 
L 506.97176 116.243438 
L 507.103576 117.0508 
L 507.278733 117.849879 
L 507.496723 118.638352 
L 507.75691 119.413924 
L 508.058537 120.174338 
L 508.400728 120.917382 
L 508.782486 121.640894 
L 509.202701 122.342768 
L 509.660149 123.020964 
L 510.153501 123.673507 
L 510.681321 124.298499 
L 511.242072 124.894122 
L 511.834124 125.458642 
L 512.455754 125.990418 
L 513.105153 126.487901 
L 513.780431 126.949645 
L 514.479625 127.374306 
L 515.2007 127.760648 
L 515.941557 128.107547 
L 516.700041 128.413995 
L 517.473946 128.679099 
L 518.261019 128.902088 
L 519.058971 129.082313 
L 519.86548 129.219251 
L 520.6782 129.312502 
L 521.494765 129.361795 
L 522.3128 129.366987 
L 523.129925 129.328062 
L 523.943763 129.245135 
L 524.751945 129.118445 
L 525.552121 128.948363 
L 526.341961 128.735382 
L 527.119168 128.480122 
L 527.881481 128.183327 
L 528.626682 127.845859 
L 529.352602 127.468701 
L 530.05713 127.052949 
L 530.738215 126.599814 
L 531.393876 126.110613 
L 532.022206 125.586771 
L 532.621375 125.029811 
L 533.189642 124.441354 
L 533.725352 123.823112 
L 534.226946 123.176883 
L 534.692967 122.504548 
L 535.122056 121.808064 
L 535.512967 121.089456 
" clip-path="url(#pf5bc369f8b)" style="fill: none; stroke: #1f77b4; stroke-width: 2.2; stroke-linecap: square"/>
   </g>
   <g id="patch_16">
    <path d="M 533.513549 107.319055 
Q 533.249428 107.319055 535.444982 107.319055 
" style="fill: none; stroke: #1f77b4; stroke-width: 2.2; stroke-linecap: round"/>
    <path d="M 539.444982 109.319055 
L 535.444982 107.319055 
L 539.444982 105.319055 
z
" style="fill: #1f77b4; stroke: #1f77b4; stroke-width: 2.2; stroke-linecap: round"/>
   </g>
   <g id="patch_17">
    <path d="M 515.572344 63.651064 
Q 524.106872 63.651064 530.628939 63.651064 
" style="fill: none; stroke: #1f77b4; stroke-width: 1.8; stroke-linecap: round"/>
    <path d="M 526.628939 61.651064 
L 530.628939 63.651064 
L 526.628939 65.651064 
z
" style="fill: #1f77b4; stroke: #1f77b4; stroke-width: 1.8; stroke-linecap: round"/>
   </g>
   <g id="text_9">
    <!-- (c) -->
    <g transform="translate(426.370213 19.522919) scale(0.14 -0.14)">
     <use xlink:href="#DejaVuSans-Bold-28"/>
     <use xlink:href="#DejaVuSans-Bold-63" transform="translate(45.703125 0)"/>
     <use xlink:href="#DejaVuSans-Bold-29" transform="translate(104.980469 0)"/>
    </g>
   </g>
   <g id="text_10">
    <!-- Skimming flow -->
    <g transform="translate(467.924062 189.801373) scale(0.13 -0.13)">
     <defs>
      <path id="DejaVuSans-Bold-53" d="M 3834 4519 
L 3834 3531 
Q 3450 3703 3084 3790 
Q 2719 3878 2394 3878 
Q 1963 3878 1756 3759 
Q 1550 3641 1550 3391 
Q 1550 3203 1689 3098 
Q 1828 2994 2194 2919 
L 2706 2816 
Q 3484 2659 3812 2340 
Q 4141 2022 4141 1434 
Q 4141 663 3683 286 
Q 3225 -91 2284 -91 
Q 1841 -91 1394 -6 
Q 947 78 500 244 
L 500 1259 
Q 947 1022 1364 901 
Q 1781 781 2169 781 
Q 2563 781 2772 912 
Q 2981 1044 2981 1288 
Q 2981 1506 2839 1625 
Q 2697 1744 2272 1838 
L 1806 1941 
Q 1106 2091 782 2419 
Q 459 2747 459 3303 
Q 459 4000 909 4375 
Q 1359 4750 2203 4750 
Q 2588 4750 2994 4692 
Q 3400 4634 3834 4519 
z
" transform="scale(0.015625)"/>
      <path id="DejaVuSans-Bold-6d" d="M 3781 2919 
Q 3994 3244 4286 3414 
Q 4578 3584 4928 3584 
Q 5531 3584 5847 3212 
Q 6163 2841 6163 2131 
L 6163 0 
L 5038 0 
L 5038 1825 
Q 5041 1866 5042 1909 
Q 5044 1953 5044 2034 
Q 5044 2406 4934 2573 
Q 4825 2741 4581 2741 
Q 4263 2741 4089 2478 
Q 3916 2216 3909 1719 
L 3909 0 
L 2784 0 
L 2784 1825 
Q 2784 2406 2684 2573 
Q 2584 2741 2328 2741 
Q 2006 2741 1831 2477 
Q 1656 2213 1656 1722 
L 1656 0 
L 531 0 
L 531 3500 
L 1656 3500 
L 1656 2988 
Q 1863 3284 2130 3434 
Q 2397 3584 2719 3584 
Q 3081 3584 3359 3409 
Q 3638 3234 3781 2919 
z
" transform="scale(0.015625)"/>
      <path id="DejaVuSans-Bold-77" d="M 225 3500 
L 1313 3500 
L 1900 1088 
L 2491 3500 
L 3425 3500 
L 4013 1113 
L 4603 3500 
L 5691 3500 
L 4769 0 
L 3547 0 
L 2956 2406 
L 2369 0 
L 1147 0 
L 225 3500 
z
" transform="scale(0.015625)"/>
     </defs>
     <use xlink:href="#DejaVuSans-Bold-53"/>
     <use xlink:href="#DejaVuSans-Bold-6b" transform="translate(72.021484 0)"/>
     <use xlink:href="#DejaVuSans-Bold-69" transform="translate(138.525391 0)"/>
     <use xlink:href="#DejaVuSans-Bold-6d" transform="translate(172.802734 0)"/>
     <use xlink:href="#DejaVuSans-Bold-6d" transform="translate(277.001953 0)"/>
     <use xlink:href="#DejaVuSans-Bold-69" transform="translate(381.201172 0)"/>
     <use xlink:href="#DejaVuSans-Bold-6e" transform="translate(415.478516 0)"/>
     <use xlink:href="#DejaVuSans-Bold-67" transform="translate(486.669922 0)"/>
     <use xlink:href="#DejaVuSans-Bold-20" transform="translate(558.251953 0)"/>
     <use xlink:href="#DejaVuSans-Bold-66" transform="translate(593.066406 0)"/>
     <use xlink:href="#DejaVuSans-Bold-6c" transform="translate(636.572266 0)"/>
     <use xlink:href="#DejaVuSans-Bold-6f" transform="translate(670.849609 0)"/>
     <use xlink:href="#DejaVuSans-Bold-77" transform="translate(739.550781 0)"/>
    </g>
   </g>
   <g id="text_11">
    <!-- H/W &gt; 0.7 -->
    <g style="fill: #808080" transform="translate(495.006797 204.752827) scale(0.105 -0.105)">
     <defs>
      <path id="DejaVuSans-3e" d="M 678 3150 
L 678 3719 
L 4684 2266 
L 4684 1747 
L 678 294 
L 678 863 
L 3897 2003 
L 678 3150 
z
" transform="scale(0.015625)"/>
     </defs>
     <use xlink:href="#DejaVuSans-48"/>
     <use xlink:href="#DejaVuSans-2f" transform="translate(75.195312 0)"/>
     <use xlink:href="#DejaVuSans-57" transform="translate(108.886719 0)"/>
     <use xlink:href="#DejaVuSans-20" transform="translate(207.763672 0)"/>
     <use xlink:href="#DejaVuSans-3e" transform="translate(239.550781 0)"/>
     <use xlink:href="#DejaVuSans-20" transform="translate(323.339844 0)"/>
     <use xlink:href="#DejaVuSans-30" transform="translate(355.126953 0)"/>
     <use xlink:href="#DejaVuSans-2e" transform="translate(418.75 0)"/>
     <use xlink:href="#DejaVuSans-37" transform="translate(450.537109 0)"/>
    </g>
   </g>
  </g>
 </g>
 <defs>
  <clipPath id="pf64018d9ed">
   <rect x="7.2" y="7.2" width="198" height="193.787234"/>
  </clipPath>
  <clipPath id="p5b836252b6">
   <rect x="215.1" y="7.2" width="198" height="193.787234"/>
  </clipPath>
  <clipPath id="pf5bc369f8b">
   <rect x="423" y="7.2" width="198" height="193.787234"/>
  </clipPath>
 </defs>
</svg>
