<?xml version="1.0" encoding="utf-8" standalone="no"?>
<!DOCTYPE svg PUBLIC "-//W3C//DTD SVG 1.1//EN"
  "http://www.w3.org/Graphics/SVG/1.1/DTD/svg11.dtd">
<svg xmlns:xlink="http://www.w3.org/1999/xlink" width="453.341563pt" height="309.475312pt" viewBox="0 0 453.341563 309.475312" xmlns="http://www.w3.org/2000/svg" version="1.1">
 <metadata>
  <rdf:RDF xmlns:dc="http://purl.org/dc/elements/1.1/" xmlns:cc="http://creativecommons.org/ns#" xmlns:rdf="http://www.w3.org/1999/02/22-rdf-syntax-ns#">
   <cc:Work>
    <dc:type rdf:resource="http://purl.org/dc/dcmitype/StillImage"/>
    <dc:date>2026-06-23T00:56:47.766904</dc:date>
    <dc:format>image/svg+xml</dc:format>
    <dc:creator>
     <cc:Agent>
      <dc:title>Matplotlib v3.11.0, https://matplotlib.org/</dc:title>
     </cc:Agent>
    </dc:creator>
   </cc:Work>
  </rdf:RDF>
 </metadata>
 <defs>
  <style type="text/css">*{stroke-linejoin: round; stroke-linecap: butt}</style>
 </defs>
 <g id="figure_1">
  <g id="patch_1">
   <path d="M 0 309.475312 
L 453.341563 309.475312 
L 453.341563 0 
L 0 0 
z
" style="fill: #ffffff"/>
  </g>
  <g id="axes_1">
   <g id="patch_2">
    <path d="M 44.103906 269.072187 
L 446.141563 269.072187 
L 446.141563 34.202148 
L 44.103906 34.202148 
z
" style="fill: #ffffff"/>
   </g>
   <g id="matplotlib.axis_1">
    <g id="xtick_1">
     <g id="line2d_1">
      <defs>
       <path id="m6fe1ce27aa" d="M 0 0 
L 0 3.5 
" style="stroke: #000000; stroke-width: 0.8"/>
      </defs>
      <g>
       <use xlink:href="#m6fe1ce27aa" x="363.776374" y="269.072187" style="stroke: #000000; stroke-width: 0.8"/>
      </g>
     </g>
     <g id="text_1">
      <!-- $\mathdefault{10^{2}}$ -->
      <g transform="translate(354.976374 285.472187) scale(0.1 -0.1)">
       <defs>
        <path id="DejaVuSans-14" d="M 794 531 
L 1825 531 
L 1825 4091 
L 703 3866 
L 703 4441 
L 1819 4666 
L 2450 4666 
L 2450 531 
L 3481 531 
L 3481 0 
L 794 0 
L 794 531 
z
" transform="scale(0.015625)"/>
        <path id="DejaVuSans-13" d="M 2034 4250 
Q 1547 4250 1301 3770 
Q 1056 3291 1056 2328 
Q 1056 1369 1301 889 
Q 1547 409 2034 409 
Q 2525 409 2770 889 
Q 3016 1369 3016 2328 
Q 3016 3291 2770 3770 
Q 2525 4250 2034 4250 
z
M 2034 4750 
Q 2819 4750 3233 4129 
Q 3647 3509 3647 2328 
Q 3647 1150 3233 529 
Q 2819 -91 2034 -91 
Q 1250 -91 836 529 
Q 422 1150 422 2328 
Q 422 3509 836 4129 
Q 1250 4750 2034 4750 
z
" transform="scale(0.015625)"/>
        <path id="DejaVuSans-15" d="M 1228 531 
L 3431 531 
L 3431 0 
L 469 0 
L 469 531 
Q 828 903 1448 1529 
Q 2069 2156 2228 2338 
Q 2531 2678 2651 2914 
Q 2772 3150 2772 3378 
Q 2772 3750 2511 3984 
Q 2250 4219 1831 4219 
Q 1534 4219 1204 4116 
Q 875 4013 500 3803 
L 500 4441 
Q 881 4594 1212 4672 
Q 1544 4750 1819 4750 
Q 2544 4750 2975 4387 
Q 3406 4025 3406 3419 
Q 3406 3131 3298 2873 
Q 3191 2616 2906 2266 
Q 2828 2175 2409 1742 
Q 1991 1309 1228 531 
z
" transform="scale(0.015625)"/>
       </defs>
       <use xlink:href="#DejaVuSans-14" transform="translate(0 0.746875)"/>
       <use xlink:href="#DejaVuSans-13" transform="translate(63.623047 0.746875)"/>
       <use xlink:href="#DejaVuSans-15" transform="translate(128.203125 42.046875) scale(0.7)"/>
      </g>
     </g>
    </g>
    <g id="xtick_2">
     <g id="line2d_2">
      <defs>
       <path id="m877833faad" d="M 0 0 
L 0 2 
" style="stroke: #000000; stroke-width: 0.6"/>
      </defs>
      <g>
       <use xlink:href="#m877833faad" x="80.89682" y="269.072187" style="stroke: #000000; stroke-width: 0.6"/>
      </g>
     </g>
     <g id="text_2">
      <!-- $\mathdefault{2\times10^{1}}$ -->
      <g transform="translate(62.79682 283.772187) scale(0.1 -0.1)">
       <defs>
        <path id="DejaVuSans-99" d="M 4488 3438 
L 3059 2003 
L 4488 575 
L 4116 197 
L 2681 1631 
L 1247 197 
L 878 575 
L 2303 2003 
L 878 3438 
L 1247 3816 
L 2681 2381 
L 4116 3816 
L 4488 3438 
z
" transform="scale(0.015625)"/>
       </defs>
       <use xlink:href="#DejaVuSans-15" transform="translate(0 0.665625)"/>
       <use xlink:href="#DejaVuSans-99" transform="translate(83.105469 0.665625)"/>
       <use xlink:href="#DejaVuSans-14" transform="translate(186.376953 0.665625)"/>
       <use xlink:href="#DejaVuSans-13" transform="translate(250 0.665625)"/>
       <use xlink:href="#DejaVuSans-14" transform="translate(314.580078 41.965625) scale(0.7)"/>
      </g>
     </g>
    </g>
    <g id="xtick_3">
     <g id="line2d_3">
      <g>
       <use xlink:href="#m877833faad" x="152.162563" y="269.072187" style="stroke: #000000; stroke-width: 0.6"/>
      </g>
     </g>
     <g id="text_3">
      <!-- $\mathdefault{3\times10^{1}}$ -->
      <g transform="translate(134.062563 283.772187) scale(0.1 -0.1)">
       <defs>
        <path id="DejaVuSans-16" d="M 2597 2516 
Q 3050 2419 3304 2112 
Q 3559 1806 3559 1356 
Q 3559 666 3084 287 
Q 2609 -91 1734 -91 
Q 1441 -91 1130 -33 
Q 819 25 488 141 
L 488 750 
Q 750 597 1062 519 
Q 1375 441 1716 441 
Q 2309 441 2620 675 
Q 2931 909 2931 1356 
Q 2931 1769 2642 2001 
Q 2353 2234 1838 2234 
L 1294 2234 
L 1294 2753 
L 1863 2753 
Q 2328 2753 2575 2939 
Q 2822 3125 2822 3475 
Q 2822 3834 2567 4026 
Q 2313 4219 1838 4219 
Q 1578 4219 1281 4162 
Q 984 4106 628 3988 
L 628 4550 
Q 988 4650 1302 4700 
Q 1616 4750 1894 4750 
Q 2613 4750 3031 4423 
Q 3450 4097 3450 3541 
Q 3450 3153 3228 2886 
Q 3006 2619 2597 2516 
z
" transform="scale(0.015625)"/>
       </defs>
       <use xlink:href="#DejaVuSans-16" transform="translate(0 0.665625)"/>
       <use xlink:href="#DejaVuSans-99" transform="translate(83.105469 0.665625)"/>
       <use xlink:href="#DejaVuSans-14" transform="translate(186.376953 0.665625)"/>
       <use xlink:href="#DejaVuSans-13" transform="translate(250 0.665625)"/>
       <use xlink:href="#DejaVuSans-14" transform="translate(314.580078 41.965625) scale(0.7)"/>
      </g>
     </g>
    </g>
    <g id="xtick_4">
     <g id="line2d_4">
      <g>
       <use xlink:href="#m877833faad" x="202.726413" y="269.072187" style="stroke: #000000; stroke-width: 0.6"/>
      </g>
     </g>
     <g id="text_4">
      <!-- $\mathdefault{4\times10^{1}}$ -->
      <g transform="translate(184.626413 283.772187) scale(0.1 -0.1)">
       <defs>
        <path id="DejaVuSans-17" d="M 2419 4116 
L 825 1625 
L 2419 1625 
L 2419 4116 
z
M 2253 4666 
L 3047 4666 
L 3047 1625 
L 3713 1625 
L 3713 1100 
L 3047 1100 
L 3047 0 
L 2419 0 
L 2419 1100 
L 313 1100 
L 313 1709 
L 2253 4666 
z
" transform="scale(0.015625)"/>
       </defs>
       <use xlink:href="#DejaVuSans-17" transform="translate(0 0.665625)"/>
       <use xlink:href="#DejaVuSans-99" transform="translate(83.105469 0.665625)"/>
       <use xlink:href="#DejaVuSans-14" transform="translate(186.376953 0.665625)"/>
       <use xlink:href="#DejaVuSans-13" transform="translate(250 0.665625)"/>
       <use xlink:href="#DejaVuSans-14" transform="translate(314.580078 41.965625) scale(0.7)"/>
      </g>
     </g>
    </g>
    <g id="xtick_5">
     <g id="line2d_5">
      <g>
       <use xlink:href="#m877833faad" x="241.946782" y="269.072187" style="stroke: #000000; stroke-width: 0.6"/>
      </g>
     </g>
    </g>
    <g id="xtick_6">
     <g id="line2d_6">
      <g>
       <use xlink:href="#m877833faad" x="273.992156" y="269.072187" style="stroke: #000000; stroke-width: 0.6"/>
      </g>
     </g>
     <g id="text_5">
      <!-- $\mathdefault{6\times10^{1}}$ -->
      <g transform="translate(255.892156 283.772187) scale(0.1 -0.1)">
       <defs>
        <path id="DejaVuSans-19" d="M 2113 2584 
Q 1688 2584 1439 2293 
Q 1191 2003 1191 1497 
Q 1191 994 1439 701 
Q 1688 409 2113 409 
Q 2538 409 2786 701 
Q 3034 994 3034 1497 
Q 3034 2003 2786 2293 
Q 2538 2584 2113 2584 
z
M 3366 4563 
L 3366 3988 
Q 3128 4100 2886 4159 
Q 2644 4219 2406 4219 
Q 1781 4219 1451 3797 
Q 1122 3375 1075 2522 
Q 1259 2794 1537 2939 
Q 1816 3084 2150 3084 
Q 2853 3084 3261 2657 
Q 3669 2231 3669 1497 
Q 3669 778 3244 343 
Q 2819 -91 2113 -91 
Q 1303 -91 875 529 
Q 447 1150 447 2328 
Q 447 3434 972 4092 
Q 1497 4750 2381 4750 
Q 2619 4750 2861 4703 
Q 3103 4656 3366 4563 
z
" transform="scale(0.015625)"/>
       </defs>
       <use xlink:href="#DejaVuSans-19" transform="translate(0 0.665625)"/>
       <use xlink:href="#DejaVuSans-99" transform="translate(83.105469 0.665625)"/>
       <use xlink:href="#DejaVuSans-14" transform="translate(186.376953 0.665625)"/>
       <use xlink:href="#DejaVuSans-13" transform="translate(250 0.665625)"/>
       <use xlink:href="#DejaVuSans-14" transform="translate(314.580078 41.965625) scale(0.7)"/>
      </g>
     </g>
    </g>
    <g id="xtick_7">
     <g id="line2d_7">
      <g>
       <use xlink:href="#m877833faad" x="301.086134" y="269.072187" style="stroke: #000000; stroke-width: 0.6"/>
      </g>
     </g>
    </g>
    <g id="xtick_8">
     <g id="line2d_8">
      <g>
       <use xlink:href="#m877833faad" x="324.556006" y="269.072187" style="stroke: #000000; stroke-width: 0.6"/>
      </g>
     </g>
    </g>
    <g id="xtick_9">
     <g id="line2d_9">
      <g>
       <use xlink:href="#m877833faad" x="345.257899" y="269.072187" style="stroke: #000000; stroke-width: 0.6"/>
      </g>
     </g>
    </g>
    <g id="text_6">
     <!-- Péclet number  Pe = Sc·Re  (advection / diffusion) -->
     <g transform="translate(120.691484 299.872969) scale(0.1 -0.1)">
      <defs>
       <path id="DejaVuSans-33" d="M 1259 4147 
L 1259 2394 
L 2053 2394 
Q 2494 2394 2734 2622 
Q 2975 2850 2975 3272 
Q 2975 3691 2734 3919 
Q 2494 4147 2053 4147 
L 1259 4147 
z
M 628 4666 
L 2053 4666 
Q 2838 4666 3239 4311 
Q 3641 3956 3641 3272 
Q 3641 2581 3239 2228 
Q 2838 1875 2053 1875 
L 1259 1875 
L 1259 0 
L 628 0 
L 628 4666 
z
" transform="scale(0.015625)"/>
       <path id="DejaVuSans-ab" d="M 3597 1894 
L 3597 1613 
L 953 1613 
Q 991 1019 1311 708 
Q 1631 397 2203 397 
Q 2534 397 2845 478 
Q 3156 559 3463 722 
L 3463 178 
Q 3153 47 2828 -22 
Q 2503 -91 2169 -91 
Q 1331 -91 842 396 
Q 353 884 353 1716 
Q 353 2575 817 3079 
Q 1281 3584 2069 3584 
Q 2775 3584 3186 3129 
Q 3597 2675 3597 1894 
z
M 3022 2063 
Q 3016 2534 2758 2815 
Q 2500 3097 2075 3097 
Q 1594 3097 1305 2825 
Q 1016 2553 972 2059 
L 3022 2063 
z
M 2468 5119 
L 3090 5119 
L 2072 3944 
L 1593 3944 
L 2468 5119 
z
" transform="scale(0.015625)"/>
       <path id="DejaVuSans-46" d="M 3122 3366 
L 3122 2828 
Q 2878 2963 2633 3030 
Q 2388 3097 2138 3097 
Q 1578 3097 1268 2742 
Q 959 2388 959 1747 
Q 959 1106 1268 751 
Q 1578 397 2138 397 
Q 2388 397 2633 464 
Q 2878 531 3122 666 
L 3122 134 
Q 2881 22 2623 -34 
Q 2366 -91 2075 -91 
Q 1284 -91 818 406 
Q 353 903 353 1747 
Q 353 2603 823 3093 
Q 1294 3584 2113 3584 
Q 2378 3584 2631 3529 
Q 2884 3475 3122 3366 
z
" transform="scale(0.015625)"/>
       <path id="DejaVuSans-4f" d="M 603 4863 
L 1178 4863 
L 1178 0 
L 603 0 
L 603 4863 
z
" transform="scale(0.015625)"/>
       <path id="DejaVuSans-48" d="M 3597 1894 
L 3597 1613 
L 953 1613 
Q 991 1019 1311 708 
Q 1631 397 2203 397 
Q 2534 397 2845 478 
Q 3156 559 3463 722 
L 3463 178 
Q 3153 47 2828 -22 
Q 2503 -91 2169 -91 
Q 1331 -91 842 396 
Q 353 884 353 1716 
Q 353 2575 817 3079 
Q 1281 3584 2069 3584 
Q 2775 3584 3186 3129 
Q 3597 2675 3597 1894 
z
M 3022 2063 
Q 3016 2534 2758 2815 
Q 2500 3097 2075 3097 
Q 1594 3097 1305 2825 
Q 1016 2553 972 2059 
L 3022 2063 
z
" transform="scale(0.015625)"/>
       <path id="DejaVuSans-57" d="M 1172 4494 
L 1172 3500 
L 2356 3500 
L 2356 3053 
L 1172 3053 
L 1172 1153 
Q 1172 725 1289 603 
Q 1406 481 1766 481 
L 2356 481 
L 2356 0 
L 1766 0 
Q 1100 0 847 248 
Q 594 497 594 1153 
L 594 3053 
L 172 3053 
L 172 3500 
L 594 3500 
L 594 4494 
L 1172 4494 
z
" transform="scale(0.015625)"/>
       <path id="DejaVuSans-3" transform="scale(0.015625)"/>
       <path id="DejaVuSans-51" d="M 3513 2113 
L 3513 0 
L 2938 0 
L 2938 2094 
Q 2938 2591 2744 2837 
Q 2550 3084 2163 3084 
Q 1697 3084 1428 2787 
Q 1159 2491 1159 1978 
L 1159 0 
L 581 0 
L 581 3500 
L 1159 3500 
L 1159 2956 
Q 1366 3272 1645 3428 
Q 1925 3584 2291 3584 
Q 2894 3584 3203 3211 
Q 3513 2838 3513 2113 
z
" transform="scale(0.015625)"/>
       <path id="DejaVuSans-58" d="M 544 1381 
L 544 3500 
L 1119 3500 
L 1119 1403 
Q 1119 906 1312 657 
Q 1506 409 1894 409 
Q 2359 409 2629 706 
Q 2900 1003 2900 1516 
L 2900 3500 
L 3475 3500 
L 3475 0 
L 2900 0 
L 2900 538 
Q 2691 219 2414 64 
Q 2138 -91 1772 -91 
Q 1169 -91 856 284 
Q 544 659 544 1381 
z
M 1991 3584 
L 1991 3584 
z
" transform="scale(0.015625)"/>
       <path id="DejaVuSans-50" d="M 3328 2828 
Q 3544 3216 3844 3400 
Q 4144 3584 4550 3584 
Q 5097 3584 5394 3201 
Q 5691 2819 5691 2113 
L 5691 0 
L 5113 0 
L 5113 2094 
Q 5113 2597 4934 2840 
Q 4756 3084 4391 3084 
Q 3944 3084 3684 2787 
Q 3425 2491 3425 1978 
L 3425 0 
L 2847 0 
L 2847 2094 
Q 2847 2600 2669 2842 
Q 2491 3084 2119 3084 
Q 1678 3084 1418 2786 
Q 1159 2488 1159 1978 
L 1159 0 
L 581 0 
L 581 3500 
L 1159 3500 
L 1159 2956 
Q 1356 3278 1631 3431 
Q 1906 3584 2284 3584 
Q 2666 3584 2933 3390 
Q 3200 3197 3328 2828 
z
" transform="scale(0.015625)"/>
       <path id="DejaVuSans-45" d="M 3116 1747 
Q 3116 2381 2855 2742 
Q 2594 3103 2138 3103 
Q 1681 3103 1420 2742 
Q 1159 2381 1159 1747 
Q 1159 1113 1420 752 
Q 1681 391 2138 391 
Q 2594 391 2855 752 
Q 3116 1113 3116 1747 
z
M 1159 2969 
Q 1341 3281 1617 3432 
Q 1894 3584 2278 3584 
Q 2916 3584 3314 3078 
Q 3713 2572 3713 1747 
Q 3713 922 3314 415 
Q 2916 -91 2278 -91 
Q 1894 -91 1617 61 
Q 1341 213 1159 525 
L 1159 0 
L 581 0 
L 581 4863 
L 1159 4863 
L 1159 2969 
z
" transform="scale(0.015625)"/>
       <path id="DejaVuSans-55" d="M 2631 2963 
Q 2534 3019 2420 3045 
Q 2306 3072 2169 3072 
Q 1681 3072 1420 2755 
Q 1159 2438 1159 1844 
L 1159 0 
L 581 0 
L 581 3500 
L 1159 3500 
L 1159 2956 
Q 1341 3275 1631 3429 
Q 1922 3584 2338 3584 
Q 2397 3584 2469 3576 
Q 2541 3569 2628 3553 
L 2631 2963 
z
" transform="scale(0.015625)"/>
       <path id="DejaVuSans-20" d="M 678 2906 
L 4684 2906 
L 4684 2381 
L 678 2381 
L 678 2906 
z
M 678 1631 
L 4684 1631 
L 4684 1100 
L 678 1100 
L 678 1631 
z
" transform="scale(0.015625)"/>
       <path id="DejaVuSans-36" d="M 3425 4513 
L 3425 3897 
Q 3066 4069 2747 4153 
Q 2428 4238 2131 4238 
Q 1616 4238 1336 4038 
Q 1056 3838 1056 3469 
Q 1056 3159 1242 3001 
Q 1428 2844 1947 2747 
L 2328 2669 
Q 3034 2534 3370 2195 
Q 3706 1856 3706 1288 
Q 3706 609 3251 259 
Q 2797 -91 1919 -91 
Q 1588 -91 1214 -16 
Q 841 59 441 206 
L 441 856 
Q 825 641 1194 531 
Q 1563 422 1919 422 
Q 2459 422 2753 634 
Q 3047 847 3047 1241 
Q 3047 1584 2836 1778 
Q 2625 1972 2144 2069 
L 1759 2144 
Q 1053 2284 737 2584 
Q 422 2884 422 3419 
Q 422 4038 858 4394 
Q 1294 4750 2059 4750 
Q 2388 4750 2728 4690 
Q 3069 4631 3425 4513 
z
" transform="scale(0.015625)"/>
       <path id="DejaVuSans-79" d="M 684 2619 
L 1344 2619 
L 1344 1825 
L 684 1825 
L 684 2619 
z
" transform="scale(0.015625)"/>
       <path id="DejaVuSans-35" d="M 2841 2188 
Q 3044 2119 3236 1894 
Q 3428 1669 3622 1275 
L 4263 0 
L 3584 0 
L 2988 1197 
Q 2756 1666 2539 1819 
Q 2322 1972 1947 1972 
L 1259 1972 
L 1259 0 
L 628 0 
L 628 4666 
L 2053 4666 
Q 2853 4666 3247 4331 
Q 3641 3997 3641 3322 
Q 3641 2881 3436 2590 
Q 3231 2300 2841 2188 
z
M 1259 4147 
L 1259 2491 
L 2053 2491 
Q 2509 2491 2742 2702 
Q 2975 2913 2975 3322 
Q 2975 3731 2742 3939 
Q 2509 4147 2053 4147 
L 1259 4147 
z
" transform="scale(0.015625)"/>
       <path id="DejaVuSans-b" d="M 1984 4856 
Q 1566 4138 1362 3434 
Q 1159 2731 1159 2009 
Q 1159 1288 1364 580 
Q 1569 -128 1984 -844 
L 1484 -844 
Q 1016 -109 783 600 
Q 550 1309 550 2009 
Q 550 2706 781 3412 
Q 1013 4119 1484 4856 
L 1984 4856 
z
" transform="scale(0.015625)"/>
       <path id="DejaVuSans-44" d="M 2194 1759 
Q 1497 1759 1228 1600 
Q 959 1441 959 1056 
Q 959 750 1161 570 
Q 1363 391 1709 391 
Q 2188 391 2477 730 
Q 2766 1069 2766 1631 
L 2766 1759 
L 2194 1759 
z
M 3341 1997 
L 3341 0 
L 2766 0 
L 2766 531 
Q 2569 213 2275 61 
Q 1981 -91 1556 -91 
Q 1019 -91 701 211 
Q 384 513 384 1019 
Q 384 1609 779 1909 
Q 1175 2209 1959 2209 
L 2766 2209 
L 2766 2266 
Q 2766 2663 2505 2880 
Q 2244 3097 1772 3097 
Q 1472 3097 1187 3025 
Q 903 2953 641 2809 
L 641 3341 
Q 956 3463 1253 3523 
Q 1550 3584 1831 3584 
Q 2591 3584 2966 3190 
Q 3341 2797 3341 1997 
z
" transform="scale(0.015625)"/>
       <path id="DejaVuSans-47" d="M 2906 2969 
L 2906 4863 
L 3481 4863 
L 3481 0 
L 2906 0 
L 2906 525 
Q 2725 213 2448 61 
Q 2172 -91 1784 -91 
Q 1150 -91 751 415 
Q 353 922 353 1747 
Q 353 2572 751 3078 
Q 1150 3584 1784 3584 
Q 2172 3584 2448 3432 
Q 2725 3281 2906 2969 
z
M 947 1747 
Q 947 1113 1208 752 
Q 1469 391 1925 391 
Q 2381 391 2643 752 
Q 2906 1113 2906 1747 
Q 2906 2381 2643 2742 
Q 2381 3103 1925 3103 
Q 1469 3103 1208 2742 
Q 947 2381 947 1747 
z
" transform="scale(0.015625)"/>
       <path id="DejaVuSans-59" d="M 191 3500 
L 800 3500 
L 1894 563 
L 2988 3500 
L 3597 3500 
L 2284 0 
L 1503 0 
L 191 3500 
z
" transform="scale(0.015625)"/>
       <path id="DejaVuSans-4c" d="M 603 3500 
L 1178 3500 
L 1178 0 
L 603 0 
L 603 3500 
z
M 603 4863 
L 1178 4863 
L 1178 4134 
L 603 4134 
L 603 4863 
z
" transform="scale(0.015625)"/>
       <path id="DejaVuSans-52" d="M 1959 3097 
Q 1497 3097 1228 2736 
Q 959 2375 959 1747 
Q 959 1119 1226 758 
Q 1494 397 1959 397 
Q 2419 397 2687 759 
Q 2956 1122 2956 1747 
Q 2956 2369 2687 2733 
Q 2419 3097 1959 3097 
z
M 1959 3584 
Q 2709 3584 3137 3096 
Q 3566 2609 3566 1747 
Q 3566 888 3137 398 
Q 2709 -91 1959 -91 
Q 1206 -91 779 398 
Q 353 888 353 1747 
Q 353 2609 779 3096 
Q 1206 3584 1959 3584 
z
" transform="scale(0.015625)"/>
       <path id="DejaVuSans-12" d="M 1625 4666 
L 2156 4666 
L 531 -594 
L 0 -594 
L 1625 4666 
z
" transform="scale(0.015625)"/>
       <path id="DejaVuSans-13ae" d="M 4531 4863 
L 4531 4384 
L 3981 4384 
Q 3672 4384 3551 4259 
Q 3431 4134 3431 3809 
L 3431 3500 
L 4378 3500 
L 4378 3053 
L 3431 3053 
L 3431 0 
L 2853 0 
L 2853 3053 
L 1275 3053 
L 1275 0 
L 697 0 
L 697 3053 
L 147 3053 
L 147 3500 
L 697 3500 
L 697 3744 
Q 697 4328 969 4595 
Q 1241 4863 1831 4863 
L 2375 4863 
L 2375 4384 
L 1825 4384 
Q 1516 4384 1394 4259 
Q 1275 4134 1275 3809 
L 1275 3500 
L 2853 3500 
L 2853 3744 
Q 2853 4328 3125 4595 
Q 3397 4863 3988 4863 
L 4531 4863 
z
" transform="scale(0.015625)"/>
       <path id="DejaVuSans-56" d="M 2834 3397 
L 2834 2853 
Q 2591 2978 2328 3040 
Q 2066 3103 1784 3103 
Q 1356 3103 1142 2972 
Q 928 2841 928 2578 
Q 928 2378 1081 2264 
Q 1234 2150 1697 2047 
L 1894 2003 
Q 2506 1872 2764 1633 
Q 3022 1394 3022 966 
Q 3022 478 2636 193 
Q 2250 -91 1575 -91 
Q 1294 -91 989 -36 
Q 684 19 347 128 
L 347 722 
Q 666 556 975 473 
Q 1284 391 1588 391 
Q 1994 391 2212 530 
Q 2431 669 2431 922 
Q 2431 1156 2273 1281 
Q 2116 1406 1581 1522 
L 1381 1569 
Q 847 1681 609 1914 
Q 372 2147 372 2553 
Q 372 3047 722 3315 
Q 1072 3584 1716 3584 
Q 2034 3584 2315 3537 
Q 2597 3491 2834 3397 
z
" transform="scale(0.015625)"/>
       <path id="DejaVuSans-c" d="M 513 4856 
L 1013 4856 
Q 1481 4119 1714 3412 
Q 1947 2706 1947 2009 
Q 1947 1309 1714 600 
Q 1481 -109 1013 -844 
L 513 -844 
Q 928 -128 1133 580 
Q 1338 1288 1338 2009 
Q 1338 2731 1133 3434 
Q 928 4138 513 4856 
z
" transform="scale(0.015625)"/>
      </defs>
      <use xlink:href="#DejaVuSans-33"/>
      <use xlink:href="#DejaVuSans-ab" transform="translate(56.734375 0)"/>
      <use xlink:href="#DejaVuSans-46" transform="translate(118.265625 0)"/>
      <use xlink:href="#DejaVuSans-4f" transform="translate(173.25 0)"/>
      <use xlink:href="#DejaVuSans-48" transform="translate(201.03125 0)"/>
      <use xlink:href="#DejaVuSans-57" transform="translate(262.5625 0)"/>
      <use xlink:href="#DejaVuSans-3" transform="translate(301.765625 0)"/>
      <use xlink:href="#DejaVuSans-51" transform="translate(333.546875 0)"/>
      <use xlink:href="#DejaVuSans-58" transform="translate(396.921875 0)"/>
      <use xlink:href="#DejaVuSans-50" transform="translate(460.296875 0)"/>
      <use xlink:href="#DejaVuSans-45" transform="translate(557.703125 0)"/>
      <use xlink:href="#DejaVuSans-48" transform="translate(621.1875 0)"/>
      <use xlink:href="#DejaVuSans-55" transform="translate(682.71875 0)"/>
      <use xlink:href="#DejaVuSans-3" transform="translate(723.828125 0)"/>
      <use xlink:href="#DejaVuSans-3" transform="translate(755.609375 0)"/>
      <use xlink:href="#DejaVuSans-33" transform="translate(787.390625 0)"/>
      <use xlink:href="#DejaVuSans-48" transform="translate(844.125 0)"/>
      <use xlink:href="#DejaVuSans-3" transform="translate(905.65625 0)"/>
      <use xlink:href="#DejaVuSans-20" transform="translate(937.4375 0)"/>
      <use xlink:href="#DejaVuSans-3" transform="translate(1021.234375 0)"/>
      <use xlink:href="#DejaVuSans-36" transform="translate(1053.015625 0)"/>
      <use xlink:href="#DejaVuSans-46" transform="translate(1116.5 0)"/>
      <use xlink:href="#DejaVuSans-79" transform="translate(1171.484375 0)"/>
      <use xlink:href="#DejaVuSans-35" transform="translate(1203.265625 0)"/>
      <use xlink:href="#DejaVuSans-48" transform="translate(1268.265625 0)"/>
      <use xlink:href="#DejaVuSans-3" transform="translate(1329.796875 0)"/>
      <use xlink:href="#DejaVuSans-3" transform="translate(1361.578125 0)"/>
      <use xlink:href="#DejaVuSans-b" transform="translate(1393.359375 0)"/>
      <use xlink:href="#DejaVuSans-44" transform="translate(1432.375 0)"/>
      <use xlink:href="#DejaVuSans-47" transform="translate(1493.65625 0)"/>
      <use xlink:href="#DejaVuSans-59" transform="translate(1557.140625 0)"/>
      <use xlink:href="#DejaVuSans-48" transform="translate(1616.328125 0)"/>
      <use xlink:href="#DejaVuSans-46" transform="translate(1677.859375 0)"/>
      <use xlink:href="#DejaVuSans-57" transform="translate(1732.84375 0)"/>
      <use xlink:href="#DejaVuSans-4c" transform="translate(1772.046875 0)"/>
      <use xlink:href="#DejaVuSans-52" transform="translate(1799.828125 0)"/>
      <use xlink:href="#DejaVuSans-51" transform="translate(1861.015625 0)"/>
      <use xlink:href="#DejaVuSans-3" transform="translate(1924.390625 0)"/>
      <use xlink:href="#DejaVuSans-12" transform="translate(1956.171875 0)"/>
      <use xlink:href="#DejaVuSans-3" transform="translate(1989.859375 0)"/>
      <use xlink:href="#DejaVuSans-47" transform="translate(2021.640625 0)"/>
      <use xlink:href="#DejaVuSans-4c" transform="translate(2085.125 0)"/>
      <use xlink:href="#DejaVuSans-13ae" transform="translate(2112.90625 0)"/>
      <use xlink:href="#DejaVuSans-58" transform="translate(2181.796875 0)"/>
      <use xlink:href="#DejaVuSans-56" transform="translate(2245.171875 0)"/>
      <use xlink:href="#DejaVuSans-4c" transform="translate(2297.265625 0)"/>
      <use xlink:href="#DejaVuSans-52" transform="translate(2325.046875 0)"/>
      <use xlink:href="#DejaVuSans-51" transform="translate(2386.234375 0)"/>
      <use xlink:href="#DejaVuSans-c" transform="translate(2449.609375 0)"/>
     </g>
    </g>
   </g>
   <g id="matplotlib.axis_2">
    <g id="ytick_1">
     <g id="line2d_10">
      <defs>
       <path id="m543ccc566d" d="M 0 0 
L -3.5 0 
" style="stroke: #000000; stroke-width: 0.8"/>
      </defs>
      <g>
       <use xlink:href="#m543ccc566d" x="44.103906" y="258.860447" style="stroke: #000000; stroke-width: 0.8"/>
      </g>
     </g>
     <g id="text_7">
      <!-- 1.0 -->
      <g transform="translate(21.200781 262.659275) scale(0.1 -0.1)">
       <defs>
        <path id="DejaVuSans-11" d="M 684 794 
L 1344 794 
L 1344 0 
L 684 0 
L 684 794 
z
" transform="scale(0.015625)"/>
       </defs>
       <use xlink:href="#DejaVuSans-14"/>
       <use xlink:href="#DejaVuSans-11" transform="translate(63.625 0)"/>
       <use xlink:href="#DejaVuSans-13" transform="translate(95.40625 0)"/>
      </g>
     </g>
    </g>
    <g id="ytick_2">
     <g id="line2d_11">
      <g>
       <use xlink:href="#m543ccc566d" x="44.103906" y="207.801743" style="stroke: #000000; stroke-width: 0.8"/>
      </g>
     </g>
     <g id="text_8">
      <!-- 1.5 -->
      <g transform="translate(21.200781 211.600571) scale(0.1 -0.1)">
       <defs>
        <path id="DejaVuSans-18" d="M 691 4666 
L 3169 4666 
L 3169 4134 
L 1269 4134 
L 1269 2991 
Q 1406 3038 1543 3061 
Q 1681 3084 1819 3084 
Q 2600 3084 3056 2656 
Q 3513 2228 3513 1497 
Q 3513 744 3044 326 
Q 2575 -91 1722 -91 
Q 1428 -91 1123 -41 
Q 819 9 494 109 
L 494 744 
Q 775 591 1075 516 
Q 1375 441 1709 441 
Q 2250 441 2565 725 
Q 2881 1009 2881 1497 
Q 2881 1984 2565 2268 
Q 2250 2553 1709 2553 
Q 1456 2553 1204 2497 
Q 953 2441 691 2322 
L 691 4666 
z
" transform="scale(0.015625)"/>
       </defs>
       <use xlink:href="#DejaVuSans-14"/>
       <use xlink:href="#DejaVuSans-11" transform="translate(63.625 0)"/>
       <use xlink:href="#DejaVuSans-18" transform="translate(95.40625 0)"/>
      </g>
     </g>
    </g>
    <g id="ytick_3">
     <g id="line2d_12">
      <g>
       <use xlink:href="#m543ccc566d" x="44.103906" y="156.743038" style="stroke: #000000; stroke-width: 0.8"/>
      </g>
     </g>
     <g id="text_9">
      <!-- 2.0 -->
      <g transform="translate(21.200781 160.541867) scale(0.1 -0.1)">
       <use xlink:href="#DejaVuSans-15"/>
       <use xlink:href="#DejaVuSans-11" transform="translate(63.625 0)"/>
       <use xlink:href="#DejaVuSans-13" transform="translate(95.40625 0)"/>
      </g>
     </g>
    </g>
    <g id="ytick_4">
     <g id="line2d_13">
      <g>
       <use xlink:href="#m543ccc566d" x="44.103906" y="105.684334" style="stroke: #000000; stroke-width: 0.8"/>
      </g>
     </g>
     <g id="text_10">
      <!-- 2.5 -->
      <g transform="translate(21.200781 109.483162) scale(0.1 -0.1)">
       <use xlink:href="#DejaVuSans-15"/>
       <use xlink:href="#DejaVuSans-11" transform="translate(63.625 0)"/>
       <use xlink:href="#DejaVuSans-18" transform="translate(95.40625 0)"/>
      </g>
     </g>
    </g>
    <g id="ytick_5">
     <g id="line2d_14">
      <g>
       <use xlink:href="#m543ccc566d" x="44.103906" y="54.62563" style="stroke: #000000; stroke-width: 0.8"/>
      </g>
     </g>
     <g id="text_11">
      <!-- 3.0 -->
      <g transform="translate(21.200781 58.424458) scale(0.1 -0.1)">
       <use xlink:href="#DejaVuSans-16"/>
       <use xlink:href="#DejaVuSans-11" transform="translate(63.625 0)"/>
       <use xlink:href="#DejaVuSans-13" transform="translate(95.40625 0)"/>
      </g>
     </g>
    </g>
    <g id="text_12">
     <!-- leeward / windward  c⁺ asymmetry -->
     <g transform="translate(14.798438 239.029355) rotate(-90) scale(0.1 -0.1)">
      <defs>
       <path id="DejaVuSans-5a" d="M 269 3500 
L 844 3500 
L 1563 769 
L 2278 3500 
L 2956 3500 
L 3675 769 
L 4391 3500 
L 4966 3500 
L 4050 0 
L 3372 0 
L 2619 2869 
L 1863 0 
L 1184 0 
L 269 3500 
z
" transform="scale(0.015625)"/>
       <path id="DejaVuSans-b55" d="M 1853 4334 
L 1853 3359 
L 2950 3359 
L 2950 3063 
L 1853 3063 
L 1853 2088 
L 1525 2088 
L 1525 3063 
L 428 3063 
L 428 3359 
L 1525 3359 
L 1525 4334 
L 1853 4334 
z
" transform="scale(0.015625)"/>
       <path id="DejaVuSans-5c" d="M 2059 -325 
Q 1816 -950 1584 -1140 
Q 1353 -1331 966 -1331 
L 506 -1331 
L 506 -850 
L 844 -850 
Q 1081 -850 1212 -737 
Q 1344 -625 1503 -206 
L 1606 56 
L 191 3500 
L 800 3500 
L 1894 763 
L 2988 3500 
L 3597 3500 
L 2059 -325 
z
" transform="scale(0.015625)"/>
      </defs>
      <use xlink:href="#DejaVuSans-4f"/>
      <use xlink:href="#DejaVuSans-48" transform="translate(27.78125 0)"/>
      <use xlink:href="#DejaVuSans-48" transform="translate(89.3125 0)"/>
      <use xlink:href="#DejaVuSans-5a" transform="translate(150.84375 0)"/>
      <use xlink:href="#DejaVuSans-44" transform="translate(232.625 0)"/>
      <use xlink:href="#DejaVuSans-55" transform="translate(293.90625 0)"/>
      <use xlink:href="#DejaVuSans-47" transform="translate(333.265625 0)"/>
      <use xlink:href="#DejaVuSans-3" transform="translate(396.75 0)"/>
      <use xlink:href="#DejaVuSans-12" transform="translate(428.53125 0)"/>
      <use xlink:href="#DejaVuSans-3" transform="translate(462.21875 0)"/>
      <use xlink:href="#DejaVuSans-5a" transform="translate(494 0)"/>
      <use xlink:href="#DejaVuSans-4c" transform="translate(575.78125 0)"/>
      <use xlink:href="#DejaVuSans-51" transform="translate(603.5625 0)"/>
      <use xlink:href="#DejaVuSans-47" transform="translate(666.9375 0)"/>
      <use xlink:href="#DejaVuSans-5a" transform="translate(730.421875 0)"/>
      <use xlink:href="#DejaVuSans-44" transform="translate(812.203125 0)"/>
      <use xlink:href="#DejaVuSans-55" transform="translate(873.484375 0)"/>
      <use xlink:href="#DejaVuSans-47" transform="translate(912.84375 0)"/>
      <use xlink:href="#DejaVuSans-3" transform="translate(976.328125 0)"/>
      <use xlink:href="#DejaVuSans-3" transform="translate(1008.109375 0)"/>
      <use xlink:href="#DejaVuSans-46" transform="translate(1039.890625 0)"/>
      <use xlink:href="#DejaVuSans-b55" transform="translate(1094.875 0)"/>
      <use xlink:href="#DejaVuSans-3" transform="translate(1147.65625 0)"/>
      <use xlink:href="#DejaVuSans-44" transform="translate(1179.4375 0)"/>
      <use xlink:href="#DejaVuSans-56" transform="translate(1240.71875 0)"/>
      <use xlink:href="#DejaVuSans-5c" transform="translate(1292.8125 0)"/>
      <use xlink:href="#DejaVuSans-50" transform="translate(1352 0)"/>
      <use xlink:href="#DejaVuSans-50" transform="translate(1449.40625 0)"/>
      <use xlink:href="#DejaVuSans-48" transform="translate(1546.8125 0)"/>
      <use xlink:href="#DejaVuSans-57" transform="translate(1608.34375 0)"/>
      <use xlink:href="#DejaVuSans-55" transform="translate(1647.546875 0)"/>
      <use xlink:href="#DejaVuSans-5c" transform="translate(1688.65625 0)"/>
     </g>
    </g>
   </g>
   <g id="line2d_15">
    <path d="M 44.103906 56.667978 
L 446.141563 56.667978 
" clip-path="url(#p734c36fa93)" style="fill: none; stroke-dasharray: 4.44,1.92; stroke-dashoffset: 0; stroke: #666666; stroke-width: 1.2"/>
   </g>
   <g id="line2d_16">
    <path d="M 44.103906 258.860447 
L 446.141563 258.860447 
" clip-path="url(#p734c36fa93)" style="fill: none; stroke-dasharray: 1,1.65; stroke-dashoffset: 0; stroke: #b2b2b2"/>
   </g>
   <g id="line2d_17">
    <path d="M 62.378345 256.841575 
L 184.207938 249.872898 
L 306.037531 234.771786 
L 427.867124 206.343638 
" clip-path="url(#p734c36fa93)" style="fill: none; stroke: #d62728; stroke-width: 1.5; stroke-linecap: square"/>
    <defs>
     <path id="mb8ca7b604c" d="M 0 3.5 
C 0.928211 3.5 1.81853 3.131218 2.474874 2.474874 
C 3.131218 1.81853 3.5 0.928211 3.5 0 
C 3.5 -0.928211 3.131218 -1.81853 2.474874 -2.474874 
C 1.81853 -3.131218 0.928211 -3.5 0 -3.5 
C -0.928211 -3.5 -1.81853 -3.131218 -2.474874 -2.474874 
C -3.131218 -1.81853 -3.5 -0.928211 -3.5 0 
C -3.5 0.928211 -3.131218 1.81853 -2.474874 2.474874 
C -1.81853 3.131218 -0.928211 3.5 0 3.5 
z
" style="stroke: #d62728"/>
    </defs>
    <g clip-path="url(#p734c36fa93)">
     <use xlink:href="#mb8ca7b604c" x="62.378345" y="256.841575" style="fill: #d62728; stroke: #d62728"/>
     <use xlink:href="#mb8ca7b604c" x="184.207938" y="249.872898" style="fill: #d62728; stroke: #d62728"/>
     <use xlink:href="#mb8ca7b604c" x="306.037531" y="234.771786" style="fill: #d62728; stroke: #d62728"/>
     <use xlink:href="#mb8ca7b604c" x="427.867124" y="206.343638" style="fill: #d62728; stroke: #d62728"/>
    </g>
   </g>
   <g id="patch_3">
    <path d="M 44.103906 269.072187 
L 44.103906 34.202148 
" style="fill: none; stroke: #000000; stroke-width: 0.8; stroke-linejoin: miter; stroke-linecap: square"/>
   </g>
   <g id="patch_4">
    <path d="M 446.141563 269.072187 
L 446.141563 34.202148 
" style="fill: none; stroke: #000000; stroke-width: 0.8; stroke-linejoin: miter; stroke-linecap: square"/>
   </g>
   <g id="patch_5">
    <path d="M 44.103906 269.072187 
L 446.141562 269.072187 
" style="fill: none; stroke: #000000; stroke-width: 0.8; stroke-linejoin: miter; stroke-linecap: square"/>
   </g>
   <g id="patch_6">
    <path d="M 44.103906 34.202148 
L 446.141562 34.202148 
" style="fill: none; stroke: #000000; stroke-width: 0.8; stroke-linejoin: miter; stroke-linecap: square"/>
   </g>
   <g id="text_13">
    <!-- Leeward–windward asymmetry is advection-controlled -->
    <g transform="translate(108.802422 15.799414) scale(0.1 -0.1)">
     <defs>
      <path id="DejaVuSans-2f" d="M 628 4666 
L 1259 4666 
L 1259 531 
L 3531 531 
L 3531 0 
L 628 0 
L 628 4666 
z
" transform="scale(0.015625)"/>
      <path id="DejaVuSans-af5" d="M 313 1978 
L 2888 1978 
L 2888 1528 
L 313 1528 
L 313 1978 
z
" transform="scale(0.015625)"/>
      <path id="DejaVuSans-10" d="M 313 2009 
L 1997 2009 
L 1997 1497 
L 313 1497 
L 313 2009 
z
" transform="scale(0.015625)"/>
     </defs>
     <use xlink:href="#DejaVuSans-2f"/>
     <use xlink:href="#DejaVuSans-48" transform="translate(53.96875 0)"/>
     <use xlink:href="#DejaVuSans-48" transform="translate(115.5 0)"/>
     <use xlink:href="#DejaVuSans-5a" transform="translate(177.03125 0)"/>
     <use xlink:href="#DejaVuSans-44" transform="translate(258.8125 0)"/>
     <use xlink:href="#DejaVuSans-55" transform="translate(320.09375 0)"/>
     <use xlink:href="#DejaVuSans-47" transform="translate(359.453125 0)"/>
     <use xlink:href="#DejaVuSans-af5" transform="translate(422.9375 0)"/>
     <use xlink:href="#DejaVuSans-5a" transform="translate(472.9375 0)"/>
     <use xlink:href="#DejaVuSans-4c" transform="translate(554.71875 0)"/>
     <use xlink:href="#DejaVuSans-51" transform="translate(582.5 0)"/>
     <use xlink:href="#DejaVuSans-47" transform="translate(645.875 0)"/>
     <use xlink:href="#DejaVuSans-5a" transform="translate(709.359375 0)"/>
     <use xlink:href="#DejaVuSans-44" transform="translate(791.140625 0)"/>
     <use xlink:href="#DejaVuSans-55" transform="translate(852.421875 0)"/>
     <use xlink:href="#DejaVuSans-47" transform="translate(891.78125 0)"/>
     <use xlink:href="#DejaVuSans-3" transform="translate(955.265625 0)"/>
     <use xlink:href="#DejaVuSans-44" transform="translate(987.046875 0)"/>
     <use xlink:href="#DejaVuSans-56" transform="translate(1048.328125 0)"/>
     <use xlink:href="#DejaVuSans-5c" transform="translate(1100.421875 0)"/>
     <use xlink:href="#DejaVuSans-50" transform="translate(1159.609375 0)"/>
     <use xlink:href="#DejaVuSans-50" transform="translate(1257.015625 0)"/>
     <use xlink:href="#DejaVuSans-48" transform="translate(1354.421875 0)"/>
     <use xlink:href="#DejaVuSans-57" transform="translate(1415.953125 0)"/>
     <use xlink:href="#DejaVuSans-55" transform="translate(1455.15625 0)"/>
     <use xlink:href="#DejaVuSans-5c" transform="translate(1496.265625 0)"/>
     <use xlink:href="#DejaVuSans-3" transform="translate(1555.453125 0)"/>
     <use xlink:href="#DejaVuSans-4c" transform="translate(1587.234375 0)"/>
     <use xlink:href="#DejaVuSans-56" transform="translate(1615.015625 0)"/>
     <use xlink:href="#DejaVuSans-3" transform="translate(1667.109375 0)"/>
     <use xlink:href="#DejaVuSans-44" transform="translate(1698.890625 0)"/>
     <use xlink:href="#DejaVuSans-47" transform="translate(1760.171875 0)"/>
     <use xlink:href="#DejaVuSans-59" transform="translate(1823.65625 0)"/>
     <use xlink:href="#DejaVuSans-48" transform="translate(1882.84375 0)"/>
     <use xlink:href="#DejaVuSans-46" transform="translate(1944.375 0)"/>
     <use xlink:href="#DejaVuSans-57" transform="translate(1999.359375 0)"/>
     <use xlink:href="#DejaVuSans-4c" transform="translate(2038.5625 0)"/>
     <use xlink:href="#DejaVuSans-52" transform="translate(2066.34375 0)"/>
     <use xlink:href="#DejaVuSans-51" transform="translate(2127.53125 0)"/>
     <use xlink:href="#DejaVuSans-10" transform="translate(2190.90625 0)"/>
     <use xlink:href="#DejaVuSans-46" transform="translate(2226.984375 0)"/>
     <use xlink:href="#DejaVuSans-52" transform="translate(2281.96875 0)"/>
     <use xlink:href="#DejaVuSans-51" transform="translate(2343.15625 0)"/>
     <use xlink:href="#DejaVuSans-57" transform="translate(2406.53125 0)"/>
     <use xlink:href="#DejaVuSans-55" transform="translate(2445.734375 0)"/>
     <use xlink:href="#DejaVuSans-52" transform="translate(2484.640625 0)"/>
     <use xlink:href="#DejaVuSans-4f" transform="translate(2545.828125 0)"/>
     <use xlink:href="#DejaVuSans-4f" transform="translate(2573.609375 0)"/>
     <use xlink:href="#DejaVuSans-48" transform="translate(2601.390625 0)"/>
     <use xlink:href="#DejaVuSans-47" transform="translate(2662.921875 0)"/>
    </g>
    <!-- (it emerges as the Péclet number rises) -->
    <g transform="translate(146.283672 28.202148) scale(0.1 -0.1)">
     <defs>
      <path id="DejaVuSans-4a" d="M 2906 1791 
Q 2906 2416 2648 2759 
Q 2391 3103 1925 3103 
Q 1463 3103 1205 2759 
Q 947 2416 947 1791 
Q 947 1169 1205 825 
Q 1463 481 1925 481 
Q 2391 481 2648 825 
Q 2906 1169 2906 1791 
z
M 3481 434 
Q 3481 -459 3084 -895 
Q 2688 -1331 1869 -1331 
Q 1566 -1331 1297 -1286 
Q 1028 -1241 775 -1147 
L 775 -588 
Q 1028 -725 1275 -790 
Q 1522 -856 1778 -856 
Q 2344 -856 2625 -561 
Q 2906 -266 2906 331 
L 2906 616 
Q 2728 306 2450 153 
Q 2172 0 1784 0 
Q 1141 0 747 490 
Q 353 981 353 1791 
Q 353 2603 747 3093 
Q 1141 3584 1784 3584 
Q 2172 3584 2450 3431 
Q 2728 3278 2906 2969 
L 2906 3500 
L 3481 3500 
L 3481 434 
z
" transform="scale(0.015625)"/>
      <path id="DejaVuSans-4b" d="M 3513 2113 
L 3513 0 
L 2938 0 
L 2938 2094 
Q 2938 2591 2744 2837 
Q 2550 3084 2163 3084 
Q 1697 3084 1428 2787 
Q 1159 2491 1159 1978 
L 1159 0 
L 581 0 
L 581 4863 
L 1159 4863 
L 1159 2956 
Q 1366 3272 1645 3428 
Q 1925 3584 2291 3584 
Q 2894 3584 3203 3211 
Q 3513 2838 3513 2113 
z
" transform="scale(0.015625)"/>
     </defs>
     <use xlink:href="#DejaVuSans-b"/>
     <use xlink:href="#DejaVuSans-4c" transform="translate(39.015625 0)"/>
     <use xlink:href="#DejaVuSans-57" transform="translate(66.796875 0)"/>
     <use xlink:href="#DejaVuSans-3" transform="translate(106 0)"/>
     <use xlink:href="#DejaVuSans-48" transform="translate(137.78125 0)"/>
     <use xlink:href="#DejaVuSans-50" transform="translate(199.3125 0)"/>
     <use xlink:href="#DejaVuSans-48" transform="translate(296.71875 0)"/>
     <use xlink:href="#DejaVuSans-55" transform="translate(358.25 0)"/>
     <use xlink:href="#DejaVuSans-4a" transform="translate(397.609375 0)"/>
     <use xlink:href="#DejaVuSans-48" transform="translate(461.09375 0)"/>
     <use xlink:href="#DejaVuSans-56" transform="translate(522.625 0)"/>
     <use xlink:href="#DejaVuSans-3" transform="translate(574.71875 0)"/>
     <use xlink:href="#DejaVuSans-44" transform="translate(606.5 0)"/>
     <use xlink:href="#DejaVuSans-56" transform="translate(667.78125 0)"/>
     <use xlink:href="#DejaVuSans-3" transform="translate(719.875 0)"/>
     <use xlink:href="#DejaVuSans-57" transform="translate(751.65625 0)"/>
     <use xlink:href="#DejaVuSans-4b" transform="translate(790.859375 0)"/>
     <use xlink:href="#DejaVuSans-48" transform="translate(854.234375 0)"/>
     <use xlink:href="#DejaVuSans-3" transform="translate(915.765625 0)"/>
     <use xlink:href="#DejaVuSans-33" transform="translate(947.546875 0)"/>
     <use xlink:href="#DejaVuSans-ab" transform="translate(1004.28125 0)"/>
     <use xlink:href="#DejaVuSans-46" transform="translate(1065.8125 0)"/>
     <use xlink:href="#DejaVuSans-4f" transform="translate(1120.796875 0)"/>
     <use xlink:href="#DejaVuSans-48" transform="translate(1148.578125 0)"/>
     <use xlink:href="#DejaVuSans-57" transform="translate(1210.109375 0)"/>
     <use xlink:href="#DejaVuSans-3" transform="translate(1249.3125 0)"/>
     <use xlink:href="#DejaVuSans-51" transform="translate(1281.09375 0)"/>
     <use xlink:href="#DejaVuSans-58" transform="translate(1344.46875 0)"/>
     <use xlink:href="#DejaVuSans-50" transform="translate(1407.84375 0)"/>
     <use xlink:href="#DejaVuSans-45" transform="translate(1505.25 0)"/>
     <use xlink:href="#DejaVuSans-48" transform="translate(1568.734375 0)"/>
     <use xlink:href="#DejaVuSans-55" transform="translate(1630.265625 0)"/>
     <use xlink:href="#DejaVuSans-3" transform="translate(1671.375 0)"/>
     <use xlink:href="#DejaVuSans-55" transform="translate(1703.15625 0)"/>
     <use xlink:href="#DejaVuSans-4c" transform="translate(1744.265625 0)"/>
     <use xlink:href="#DejaVuSans-56" transform="translate(1772.046875 0)"/>
     <use xlink:href="#DejaVuSans-48" transform="translate(1824.140625 0)"/>
     <use xlink:href="#DejaVuSans-56" transform="translate(1885.671875 0)"/>
     <use xlink:href="#DejaVuSans-c" transform="translate(1937.765625 0)"/>
    </g>
   </g>
   <g id="legend_1">
    <g id="line2d_18">
     <path d="M 51.303906 44.680898 
L 59.303906 44.680898 
L 67.303906 44.680898 
" style="fill: none; stroke-dasharray: 4.44,1.92; stroke-dashoffset: 0; stroke: #666666; stroke-width: 1.2"/>
    </g>
    <g id="text_14">
     <!-- CODASC (turbulent) ≈ 3.0 -->
     <g transform="translate(73.703906 47.480898) scale(0.08 -0.08)">
      <defs>
       <path id="DejaVuSans-26" d="M 4122 4306 
L 4122 3641 
Q 3803 3938 3442 4084 
Q 3081 4231 2675 4231 
Q 1875 4231 1450 3742 
Q 1025 3253 1025 2328 
Q 1025 1406 1450 917 
Q 1875 428 2675 428 
Q 3081 428 3442 575 
Q 3803 722 4122 1019 
L 4122 359 
Q 3791 134 3420 21 
Q 3050 -91 2638 -91 
Q 1578 -91 968 557 
Q 359 1206 359 2328 
Q 359 3453 968 4101 
Q 1578 4750 2638 4750 
Q 3056 4750 3426 4639 
Q 3797 4528 4122 4306 
z
" transform="scale(0.015625)"/>
       <path id="DejaVuSans-32" d="M 2522 4238 
Q 1834 4238 1429 3725 
Q 1025 3213 1025 2328 
Q 1025 1447 1429 934 
Q 1834 422 2522 422 
Q 3209 422 3611 934 
Q 4013 1447 4013 2328 
Q 4013 3213 3611 3725 
Q 3209 4238 2522 4238 
z
M 2522 4750 
Q 3503 4750 4090 4092 
Q 4678 3434 4678 2328 
Q 4678 1225 4090 567 
Q 3503 -91 2522 -91 
Q 1538 -91 948 565 
Q 359 1222 359 2328 
Q 359 3434 948 4092 
Q 1538 4750 2522 4750 
z
" transform="scale(0.015625)"/>
       <path id="DejaVuSans-27" d="M 1259 4147 
L 1259 519 
L 2022 519 
Q 2988 519 3436 956 
Q 3884 1394 3884 2338 
Q 3884 3275 3436 3711 
Q 2988 4147 2022 4147 
L 1259 4147 
z
M 628 4666 
L 1925 4666 
Q 3281 4666 3915 4102 
Q 4550 3538 4550 2338 
Q 4550 1131 3912 565 
Q 3275 0 1925 0 
L 628 0 
L 628 4666 
z
" transform="scale(0.015625)"/>
       <path id="DejaVuSans-24" d="M 2188 4044 
L 1331 1722 
L 3047 1722 
L 2188 4044 
z
M 1831 4666 
L 2547 4666 
L 4325 0 
L 3669 0 
L 3244 1197 
L 1141 1197 
L 716 0 
L 50 0 
L 1831 4666 
z
" transform="scale(0.015625)"/>
       <path id="DejaVuSans-cd2" d="M 4684 1947 
L 4684 1388 
Q 4356 1144 4076 1036 
Q 3797 928 3494 928 
Q 3150 928 2694 1113 
Q 2663 1125 2641 1134 
Q 2622 1141 2575 1159 
Q 2091 1350 1797 1350 
Q 1522 1350 1253 1231 
Q 984 1113 678 850 
L 678 1409 
Q 1006 1653 1286 1761 
Q 1566 1869 1869 1869 
Q 2213 1869 2672 1684 
Q 2706 1669 2722 1663 
Q 2741 1656 2788 1638 
Q 3272 1447 3566 1447 
Q 3834 1447 4098 1564 
Q 4363 1681 4684 1947 
z
M 4684 3163 
L 4684 2606 
Q 4356 2359 4076 2251 
Q 3797 2144 3494 2144 
Q 3150 2144 2694 2328 
Q 2663 2341 2641 2350 
Q 2622 2356 2575 2375 
Q 2091 2566 1797 2566 
Q 1522 2566 1253 2447 
Q 984 2328 678 2069 
L 678 2625 
Q 1006 2869 1286 2976 
Q 1566 3084 1869 3084 
Q 2213 3084 2672 2900 
Q 2703 2888 2719 2881 
Q 2741 2872 2788 2853 
Q 3272 2663 3566 2663 
Q 3834 2663 4098 2780 
Q 4363 2897 4684 3163 
z
" transform="scale(0.015625)"/>
      </defs>
      <use xlink:href="#DejaVuSans-26"/>
      <use xlink:href="#DejaVuSans-32" transform="translate(69.828125 0)"/>
      <use xlink:href="#DejaVuSans-27" transform="translate(148.546875 0)"/>
      <use xlink:href="#DejaVuSans-24" transform="translate(223.796875 0)"/>
      <use xlink:href="#DejaVuSans-36" transform="translate(292.203125 0)"/>
      <use xlink:href="#DejaVuSans-26" transform="translate(355.6875 0)"/>
      <use xlink:href="#DejaVuSans-3" transform="translate(425.515625 0)"/>
      <use xlink:href="#DejaVuSans-b" transform="translate(457.296875 0)"/>
      <use xlink:href="#DejaVuSans-57" transform="translate(496.3125 0)"/>
      <use xlink:href="#DejaVuSans-58" transform="translate(535.515625 0)"/>
      <use xlink:href="#DejaVuSans-55" transform="translate(598.890625 0)"/>
      <use xlink:href="#DejaVuSans-45" transform="translate(640 0)"/>
      <use xlink:href="#DejaVuSans-58" transform="translate(703.484375 0)"/>
      <use xlink:href="#DejaVuSans-4f" transform="translate(766.859375 0)"/>
      <use xlink:href="#DejaVuSans-48" transform="translate(794.640625 0)"/>
      <use xlink:href="#DejaVuSans-51" transform="translate(856.171875 0)"/>
      <use xlink:href="#DejaVuSans-57" transform="translate(919.546875 0)"/>
      <use xlink:href="#DejaVuSans-c" transform="translate(958.75 0)"/>
      <use xlink:href="#DejaVuSans-3" transform="translate(997.765625 0)"/>
      <use xlink:href="#DejaVuSans-cd2" transform="translate(1029.546875 0)"/>
      <use xlink:href="#DejaVuSans-3" transform="translate(1113.34375 0)"/>
      <use xlink:href="#DejaVuSans-16" transform="translate(1145.125 0)"/>
      <use xlink:href="#DejaVuSans-11" transform="translate(1208.75 0)"/>
      <use xlink:href="#DejaVuSans-13" transform="translate(1240.53125 0)"/>
     </g>
    </g>
    <g id="line2d_19">
     <path d="M 51.303906 56.681523 
L 59.303906 56.681523 
L 67.303906 56.681523 
" style="fill: none; stroke-dasharray: 1,1.65; stroke-dashoffset: 0; stroke: #b2b2b2"/>
    </g>
    <g id="text_15">
     <!-- symmetric (no asymmetry) -->
     <g transform="translate(73.703906 59.481523) scale(0.08 -0.08)">
      <use xlink:href="#DejaVuSans-56"/>
      <use xlink:href="#DejaVuSans-5c" transform="translate(52.09375 0)"/>
      <use xlink:href="#DejaVuSans-50" transform="translate(111.28125 0)"/>
      <use xlink:href="#DejaVuSans-50" transform="translate(208.6875 0)"/>
      <use xlink:href="#DejaVuSans-48" transform="translate(306.09375 0)"/>
      <use xlink:href="#DejaVuSans-57" transform="translate(367.625 0)"/>
      <use xlink:href="#DejaVuSans-55" transform="translate(406.828125 0)"/>
      <use xlink:href="#DejaVuSans-4c" transform="translate(447.9375 0)"/>
      <use xlink:href="#DejaVuSans-46" transform="translate(475.71875 0)"/>
      <use xlink:href="#DejaVuSans-3" transform="translate(530.703125 0)"/>
      <use xlink:href="#DejaVuSans-b" transform="translate(562.484375 0)"/>
      <use xlink:href="#DejaVuSans-51" transform="translate(601.5 0)"/>
      <use xlink:href="#DejaVuSans-52" transform="translate(664.875 0)"/>
      <use xlink:href="#DejaVuSans-3" transform="translate(726.0625 0)"/>
      <use xlink:href="#DejaVuSans-44" transform="translate(757.84375 0)"/>
      <use xlink:href="#DejaVuSans-56" transform="translate(819.125 0)"/>
      <use xlink:href="#DejaVuSans-5c" transform="translate(871.21875 0)"/>
      <use xlink:href="#DejaVuSans-50" transform="translate(930.40625 0)"/>
      <use xlink:href="#DejaVuSans-50" transform="translate(1027.8125 0)"/>
      <use xlink:href="#DejaVuSans-48" transform="translate(1125.21875 0)"/>
      <use xlink:href="#DejaVuSans-57" transform="translate(1186.75 0)"/>
      <use xlink:href="#DejaVuSans-55" transform="translate(1225.953125 0)"/>
      <use xlink:href="#DejaVuSans-5c" transform="translate(1267.0625 0)"/>
      <use xlink:href="#DejaVuSans-c" transform="translate(1326.25 0)"/>
     </g>
    </g>
    <g id="line2d_20">
     <path d="M 51.303906 68.682148 
L 59.303906 68.682148 
L 67.303906 68.682148 
" style="fill: none; stroke: #d62728; stroke-width: 1.5; stroke-linecap: square"/>
     <g>
      <use xlink:href="#mb8ca7b604c" x="59.303906" y="68.682148" style="fill: #d62728; stroke: #d62728"/>
     </g>
    </g>
    <g id="text_16">
     <!-- 2-D laminar model (Re=25) -->
     <g transform="translate(73.703906 71.482148) scale(0.08 -0.08)">
      <use xlink:href="#DejaVuSans-15"/>
      <use xlink:href="#DejaVuSans-10" transform="translate(63.625 0)"/>
      <use xlink:href="#DejaVuSans-27" transform="translate(99.703125 0)"/>
      <use xlink:href="#DejaVuSans-3" transform="translate(176.703125 0)"/>
      <use xlink:href="#DejaVuSans-4f" transform="translate(208.484375 0)"/>
      <use xlink:href="#DejaVuSans-44" transform="translate(236.265625 0)"/>
      <use xlink:href="#DejaVuSans-50" transform="translate(297.546875 0)"/>
      <use xlink:href="#DejaVuSans-4c" transform="translate(394.953125 0)"/>
      <use xlink:href="#DejaVuSans-51" transform="translate(422.734375 0)"/>
      <use xlink:href="#DejaVuSans-44" transform="translate(486.109375 0)"/>
      <use xlink:href="#DejaVuSans-55" transform="translate(547.390625 0)"/>
      <use xlink:href="#DejaVuSans-3" transform="translate(588.5 0)"/>
      <use xlink:href="#DejaVuSans-50" transform="translate(620.28125 0)"/>
      <use xlink:href="#DejaVuSans-52" transform="translate(717.6875 0)"/>
      <use xlink:href="#DejaVuSans-47" transform="translate(778.875 0)"/>
      <use xlink:href="#DejaVuSans-48" transform="translate(842.359375 0)"/>
      <use xlink:href="#DejaVuSans-4f" transform="translate(903.890625 0)"/>
      <use xlink:href="#DejaVuSans-3" transform="translate(931.671875 0)"/>
      <use xlink:href="#DejaVuSans-b" transform="translate(963.453125 0)"/>
      <use xlink:href="#DejaVuSans-35" transform="translate(1002.46875 0)"/>
      <use xlink:href="#DejaVuSans-48" transform="translate(1067.46875 0)"/>
      <use xlink:href="#DejaVuSans-20" transform="translate(1129 0)"/>
      <use xlink:href="#DejaVuSans-15" transform="translate(1212.796875 0)"/>
      <use xlink:href="#DejaVuSans-18" transform="translate(1276.421875 0)"/>
      <use xlink:href="#DejaVuSans-c" transform="translate(1340.046875 0)"/>
     </g>
    </g>
   </g>
  </g>
 </g>
 <defs>
  <clipPath id="p734c36fa93">
   <rect x="44.103906" y="34.202148" width="402.037656" height="234.870039"/>
  </clipPath>
 </defs>
</svg>
