<?xml version="1.0" encoding="utf-8" standalone="no"?>
<!DOCTYPE svg PUBLIC "-//W3C//DTD SVG 1.1//EN"
  "http://www.w3.org/Graphics/SVG/1.1/DTD/svg11.dtd">
<svg xmlns:xlink="http://www.w3.org/1999/xlink" width="676.541562pt" height="299.372pt" viewBox="0 0 676.541562 299.372" xmlns="http://www.w3.org/2000/svg" version="1.1">
 <metadata>
  <rdf:RDF xmlns:dc="http://purl.org/dc/elements/1.1/" xmlns:cc="http://creativecommons.org/ns#" xmlns:rdf="http://www.w3.org/1999/02/22-rdf-syntax-ns#">
   <cc:Work>
    <dc:type rdf:resource="http://purl.org/dc/dcmitype/StillImage"/>
    <dc:date>2026-06-23T00:56:46.707077</dc:date>
    <dc:format>image/svg+xml</dc:format>
    <dc:creator>
     <cc:Agent>
      <dc:title>Matplotlib v3.11.0, https://matplotlib.org/</dc:title>
     </cc:Agent>
    </dc:creator>
   </cc:Work>
  </rdf:RDF>
 </metadata>
 <defs>
  <style type="text/css">*{stroke-linejoin: round; stroke-linecap: butt}</style>
 </defs>
 <g id="figure_1">
  <g id="patch_1">
   <path d="M -0 299.372 
L 676.541562 299.372 
L 676.541562 0 
L -0 0 
z
" style="fill: #ffffff"/>
  </g>
  <g id="axes_1">
   <g id="patch_2">
    <path d="M 44.103906 258.072 
L 332.370125 258.072 
L 332.370125 61.039617 
L 44.103906 61.039617 
z
" style="fill: #ffffff"/>
   </g>
   <g id="matplotlib.axis_1">
    <g id="xtick_1">
     <g id="line2d_1">
      <defs>
       <path id="m28665ef349" d="M 0 0 
L 0 3.5 
" style="stroke: #000000; stroke-width: 0.8"/>
      </defs>
      <g>
       <use xlink:href="#m28665ef349" x="143.0598" y="258.072" style="stroke: #000000; stroke-width: 0.8"/>
      </g>
     </g>
     <g id="text_1">
      <!-- $\mathdefault{10^{1}}$ -->
      <g transform="translate(134.2598 274.372) scale(0.1 -0.1)">
       <defs>
        <path id="DejaVuSans-14" d="M 794 531 
L 1825 531 
L 1825 4091 
L 703 3866 
L 703 4441 
L 1819 4666 
L 2450 4666 
L 2450 531 
L 3481 531 
L 3481 0 
L 794 0 
L 794 531 
z
" transform="scale(0.015625)"/>
        <path id="DejaVuSans-13" d="M 2034 4250 
Q 1547 4250 1301 3770 
Q 1056 3291 1056 2328 
Q 1056 1369 1301 889 
Q 1547 409 2034 409 
Q 2525 409 2770 889 
Q 3016 1369 3016 2328 
Q 3016 3291 2770 3770 
Q 2525 4250 2034 4250 
z
M 2034 4750 
Q 2819 4750 3233 4129 
Q 3647 3509 3647 2328 
Q 3647 1150 3233 529 
Q 2819 -91 2034 -91 
Q 1250 -91 836 529 
Q 422 1150 422 2328 
Q 422 3509 836 4129 
Q 1250 4750 2034 4750 
z
" transform="scale(0.015625)"/>
       </defs>
       <use xlink:href="#DejaVuSans-14" transform="translate(0 0.665625)"/>
       <use xlink:href="#DejaVuSans-13" transform="translate(63.623047 0.665625)"/>
       <use xlink:href="#DejaVuSans-14" transform="translate(128.203125 41.965625) scale(0.7)"/>
      </g>
     </g>
    </g>
    <g id="xtick_2">
     <g id="line2d_2">
      <defs>
       <path id="mec9d531806" d="M 0 0 
L 0 2 
" style="stroke: #000000; stroke-width: 0.6"/>
      </defs>
      <g>
       <use xlink:href="#mec9d531806" x="58.749952" y="258.072" style="stroke: #000000; stroke-width: 0.6"/>
      </g>
     </g>
    </g>
    <g id="xtick_3">
     <g id="line2d_3">
      <g>
       <use xlink:href="#mec9d531806" x="80.926342" y="258.072" style="stroke: #000000; stroke-width: 0.6"/>
      </g>
     </g>
     <g id="text_2">
      <!-- $\mathdefault{6\times10^{0}}$ -->
      <g transform="translate(62.826342 272.872) scale(0.1 -0.1)">
       <defs>
        <path id="DejaVuSans-19" d="M 2113 2584 
Q 1688 2584 1439 2293 
Q 1191 2003 1191 1497 
Q 1191 994 1439 701 
Q 1688 409 2113 409 
Q 2538 409 2786 701 
Q 3034 994 3034 1497 
Q 3034 2003 2786 2293 
Q 2538 2584 2113 2584 
z
M 3366 4563 
L 3366 3988 
Q 3128 4100 2886 4159 
Q 2644 4219 2406 4219 
Q 1781 4219 1451 3797 
Q 1122 3375 1075 2522 
Q 1259 2794 1537 2939 
Q 1816 3084 2150 3084 
Q 2853 3084 3261 2657 
Q 3669 2231 3669 1497 
Q 3669 778 3244 343 
Q 2819 -91 2113 -91 
Q 1303 -91 875 529 
Q 447 1150 447 2328 
Q 447 3434 972 4092 
Q 1497 4750 2381 4750 
Q 2619 4750 2861 4703 
Q 3103 4656 3366 4563 
z
" transform="scale(0.015625)"/>
        <path id="DejaVuSans-99" d="M 4488 3438 
L 3059 2003 
L 4488 575 
L 4116 197 
L 2681 1631 
L 1247 197 
L 878 575 
L 2303 2003 
L 878 3438 
L 1247 3816 
L 2681 2381 
L 4116 3816 
L 4488 3438 
z
" transform="scale(0.015625)"/>
       </defs>
       <use xlink:href="#DejaVuSans-19" transform="translate(0 0.746875)"/>
       <use xlink:href="#DejaVuSans-99" transform="translate(83.105469 0.746875)"/>
       <use xlink:href="#DejaVuSans-14" transform="translate(186.376953 0.746875)"/>
       <use xlink:href="#DejaVuSans-13" transform="translate(250 0.746875)"/>
       <use xlink:href="#DejaVuSans-13" transform="translate(314.580078 42.046875) scale(0.7)"/>
      </g>
     </g>
    </g>
    <g id="xtick_4">
     <g id="line2d_4">
      <g>
       <use xlink:href="#mec9d531806" x="99.676214" y="258.072" style="stroke: #000000; stroke-width: 0.6"/>
      </g>
     </g>
    </g>
    <g id="xtick_5">
     <g id="line2d_5">
      <g>
       <use xlink:href="#mec9d531806" x="115.918091" y="258.072" style="stroke: #000000; stroke-width: 0.6"/>
      </g>
     </g>
    </g>
    <g id="xtick_6">
     <g id="line2d_6">
      <g>
       <use xlink:href="#mec9d531806" x="130.244442" y="258.072" style="stroke: #000000; stroke-width: 0.6"/>
      </g>
     </g>
    </g>
    <g id="xtick_7">
     <g id="line2d_7">
      <g>
       <use xlink:href="#mec9d531806" x="227.369648" y="258.072" style="stroke: #000000; stroke-width: 0.6"/>
      </g>
     </g>
     <g id="text_3">
      <!-- $\mathdefault{2\times10^{1}}$ -->
      <g transform="translate(209.269648 272.772) scale(0.1 -0.1)">
       <defs>
        <path id="DejaVuSans-15" d="M 1228 531 
L 3431 531 
L 3431 0 
L 469 0 
L 469 531 
Q 828 903 1448 1529 
Q 2069 2156 2228 2338 
Q 2531 2678 2651 2914 
Q 2772 3150 2772 3378 
Q 2772 3750 2511 3984 
Q 2250 4219 1831 4219 
Q 1534 4219 1204 4116 
Q 875 4013 500 3803 
L 500 4441 
Q 881 4594 1212 4672 
Q 1544 4750 1819 4750 
Q 2544 4750 2975 4387 
Q 3406 4025 3406 3419 
Q 3406 3131 3298 2873 
Q 3191 2616 2906 2266 
Q 2828 2175 2409 1742 
Q 1991 1309 1228 531 
z
" transform="scale(0.015625)"/>
       </defs>
       <use xlink:href="#DejaVuSans-15" transform="translate(0 0.665625)"/>
       <use xlink:href="#DejaVuSans-99" transform="translate(83.105469 0.665625)"/>
       <use xlink:href="#DejaVuSans-14" transform="translate(186.376953 0.665625)"/>
       <use xlink:href="#DejaVuSans-13" transform="translate(250 0.665625)"/>
       <use xlink:href="#DejaVuSans-14" transform="translate(314.580078 41.965625) scale(0.7)"/>
      </g>
     </g>
    </g>
    <g id="xtick_8">
     <g id="line2d_8">
      <g>
       <use xlink:href="#mec9d531806" x="276.687747" y="258.072" style="stroke: #000000; stroke-width: 0.6"/>
      </g>
     </g>
     <g id="text_4">
      <!-- $\mathdefault{3\times10^{1}}$ -->
      <g transform="translate(258.587747 272.772) scale(0.1 -0.1)">
       <defs>
        <path id="DejaVuSans-16" d="M 2597 2516 
Q 3050 2419 3304 2112 
Q 3559 1806 3559 1356 
Q 3559 666 3084 287 
Q 2609 -91 1734 -91 
Q 1441 -91 1130 -33 
Q 819 25 488 141 
L 488 750 
Q 750 597 1062 519 
Q 1375 441 1716 441 
Q 2309 441 2620 675 
Q 2931 909 2931 1356 
Q 2931 1769 2642 2001 
Q 2353 2234 1838 2234 
L 1294 2234 
L 1294 2753 
L 1863 2753 
Q 2328 2753 2575 2939 
Q 2822 3125 2822 3475 
Q 2822 3834 2567 4026 
Q 2313 4219 1838 4219 
Q 1578 4219 1281 4162 
Q 984 4106 628 3988 
L 628 4550 
Q 988 4650 1302 4700 
Q 1616 4750 1894 4750 
Q 2613 4750 3031 4423 
Q 3450 4097 3450 3541 
Q 3450 3153 3228 2886 
Q 3006 2619 2597 2516 
z
" transform="scale(0.015625)"/>
       </defs>
       <use xlink:href="#DejaVuSans-16" transform="translate(0 0.665625)"/>
       <use xlink:href="#DejaVuSans-99" transform="translate(83.105469 0.665625)"/>
       <use xlink:href="#DejaVuSans-14" transform="translate(186.376953 0.665625)"/>
       <use xlink:href="#DejaVuSans-13" transform="translate(250 0.665625)"/>
       <use xlink:href="#DejaVuSans-14" transform="translate(314.580078 41.965625) scale(0.7)"/>
      </g>
     </g>
    </g>
    <g id="xtick_9">
     <g id="line2d_9">
      <g>
       <use xlink:href="#mec9d531806" x="311.679496" y="258.072" style="stroke: #000000; stroke-width: 0.6"/>
      </g>
     </g>
     <g id="text_5">
      <!-- $\mathdefault{4\times10^{1}}$ -->
      <g transform="translate(293.579496 272.772) scale(0.1 -0.1)">
       <defs>
        <path id="DejaVuSans-17" d="M 2419 4116 
L 825 1625 
L 2419 1625 
L 2419 4116 
z
M 2253 4666 
L 3047 4666 
L 3047 1625 
L 3713 1625 
L 3713 1100 
L 3047 1100 
L 3047 0 
L 2419 0 
L 2419 1100 
L 313 1100 
L 313 1709 
L 2253 4666 
z
" transform="scale(0.015625)"/>
       </defs>
       <use xlink:href="#DejaVuSans-17" transform="translate(0 0.665625)"/>
       <use xlink:href="#DejaVuSans-99" transform="translate(83.105469 0.665625)"/>
       <use xlink:href="#DejaVuSans-14" transform="translate(186.376953 0.665625)"/>
       <use xlink:href="#DejaVuSans-13" transform="translate(250 0.665625)"/>
       <use xlink:href="#DejaVuSans-14" transform="translate(314.580078 41.965625) scale(0.7)"/>
      </g>
     </g>
    </g>
    <g id="text_6">
     <!-- $c^+$ (absolute) -->
     <g transform="translate(153.787015 289.374344) scale(0.1 -0.1)">
      <defs>
       <path id="DejaVuSans-Oblique-46" d="M 3431 3366 
L 3316 2797 
Q 3109 2947 2876 3022 
Q 2644 3097 2394 3097 
Q 2119 3097 1870 3000 
Q 1622 2903 1453 2725 
Q 1184 2453 1037 2087 
Q 891 1722 891 1331 
Q 891 859 1127 628 
Q 1363 397 1844 397 
Q 2081 397 2348 469 
Q 2616 541 2906 684 
L 2797 116 
Q 2547 13 2283 -39 
Q 2019 -91 1741 -91 
Q 1044 -91 669 257 
Q 294 606 294 1253 
Q 294 1797 489 2255 
Q 684 2713 1069 3078 
Q 1331 3328 1684 3456 
Q 2038 3584 2456 3584 
Q 2700 3584 2940 3529 
Q 3181 3475 3431 3366 
z
" transform="scale(0.015625)"/>
       <path id="DejaVuSans-e" d="M 2944 4013 
L 2944 2272 
L 4684 2272 
L 4684 1741 
L 2944 1741 
L 2944 0 
L 2419 0 
L 2419 1741 
L 678 1741 
L 678 2272 
L 2419 2272 
L 2419 4013 
L 2944 4013 
z
" transform="scale(0.015625)"/>
       <path id="DejaVuSans-3" transform="scale(0.015625)"/>
       <path id="DejaVuSans-b" d="M 1984 4856 
Q 1566 4138 1362 3434 
Q 1159 2731 1159 2009 
Q 1159 1288 1364 580 
Q 1569 -128 1984 -844 
L 1484 -844 
Q 1016 -109 783 600 
Q 550 1309 550 2009 
Q 550 2706 781 3412 
Q 1013 4119 1484 4856 
L 1984 4856 
z
" transform="scale(0.015625)"/>
       <path id="DejaVuSans-44" d="M 2194 1759 
Q 1497 1759 1228 1600 
Q 959 1441 959 1056 
Q 959 750 1161 570 
Q 1363 391 1709 391 
Q 2188 391 2477 730 
Q 2766 1069 2766 1631 
L 2766 1759 
L 2194 1759 
z
M 3341 1997 
L 3341 0 
L 2766 0 
L 2766 531 
Q 2569 213 2275 61 
Q 1981 -91 1556 -91 
Q 1019 -91 701 211 
Q 384 513 384 1019 
Q 384 1609 779 1909 
Q 1175 2209 1959 2209 
L 2766 2209 
L 2766 2266 
Q 2766 2663 2505 2880 
Q 2244 3097 1772 3097 
Q 1472 3097 1187 3025 
Q 903 2953 641 2809 
L 641 3341 
Q 956 3463 1253 3523 
Q 1550 3584 1831 3584 
Q 2591 3584 2966 3190 
Q 3341 2797 3341 1997 
z
" transform="scale(0.015625)"/>
       <path id="DejaVuSans-45" d="M 3116 1747 
Q 3116 2381 2855 2742 
Q 2594 3103 2138 3103 
Q 1681 3103 1420 2742 
Q 1159 2381 1159 1747 
Q 1159 1113 1420 752 
Q 1681 391 2138 391 
Q 2594 391 2855 752 
Q 3116 1113 3116 1747 
z
M 1159 2969 
Q 1341 3281 1617 3432 
Q 1894 3584 2278 3584 
Q 2916 3584 3314 3078 
Q 3713 2572 3713 1747 
Q 3713 922 3314 415 
Q 2916 -91 2278 -91 
Q 1894 -91 1617 61 
Q 1341 213 1159 525 
L 1159 0 
L 581 0 
L 581 4863 
L 1159 4863 
L 1159 2969 
z
" transform="scale(0.015625)"/>
       <path id="DejaVuSans-56" d="M 2834 3397 
L 2834 2853 
Q 2591 2978 2328 3040 
Q 2066 3103 1784 3103 
Q 1356 3103 1142 2972 
Q 928 2841 928 2578 
Q 928 2378 1081 2264 
Q 1234 2150 1697 2047 
L 1894 2003 
Q 2506 1872 2764 1633 
Q 3022 1394 3022 966 
Q 3022 478 2636 193 
Q 2250 -91 1575 -91 
Q 1294 -91 989 -36 
Q 684 19 347 128 
L 347 722 
Q 666 556 975 473 
Q 1284 391 1588 391 
Q 1994 391 2212 530 
Q 2431 669 2431 922 
Q 2431 1156 2273 1281 
Q 2116 1406 1581 1522 
L 1381 1569 
Q 847 1681 609 1914 
Q 372 2147 372 2553 
Q 372 3047 722 3315 
Q 1072 3584 1716 3584 
Q 2034 3584 2315 3537 
Q 2597 3491 2834 3397 
z
" transform="scale(0.015625)"/>
       <path id="DejaVuSans-52" d="M 1959 3097 
Q 1497 3097 1228 2736 
Q 959 2375 959 1747 
Q 959 1119 1226 758 
Q 1494 397 1959 397 
Q 2419 397 2687 759 
Q 2956 1122 2956 1747 
Q 2956 2369 2687 2733 
Q 2419 3097 1959 3097 
z
M 1959 3584 
Q 2709 3584 3137 3096 
Q 3566 2609 3566 1747 
Q 3566 888 3137 398 
Q 2709 -91 1959 -91 
Q 1206 -91 779 398 
Q 353 888 353 1747 
Q 353 2609 779 3096 
Q 1206 3584 1959 3584 
z
" transform="scale(0.015625)"/>
       <path id="DejaVuSans-4f" d="M 603 4863 
L 1178 4863 
L 1178 0 
L 603 0 
L 603 4863 
z
" transform="scale(0.015625)"/>
       <path id="DejaVuSans-58" d="M 544 1381 
L 544 3500 
L 1119 3500 
L 1119 1403 
Q 1119 906 1312 657 
Q 1506 409 1894 409 
Q 2359 409 2629 706 
Q 2900 1003 2900 1516 
L 2900 3500 
L 3475 3500 
L 3475 0 
L 2900 0 
L 2900 538 
Q 2691 219 2414 64 
Q 2138 -91 1772 -91 
Q 1169 -91 856 284 
Q 544 659 544 1381 
z
M 1991 3584 
L 1991 3584 
z
" transform="scale(0.015625)"/>
       <path id="DejaVuSans-57" d="M 1172 4494 
L 1172 3500 
L 2356 3500 
L 2356 3053 
L 1172 3053 
L 1172 1153 
Q 1172 725 1289 603 
Q 1406 481 1766 481 
L 2356 481 
L 2356 0 
L 1766 0 
Q 1100 0 847 248 
Q 594 497 594 1153 
L 594 3053 
L 172 3053 
L 172 3500 
L 594 3500 
L 594 4494 
L 1172 4494 
z
" transform="scale(0.015625)"/>
       <path id="DejaVuSans-48" d="M 3597 1894 
L 3597 1613 
L 953 1613 
Q 991 1019 1311 708 
Q 1631 397 2203 397 
Q 2534 397 2845 478 
Q 3156 559 3463 722 
L 3463 178 
Q 3153 47 2828 -22 
Q 2503 -91 2169 -91 
Q 1331 -91 842 396 
Q 353 884 353 1716 
Q 353 2575 817 3079 
Q 1281 3584 2069 3584 
Q 2775 3584 3186 3129 
Q 3597 2675 3597 1894 
z
M 3022 2063 
Q 3016 2534 2758 2815 
Q 2500 3097 2075 3097 
Q 1594 3097 1305 2825 
Q 1016 2553 972 2059 
L 3022 2063 
z
" transform="scale(0.015625)"/>
       <path id="DejaVuSans-c" d="M 513 4856 
L 1013 4856 
Q 1481 4119 1714 3412 
Q 1947 2706 1947 2009 
Q 1947 1309 1714 600 
Q 1481 -109 1013 -844 
L 513 -844 
Q 928 -128 1133 580 
Q 1338 1288 1338 2009 
Q 1338 2731 1133 3434 
Q 928 4138 513 4856 
z
" transform="scale(0.015625)"/>
      </defs>
      <use xlink:href="#DejaVuSans-Oblique-46" transform="translate(0 0.807813)"/>
      <use xlink:href="#DejaVuSans-e" transform="translate(73.26806 42.107813) scale(0.7)"/>
      <use xlink:href="#DejaVuSans-3" transform="translate(148.292474 0.807813)"/>
      <use xlink:href="#DejaVuSans-b" transform="translate(180.079583 0.807813)"/>
      <use xlink:href="#DejaVuSans-44" transform="translate(219.093255 0.807813)"/>
      <use xlink:href="#DejaVuSans-45" transform="translate(280.372552 0.807813)"/>
      <use xlink:href="#DejaVuSans-56" transform="translate(343.849115 0.807813)"/>
      <use xlink:href="#DejaVuSans-52" transform="translate(395.948724 0.807813)"/>
      <use xlink:href="#DejaVuSans-4f" transform="translate(457.130365 0.807813)"/>
      <use xlink:href="#DejaVuSans-58" transform="translate(484.913568 0.807813)"/>
      <use xlink:href="#DejaVuSans-57" transform="translate(548.292474 0.807813)"/>
      <use xlink:href="#DejaVuSans-48" transform="translate(587.501458 0.807813)"/>
      <use xlink:href="#DejaVuSans-c" transform="translate(649.024896 0.807813)"/>
     </g>
    </g>
   </g>
   <g id="matplotlib.axis_2">
    <g id="ytick_1">
     <g id="line2d_10">
      <defs>
       <path id="mf315884f08" d="M 0 0 
L -3.5 0 
" style="stroke: #000000; stroke-width: 0.8"/>
      </defs>
      <g>
       <use xlink:href="#mf315884f08" x="44.103906" y="258.072" style="stroke: #000000; stroke-width: 0.8"/>
      </g>
     </g>
     <g id="text_7">
      <!-- 0.0 -->
      <g transform="translate(21.200781 261.870828) scale(0.1 -0.1)">
       <defs>
        <path id="DejaVuSans-11" d="M 684 794 
L 1344 794 
L 1344 0 
L 684 0 
L 684 794 
z
" transform="scale(0.015625)"/>
       </defs>
       <use xlink:href="#DejaVuSans-13"/>
       <use xlink:href="#DejaVuSans-11" transform="translate(63.625 0)"/>
       <use xlink:href="#DejaVuSans-13" transform="translate(95.40625 0)"/>
      </g>
     </g>
    </g>
    <g id="ytick_2">
     <g id="line2d_11">
      <g>
       <use xlink:href="#mf315884f08" x="44.103906" y="218.665523" style="stroke: #000000; stroke-width: 0.8"/>
      </g>
     </g>
     <g id="text_8">
      <!-- 0.2 -->
      <g transform="translate(21.200781 222.464352) scale(0.1 -0.1)">
       <use xlink:href="#DejaVuSans-13"/>
       <use xlink:href="#DejaVuSans-11" transform="translate(63.625 0)"/>
       <use xlink:href="#DejaVuSans-15" transform="translate(95.40625 0)"/>
      </g>
     </g>
    </g>
    <g id="ytick_3">
     <g id="line2d_12">
      <g>
       <use xlink:href="#mf315884f08" x="44.103906" y="179.259047" style="stroke: #000000; stroke-width: 0.8"/>
      </g>
     </g>
     <g id="text_9">
      <!-- 0.4 -->
      <g transform="translate(21.200781 183.057875) scale(0.1 -0.1)">
       <use xlink:href="#DejaVuSans-13"/>
       <use xlink:href="#DejaVuSans-11" transform="translate(63.625 0)"/>
       <use xlink:href="#DejaVuSans-17" transform="translate(95.40625 0)"/>
      </g>
     </g>
    </g>
    <g id="ytick_4">
     <g id="line2d_13">
      <g>
       <use xlink:href="#mf315884f08" x="44.103906" y="139.85257" style="stroke: #000000; stroke-width: 0.8"/>
      </g>
     </g>
     <g id="text_10">
      <!-- 0.6 -->
      <g transform="translate(21.200781 143.651398) scale(0.1 -0.1)">
       <use xlink:href="#DejaVuSans-13"/>
       <use xlink:href="#DejaVuSans-11" transform="translate(63.625 0)"/>
       <use xlink:href="#DejaVuSans-19" transform="translate(95.40625 0)"/>
      </g>
     </g>
    </g>
    <g id="ytick_5">
     <g id="line2d_14">
      <g>
       <use xlink:href="#mf315884f08" x="44.103906" y="100.446094" style="stroke: #000000; stroke-width: 0.8"/>
      </g>
     </g>
     <g id="text_11">
      <!-- 0.8 -->
      <g transform="translate(21.200781 104.244922) scale(0.1 -0.1)">
       <defs>
        <path id="DejaVuSans-1b" d="M 2034 2216 
Q 1584 2216 1326 1975 
Q 1069 1734 1069 1313 
Q 1069 891 1326 650 
Q 1584 409 2034 409 
Q 2484 409 2743 651 
Q 3003 894 3003 1313 
Q 3003 1734 2745 1975 
Q 2488 2216 2034 2216 
z
M 1403 2484 
Q 997 2584 770 2862 
Q 544 3141 544 3541 
Q 544 4100 942 4425 
Q 1341 4750 2034 4750 
Q 2731 4750 3128 4425 
Q 3525 4100 3525 3541 
Q 3525 3141 3298 2862 
Q 3072 2584 2669 2484 
Q 3125 2378 3379 2068 
Q 3634 1759 3634 1313 
Q 3634 634 3220 271 
Q 2806 -91 2034 -91 
Q 1263 -91 848 271 
Q 434 634 434 1313 
Q 434 1759 690 2068 
Q 947 2378 1403 2484 
z
M 1172 3481 
Q 1172 3119 1398 2916 
Q 1625 2713 2034 2713 
Q 2441 2713 2670 2916 
Q 2900 3119 2900 3481 
Q 2900 3844 2670 4047 
Q 2441 4250 2034 4250 
Q 1625 4250 1398 4047 
Q 1172 3844 1172 3481 
z
" transform="scale(0.015625)"/>
       </defs>
       <use xlink:href="#DejaVuSans-13"/>
       <use xlink:href="#DejaVuSans-11" transform="translate(63.625 0)"/>
       <use xlink:href="#DejaVuSans-1b" transform="translate(95.40625 0)"/>
      </g>
     </g>
    </g>
    <g id="ytick_6">
     <g id="line2d_15">
      <g>
       <use xlink:href="#mf315884f08" x="44.103906" y="61.039617" style="stroke: #000000; stroke-width: 0.8"/>
      </g>
     </g>
     <g id="text_12">
      <!-- 1.0 -->
      <g transform="translate(21.200781 64.838445) scale(0.1 -0.1)">
       <use xlink:href="#DejaVuSans-14"/>
       <use xlink:href="#DejaVuSans-11" transform="translate(63.625 0)"/>
       <use xlink:href="#DejaVuSans-13" transform="translate(95.40625 0)"/>
      </g>
     </g>
    </g>
    <g id="text_13">
     <!-- z/H (height up wall) -->
     <g transform="translate(14.798438 208.505027) rotate(-90) scale(0.1 -0.1)">
      <defs>
       <path id="DejaVuSans-5d" d="M 353 3500 
L 3084 3500 
L 3084 2975 
L 922 459 
L 3084 459 
L 3084 0 
L 275 0 
L 275 525 
L 2438 3041 
L 353 3041 
L 353 3500 
z
" transform="scale(0.015625)"/>
       <path id="DejaVuSans-12" d="M 1625 4666 
L 2156 4666 
L 531 -594 
L 0 -594 
L 1625 4666 
z
" transform="scale(0.015625)"/>
       <path id="DejaVuSans-2b" d="M 628 4666 
L 1259 4666 
L 1259 2753 
L 3553 2753 
L 3553 4666 
L 4184 4666 
L 4184 0 
L 3553 0 
L 3553 2222 
L 1259 2222 
L 1259 0 
L 628 0 
L 628 4666 
z
" transform="scale(0.015625)"/>
       <path id="DejaVuSans-4b" d="M 3513 2113 
L 3513 0 
L 2938 0 
L 2938 2094 
Q 2938 2591 2744 2837 
Q 2550 3084 2163 3084 
Q 1697 3084 1428 2787 
Q 1159 2491 1159 1978 
L 1159 0 
L 581 0 
L 581 4863 
L 1159 4863 
L 1159 2956 
Q 1366 3272 1645 3428 
Q 1925 3584 2291 3584 
Q 2894 3584 3203 3211 
Q 3513 2838 3513 2113 
z
" transform="scale(0.015625)"/>
       <path id="DejaVuSans-4c" d="M 603 3500 
L 1178 3500 
L 1178 0 
L 603 0 
L 603 3500 
z
M 603 4863 
L 1178 4863 
L 1178 4134 
L 603 4134 
L 603 4863 
z
" transform="scale(0.015625)"/>
       <path id="DejaVuSans-4a" d="M 2906 1791 
Q 2906 2416 2648 2759 
Q 2391 3103 1925 3103 
Q 1463 3103 1205 2759 
Q 947 2416 947 1791 
Q 947 1169 1205 825 
Q 1463 481 1925 481 
Q 2391 481 2648 825 
Q 2906 1169 2906 1791 
z
M 3481 434 
Q 3481 -459 3084 -895 
Q 2688 -1331 1869 -1331 
Q 1566 -1331 1297 -1286 
Q 1028 -1241 775 -1147 
L 775 -588 
Q 1028 -725 1275 -790 
Q 1522 -856 1778 -856 
Q 2344 -856 2625 -561 
Q 2906 -266 2906 331 
L 2906 616 
Q 2728 306 2450 153 
Q 2172 0 1784 0 
Q 1141 0 747 490 
Q 353 981 353 1791 
Q 353 2603 747 3093 
Q 1141 3584 1784 3584 
Q 2172 3584 2450 3431 
Q 2728 3278 2906 2969 
L 2906 3500 
L 3481 3500 
L 3481 434 
z
" transform="scale(0.015625)"/>
       <path id="DejaVuSans-53" d="M 1159 525 
L 1159 -1331 
L 581 -1331 
L 581 3500 
L 1159 3500 
L 1159 2969 
Q 1341 3281 1617 3432 
Q 1894 3584 2278 3584 
Q 2916 3584 3314 3078 
Q 3713 2572 3713 1747 
Q 3713 922 3314 415 
Q 2916 -91 2278 -91 
Q 1894 -91 1617 61 
Q 1341 213 1159 525 
z
M 3116 1747 
Q 3116 2381 2855 2742 
Q 2594 3103 2138 3103 
Q 1681 3103 1420 2742 
Q 1159 2381 1159 1747 
Q 1159 1113 1420 752 
Q 1681 391 2138 391 
Q 2594 391 2855 752 
Q 3116 1113 3116 1747 
z
" transform="scale(0.015625)"/>
       <path id="DejaVuSans-5a" d="M 269 3500 
L 844 3500 
L 1563 769 
L 2278 3500 
L 2956 3500 
L 3675 769 
L 4391 3500 
L 4966 3500 
L 4050 0 
L 3372 0 
L 2619 2869 
L 1863 0 
L 1184 0 
L 269 3500 
z
" transform="scale(0.015625)"/>
      </defs>
      <use xlink:href="#DejaVuSans-5d"/>
      <use xlink:href="#DejaVuSans-12" transform="translate(52.484375 0)"/>
      <use xlink:href="#DejaVuSans-2b" transform="translate(86.171875 0)"/>
      <use xlink:href="#DejaVuSans-3" transform="translate(161.375 0)"/>
      <use xlink:href="#DejaVuSans-b" transform="translate(193.15625 0)"/>
      <use xlink:href="#DejaVuSans-4b" transform="translate(232.171875 0)"/>
      <use xlink:href="#DejaVuSans-48" transform="translate(295.546875 0)"/>
      <use xlink:href="#DejaVuSans-4c" transform="translate(357.078125 0)"/>
      <use xlink:href="#DejaVuSans-4a" transform="translate(384.859375 0)"/>
      <use xlink:href="#DejaVuSans-4b" transform="translate(448.34375 0)"/>
      <use xlink:href="#DejaVuSans-57" transform="translate(511.71875 0)"/>
      <use xlink:href="#DejaVuSans-3" transform="translate(550.921875 0)"/>
      <use xlink:href="#DejaVuSans-58" transform="translate(582.703125 0)"/>
      <use xlink:href="#DejaVuSans-53" transform="translate(646.078125 0)"/>
      <use xlink:href="#DejaVuSans-3" transform="translate(709.5625 0)"/>
      <use xlink:href="#DejaVuSans-5a" transform="translate(741.34375 0)"/>
      <use xlink:href="#DejaVuSans-44" transform="translate(823.125 0)"/>
      <use xlink:href="#DejaVuSans-4f" transform="translate(884.40625 0)"/>
      <use xlink:href="#DejaVuSans-4f" transform="translate(912.1875 0)"/>
      <use xlink:href="#DejaVuSans-c" transform="translate(939.96875 0)"/>
     </g>
    </g>
   </g>
   <g id="line2d_16">
    <defs>
     <path id="m09bd51875b" d="M 0 3 
C 0.795609 3 1.55874 2.683901 2.12132 2.12132 
C 2.683901 1.55874 3 0.795609 3 0 
C 3 -0.795609 2.683901 -1.55874 2.12132 -2.12132 
C 1.55874 -2.683901 0.795609 -3 0 -3 
C -0.795609 -3 -1.55874 -2.683901 -2.12132 -2.12132 
C -2.683901 -1.55874 -3 -0.795609 -3 0 
C -3 0.795609 -2.683901 1.55874 -2.12132 2.12132 
C -1.55874 2.683901 -0.795609 3 0 3 
z
" style="stroke: #d62728"/>
    </defs>
    <g clip-path="url(#p115156d1fe)">
     <use xlink:href="#m09bd51875b" x="319.267115" y="258.072" style="fill: #d62728; stroke: #d62728"/>
     <use xlink:href="#m09bd51875b" x="306.415348" y="225.23327" style="fill: #d62728; stroke: #d62728"/>
     <use xlink:href="#m09bd51875b" x="289.414811" y="192.394539" style="fill: #d62728; stroke: #d62728"/>
     <use xlink:href="#m09bd51875b" x="272.132466" y="159.555809" style="fill: #d62728; stroke: #d62728"/>
     <use xlink:href="#m09bd51875b" x="256.917766" y="126.717078" style="fill: #d62728; stroke: #d62728"/>
     <use xlink:href="#m09bd51875b" x="243.377492" y="93.878348" style="fill: #d62728; stroke: #d62728"/>
     <use xlink:href="#m09bd51875b" x="229.952682" y="61.039617" style="fill: #d62728; stroke: #d62728"/>
    </g>
   </g>
   <g id="line2d_17">
    <defs>
     <path id="m1a911e2f96" d="M -3 3 
L 3 3 
L 3 -3 
L -3 -3 
z
" style="stroke: #1f77b4; stroke-linejoin: miter"/>
    </defs>
    <g clip-path="url(#p115156d1fe)">
     <use xlink:href="#m1a911e2f96" x="163.28615" y="258.072" style="fill: #1f77b4; stroke: #1f77b4; stroke-linejoin: miter"/>
     <use xlink:href="#m1a911e2f96" x="160.185482" y="225.23327" style="fill: #1f77b4; stroke: #1f77b4; stroke-linejoin: miter"/>
     <use xlink:href="#m1a911e2f96" x="153.983611" y="192.394539" style="fill: #1f77b4; stroke: #1f77b4; stroke-linejoin: miter"/>
     <use xlink:href="#m1a911e2f96" x="145.281368" y="159.555809" style="fill: #1f77b4; stroke: #1f77b4; stroke-linejoin: miter"/>
     <use xlink:href="#m1a911e2f96" x="135.697531" y="126.717078" style="fill: #1f77b4; stroke: #1f77b4; stroke-linejoin: miter"/>
     <use xlink:href="#m1a911e2f96" x="127.462958" y="93.878348" style="fill: #1f77b4; stroke: #1f77b4; stroke-linejoin: miter"/>
     <use xlink:href="#m1a911e2f96" x="120.781133" y="61.039617" style="fill: #1f77b4; stroke: #1f77b4; stroke-linejoin: miter"/>
    </g>
   </g>
   <g id="line2d_18">
    <path d="M 248.891417 256.019579 
L 247.376458 251.914738 
L 245.434232 247.809897 
L 243.464446 243.705055 
L 241.466136 239.600214 
L 239.438252 235.495373 
L 237.379655 231.390531 
L 235.289101 227.28569 
L 233.165236 223.180849 
L 231.006586 219.076008 
L 228.811544 214.971166 
L 226.578362 210.866325 
L 224.305137 206.761484 
L 221.98979 202.656642 
L 219.630056 198.551801 
L 217.22346 194.44696 
L 214.76729 190.342118 
L 212.258577 186.237277 
L 209.694059 182.132436 
L 207.070145 178.027594 
L 204.38288 173.922753 
L 201.627891 169.817912 
L 198.800337 165.713071 
L 195.894845 161.608229 
L 192.905433 157.503388 
L 189.82543 153.398547 
L 186.647368 149.293705 
L 183.362863 145.188864 
L 179.962473 141.084023 
L 176.435522 136.979181 
L 172.769891 132.87434 
L 168.951759 128.769499 
L 164.965283 124.664657 
L 160.792202 120.559816 
L 156.411332 116.454975 
L 151.797918 112.350134 
L 146.922794 108.245292 
L 141.751277 104.140451 
L 136.241684 100.03561 
L 130.343316 95.930768 
L 123.993684 91.825927 
L 117.114655 87.721086 
L 109.607119 83.616244 
L 101.343864 79.511403 
L 92.161609 75.406562 
L 81.858431 71.30172 
L 70.226108 67.196879 
L 57.206916 63.092038 
" clip-path="url(#p115156d1fe)" style="fill: none; stroke: #d62728; stroke-width: 2; stroke-linecap: square"/>
   </g>
   <g id="line2d_19">
    <path d="M 246.7705 256.019579 
L 245.220752 251.914738 
L 243.227464 247.809897 
L 241.197109 243.705055 
L 239.128491 239.600214 
L 237.020383 235.495373 
L 234.87153 231.390531 
L 232.680656 227.28569 
L 230.446455 223.180849 
L 228.167596 219.076008 
L 225.842719 214.971166 
L 223.470432 210.866325 
L 221.049314 206.761484 
L 218.57791 202.656642 
L 216.054731 198.551801 
L 213.478255 194.44696 
L 210.846923 190.342118 
L 208.159143 186.237277 
L 205.413282 182.132436 
L 202.607674 178.027594 
L 199.740608 173.922753 
L 196.810337 169.817912 
L 193.815062 165.713071 
L 190.752937 161.608229 
L 187.622059 157.503388 
L 184.420457 153.398547 
L 181.146081 149.293705 
L 177.796784 145.188864 
L 174.370301 141.084023 
L 170.864218 136.979181 
L 167.275935 132.87434 
L 163.602613 128.769499 
L 159.841106 124.664657 
L 155.987881 120.559816 
L 152.038895 116.454975 
L 147.98945 112.350134 
L 143.83399 108.245292 
L 139.565839 104.140451 
L 135.176842 100.03561 
L 130.656884 95.930768 
L 125.993239 91.825927 
L 121.169715 87.721086 
L 116.165574 83.616244 
L 110.954481 79.511403 
L 105.504206 75.406562 
L 99.780567 71.30172 
L 93.763046 67.196879 
L 87.48107 63.092038 
" clip-path="url(#p115156d1fe)" style="fill: none; stroke: #1f77b4; stroke-width: 2; stroke-linecap: square"/>
   </g>
   <g id="patch_3">
    <path d="M 44.103906 258.072 
L 44.103906 61.039617 
" style="fill: none; stroke: #000000; stroke-width: 0.8; stroke-linejoin: miter; stroke-linecap: square"/>
   </g>
   <g id="patch_4">
    <path d="M 332.370125 258.072 
L 332.370125 61.039617 
" style="fill: none; stroke: #000000; stroke-width: 0.8; stroke-linejoin: miter; stroke-linecap: square"/>
   </g>
   <g id="patch_5">
    <path d="M 44.103906 258.072 
L 332.370125 258.072 
" style="fill: none; stroke: #000000; stroke-width: 0.8; stroke-linejoin: miter; stroke-linecap: square"/>
   </g>
   <g id="patch_6">
    <path d="M 44.103906 61.039617 
L 332.370125 61.039617 
" style="fill: none; stroke: #000000; stroke-width: 0.8; stroke-linejoin: miter; stroke-linecap: square"/>
   </g>
   <g id="text_14">
    <!-- Absolute $c^+$ -->
    <g transform="translate(157.337015 43.036883) scale(0.1 -0.1)">
     <defs>
      <path id="DejaVuSans-24" d="M 2188 4044 
L 1331 1722 
L 3047 1722 
L 2188 4044 
z
M 1831 4666 
L 2547 4666 
L 4325 0 
L 3669 0 
L 3244 1197 
L 1141 1197 
L 716 0 
L 50 0 
L 1831 4666 
z
" transform="scale(0.015625)"/>
     </defs>
     <use xlink:href="#DejaVuSans-24" transform="translate(0 0.807813)"/>
     <use xlink:href="#DejaVuSans-45" transform="translate(68.408203 0.807813)"/>
     <use xlink:href="#DejaVuSans-56" transform="translate(131.884766 0.807813)"/>
     <use xlink:href="#DejaVuSans-52" transform="translate(183.984375 0.807813)"/>
     <use xlink:href="#DejaVuSans-4f" transform="translate(245.166016 0.807813)"/>
     <use xlink:href="#DejaVuSans-58" transform="translate(272.949219 0.807813)"/>
     <use xlink:href="#DejaVuSans-57" transform="translate(336.328125 0.807813)"/>
     <use xlink:href="#DejaVuSans-48" transform="translate(375.537109 0.807813)"/>
     <use xlink:href="#DejaVuSans-3" transform="translate(437.060547 0.807813)"/>
     <use xlink:href="#DejaVuSans-Oblique-46" transform="translate(468.847656 0.807813)"/>
     <use xlink:href="#DejaVuSans-e" transform="translate(542.115716 42.107813) scale(0.7)"/>
    </g>
    <!-- (laminar model vs turbulent tunnel) -->
    <g transform="translate(98.790922 55.039617) scale(0.1 -0.1)">
     <defs>
      <path id="DejaVuSans-50" d="M 3328 2828 
Q 3544 3216 3844 3400 
Q 4144 3584 4550 3584 
Q 5097 3584 5394 3201 
Q 5691 2819 5691 2113 
L 5691 0 
L 5113 0 
L 5113 2094 
Q 5113 2597 4934 2840 
Q 4756 3084 4391 3084 
Q 3944 3084 3684 2787 
Q 3425 2491 3425 1978 
L 3425 0 
L 2847 0 
L 2847 2094 
Q 2847 2600 2669 2842 
Q 2491 3084 2119 3084 
Q 1678 3084 1418 2786 
Q 1159 2488 1159 1978 
L 1159 0 
L 581 0 
L 581 3500 
L 1159 3500 
L 1159 2956 
Q 1356 3278 1631 3431 
Q 1906 3584 2284 3584 
Q 2666 3584 2933 3390 
Q 3200 3197 3328 2828 
z
" transform="scale(0.015625)"/>
      <path id="DejaVuSans-51" d="M 3513 2113 
L 3513 0 
L 2938 0 
L 2938 2094 
Q 2938 2591 2744 2837 
Q 2550 3084 2163 3084 
Q 1697 3084 1428 2787 
Q 1159 2491 1159 1978 
L 1159 0 
L 581 0 
L 581 3500 
L 1159 3500 
L 1159 2956 
Q 1366 3272 1645 3428 
Q 1925 3584 2291 3584 
Q 2894 3584 3203 3211 
Q 3513 2838 3513 2113 
z
" transform="scale(0.015625)"/>
      <path id="DejaVuSans-55" d="M 2631 2963 
Q 2534 3019 2420 3045 
Q 2306 3072 2169 3072 
Q 1681 3072 1420 2755 
Q 1159 2438 1159 1844 
L 1159 0 
L 581 0 
L 581 3500 
L 1159 3500 
L 1159 2956 
Q 1341 3275 1631 3429 
Q 1922 3584 2338 3584 
Q 2397 3584 2469 3576 
Q 2541 3569 2628 3553 
L 2631 2963 
z
" transform="scale(0.015625)"/>
      <path id="DejaVuSans-47" d="M 2906 2969 
L 2906 4863 
L 3481 4863 
L 3481 0 
L 2906 0 
L 2906 525 
Q 2725 213 2448 61 
Q 2172 -91 1784 -91 
Q 1150 -91 751 415 
Q 353 922 353 1747 
Q 353 2572 751 3078 
Q 1150 3584 1784 3584 
Q 2172 3584 2448 3432 
Q 2725 3281 2906 2969 
z
M 947 1747 
Q 947 1113 1208 752 
Q 1469 391 1925 391 
Q 2381 391 2643 752 
Q 2906 1113 2906 1747 
Q 2906 2381 2643 2742 
Q 2381 3103 1925 3103 
Q 1469 3103 1208 2742 
Q 947 2381 947 1747 
z
" transform="scale(0.015625)"/>
      <path id="DejaVuSans-59" d="M 191 3500 
L 800 3500 
L 1894 563 
L 2988 3500 
L 3597 3500 
L 2284 0 
L 1503 0 
L 191 3500 
z
" transform="scale(0.015625)"/>
     </defs>
     <use xlink:href="#DejaVuSans-b"/>
     <use xlink:href="#DejaVuSans-4f" transform="translate(39.015625 0)"/>
     <use xlink:href="#DejaVuSans-44" transform="translate(66.796875 0)"/>
     <use xlink:href="#DejaVuSans-50" transform="translate(128.078125 0)"/>
     <use xlink:href="#DejaVuSans-4c" transform="translate(225.484375 0)"/>
     <use xlink:href="#DejaVuSans-51" transform="translate(253.265625 0)"/>
     <use xlink:href="#DejaVuSans-44" transform="translate(316.640625 0)"/>
     <use xlink:href="#DejaVuSans-55" transform="translate(377.921875 0)"/>
     <use xlink:href="#DejaVuSans-3" transform="translate(419.03125 0)"/>
     <use xlink:href="#DejaVuSans-50" transform="translate(450.8125 0)"/>
     <use xlink:href="#DejaVuSans-52" transform="translate(548.21875 0)"/>
     <use xlink:href="#DejaVuSans-47" transform="translate(609.40625 0)"/>
     <use xlink:href="#DejaVuSans-48" transform="translate(672.890625 0)"/>
     <use xlink:href="#DejaVuSans-4f" transform="translate(734.421875 0)"/>
     <use xlink:href="#DejaVuSans-3" transform="translate(762.203125 0)"/>
     <use xlink:href="#DejaVuSans-59" transform="translate(793.984375 0)"/>
     <use xlink:href="#DejaVuSans-56" transform="translate(853.171875 0)"/>
     <use xlink:href="#DejaVuSans-3" transform="translate(905.265625 0)"/>
     <use xlink:href="#DejaVuSans-57" transform="translate(937.046875 0)"/>
     <use xlink:href="#DejaVuSans-58" transform="translate(976.25 0)"/>
     <use xlink:href="#DejaVuSans-55" transform="translate(1039.625 0)"/>
     <use xlink:href="#DejaVuSans-45" transform="translate(1080.734375 0)"/>
     <use xlink:href="#DejaVuSans-58" transform="translate(1144.21875 0)"/>
     <use xlink:href="#DejaVuSans-4f" transform="translate(1207.59375 0)"/>
     <use xlink:href="#DejaVuSans-48" transform="translate(1235.375 0)"/>
     <use xlink:href="#DejaVuSans-51" transform="translate(1296.90625 0)"/>
     <use xlink:href="#DejaVuSans-57" transform="translate(1360.28125 0)"/>
     <use xlink:href="#DejaVuSans-3" transform="translate(1399.484375 0)"/>
     <use xlink:href="#DejaVuSans-57" transform="translate(1431.265625 0)"/>
     <use xlink:href="#DejaVuSans-58" transform="translate(1470.46875 0)"/>
     <use xlink:href="#DejaVuSans-51" transform="translate(1533.84375 0)"/>
     <use xlink:href="#DejaVuSans-51" transform="translate(1597.21875 0)"/>
     <use xlink:href="#DejaVuSans-48" transform="translate(1660.59375 0)"/>
     <use xlink:href="#DejaVuSans-4f" transform="translate(1722.125 0)"/>
     <use xlink:href="#DejaVuSans-c" transform="translate(1749.90625 0)"/>
    </g>
   </g>
   <g id="legend_1">
    <g id="line2d_20">
     <g>
      <use xlink:href="#m09bd51875b" x="57.403906" y="216.138719" style="fill: #d62728; stroke: #d62728"/>
     </g>
    </g>
    <g id="text_15">
     <!-- CODASC leeward -->
     <g transform="translate(70.003906 218.588719) scale(0.07 -0.07)">
      <defs>
       <path id="DejaVuSans-26" d="M 4122 4306 
L 4122 3641 
Q 3803 3938 3442 4084 
Q 3081 4231 2675 4231 
Q 1875 4231 1450 3742 
Q 1025 3253 1025 2328 
Q 1025 1406 1450 917 
Q 1875 428 2675 428 
Q 3081 428 3442 575 
Q 3803 722 4122 1019 
L 4122 359 
Q 3791 134 3420 21 
Q 3050 -91 2638 -91 
Q 1578 -91 968 557 
Q 359 1206 359 2328 
Q 359 3453 968 4101 
Q 1578 4750 2638 4750 
Q 3056 4750 3426 4639 
Q 3797 4528 4122 4306 
z
" transform="scale(0.015625)"/>
       <path id="DejaVuSans-32" d="M 2522 4238 
Q 1834 4238 1429 3725 
Q 1025 3213 1025 2328 
Q 1025 1447 1429 934 
Q 1834 422 2522 422 
Q 3209 422 3611 934 
Q 4013 1447 4013 2328 
Q 4013 3213 3611 3725 
Q 3209 4238 2522 4238 
z
M 2522 4750 
Q 3503 4750 4090 4092 
Q 4678 3434 4678 2328 
Q 4678 1225 4090 567 
Q 3503 -91 2522 -91 
Q 1538 -91 948 565 
Q 359 1222 359 2328 
Q 359 3434 948 4092 
Q 1538 4750 2522 4750 
z
" transform="scale(0.015625)"/>
       <path id="DejaVuSans-27" d="M 1259 4147 
L 1259 519 
L 2022 519 
Q 2988 519 3436 956 
Q 3884 1394 3884 2338 
Q 3884 3275 3436 3711 
Q 2988 4147 2022 4147 
L 1259 4147 
z
M 628 4666 
L 1925 4666 
Q 3281 4666 3915 4102 
Q 4550 3538 4550 2338 
Q 4550 1131 3912 565 
Q 3275 0 1925 0 
L 628 0 
L 628 4666 
z
" transform="scale(0.015625)"/>
       <path id="DejaVuSans-36" d="M 3425 4513 
L 3425 3897 
Q 3066 4069 2747 4153 
Q 2428 4238 2131 4238 
Q 1616 4238 1336 4038 
Q 1056 3838 1056 3469 
Q 1056 3159 1242 3001 
Q 1428 2844 1947 2747 
L 2328 2669 
Q 3034 2534 3370 2195 
Q 3706 1856 3706 1288 
Q 3706 609 3251 259 
Q 2797 -91 1919 -91 
Q 1588 -91 1214 -16 
Q 841 59 441 206 
L 441 856 
Q 825 641 1194 531 
Q 1563 422 1919 422 
Q 2459 422 2753 634 
Q 3047 847 3047 1241 
Q 3047 1584 2836 1778 
Q 2625 1972 2144 2069 
L 1759 2144 
Q 1053 2284 737 2584 
Q 422 2884 422 3419 
Q 422 4038 858 4394 
Q 1294 4750 2059 4750 
Q 2388 4750 2728 4690 
Q 3069 4631 3425 4513 
z
" transform="scale(0.015625)"/>
      </defs>
      <use xlink:href="#DejaVuSans-26"/>
      <use xlink:href="#DejaVuSans-32" transform="translate(69.828125 0)"/>
      <use xlink:href="#DejaVuSans-27" transform="translate(148.546875 0)"/>
      <use xlink:href="#DejaVuSans-24" transform="translate(223.796875 0)"/>
      <use xlink:href="#DejaVuSans-36" transform="translate(292.203125 0)"/>
      <use xlink:href="#DejaVuSans-26" transform="translate(355.6875 0)"/>
      <use xlink:href="#DejaVuSans-3" transform="translate(425.515625 0)"/>
      <use xlink:href="#DejaVuSans-4f" transform="translate(457.296875 0)"/>
      <use xlink:href="#DejaVuSans-48" transform="translate(485.078125 0)"/>
      <use xlink:href="#DejaVuSans-48" transform="translate(546.609375 0)"/>
      <use xlink:href="#DejaVuSans-5a" transform="translate(608.140625 0)"/>
      <use xlink:href="#DejaVuSans-44" transform="translate(689.921875 0)"/>
      <use xlink:href="#DejaVuSans-55" transform="translate(751.203125 0)"/>
      <use xlink:href="#DejaVuSans-47" transform="translate(790.5625 0)"/>
     </g>
    </g>
    <g id="line2d_21">
     <g>
      <use xlink:href="#m1a911e2f96" x="57.403906" y="226.639266" style="fill: #1f77b4; stroke: #1f77b4; stroke-linejoin: miter"/>
     </g>
    </g>
    <g id="text_16">
     <!-- CODASC windward -->
     <g transform="translate(70.003906 229.089266) scale(0.07 -0.07)">
      <use xlink:href="#DejaVuSans-26"/>
      <use xlink:href="#DejaVuSans-32" transform="translate(69.828125 0)"/>
      <use xlink:href="#DejaVuSans-27" transform="translate(148.546875 0)"/>
      <use xlink:href="#DejaVuSans-24" transform="translate(223.796875 0)"/>
      <use xlink:href="#DejaVuSans-36" transform="translate(292.203125 0)"/>
      <use xlink:href="#DejaVuSans-26" transform="translate(355.6875 0)"/>
      <use xlink:href="#DejaVuSans-3" transform="translate(425.515625 0)"/>
      <use xlink:href="#DejaVuSans-5a" transform="translate(457.296875 0)"/>
      <use xlink:href="#DejaVuSans-4c" transform="translate(539.078125 0)"/>
      <use xlink:href="#DejaVuSans-51" transform="translate(566.859375 0)"/>
      <use xlink:href="#DejaVuSans-47" transform="translate(630.234375 0)"/>
      <use xlink:href="#DejaVuSans-5a" transform="translate(693.71875 0)"/>
      <use xlink:href="#DejaVuSans-44" transform="translate(775.5 0)"/>
      <use xlink:href="#DejaVuSans-55" transform="translate(836.78125 0)"/>
      <use xlink:href="#DejaVuSans-47" transform="translate(876.140625 0)"/>
     </g>
    </g>
    <g id="line2d_22">
     <path d="M 50.403906 237.139813 
L 57.403906 237.139813 
L 64.403906 237.139813 
" style="fill: none; stroke: #d62728; stroke-width: 2; stroke-linecap: square"/>
    </g>
    <g id="text_17">
     <!-- model leeward -->
     <g transform="translate(70.003906 239.589812) scale(0.07 -0.07)">
      <use xlink:href="#DejaVuSans-50"/>
      <use xlink:href="#DejaVuSans-52" transform="translate(97.40625 0)"/>
      <use xlink:href="#DejaVuSans-47" transform="translate(158.59375 0)"/>
      <use xlink:href="#DejaVuSans-48" transform="translate(222.078125 0)"/>
      <use xlink:href="#DejaVuSans-4f" transform="translate(283.609375 0)"/>
      <use xlink:href="#DejaVuSans-3" transform="translate(311.390625 0)"/>
      <use xlink:href="#DejaVuSans-4f" transform="translate(343.171875 0)"/>
      <use xlink:href="#DejaVuSans-48" transform="translate(370.953125 0)"/>
      <use xlink:href="#DejaVuSans-48" transform="translate(432.484375 0)"/>
      <use xlink:href="#DejaVuSans-5a" transform="translate(494.015625 0)"/>
      <use xlink:href="#DejaVuSans-44" transform="translate(575.796875 0)"/>
      <use xlink:href="#DejaVuSans-55" transform="translate(637.078125 0)"/>
      <use xlink:href="#DejaVuSans-47" transform="translate(676.4375 0)"/>
     </g>
    </g>
    <g id="line2d_23">
     <path d="M 50.403906 247.640359 
L 57.403906 247.640359 
L 64.403906 247.640359 
" style="fill: none; stroke: #1f77b4; stroke-width: 2; stroke-linecap: square"/>
    </g>
    <g id="text_18">
     <!-- model windward -->
     <g transform="translate(70.003906 250.090359) scale(0.07 -0.07)">
      <use xlink:href="#DejaVuSans-50"/>
      <use xlink:href="#DejaVuSans-52" transform="translate(97.40625 0)"/>
      <use xlink:href="#DejaVuSans-47" transform="translate(158.59375 0)"/>
      <use xlink:href="#DejaVuSans-48" transform="translate(222.078125 0)"/>
      <use xlink:href="#DejaVuSans-4f" transform="translate(283.609375 0)"/>
      <use xlink:href="#DejaVuSans-3" transform="translate(311.390625 0)"/>
      <use xlink:href="#DejaVuSans-5a" transform="translate(343.171875 0)"/>
      <use xlink:href="#DejaVuSans-4c" transform="translate(424.953125 0)"/>
      <use xlink:href="#DejaVuSans-51" transform="translate(452.734375 0)"/>
      <use xlink:href="#DejaVuSans-47" transform="translate(516.109375 0)"/>
      <use xlink:href="#DejaVuSans-5a" transform="translate(579.59375 0)"/>
      <use xlink:href="#DejaVuSans-44" transform="translate(661.375 0)"/>
      <use xlink:href="#DejaVuSans-55" transform="translate(722.65625 0)"/>
      <use xlink:href="#DejaVuSans-47" transform="translate(762.015625 0)"/>
     </g>
    </g>
   </g>
  </g>
  <g id="axes_2">
   <g id="patch_7">
    <path d="M 381.075344 258.072 
L 669.341562 258.072 
L 669.341562 61.039617 
L 381.075344 61.039617 
z
" style="fill: #ffffff"/>
   </g>
   <g id="matplotlib.axis_3">
    <g id="xtick_10">
     <g id="line2d_24">
      <g>
       <use xlink:href="#m28665ef349" x="395.621579" y="258.072" style="stroke: #000000; stroke-width: 0.8"/>
      </g>
     </g>
     <g id="text_19">
      <!-- 0.2 -->
      <g transform="translate(387.670016 272.669656) scale(0.1 -0.1)">
       <use xlink:href="#DejaVuSans-13"/>
       <use xlink:href="#DejaVuSans-11" transform="translate(63.625 0)"/>
       <use xlink:href="#DejaVuSans-15" transform="translate(95.40625 0)"/>
      </g>
     </g>
    </g>
    <g id="xtick_11">
     <g id="line2d_25">
      <g>
       <use xlink:href="#m28665ef349" x="428.1987" y="258.072" style="stroke: #000000; stroke-width: 0.8"/>
      </g>
     </g>
     <g id="text_20">
      <!-- 0.3 -->
      <g transform="translate(420.247138 272.669656) scale(0.1 -0.1)">
       <use xlink:href="#DejaVuSans-13"/>
       <use xlink:href="#DejaVuSans-11" transform="translate(63.625 0)"/>
       <use xlink:href="#DejaVuSans-16" transform="translate(95.40625 0)"/>
      </g>
     </g>
    </g>
    <g id="xtick_12">
     <g id="line2d_26">
      <g>
       <use xlink:href="#m28665ef349" x="460.775822" y="258.072" style="stroke: #000000; stroke-width: 0.8"/>
      </g>
     </g>
     <g id="text_21">
      <!-- 0.4 -->
      <g transform="translate(452.82426 272.669656) scale(0.1 -0.1)">
       <use xlink:href="#DejaVuSans-13"/>
       <use xlink:href="#DejaVuSans-11" transform="translate(63.625 0)"/>
       <use xlink:href="#DejaVuSans-17" transform="translate(95.40625 0)"/>
      </g>
     </g>
    </g>
    <g id="xtick_13">
     <g id="line2d_27">
      <g>
       <use xlink:href="#m28665ef349" x="493.352944" y="258.072" style="stroke: #000000; stroke-width: 0.8"/>
      </g>
     </g>
     <g id="text_22">
      <!-- 0.5 -->
      <g transform="translate(485.401381 272.669656) scale(0.1 -0.1)">
       <defs>
        <path id="DejaVuSans-18" d="M 691 4666 
L 3169 4666 
L 3169 4134 
L 1269 4134 
L 1269 2991 
Q 1406 3038 1543 3061 
Q 1681 3084 1819 3084 
Q 2600 3084 3056 2656 
Q 3513 2228 3513 1497 
Q 3513 744 3044 326 
Q 2575 -91 1722 -91 
Q 1428 -91 1123 -41 
Q 819 9 494 109 
L 494 744 
Q 775 591 1075 516 
Q 1375 441 1709 441 
Q 2250 441 2565 725 
Q 2881 1009 2881 1497 
Q 2881 1984 2565 2268 
Q 2250 2553 1709 2553 
Q 1456 2553 1204 2497 
Q 953 2441 691 2322 
L 691 4666 
z
" transform="scale(0.015625)"/>
       </defs>
       <use xlink:href="#DejaVuSans-13"/>
       <use xlink:href="#DejaVuSans-11" transform="translate(63.625 0)"/>
       <use xlink:href="#DejaVuSans-18" transform="translate(95.40625 0)"/>
      </g>
     </g>
    </g>
    <g id="xtick_14">
     <g id="line2d_28">
      <g>
       <use xlink:href="#m28665ef349" x="525.930066" y="258.072" style="stroke: #000000; stroke-width: 0.8"/>
      </g>
     </g>
     <g id="text_23">
      <!-- 0.6 -->
      <g transform="translate(517.978503 272.669656) scale(0.1 -0.1)">
       <use xlink:href="#DejaVuSans-13"/>
       <use xlink:href="#DejaVuSans-11" transform="translate(63.625 0)"/>
       <use xlink:href="#DejaVuSans-19" transform="translate(95.40625 0)"/>
      </g>
     </g>
    </g>
    <g id="xtick_15">
     <g id="line2d_29">
      <g>
       <use xlink:href="#m28665ef349" x="558.507187" y="258.072" style="stroke: #000000; stroke-width: 0.8"/>
      </g>
     </g>
     <g id="text_24">
      <!-- 0.7 -->
      <g transform="translate(550.555625 272.669656) scale(0.1 -0.1)">
       <defs>
        <path id="DejaVuSans-1a" d="M 525 4666 
L 3525 4666 
L 3525 4397 
L 1831 0 
L 1172 0 
L 2766 4134 
L 525 4134 
L 525 4666 
z
" transform="scale(0.015625)"/>
       </defs>
       <use xlink:href="#DejaVuSans-13"/>
       <use xlink:href="#DejaVuSans-11" transform="translate(63.625 0)"/>
       <use xlink:href="#DejaVuSans-1a" transform="translate(95.40625 0)"/>
      </g>
     </g>
    </g>
    <g id="xtick_16">
     <g id="line2d_30">
      <g>
       <use xlink:href="#m28665ef349" x="591.084309" y="258.072" style="stroke: #000000; stroke-width: 0.8"/>
      </g>
     </g>
     <g id="text_25">
      <!-- 0.8 -->
      <g transform="translate(583.132747 272.669656) scale(0.1 -0.1)">
       <use xlink:href="#DejaVuSans-13"/>
       <use xlink:href="#DejaVuSans-11" transform="translate(63.625 0)"/>
       <use xlink:href="#DejaVuSans-1b" transform="translate(95.40625 0)"/>
      </g>
     </g>
    </g>
    <g id="xtick_17">
     <g id="line2d_31">
      <g>
       <use xlink:href="#m28665ef349" x="623.661431" y="258.072" style="stroke: #000000; stroke-width: 0.8"/>
      </g>
     </g>
     <g id="text_26">
      <!-- 0.9 -->
      <g transform="translate(615.709868 272.669656) scale(0.1 -0.1)">
       <defs>
        <path id="DejaVuSans-1c" d="M 703 97 
L 703 672 
Q 941 559 1184 500 
Q 1428 441 1663 441 
Q 2288 441 2617 861 
Q 2947 1281 2994 2138 
Q 2813 1869 2534 1725 
Q 2256 1581 1919 1581 
Q 1219 1581 811 2004 
Q 403 2428 403 3163 
Q 403 3881 828 4315 
Q 1253 4750 1959 4750 
Q 2769 4750 3195 4129 
Q 3622 3509 3622 2328 
Q 3622 1225 3098 567 
Q 2575 -91 1691 -91 
Q 1453 -91 1209 -44 
Q 966 3 703 97 
z
M 1959 2075 
Q 2384 2075 2632 2365 
Q 2881 2656 2881 3163 
Q 2881 3666 2632 3958 
Q 2384 4250 1959 4250 
Q 1534 4250 1286 3958 
Q 1038 3666 1038 3163 
Q 1038 2656 1286 2365 
Q 1534 2075 1959 2075 
z
" transform="scale(0.015625)"/>
       </defs>
       <use xlink:href="#DejaVuSans-13"/>
       <use xlink:href="#DejaVuSans-11" transform="translate(63.625 0)"/>
       <use xlink:href="#DejaVuSans-1c" transform="translate(95.40625 0)"/>
      </g>
     </g>
    </g>
    <g id="xtick_18">
     <g id="line2d_32">
      <g>
       <use xlink:href="#m28665ef349" x="656.238553" y="258.072" style="stroke: #000000; stroke-width: 0.8"/>
      </g>
     </g>
     <g id="text_27">
      <!-- 1.0 -->
      <g transform="translate(648.28699 272.669656) scale(0.1 -0.1)">
       <use xlink:href="#DejaVuSans-14"/>
       <use xlink:href="#DejaVuSans-11" transform="translate(63.625 0)"/>
       <use xlink:href="#DejaVuSans-13" transform="translate(95.40625 0)"/>
      </g>
     </g>
    </g>
    <g id="text_28">
     <!-- $c^+ / c^+_{\rm leeward,street}$ -->
     <g transform="translate(487.258453 287.872) scale(0.1 -0.1)">
      <defs>
       <path id="DejaVuSans-f" d="M 750 794 
L 1409 794 
L 1409 256 
L 897 -744 
L 494 -744 
L 750 256 
L 750 794 
z
" transform="scale(0.015625)"/>
      </defs>
      <use xlink:href="#DejaVuSans-Oblique-46" transform="translate(0 0.357812)"/>
      <use xlink:href="#DejaVuSans-e" transform="translate(73.26806 41.657812) scale(0.7)"/>
      <use xlink:href="#DejaVuSans-12" transform="translate(148.292474 0.357812)"/>
      <use xlink:href="#DejaVuSans-Oblique-46" transform="translate(181.98388 0.357812)"/>
      <use xlink:href="#DejaVuSans-e" transform="translate(255.25194 44.107813) scale(0.7)"/>
      <use xlink:href="#DejaVuSans-4f" transform="translate(236.964349 -34.08125) scale(0.7)"/>
      <use xlink:href="#DejaVuSans-48" transform="translate(256.412591 -34.08125) scale(0.7)"/>
      <use xlink:href="#DejaVuSans-48" transform="translate(299.478997 -34.08125) scale(0.7)"/>
      <use xlink:href="#DejaVuSans-5a" transform="translate(342.545404 -34.08125) scale(0.7)"/>
      <use xlink:href="#DejaVuSans-44" transform="translate(399.79638 -34.08125) scale(0.7)"/>
      <use xlink:href="#DejaVuSans-55" transform="translate(442.691888 -34.08125) scale(0.7)"/>
      <use xlink:href="#DejaVuSans-47" transform="translate(470.071185 -34.08125) scale(0.7)"/>
      <use xlink:href="#DejaVuSans-f" transform="translate(514.504779 -34.08125) scale(0.7)"/>
      <use xlink:href="#DejaVuSans-56" transform="translate(550.393451 -34.08125) scale(0.7)"/>
      <use xlink:href="#DejaVuSans-57" transform="translate(586.863177 -34.08125) scale(0.7)"/>
      <use xlink:href="#DejaVuSans-55" transform="translate(614.309466 -34.08125) scale(0.7)"/>
      <use xlink:href="#DejaVuSans-48" transform="translate(641.688763 -34.08125) scale(0.7)"/>
      <use xlink:href="#DejaVuSans-48" transform="translate(684.755169 -34.08125) scale(0.7)"/>
      <use xlink:href="#DejaVuSans-57" transform="translate(727.821576 -34.08125) scale(0.7)"/>
     </g>
    </g>
   </g>
   <g id="matplotlib.axis_4">
    <g id="ytick_7">
     <g id="line2d_33">
      <g>
       <use xlink:href="#mf315884f08" x="381.075344" y="258.072" style="stroke: #000000; stroke-width: 0.8"/>
      </g>
     </g>
     <g id="text_29">
      <!-- 0.0 -->
      <g transform="translate(358.172219 261.870828) scale(0.1 -0.1)">
       <use xlink:href="#DejaVuSans-13"/>
       <use xlink:href="#DejaVuSans-11" transform="translate(63.625 0)"/>
       <use xlink:href="#DejaVuSans-13" transform="translate(95.40625 0)"/>
      </g>
     </g>
    </g>
    <g id="ytick_8">
     <g id="line2d_34">
      <g>
       <use xlink:href="#mf315884f08" x="381.075344" y="218.665523" style="stroke: #000000; stroke-width: 0.8"/>
      </g>
     </g>
     <g id="text_30">
      <!-- 0.2 -->
      <g transform="translate(358.172219 222.464352) scale(0.1 -0.1)">
       <use xlink:href="#DejaVuSans-13"/>
       <use xlink:href="#DejaVuSans-11" transform="translate(63.625 0)"/>
       <use xlink:href="#DejaVuSans-15" transform="translate(95.40625 0)"/>
      </g>
     </g>
    </g>
    <g id="ytick_9">
     <g id="line2d_35">
      <g>
       <use xlink:href="#mf315884f08" x="381.075344" y="179.259047" style="stroke: #000000; stroke-width: 0.8"/>
      </g>
     </g>
     <g id="text_31">
      <!-- 0.4 -->
      <g transform="translate(358.172219 183.057875) scale(0.1 -0.1)">
       <use xlink:href="#DejaVuSans-13"/>
       <use xlink:href="#DejaVuSans-11" transform="translate(63.625 0)"/>
       <use xlink:href="#DejaVuSans-17" transform="translate(95.40625 0)"/>
      </g>
     </g>
    </g>
    <g id="ytick_10">
     <g id="line2d_36">
      <g>
       <use xlink:href="#mf315884f08" x="381.075344" y="139.85257" style="stroke: #000000; stroke-width: 0.8"/>
      </g>
     </g>
     <g id="text_32">
      <!-- 0.6 -->
      <g transform="translate(358.172219 143.651398) scale(0.1 -0.1)">
       <use xlink:href="#DejaVuSans-13"/>
       <use xlink:href="#DejaVuSans-11" transform="translate(63.625 0)"/>
       <use xlink:href="#DejaVuSans-19" transform="translate(95.40625 0)"/>
      </g>
     </g>
    </g>
    <g id="ytick_11">
     <g id="line2d_37">
      <g>
       <use xlink:href="#mf315884f08" x="381.075344" y="100.446094" style="stroke: #000000; stroke-width: 0.8"/>
      </g>
     </g>
     <g id="text_33">
      <!-- 0.8 -->
      <g transform="translate(358.172219 104.244922) scale(0.1 -0.1)">
       <use xlink:href="#DejaVuSans-13"/>
       <use xlink:href="#DejaVuSans-11" transform="translate(63.625 0)"/>
       <use xlink:href="#DejaVuSans-1b" transform="translate(95.40625 0)"/>
      </g>
     </g>
    </g>
    <g id="ytick_12">
     <g id="line2d_38">
      <g>
       <use xlink:href="#mf315884f08" x="381.075344" y="61.039617" style="stroke: #000000; stroke-width: 0.8"/>
      </g>
     </g>
     <g id="text_34">
      <!-- 1.0 -->
      <g transform="translate(358.172219 64.838445) scale(0.1 -0.1)">
       <use xlink:href="#DejaVuSans-14"/>
       <use xlink:href="#DejaVuSans-11" transform="translate(63.625 0)"/>
       <use xlink:href="#DejaVuSans-13" transform="translate(95.40625 0)"/>
      </g>
     </g>
    </g>
    <g id="text_35">
     <!-- z/H -->
     <g transform="translate(351.769875 167.624559) rotate(-90) scale(0.1 -0.1)">
      <use xlink:href="#DejaVuSans-5d"/>
      <use xlink:href="#DejaVuSans-12" transform="translate(52.484375 0)"/>
      <use xlink:href="#DejaVuSans-2b" transform="translate(86.171875 0)"/>
     </g>
    </g>
   </g>
   <g id="line2d_39">
    <g clip-path="url(#p2d3ebbc86a)">
     <use xlink:href="#m09bd51875b" x="656.238553" y="258.072" style="fill: #d62728; stroke: #d62728"/>
     <use xlink:href="#m09bd51875b" x="623.573681" y="225.23327" style="fill: #d62728; stroke: #d62728"/>
     <use xlink:href="#m09bd51875b" x="585.340706" y="192.394539" style="fill: #d62728; stroke: #d62728"/>
     <use xlink:href="#m09bd51875b" x="551.58198" y="159.555809" style="fill: #d62728; stroke: #d62728"/>
     <use xlink:href="#m09bd51875b" x="525.583439" y="126.717078" style="fill: #d62728; stroke: #d62728"/>
     <use xlink:href="#m09bd51875b" x="505.028366" y="93.878348" style="fill: #d62728; stroke: #d62728"/>
     <use xlink:href="#m09bd51875b" x="486.787047" y="61.039617" style="fill: #d62728; stroke: #d62728"/>
    </g>
   </g>
   <g id="line2d_40">
    <g clip-path="url(#p2d3ebbc86a)">
     <use xlink:href="#m1a911e2f96" x="420.82803" y="258.072" style="fill: #1f77b4; stroke: #1f77b4; stroke-linejoin: miter"/>
     <use xlink:href="#m1a911e2f96" x="418.553675" y="225.23327" style="fill: #1f77b4; stroke: #1f77b4; stroke-linejoin: miter"/>
     <use xlink:href="#m1a911e2f96" x="414.174891" y="192.394539" style="fill: #1f77b4; stroke: #1f77b4; stroke-linejoin: miter"/>
     <use xlink:href="#m1a911e2f96" x="408.395263" y="159.555809" style="fill: #1f77b4; stroke: #1f77b4; stroke-linejoin: miter"/>
     <use xlink:href="#m1a911e2f96" x="402.490773" y="126.717078" style="fill: #1f77b4; stroke: #1f77b4; stroke-linejoin: miter"/>
     <use xlink:href="#m1a911e2f96" x="397.776181" y="93.878348" style="fill: #1f77b4; stroke: #1f77b4; stroke-linejoin: miter"/>
     <use xlink:href="#m1a911e2f96" x="394.178354" y="61.039617" style="fill: #1f77b4; stroke: #1f77b4; stroke-linejoin: miter"/>
    </g>
   </g>
   <g id="line2d_41">
    <path d="M 656.238553 256.019579 
L 652.206196 251.914738 
L 647.109512 247.809897 
L 642.022966 243.705055 
L 636.946247 239.600214 
L 631.87896 235.495373 
L 626.820613 231.390531 
L 621.770613 227.28569 
L 616.72826 223.180849 
L 611.692749 219.076008 
L 606.66317 214.971166 
L 601.638499 210.866325 
L 596.617603 206.761484 
L 591.599227 202.656642 
L 586.581996 198.551801 
L 581.564402 194.44696 
L 576.544796 190.342118 
L 571.521382 186.237277 
L 566.492202 182.132436 
L 561.455126 178.027594 
L 556.407838 173.922753 
L 551.347821 169.817912 
L 546.272339 165.713071 
L 541.178425 161.608229 
L 536.062852 157.503388 
L 530.92212 153.398547 
L 525.752427 149.293705 
L 520.549645 145.188864 
L 515.309285 141.084023 
L 510.026465 136.979181 
L 504.69587 132.87434 
L 499.311698 128.769499 
L 493.867607 124.664657 
L 488.356638 120.559816 
L 482.77113 116.454975 
L 477.102603 112.350134 
L 471.341615 108.245292 
L 465.477573 104.140451 
L 459.498492 100.03561 
L 453.390675 95.930768 
L 447.13832 91.825927 
L 440.723061 87.721086 
L 434.12355 83.616244 
L 427.315463 79.511403 
L 420.273428 75.406562 
L 412.979522 71.30172 
L 405.454108 67.196879 
L 397.842428 63.092038 
" clip-path="url(#p2d3ebbc86a)" style="fill: none; stroke: #d62728; stroke-width: 2; stroke-linecap: square"/>
   </g>
   <g id="line2d_42">
    <path d="M 650.607332 256.019579 
L 646.554258 251.914738 
L 641.416542 247.809897 
L 636.269132 243.705055 
L 631.112339 239.600214 
L 625.946557 235.495373 
L 620.772275 231.390531 
L 615.590081 227.28569 
L 610.400662 223.180849 
L 605.204805 219.076008 
L 600.003394 214.971166 
L 594.79741 210.866325 
L 589.587928 206.761484 
L 584.376122 202.656642 
L 579.163261 198.551801 
L 573.950709 194.44696 
L 568.739927 190.342118 
L 563.532471 186.237277 
L 558.329996 182.132436 
L 553.134245 178.027594 
L 547.947057 173.922753 
L 542.770356 169.817912 
L 537.606149 165.713071 
L 532.456517 161.608229 
L 527.323603 157.503388 
L 522.209605 153.398547 
L 517.116752 149.293705 
L 512.04729 145.188864 
L 507.003456 141.084023 
L 501.987443 136.979181 
L 497.00137 132.87434 
L 492.047234 128.769499 
L 487.126859 124.664657 
L 482.241826 120.559816 
L 477.393401 116.454975 
L 472.582435 112.350134 
L 467.809241 108.245292 
L 463.073451 104.140451 
L 458.373817 100.03561 
L 453.707977 95.930768 
L 449.072148 91.825927 
L 444.460766 87.721086 
L 439.866106 83.616244 
L 435.278157 79.511403 
L 430.685354 75.406562 
L 426.078685 71.30172 
L 421.463642 67.196879 
L 416.883273 63.092038 
" clip-path="url(#p2d3ebbc86a)" style="fill: none; stroke: #1f77b4; stroke-width: 2; stroke-linecap: square"/>
   </g>
   <g id="patch_8">
    <path d="M 381.075344 258.072 
L 381.075344 61.039617 
" style="fill: none; stroke: #000000; stroke-width: 0.8; stroke-linejoin: miter; stroke-linecap: square"/>
   </g>
   <g id="patch_9">
    <path d="M 669.341562 258.072 
L 669.341562 61.039617 
" style="fill: none; stroke: #000000; stroke-width: 0.8; stroke-linejoin: miter; stroke-linecap: square"/>
   </g>
   <g id="patch_10">
    <path d="M 381.075344 258.072 
L 669.341562 258.072 
" style="fill: none; stroke: #000000; stroke-width: 0.8; stroke-linejoin: miter; stroke-linecap: square"/>
   </g>
   <g id="patch_11">
    <path d="M 381.075344 61.039617 
L 669.341562 61.039617 
" style="fill: none; stroke: #000000; stroke-width: 0.8; stroke-linejoin: miter; stroke-linecap: square"/>
   </g>
   <g id="text_36">
    <!-- Normalized shape (pattern test) -->
    <g transform="translate(445.122516 55.039617) scale(0.1 -0.1)">
     <defs>
      <path id="DejaVuSans-31" d="M 628 4666 
L 1478 4666 
L 3547 763 
L 3547 4666 
L 4159 4666 
L 4159 0 
L 3309 0 
L 1241 3903 
L 1241 0 
L 628 0 
L 628 4666 
z
" transform="scale(0.015625)"/>
     </defs>
     <use xlink:href="#DejaVuSans-31"/>
     <use xlink:href="#DejaVuSans-52" transform="translate(74.8125 0)"/>
     <use xlink:href="#DejaVuSans-55" transform="translate(136 0)"/>
     <use xlink:href="#DejaVuSans-50" transform="translate(175.359375 0)"/>
     <use xlink:href="#DejaVuSans-44" transform="translate(272.765625 0)"/>
     <use xlink:href="#DejaVuSans-4f" transform="translate(334.046875 0)"/>
     <use xlink:href="#DejaVuSans-4c" transform="translate(361.828125 0)"/>
     <use xlink:href="#DejaVuSans-5d" transform="translate(389.609375 0)"/>
     <use xlink:href="#DejaVuSans-48" transform="translate(442.09375 0)"/>
     <use xlink:href="#DejaVuSans-47" transform="translate(503.625 0)"/>
     <use xlink:href="#DejaVuSans-3" transform="translate(567.109375 0)"/>
     <use xlink:href="#DejaVuSans-56" transform="translate(598.890625 0)"/>
     <use xlink:href="#DejaVuSans-4b" transform="translate(650.984375 0)"/>
     <use xlink:href="#DejaVuSans-44" transform="translate(714.359375 0)"/>
     <use xlink:href="#DejaVuSans-53" transform="translate(775.640625 0)"/>
     <use xlink:href="#DejaVuSans-48" transform="translate(839.125 0)"/>
     <use xlink:href="#DejaVuSans-3" transform="translate(900.65625 0)"/>
     <use xlink:href="#DejaVuSans-b" transform="translate(932.4375 0)"/>
     <use xlink:href="#DejaVuSans-53" transform="translate(971.453125 0)"/>
     <use xlink:href="#DejaVuSans-44" transform="translate(1034.9375 0)"/>
     <use xlink:href="#DejaVuSans-57" transform="translate(1096.21875 0)"/>
     <use xlink:href="#DejaVuSans-57" transform="translate(1135.421875 0)"/>
     <use xlink:href="#DejaVuSans-48" transform="translate(1174.625 0)"/>
     <use xlink:href="#DejaVuSans-55" transform="translate(1236.15625 0)"/>
     <use xlink:href="#DejaVuSans-51" transform="translate(1275.515625 0)"/>
     <use xlink:href="#DejaVuSans-3" transform="translate(1338.890625 0)"/>
     <use xlink:href="#DejaVuSans-57" transform="translate(1370.671875 0)"/>
     <use xlink:href="#DejaVuSans-48" transform="translate(1409.875 0)"/>
     <use xlink:href="#DejaVuSans-56" transform="translate(1471.40625 0)"/>
     <use xlink:href="#DejaVuSans-57" transform="translate(1523.5 0)"/>
     <use xlink:href="#DejaVuSans-c" transform="translate(1562.703125 0)"/>
    </g>
   </g>
   <g id="legend_2">
    <g id="line2d_43">
     <g>
      <use xlink:href="#m09bd51875b" x="584.667812" y="70.208523" style="fill: #d62728; stroke: #d62728"/>
     </g>
    </g>
    <g id="text_37">
     <!-- CODASC leeward -->
     <g transform="translate(597.267812 72.658523) scale(0.07 -0.07)">
      <use xlink:href="#DejaVuSans-26"/>
      <use xlink:href="#DejaVuSans-32" transform="translate(69.828125 0)"/>
      <use xlink:href="#DejaVuSans-27" transform="translate(148.546875 0)"/>
      <use xlink:href="#DejaVuSans-24" transform="translate(223.796875 0)"/>
      <use xlink:href="#DejaVuSans-36" transform="translate(292.203125 0)"/>
      <use xlink:href="#DejaVuSans-26" transform="translate(355.6875 0)"/>
      <use xlink:href="#DejaVuSans-3" transform="translate(425.515625 0)"/>
      <use xlink:href="#DejaVuSans-4f" transform="translate(457.296875 0)"/>
      <use xlink:href="#DejaVuSans-48" transform="translate(485.078125 0)"/>
      <use xlink:href="#DejaVuSans-48" transform="translate(546.609375 0)"/>
      <use xlink:href="#DejaVuSans-5a" transform="translate(608.140625 0)"/>
      <use xlink:href="#DejaVuSans-44" transform="translate(689.921875 0)"/>
      <use xlink:href="#DejaVuSans-55" transform="translate(751.203125 0)"/>
      <use xlink:href="#DejaVuSans-47" transform="translate(790.5625 0)"/>
     </g>
    </g>
    <g id="line2d_44">
     <g>
      <use xlink:href="#m1a911e2f96" x="584.667812" y="80.70907" style="fill: #1f77b4; stroke: #1f77b4; stroke-linejoin: miter"/>
     </g>
    </g>
    <g id="text_38">
     <!-- CODASC windward -->
     <g transform="translate(597.267812 83.15907) scale(0.07 -0.07)">
      <use xlink:href="#DejaVuSans-26"/>
      <use xlink:href="#DejaVuSans-32" transform="translate(69.828125 0)"/>
      <use xlink:href="#DejaVuSans-27" transform="translate(148.546875 0)"/>
      <use xlink:href="#DejaVuSans-24" transform="translate(223.796875 0)"/>
      <use xlink:href="#DejaVuSans-36" transform="translate(292.203125 0)"/>
      <use xlink:href="#DejaVuSans-26" transform="translate(355.6875 0)"/>
      <use xlink:href="#DejaVuSans-3" transform="translate(425.515625 0)"/>
      <use xlink:href="#DejaVuSans-5a" transform="translate(457.296875 0)"/>
      <use xlink:href="#DejaVuSans-4c" transform="translate(539.078125 0)"/>
      <use xlink:href="#DejaVuSans-51" transform="translate(566.859375 0)"/>
      <use xlink:href="#DejaVuSans-47" transform="translate(630.234375 0)"/>
      <use xlink:href="#DejaVuSans-5a" transform="translate(693.71875 0)"/>
      <use xlink:href="#DejaVuSans-44" transform="translate(775.5 0)"/>
      <use xlink:href="#DejaVuSans-55" transform="translate(836.78125 0)"/>
      <use xlink:href="#DejaVuSans-47" transform="translate(876.140625 0)"/>
     </g>
    </g>
    <g id="line2d_45">
     <path d="M 577.667812 91.209617 
L 584.667812 91.209617 
L 591.667812 91.209617 
" style="fill: none; stroke: #d62728; stroke-width: 2; stroke-linecap: square"/>
    </g>
    <g id="text_39">
     <!-- model leeward -->
     <g transform="translate(597.267812 93.659617) scale(0.07 -0.07)">
      <use xlink:href="#DejaVuSans-50"/>
      <use xlink:href="#DejaVuSans-52" transform="translate(97.40625 0)"/>
      <use xlink:href="#DejaVuSans-47" transform="translate(158.59375 0)"/>
      <use xlink:href="#DejaVuSans-48" transform="translate(222.078125 0)"/>
      <use xlink:href="#DejaVuSans-4f" transform="translate(283.609375 0)"/>
      <use xlink:href="#DejaVuSans-3" transform="translate(311.390625 0)"/>
      <use xlink:href="#DejaVuSans-4f" transform="translate(343.171875 0)"/>
      <use xlink:href="#DejaVuSans-48" transform="translate(370.953125 0)"/>
      <use xlink:href="#DejaVuSans-48" transform="translate(432.484375 0)"/>
      <use xlink:href="#DejaVuSans-5a" transform="translate(494.015625 0)"/>
      <use xlink:href="#DejaVuSans-44" transform="translate(575.796875 0)"/>
      <use xlink:href="#DejaVuSans-55" transform="translate(637.078125 0)"/>
      <use xlink:href="#DejaVuSans-47" transform="translate(676.4375 0)"/>
     </g>
    </g>
    <g id="line2d_46">
     <path d="M 577.667812 101.710164 
L 584.667812 101.710164 
L 591.667812 101.710164 
" style="fill: none; stroke: #1f77b4; stroke-width: 2; stroke-linecap: square"/>
    </g>
    <g id="text_40">
     <!-- model windward -->
     <g transform="translate(597.267812 104.160164) scale(0.07 -0.07)">
      <use xlink:href="#DejaVuSans-50"/>
      <use xlink:href="#DejaVuSans-52" transform="translate(97.40625 0)"/>
      <use xlink:href="#DejaVuSans-47" transform="translate(158.59375 0)"/>
      <use xlink:href="#DejaVuSans-48" transform="translate(222.078125 0)"/>
      <use xlink:href="#DejaVuSans-4f" transform="translate(283.609375 0)"/>
      <use xlink:href="#DejaVuSans-3" transform="translate(311.390625 0)"/>
      <use xlink:href="#DejaVuSans-5a" transform="translate(343.171875 0)"/>
      <use xlink:href="#DejaVuSans-4c" transform="translate(424.953125 0)"/>
      <use xlink:href="#DejaVuSans-51" transform="translate(452.734375 0)"/>
      <use xlink:href="#DejaVuSans-47" transform="translate(516.109375 0)"/>
      <use xlink:href="#DejaVuSans-5a" transform="translate(579.59375 0)"/>
      <use xlink:href="#DejaVuSans-44" transform="translate(661.375 0)"/>
      <use xlink:href="#DejaVuSans-55" transform="translate(722.65625 0)"/>
      <use xlink:href="#DejaVuSans-47" transform="translate(762.015625 0)"/>
     </g>
    </g>
   </g>
  </g>
  <g id="text_41">
   <!-- CODASC validation, H/W=1 (no trees, 90°) — leeward/windward: model 1.0 vs CODASC 3.0 -->
   <g transform="translate(109.951719 14.798437) scale(0.1 -0.1)">
    <defs>
     <path id="DejaVuSans-3a" d="M 213 4666 
L 850 4666 
L 1831 722 
L 2809 4666 
L 3519 4666 
L 4500 722 
L 5478 4666 
L 6119 4666 
L 4947 0 
L 4153 0 
L 3169 4050 
L 2175 0 
L 1381 0 
L 213 4666 
z
" transform="scale(0.015625)"/>
     <path id="DejaVuSans-20" d="M 678 2906 
L 4684 2906 
L 4684 2381 
L 678 2381 
L 678 2906 
z
M 678 1631 
L 4684 1631 
L 4684 1100 
L 678 1100 
L 678 1631 
z
" transform="scale(0.015625)"/>
     <path id="DejaVuSans-72" d="M 1600 4347 
Q 1350 4347 1178 4173 
Q 1006 4000 1006 3750 
Q 1006 3503 1178 3333 
Q 1350 3163 1600 3163 
Q 1850 3163 2022 3333 
Q 2194 3503 2194 3750 
Q 2194 3997 2020 4172 
Q 1847 4347 1600 4347 
z
M 1600 4750 
Q 1800 4750 1984 4673 
Q 2169 4597 2303 4453 
Q 2447 4313 2519 4134 
Q 2591 3956 2591 3750 
Q 2591 3338 2302 3052 
Q 2013 2766 1594 2766 
Q 1172 2766 890 3047 
Q 609 3328 609 3750 
Q 609 4169 896 4459 
Q 1184 4750 1600 4750 
z
" transform="scale(0.015625)"/>
     <path id="DejaVuSans-af6" d="M 313 1978 
L 6088 1978 
L 6088 1528 
L 313 1528 
L 313 1978 
z
" transform="scale(0.015625)"/>
     <path id="DejaVuSans-1d" d="M 750 794 
L 1409 794 
L 1409 0 
L 750 0 
L 750 794 
z
M 750 3309 
L 1409 3309 
L 1409 2516 
L 750 2516 
L 750 3309 
z
" transform="scale(0.015625)"/>
    </defs>
    <use xlink:href="#DejaVuSans-26"/>
    <use xlink:href="#DejaVuSans-32" transform="translate(69.828125 0)"/>
    <use xlink:href="#DejaVuSans-27" transform="translate(148.546875 0)"/>
    <use xlink:href="#DejaVuSans-24" transform="translate(223.796875 0)"/>
    <use xlink:href="#DejaVuSans-36" transform="translate(292.203125 0)"/>
    <use xlink:href="#DejaVuSans-26" transform="translate(355.6875 0)"/>
    <use xlink:href="#DejaVuSans-3" transform="translate(425.515625 0)"/>
    <use xlink:href="#DejaVuSans-59" transform="translate(457.296875 0)"/>
    <use xlink:href="#DejaVuSans-44" transform="translate(516.484375 0)"/>
    <use xlink:href="#DejaVuSans-4f" transform="translate(577.765625 0)"/>
    <use xlink:href="#DejaVuSans-4c" transform="translate(605.546875 0)"/>
    <use xlink:href="#DejaVuSans-47" transform="translate(633.328125 0)"/>
    <use xlink:href="#DejaVuSans-44" transform="translate(696.8125 0)"/>
    <use xlink:href="#DejaVuSans-57" transform="translate(758.09375 0)"/>
    <use xlink:href="#DejaVuSans-4c" transform="translate(797.296875 0)"/>
    <use xlink:href="#DejaVuSans-52" transform="translate(825.078125 0)"/>
    <use xlink:href="#DejaVuSans-51" transform="translate(886.265625 0)"/>
    <use xlink:href="#DejaVuSans-f" transform="translate(949.640625 0)"/>
    <use xlink:href="#DejaVuSans-3" transform="translate(981.421875 0)"/>
    <use xlink:href="#DejaVuSans-2b" transform="translate(1013.203125 0)"/>
    <use xlink:href="#DejaVuSans-12" transform="translate(1088.40625 0)"/>
    <use xlink:href="#DejaVuSans-3a" transform="translate(1122.09375 0)"/>
    <use xlink:href="#DejaVuSans-20" transform="translate(1220.96875 0)"/>
    <use xlink:href="#DejaVuSans-14" transform="translate(1304.765625 0)"/>
    <use xlink:href="#DejaVuSans-3" transform="translate(1368.390625 0)"/>
    <use xlink:href="#DejaVuSans-b" transform="translate(1400.171875 0)"/>
    <use xlink:href="#DejaVuSans-51" transform="translate(1439.1875 0)"/>
    <use xlink:href="#DejaVuSans-52" transform="translate(1502.5625 0)"/>
    <use xlink:href="#DejaVuSans-3" transform="translate(1563.75 0)"/>
    <use xlink:href="#DejaVuSans-57" transform="translate(1595.53125 0)"/>
    <use xlink:href="#DejaVuSans-55" transform="translate(1634.734375 0)"/>
    <use xlink:href="#DejaVuSans-48" transform="translate(1673.640625 0)"/>
    <use xlink:href="#DejaVuSans-48" transform="translate(1735.171875 0)"/>
    <use xlink:href="#DejaVuSans-56" transform="translate(1796.703125 0)"/>
    <use xlink:href="#DejaVuSans-f" transform="translate(1848.796875 0)"/>
    <use xlink:href="#DejaVuSans-3" transform="translate(1880.578125 0)"/>
    <use xlink:href="#DejaVuSans-1c" transform="translate(1912.359375 0)"/>
    <use xlink:href="#DejaVuSans-13" transform="translate(1975.984375 0)"/>
    <use xlink:href="#DejaVuSans-72" transform="translate(2039.609375 0)"/>
    <use xlink:href="#DejaVuSans-c" transform="translate(2089.609375 0)"/>
    <use xlink:href="#DejaVuSans-3" transform="translate(2128.625 0)"/>
    <use xlink:href="#DejaVuSans-af6" transform="translate(2160.40625 0)"/>
    <use xlink:href="#DejaVuSans-3" transform="translate(2260.40625 0)"/>
    <use xlink:href="#DejaVuSans-4f" transform="translate(2292.1875 0)"/>
    <use xlink:href="#DejaVuSans-48" transform="translate(2319.96875 0)"/>
    <use xlink:href="#DejaVuSans-48" transform="translate(2381.5 0)"/>
    <use xlink:href="#DejaVuSans-5a" transform="translate(2443.03125 0)"/>
    <use xlink:href="#DejaVuSans-44" transform="translate(2524.8125 0)"/>
    <use xlink:href="#DejaVuSans-55" transform="translate(2586.09375 0)"/>
    <use xlink:href="#DejaVuSans-47" transform="translate(2625.453125 0)"/>
    <use xlink:href="#DejaVuSans-12" transform="translate(2688.9375 0)"/>
    <use xlink:href="#DejaVuSans-5a" transform="translate(2722.625 0)"/>
    <use xlink:href="#DejaVuSans-4c" transform="translate(2804.40625 0)"/>
    <use xlink:href="#DejaVuSans-51" transform="translate(2832.1875 0)"/>
    <use xlink:href="#DejaVuSans-47" transform="translate(2895.5625 0)"/>
    <use xlink:href="#DejaVuSans-5a" transform="translate(2959.046875 0)"/>
    <use xlink:href="#DejaVuSans-44" transform="translate(3040.828125 0)"/>
    <use xlink:href="#DejaVuSans-55" transform="translate(3102.109375 0)"/>
    <use xlink:href="#DejaVuSans-47" transform="translate(3141.46875 0)"/>
    <use xlink:href="#DejaVuSans-1d" transform="translate(3204.953125 0)"/>
    <use xlink:href="#DejaVuSans-3" transform="translate(3238.640625 0)"/>
    <use xlink:href="#DejaVuSans-50" transform="translate(3270.421875 0)"/>
    <use xlink:href="#DejaVuSans-52" transform="translate(3367.828125 0)"/>
    <use xlink:href="#DejaVuSans-47" transform="translate(3429.015625 0)"/>
    <use xlink:href="#DejaVuSans-48" transform="translate(3492.5 0)"/>
    <use xlink:href="#DejaVuSans-4f" transform="translate(3554.03125 0)"/>
    <use xlink:href="#DejaVuSans-3" transform="translate(3581.8125 0)"/>
    <use xlink:href="#DejaVuSans-14" transform="translate(3613.59375 0)"/>
    <use xlink:href="#DejaVuSans-11" transform="translate(3677.21875 0)"/>
    <use xlink:href="#DejaVuSans-13" transform="translate(3709 0)"/>
    <use xlink:href="#DejaVuSans-3" transform="translate(3772.625 0)"/>
    <use xlink:href="#DejaVuSans-59" transform="translate(3804.40625 0)"/>
    <use xlink:href="#DejaVuSans-56" transform="translate(3863.59375 0)"/>
    <use xlink:href="#DejaVuSans-3" transform="translate(3915.6875 0)"/>
    <use xlink:href="#DejaVuSans-26" transform="translate(3947.46875 0)"/>
    <use xlink:href="#DejaVuSans-32" transform="translate(4017.296875 0)"/>
    <use xlink:href="#DejaVuSans-27" transform="translate(4096.015625 0)"/>
    <use xlink:href="#DejaVuSans-24" transform="translate(4171.265625 0)"/>
    <use xlink:href="#DejaVuSans-36" transform="translate(4239.671875 0)"/>
    <use xlink:href="#DejaVuSans-26" transform="translate(4303.15625 0)"/>
    <use xlink:href="#DejaVuSans-3" transform="translate(4372.984375 0)"/>
    <use xlink:href="#DejaVuSans-16" transform="translate(4404.765625 0)"/>
    <use xlink:href="#DejaVuSans-11" transform="translate(4468.390625 0)"/>
    <use xlink:href="#DejaVuSans-13" transform="translate(4500.171875 0)"/>
   </g>
  </g>
 </g>
 <defs>
  <clipPath id="p115156d1fe">
   <rect x="44.103906" y="61.039617" width="288.266218" height="197.032383"/>
  </clipPath>
  <clipPath id="p2d3ebbc86a">
   <rect x="381.075344" y="61.039617" width="288.266218" height="197.032383"/>
  </clipPath>
 </defs>
</svg>
