<?xml version="1.0" encoding="utf-8" standalone="no"?>
<!DOCTYPE svg PUBLIC "-//W3C//DTD SVG 1.1//EN"
  "http://www.w3.org/Graphics/SVG/1.1/DTD/svg11.dtd">
<svg xmlns:xlink="http://www.w3.org/1999/xlink" width="453.341563pt" height="308.635312pt" viewBox="0 0 453.341563 308.635312" xmlns="http://www.w3.org/2000/svg" version="1.1">
 <metadata>
  <rdf:RDF xmlns:dc="http://purl.org/dc/elements/1.1/" xmlns:cc="http://creativecommons.org/ns#" xmlns:rdf="http://www.w3.org/1999/02/22-rdf-syntax-ns#">
   <cc:Work>
    <dc:type rdf:resource="http://purl.org/dc/dcmitype/StillImage"/>
    <dc:date>2026-06-23T00:56:47.446498</dc:date>
    <dc:format>image/svg+xml</dc:format>
    <dc:creator>
     <cc:Agent>
      <dc:title>Matplotlib v3.11.0, https://matplotlib.org/</dc:title>
     </cc:Agent>
    </dc:creator>
   </cc:Work>
  </rdf:RDF>
 </metadata>
 <defs>
  <style type="text/css">*{stroke-linejoin: round; stroke-linecap: butt}</style>
 </defs>
 <g id="figure_1">
  <g id="patch_1">
   <path d="M 0 308.635312 
L 453.341563 308.635312 
L 453.341563 0 
L 0 0 
z
" style="fill: #ffffff"/>
  </g>
  <g id="axes_1">
   <g id="patch_2">
    <path d="M 44.103906 270.434531 
L 446.141563 270.434531 
L 446.141563 33.802148 
L 44.103906 33.802148 
z
" style="fill: #ffffff"/>
   </g>
   <g id="patch_3">
    <path d="M 44.103906 63.391237 
L 446.141563 63.391237 
L 446.141563 44.558166 
L 44.103906 44.558166 
z
" clip-path="url(#p32f1bd5589)" style="fill: #2ca02c; opacity: 0.15; stroke: #2ca02c; stroke-linejoin: miter"/>
   </g>
   <g id="matplotlib.axis_1">
    <g id="xtick_1">
     <g id="line2d_1">
      <defs>
       <path id="m6949d9353a" d="M 0 0 
L 0 3.5 
" style="stroke: #000000; stroke-width: 0.8"/>
      </defs>
      <g>
       <use xlink:href="#m6949d9353a" x="62.378345" y="270.434531" style="stroke: #000000; stroke-width: 0.8"/>
      </g>
     </g>
     <g id="text_1">
      <!-- 24 -->
      <g transform="translate(56.015845 285.032187) scale(0.1 -0.1)">
       <defs>
        <path id="DejaVuSans-15" d="M 1228 531 
L 3431 531 
L 3431 0 
L 469 0 
L 469 531 
Q 828 903 1448 1529 
Q 2069 2156 2228 2338 
Q 2531 2678 2651 2914 
Q 2772 3150 2772 3378 
Q 2772 3750 2511 3984 
Q 2250 4219 1831 4219 
Q 1534 4219 1204 4116 
Q 875 4013 500 3803 
L 500 4441 
Q 881 4594 1212 4672 
Q 1544 4750 1819 4750 
Q 2544 4750 2975 4387 
Q 3406 4025 3406 3419 
Q 3406 3131 3298 2873 
Q 3191 2616 2906 2266 
Q 2828 2175 2409 1742 
Q 1991 1309 1228 531 
z
" transform="scale(0.015625)"/>
        <path id="DejaVuSans-17" d="M 2419 4116 
L 825 1625 
L 2419 1625 
L 2419 4116 
z
M 2253 4666 
L 3047 4666 
L 3047 1625 
L 3713 1625 
L 3713 1100 
L 3047 1100 
L 3047 0 
L 2419 0 
L 2419 1100 
L 313 1100 
L 313 1709 
L 2253 4666 
z
" transform="scale(0.015625)"/>
       </defs>
       <use xlink:href="#DejaVuSans-15"/>
       <use xlink:href="#DejaVuSans-17" transform="translate(63.625 0)"/>
      </g>
     </g>
    </g>
    <g id="xtick_2">
     <g id="line2d_2">
      <g>
       <use xlink:href="#m6949d9353a" x="245.122734" y="270.434531" style="stroke: #000000; stroke-width: 0.8"/>
      </g>
     </g>
     <g id="text_2">
      <!-- 48 -->
      <g transform="translate(238.760234 285.032187) scale(0.1 -0.1)">
       <defs>
        <path id="DejaVuSans-1b" d="M 2034 2216 
Q 1584 2216 1326 1975 
Q 1069 1734 1069 1313 
Q 1069 891 1326 650 
Q 1584 409 2034 409 
Q 2484 409 2743 651 
Q 3003 894 3003 1313 
Q 3003 1734 2745 1975 
Q 2488 2216 2034 2216 
z
M 1403 2484 
Q 997 2584 770 2862 
Q 544 3141 544 3541 
Q 544 4100 942 4425 
Q 1341 4750 2034 4750 
Q 2731 4750 3128 4425 
Q 3525 4100 3525 3541 
Q 3525 3141 3298 2862 
Q 3072 2584 2669 2484 
Q 3125 2378 3379 2068 
Q 3634 1759 3634 1313 
Q 3634 634 3220 271 
Q 2806 -91 2034 -91 
Q 1263 -91 848 271 
Q 434 634 434 1313 
Q 434 1759 690 2068 
Q 947 2378 1403 2484 
z
M 1172 3481 
Q 1172 3119 1398 2916 
Q 1625 2713 2034 2713 
Q 2441 2713 2670 2916 
Q 2900 3119 2900 3481 
Q 2900 3844 2670 4047 
Q 2441 4250 2034 4250 
Q 1625 4250 1398 4047 
Q 1172 3844 1172 3481 
z
" transform="scale(0.015625)"/>
       </defs>
       <use xlink:href="#DejaVuSans-17"/>
       <use xlink:href="#DejaVuSans-1b" transform="translate(63.625 0)"/>
      </g>
     </g>
    </g>
    <g id="xtick_3">
     <g id="line2d_3">
      <g>
       <use xlink:href="#m6949d9353a" x="427.867124" y="270.434531" style="stroke: #000000; stroke-width: 0.8"/>
      </g>
     </g>
     <g id="text_3">
      <!-- 96 -->
      <g transform="translate(421.504624 285.032187) scale(0.1 -0.1)">
       <defs>
        <path id="DejaVuSans-1c" d="M 703 97 
L 703 672 
Q 941 559 1184 500 
Q 1428 441 1663 441 
Q 2288 441 2617 861 
Q 2947 1281 2994 2138 
Q 2813 1869 2534 1725 
Q 2256 1581 1919 1581 
Q 1219 1581 811 2004 
Q 403 2428 403 3163 
Q 403 3881 828 4315 
Q 1253 4750 1959 4750 
Q 2769 4750 3195 4129 
Q 3622 3509 3622 2328 
Q 3622 1225 3098 567 
Q 2575 -91 1691 -91 
Q 1453 -91 1209 -44 
Q 966 3 703 97 
z
M 1959 2075 
Q 2384 2075 2632 2365 
Q 2881 2656 2881 3163 
Q 2881 3666 2632 3958 
Q 2384 4250 1959 4250 
Q 1534 4250 1286 3958 
Q 1038 3666 1038 3163 
Q 1038 2656 1286 2365 
Q 1534 2075 1959 2075 
z
" transform="scale(0.015625)"/>
        <path id="DejaVuSans-19" d="M 2113 2584 
Q 1688 2584 1439 2293 
Q 1191 2003 1191 1497 
Q 1191 994 1439 701 
Q 1688 409 2113 409 
Q 2538 409 2786 701 
Q 3034 994 3034 1497 
Q 3034 2003 2786 2293 
Q 2538 2584 2113 2584 
z
M 3366 4563 
L 3366 3988 
Q 3128 4100 2886 4159 
Q 2644 4219 2406 4219 
Q 1781 4219 1451 3797 
Q 1122 3375 1075 2522 
Q 1259 2794 1537 2939 
Q 1816 3084 2150 3084 
Q 2853 3084 3261 2657 
Q 3669 2231 3669 1497 
Q 3669 778 3244 343 
Q 2819 -91 2113 -91 
Q 1303 -91 875 529 
Q 447 1150 447 2328 
Q 447 3434 972 4092 
Q 1497 4750 2381 4750 
Q 2619 4750 2861 4703 
Q 3103 4656 3366 4563 
z
" transform="scale(0.015625)"/>
       </defs>
       <use xlink:href="#DejaVuSans-1c"/>
       <use xlink:href="#DejaVuSans-19" transform="translate(63.625 0)"/>
      </g>
     </g>
    </g>
    <g id="text_4">
     <!-- resolution (cells per building height H) -->
     <g transform="translate(149.214922 299.032969) scale(0.1 -0.1)">
      <defs>
       <path id="DejaVuSans-55" d="M 2631 2963 
Q 2534 3019 2420 3045 
Q 2306 3072 2169 3072 
Q 1681 3072 1420 2755 
Q 1159 2438 1159 1844 
L 1159 0 
L 581 0 
L 581 3500 
L 1159 3500 
L 1159 2956 
Q 1341 3275 1631 3429 
Q 1922 3584 2338 3584 
Q 2397 3584 2469 3576 
Q 2541 3569 2628 3553 
L 2631 2963 
z
" transform="scale(0.015625)"/>
       <path id="DejaVuSans-48" d="M 3597 1894 
L 3597 1613 
L 953 1613 
Q 991 1019 1311 708 
Q 1631 397 2203 397 
Q 2534 397 2845 478 
Q 3156 559 3463 722 
L 3463 178 
Q 3153 47 2828 -22 
Q 2503 -91 2169 -91 
Q 1331 -91 842 396 
Q 353 884 353 1716 
Q 353 2575 817 3079 
Q 1281 3584 2069 3584 
Q 2775 3584 3186 3129 
Q 3597 2675 3597 1894 
z
M 3022 2063 
Q 3016 2534 2758 2815 
Q 2500 3097 2075 3097 
Q 1594 3097 1305 2825 
Q 1016 2553 972 2059 
L 3022 2063 
z
" transform="scale(0.015625)"/>
       <path id="DejaVuSans-56" d="M 2834 3397 
L 2834 2853 
Q 2591 2978 2328 3040 
Q 2066 3103 1784 3103 
Q 1356 3103 1142 2972 
Q 928 2841 928 2578 
Q 928 2378 1081 2264 
Q 1234 2150 1697 2047 
L 1894 2003 
Q 2506 1872 2764 1633 
Q 3022 1394 3022 966 
Q 3022 478 2636 193 
Q 2250 -91 1575 -91 
Q 1294 -91 989 -36 
Q 684 19 347 128 
L 347 722 
Q 666 556 975 473 
Q 1284 391 1588 391 
Q 1994 391 2212 530 
Q 2431 669 2431 922 
Q 2431 1156 2273 1281 
Q 2116 1406 1581 1522 
L 1381 1569 
Q 847 1681 609 1914 
Q 372 2147 372 2553 
Q 372 3047 722 3315 
Q 1072 3584 1716 3584 
Q 2034 3584 2315 3537 
Q 2597 3491 2834 3397 
z
" transform="scale(0.015625)"/>
       <path id="DejaVuSans-52" d="M 1959 3097 
Q 1497 3097 1228 2736 
Q 959 2375 959 1747 
Q 959 1119 1226 758 
Q 1494 397 1959 397 
Q 2419 397 2687 759 
Q 2956 1122 2956 1747 
Q 2956 2369 2687 2733 
Q 2419 3097 1959 3097 
z
M 1959 3584 
Q 2709 3584 3137 3096 
Q 3566 2609 3566 1747 
Q 3566 888 3137 398 
Q 2709 -91 1959 -91 
Q 1206 -91 779 398 
Q 353 888 353 1747 
Q 353 2609 779 3096 
Q 1206 3584 1959 3584 
z
" transform="scale(0.015625)"/>
       <path id="DejaVuSans-4f" d="M 603 4863 
L 1178 4863 
L 1178 0 
L 603 0 
L 603 4863 
z
" transform="scale(0.015625)"/>
       <path id="DejaVuSans-58" d="M 544 1381 
L 544 3500 
L 1119 3500 
L 1119 1403 
Q 1119 906 1312 657 
Q 1506 409 1894 409 
Q 2359 409 2629 706 
Q 2900 1003 2900 1516 
L 2900 3500 
L 3475 3500 
L 3475 0 
L 2900 0 
L 2900 538 
Q 2691 219 2414 64 
Q 2138 -91 1772 -91 
Q 1169 -91 856 284 
Q 544 659 544 1381 
z
M 1991 3584 
L 1991 3584 
z
" transform="scale(0.015625)"/>
       <path id="DejaVuSans-57" d="M 1172 4494 
L 1172 3500 
L 2356 3500 
L 2356 3053 
L 1172 3053 
L 1172 1153 
Q 1172 725 1289 603 
Q 1406 481 1766 481 
L 2356 481 
L 2356 0 
L 1766 0 
Q 1100 0 847 248 
Q 594 497 594 1153 
L 594 3053 
L 172 3053 
L 172 3500 
L 594 3500 
L 594 4494 
L 1172 4494 
z
" transform="scale(0.015625)"/>
       <path id="DejaVuSans-4c" d="M 603 3500 
L 1178 3500 
L 1178 0 
L 603 0 
L 603 3500 
z
M 603 4863 
L 1178 4863 
L 1178 4134 
L 603 4134 
L 603 4863 
z
" transform="scale(0.015625)"/>
       <path id="DejaVuSans-51" d="M 3513 2113 
L 3513 0 
L 2938 0 
L 2938 2094 
Q 2938 2591 2744 2837 
Q 2550 3084 2163 3084 
Q 1697 3084 1428 2787 
Q 1159 2491 1159 1978 
L 1159 0 
L 581 0 
L 581 3500 
L 1159 3500 
L 1159 2956 
Q 1366 3272 1645 3428 
Q 1925 3584 2291 3584 
Q 2894 3584 3203 3211 
Q 3513 2838 3513 2113 
z
" transform="scale(0.015625)"/>
       <path id="DejaVuSans-3" transform="scale(0.015625)"/>
       <path id="DejaVuSans-b" d="M 1984 4856 
Q 1566 4138 1362 3434 
Q 1159 2731 1159 2009 
Q 1159 1288 1364 580 
Q 1569 -128 1984 -844 
L 1484 -844 
Q 1016 -109 783 600 
Q 550 1309 550 2009 
Q 550 2706 781 3412 
Q 1013 4119 1484 4856 
L 1984 4856 
z
" transform="scale(0.015625)"/>
       <path id="DejaVuSans-46" d="M 3122 3366 
L 3122 2828 
Q 2878 2963 2633 3030 
Q 2388 3097 2138 3097 
Q 1578 3097 1268 2742 
Q 959 2388 959 1747 
Q 959 1106 1268 751 
Q 1578 397 2138 397 
Q 2388 397 2633 464 
Q 2878 531 3122 666 
L 3122 134 
Q 2881 22 2623 -34 
Q 2366 -91 2075 -91 
Q 1284 -91 818 406 
Q 353 903 353 1747 
Q 353 2603 823 3093 
Q 1294 3584 2113 3584 
Q 2378 3584 2631 3529 
Q 2884 3475 3122 3366 
z
" transform="scale(0.015625)"/>
       <path id="DejaVuSans-53" d="M 1159 525 
L 1159 -1331 
L 581 -1331 
L 581 3500 
L 1159 3500 
L 1159 2969 
Q 1341 3281 1617 3432 
Q 1894 3584 2278 3584 
Q 2916 3584 3314 3078 
Q 3713 2572 3713 1747 
Q 3713 922 3314 415 
Q 2916 -91 2278 -91 
Q 1894 -91 1617 61 
Q 1341 213 1159 525 
z
M 3116 1747 
Q 3116 2381 2855 2742 
Q 2594 3103 2138 3103 
Q 1681 3103 1420 2742 
Q 1159 2381 1159 1747 
Q 1159 1113 1420 752 
Q 1681 391 2138 391 
Q 2594 391 2855 752 
Q 3116 1113 3116 1747 
z
" transform="scale(0.015625)"/>
       <path id="DejaVuSans-45" d="M 3116 1747 
Q 3116 2381 2855 2742 
Q 2594 3103 2138 3103 
Q 1681 3103 1420 2742 
Q 1159 2381 1159 1747 
Q 1159 1113 1420 752 
Q 1681 391 2138 391 
Q 2594 391 2855 752 
Q 3116 1113 3116 1747 
z
M 1159 2969 
Q 1341 3281 1617 3432 
Q 1894 3584 2278 3584 
Q 2916 3584 3314 3078 
Q 3713 2572 3713 1747 
Q 3713 922 3314 415 
Q 2916 -91 2278 -91 
Q 1894 -91 1617 61 
Q 1341 213 1159 525 
L 1159 0 
L 581 0 
L 581 4863 
L 1159 4863 
L 1159 2969 
z
" transform="scale(0.015625)"/>
       <path id="DejaVuSans-47" d="M 2906 2969 
L 2906 4863 
L 3481 4863 
L 3481 0 
L 2906 0 
L 2906 525 
Q 2725 213 2448 61 
Q 2172 -91 1784 -91 
Q 1150 -91 751 415 
Q 353 922 353 1747 
Q 353 2572 751 3078 
Q 1150 3584 1784 3584 
Q 2172 3584 2448 3432 
Q 2725 3281 2906 2969 
z
M 947 1747 
Q 947 1113 1208 752 
Q 1469 391 1925 391 
Q 2381 391 2643 752 
Q 2906 1113 2906 1747 
Q 2906 2381 2643 2742 
Q 2381 3103 1925 3103 
Q 1469 3103 1208 2742 
Q 947 2381 947 1747 
z
" transform="scale(0.015625)"/>
       <path id="DejaVuSans-4a" d="M 2906 1791 
Q 2906 2416 2648 2759 
Q 2391 3103 1925 3103 
Q 1463 3103 1205 2759 
Q 947 2416 947 1791 
Q 947 1169 1205 825 
Q 1463 481 1925 481 
Q 2391 481 2648 825 
Q 2906 1169 2906 1791 
z
M 3481 434 
Q 3481 -459 3084 -895 
Q 2688 -1331 1869 -1331 
Q 1566 -1331 1297 -1286 
Q 1028 -1241 775 -1147 
L 775 -588 
Q 1028 -725 1275 -790 
Q 1522 -856 1778 -856 
Q 2344 -856 2625 -561 
Q 2906 -266 2906 331 
L 2906 616 
Q 2728 306 2450 153 
Q 2172 0 1784 0 
Q 1141 0 747 490 
Q 353 981 353 1791 
Q 353 2603 747 3093 
Q 1141 3584 1784 3584 
Q 2172 3584 2450 3431 
Q 2728 3278 2906 2969 
L 2906 3500 
L 3481 3500 
L 3481 434 
z
" transform="scale(0.015625)"/>
       <path id="DejaVuSans-4b" d="M 3513 2113 
L 3513 0 
L 2938 0 
L 2938 2094 
Q 2938 2591 2744 2837 
Q 2550 3084 2163 3084 
Q 1697 3084 1428 2787 
Q 1159 2491 1159 1978 
L 1159 0 
L 581 0 
L 581 4863 
L 1159 4863 
L 1159 2956 
Q 1366 3272 1645 3428 
Q 1925 3584 2291 3584 
Q 2894 3584 3203 3211 
Q 3513 2838 3513 2113 
z
" transform="scale(0.015625)"/>
       <path id="DejaVuSans-2b" d="M 628 4666 
L 1259 4666 
L 1259 2753 
L 3553 2753 
L 3553 4666 
L 4184 4666 
L 4184 0 
L 3553 0 
L 3553 2222 
L 1259 2222 
L 1259 0 
L 628 0 
L 628 4666 
z
" transform="scale(0.015625)"/>
       <path id="DejaVuSans-c" d="M 513 4856 
L 1013 4856 
Q 1481 4119 1714 3412 
Q 1947 2706 1947 2009 
Q 1947 1309 1714 600 
Q 1481 -109 1013 -844 
L 513 -844 
Q 928 -128 1133 580 
Q 1338 1288 1338 2009 
Q 1338 2731 1133 3434 
Q 928 4138 513 4856 
z
" transform="scale(0.015625)"/>
      </defs>
      <use xlink:href="#DejaVuSans-55"/>
      <use xlink:href="#DejaVuSans-48" transform="translate(38.90625 0)"/>
      <use xlink:href="#DejaVuSans-56" transform="translate(100.4375 0)"/>
      <use xlink:href="#DejaVuSans-52" transform="translate(152.53125 0)"/>
      <use xlink:href="#DejaVuSans-4f" transform="translate(213.71875 0)"/>
      <use xlink:href="#DejaVuSans-58" transform="translate(241.5 0)"/>
      <use xlink:href="#DejaVuSans-57" transform="translate(304.875 0)"/>
      <use xlink:href="#DejaVuSans-4c" transform="translate(344.078125 0)"/>
      <use xlink:href="#DejaVuSans-52" transform="translate(371.859375 0)"/>
      <use xlink:href="#DejaVuSans-51" transform="translate(433.046875 0)"/>
      <use xlink:href="#DejaVuSans-3" transform="translate(496.421875 0)"/>
      <use xlink:href="#DejaVuSans-b" transform="translate(528.203125 0)"/>
      <use xlink:href="#DejaVuSans-46" transform="translate(567.21875 0)"/>
      <use xlink:href="#DejaVuSans-48" transform="translate(622.203125 0)"/>
      <use xlink:href="#DejaVuSans-4f" transform="translate(683.734375 0)"/>
      <use xlink:href="#DejaVuSans-4f" transform="translate(711.515625 0)"/>
      <use xlink:href="#DejaVuSans-56" transform="translate(739.296875 0)"/>
      <use xlink:href="#DejaVuSans-3" transform="translate(791.390625 0)"/>
      <use xlink:href="#DejaVuSans-53" transform="translate(823.171875 0)"/>
      <use xlink:href="#DejaVuSans-48" transform="translate(886.65625 0)"/>
      <use xlink:href="#DejaVuSans-55" transform="translate(948.1875 0)"/>
      <use xlink:href="#DejaVuSans-3" transform="translate(989.296875 0)"/>
      <use xlink:href="#DejaVuSans-45" transform="translate(1021.078125 0)"/>
      <use xlink:href="#DejaVuSans-58" transform="translate(1084.5625 0)"/>
      <use xlink:href="#DejaVuSans-4c" transform="translate(1147.9375 0)"/>
      <use xlink:href="#DejaVuSans-4f" transform="translate(1175.71875 0)"/>
      <use xlink:href="#DejaVuSans-47" transform="translate(1203.5 0)"/>
      <use xlink:href="#DejaVuSans-4c" transform="translate(1266.984375 0)"/>
      <use xlink:href="#DejaVuSans-51" transform="translate(1294.765625 0)"/>
      <use xlink:href="#DejaVuSans-4a" transform="translate(1358.140625 0)"/>
      <use xlink:href="#DejaVuSans-3" transform="translate(1421.625 0)"/>
      <use xlink:href="#DejaVuSans-4b" transform="translate(1453.40625 0)"/>
      <use xlink:href="#DejaVuSans-48" transform="translate(1516.78125 0)"/>
      <use xlink:href="#DejaVuSans-4c" transform="translate(1578.3125 0)"/>
      <use xlink:href="#DejaVuSans-4a" transform="translate(1606.09375 0)"/>
      <use xlink:href="#DejaVuSans-4b" transform="translate(1669.578125 0)"/>
      <use xlink:href="#DejaVuSans-57" transform="translate(1732.953125 0)"/>
      <use xlink:href="#DejaVuSans-3" transform="translate(1772.15625 0)"/>
      <use xlink:href="#DejaVuSans-2b" transform="translate(1803.9375 0)"/>
      <use xlink:href="#DejaVuSans-c" transform="translate(1879.140625 0)"/>
     </g>
    </g>
   </g>
   <g id="matplotlib.axis_2">
    <g id="ytick_1">
     <g id="line2d_4">
      <defs>
       <path id="mfe0e782cb9" d="M 0 0 
L -3.5 0 
" style="stroke: #000000; stroke-width: 0.8"/>
      </defs>
      <g>
       <use xlink:href="#mfe0e782cb9" x="44.103906" y="242.305412" style="stroke: #000000; stroke-width: 0.8"/>
      </g>
     </g>
     <g id="text_5">
      <!-- 0.4 -->
      <g transform="translate(21.200781 246.10424) scale(0.1 -0.1)">
       <defs>
        <path id="DejaVuSans-13" d="M 2034 4250 
Q 1547 4250 1301 3770 
Q 1056 3291 1056 2328 
Q 1056 1369 1301 889 
Q 1547 409 2034 409 
Q 2525 409 2770 889 
Q 3016 1369 3016 2328 
Q 3016 3291 2770 3770 
Q 2525 4250 2034 4250 
z
M 2034 4750 
Q 2819 4750 3233 4129 
Q 3647 3509 3647 2328 
Q 3647 1150 3233 529 
Q 2819 -91 2034 -91 
Q 1250 -91 836 529 
Q 422 1150 422 2328 
Q 422 3509 836 4129 
Q 1250 4750 2034 4750 
z
" transform="scale(0.015625)"/>
        <path id="DejaVuSans-11" d="M 684 794 
L 1344 794 
L 1344 0 
L 684 0 
L 684 794 
z
" transform="scale(0.015625)"/>
       </defs>
       <use xlink:href="#DejaVuSans-13"/>
       <use xlink:href="#DejaVuSans-11" transform="translate(63.625 0)"/>
       <use xlink:href="#DejaVuSans-17" transform="translate(95.40625 0)"/>
      </g>
     </g>
    </g>
    <g id="ytick_2">
     <g id="line2d_5">
      <g>
       <use xlink:href="#mfe0e782cb9" x="44.103906" y="210.91696" style="stroke: #000000; stroke-width: 0.8"/>
      </g>
     </g>
     <g id="text_6">
      <!-- 0.5 -->
      <g transform="translate(21.200781 214.715788) scale(0.1 -0.1)">
       <defs>
        <path id="DejaVuSans-18" d="M 691 4666 
L 3169 4666 
L 3169 4134 
L 1269 4134 
L 1269 2991 
Q 1406 3038 1543 3061 
Q 1681 3084 1819 3084 
Q 2600 3084 3056 2656 
Q 3513 2228 3513 1497 
Q 3513 744 3044 326 
Q 2575 -91 1722 -91 
Q 1428 -91 1123 -41 
Q 819 9 494 109 
L 494 744 
Q 775 591 1075 516 
Q 1375 441 1709 441 
Q 2250 441 2565 725 
Q 2881 1009 2881 1497 
Q 2881 1984 2565 2268 
Q 2250 2553 1709 2553 
Q 1456 2553 1204 2497 
Q 953 2441 691 2322 
L 691 4666 
z
" transform="scale(0.015625)"/>
       </defs>
       <use xlink:href="#DejaVuSans-13"/>
       <use xlink:href="#DejaVuSans-11" transform="translate(63.625 0)"/>
       <use xlink:href="#DejaVuSans-18" transform="translate(95.40625 0)"/>
      </g>
     </g>
    </g>
    <g id="ytick_3">
     <g id="line2d_6">
      <g>
       <use xlink:href="#mfe0e782cb9" x="44.103906" y="179.528508" style="stroke: #000000; stroke-width: 0.8"/>
      </g>
     </g>
     <g id="text_7">
      <!-- 0.6 -->
      <g transform="translate(21.200781 183.327336) scale(0.1 -0.1)">
       <use xlink:href="#DejaVuSans-13"/>
       <use xlink:href="#DejaVuSans-11" transform="translate(63.625 0)"/>
       <use xlink:href="#DejaVuSans-19" transform="translate(95.40625 0)"/>
      </g>
     </g>
    </g>
    <g id="ytick_4">
     <g id="line2d_7">
      <g>
       <use xlink:href="#mfe0e782cb9" x="44.103906" y="148.140056" style="stroke: #000000; stroke-width: 0.8"/>
      </g>
     </g>
     <g id="text_8">
      <!-- 0.7 -->
      <g transform="translate(21.200781 151.938885) scale(0.1 -0.1)">
       <defs>
        <path id="DejaVuSans-1a" d="M 525 4666 
L 3525 4666 
L 3525 4397 
L 1831 0 
L 1172 0 
L 2766 4134 
L 525 4134 
L 525 4666 
z
" transform="scale(0.015625)"/>
       </defs>
       <use xlink:href="#DejaVuSans-13"/>
       <use xlink:href="#DejaVuSans-11" transform="translate(63.625 0)"/>
       <use xlink:href="#DejaVuSans-1a" transform="translate(95.40625 0)"/>
      </g>
     </g>
    </g>
    <g id="ytick_5">
     <g id="line2d_8">
      <g>
       <use xlink:href="#mfe0e782cb9" x="44.103906" y="116.751605" style="stroke: #000000; stroke-width: 0.8"/>
      </g>
     </g>
     <g id="text_9">
      <!-- 0.8 -->
      <g transform="translate(21.200781 120.550433) scale(0.1 -0.1)">
       <use xlink:href="#DejaVuSans-13"/>
       <use xlink:href="#DejaVuSans-11" transform="translate(63.625 0)"/>
       <use xlink:href="#DejaVuSans-1b" transform="translate(95.40625 0)"/>
      </g>
     </g>
    </g>
    <g id="ytick_6">
     <g id="line2d_9">
      <g>
       <use xlink:href="#mfe0e782cb9" x="44.103906" y="85.363153" style="stroke: #000000; stroke-width: 0.8"/>
      </g>
     </g>
     <g id="text_10">
      <!-- 0.9 -->
      <g transform="translate(21.200781 89.161981) scale(0.1 -0.1)">
       <use xlink:href="#DejaVuSans-13"/>
       <use xlink:href="#DejaVuSans-11" transform="translate(63.625 0)"/>
       <use xlink:href="#DejaVuSans-1c" transform="translate(95.40625 0)"/>
      </g>
     </g>
    </g>
    <g id="ytick_7">
     <g id="line2d_10">
      <g>
       <use xlink:href="#mfe0e782cb9" x="44.103906" y="53.974701" style="stroke: #000000; stroke-width: 0.8"/>
      </g>
     </g>
     <g id="text_11">
      <!-- 1.0 -->
      <g transform="translate(21.200781 57.773529) scale(0.1 -0.1)">
       <defs>
        <path id="DejaVuSans-14" d="M 794 531 
L 1825 531 
L 1825 4091 
L 703 3866 
L 703 4441 
L 1819 4666 
L 2450 4666 
L 2450 531 
L 3481 531 
L 3481 0 
L 794 0 
L 794 531 
z
" transform="scale(0.015625)"/>
       </defs>
       <use xlink:href="#DejaVuSans-14"/>
       <use xlink:href="#DejaVuSans-11" transform="translate(63.625 0)"/>
       <use xlink:href="#DejaVuSans-13" transform="translate(95.40625 0)"/>
      </g>
     </g>
    </g>
    <g id="text_12">
     <!-- ventilation metric / coarsest-grid value -->
     <g transform="translate(14.798438 249.273027) rotate(-90) scale(0.1 -0.1)">
      <defs>
       <path id="DejaVuSans-59" d="M 191 3500 
L 800 3500 
L 1894 563 
L 2988 3500 
L 3597 3500 
L 2284 0 
L 1503 0 
L 191 3500 
z
" transform="scale(0.015625)"/>
       <path id="DejaVuSans-44" d="M 2194 1759 
Q 1497 1759 1228 1600 
Q 959 1441 959 1056 
Q 959 750 1161 570 
Q 1363 391 1709 391 
Q 2188 391 2477 730 
Q 2766 1069 2766 1631 
L 2766 1759 
L 2194 1759 
z
M 3341 1997 
L 3341 0 
L 2766 0 
L 2766 531 
Q 2569 213 2275 61 
Q 1981 -91 1556 -91 
Q 1019 -91 701 211 
Q 384 513 384 1019 
Q 384 1609 779 1909 
Q 1175 2209 1959 2209 
L 2766 2209 
L 2766 2266 
Q 2766 2663 2505 2880 
Q 2244 3097 1772 3097 
Q 1472 3097 1187 3025 
Q 903 2953 641 2809 
L 641 3341 
Q 956 3463 1253 3523 
Q 1550 3584 1831 3584 
Q 2591 3584 2966 3190 
Q 3341 2797 3341 1997 
z
" transform="scale(0.015625)"/>
       <path id="DejaVuSans-50" d="M 3328 2828 
Q 3544 3216 3844 3400 
Q 4144 3584 4550 3584 
Q 5097 3584 5394 3201 
Q 5691 2819 5691 2113 
L 5691 0 
L 5113 0 
L 5113 2094 
Q 5113 2597 4934 2840 
Q 4756 3084 4391 3084 
Q 3944 3084 3684 2787 
Q 3425 2491 3425 1978 
L 3425 0 
L 2847 0 
L 2847 2094 
Q 2847 2600 2669 2842 
Q 2491 3084 2119 3084 
Q 1678 3084 1418 2786 
Q 1159 2488 1159 1978 
L 1159 0 
L 581 0 
L 581 3500 
L 1159 3500 
L 1159 2956 
Q 1356 3278 1631 3431 
Q 1906 3584 2284 3584 
Q 2666 3584 2933 3390 
Q 3200 3197 3328 2828 
z
" transform="scale(0.015625)"/>
       <path id="DejaVuSans-12" d="M 1625 4666 
L 2156 4666 
L 531 -594 
L 0 -594 
L 1625 4666 
z
" transform="scale(0.015625)"/>
       <path id="DejaVuSans-10" d="M 313 2009 
L 1997 2009 
L 1997 1497 
L 313 1497 
L 313 2009 
z
" transform="scale(0.015625)"/>
      </defs>
      <use xlink:href="#DejaVuSans-59"/>
      <use xlink:href="#DejaVuSans-48" transform="translate(59.1875 0)"/>
      <use xlink:href="#DejaVuSans-51" transform="translate(120.71875 0)"/>
      <use xlink:href="#DejaVuSans-57" transform="translate(184.09375 0)"/>
      <use xlink:href="#DejaVuSans-4c" transform="translate(223.296875 0)"/>
      <use xlink:href="#DejaVuSans-4f" transform="translate(251.078125 0)"/>
      <use xlink:href="#DejaVuSans-44" transform="translate(278.859375 0)"/>
      <use xlink:href="#DejaVuSans-57" transform="translate(340.140625 0)"/>
      <use xlink:href="#DejaVuSans-4c" transform="translate(379.34375 0)"/>
      <use xlink:href="#DejaVuSans-52" transform="translate(407.125 0)"/>
      <use xlink:href="#DejaVuSans-51" transform="translate(468.3125 0)"/>
      <use xlink:href="#DejaVuSans-3" transform="translate(531.6875 0)"/>
      <use xlink:href="#DejaVuSans-50" transform="translate(563.46875 0)"/>
      <use xlink:href="#DejaVuSans-48" transform="translate(660.875 0)"/>
      <use xlink:href="#DejaVuSans-57" transform="translate(722.40625 0)"/>
      <use xlink:href="#DejaVuSans-55" transform="translate(761.609375 0)"/>
      <use xlink:href="#DejaVuSans-4c" transform="translate(802.71875 0)"/>
      <use xlink:href="#DejaVuSans-46" transform="translate(830.5 0)"/>
      <use xlink:href="#DejaVuSans-3" transform="translate(885.484375 0)"/>
      <use xlink:href="#DejaVuSans-12" transform="translate(917.265625 0)"/>
      <use xlink:href="#DejaVuSans-3" transform="translate(950.953125 0)"/>
      <use xlink:href="#DejaVuSans-46" transform="translate(982.734375 0)"/>
      <use xlink:href="#DejaVuSans-52" transform="translate(1037.71875 0)"/>
      <use xlink:href="#DejaVuSans-44" transform="translate(1098.90625 0)"/>
      <use xlink:href="#DejaVuSans-55" transform="translate(1160.1875 0)"/>
      <use xlink:href="#DejaVuSans-56" transform="translate(1201.296875 0)"/>
      <use xlink:href="#DejaVuSans-48" transform="translate(1253.390625 0)"/>
      <use xlink:href="#DejaVuSans-56" transform="translate(1314.921875 0)"/>
      <use xlink:href="#DejaVuSans-57" transform="translate(1367.015625 0)"/>
      <use xlink:href="#DejaVuSans-10" transform="translate(1406.21875 0)"/>
      <use xlink:href="#DejaVuSans-4a" transform="translate(1442.296875 0)"/>
      <use xlink:href="#DejaVuSans-55" transform="translate(1505.78125 0)"/>
      <use xlink:href="#DejaVuSans-4c" transform="translate(1546.890625 0)"/>
      <use xlink:href="#DejaVuSans-47" transform="translate(1574.671875 0)"/>
      <use xlink:href="#DejaVuSans-3" transform="translate(1638.15625 0)"/>
      <use xlink:href="#DejaVuSans-59" transform="translate(1669.9375 0)"/>
      <use xlink:href="#DejaVuSans-44" transform="translate(1729.125 0)"/>
      <use xlink:href="#DejaVuSans-4f" transform="translate(1790.40625 0)"/>
      <use xlink:href="#DejaVuSans-58" transform="translate(1818.1875 0)"/>
      <use xlink:href="#DejaVuSans-48" transform="translate(1881.5625 0)"/>
     </g>
    </g>
   </g>
   <g id="line2d_11">
    <path d="M 62.378345 53.974701 
L 245.122734 259.678514 
" clip-path="url(#p32f1bd5589)" style="fill: none; stroke: #d62728; stroke-width: 1.5; stroke-linecap: square"/>
    <defs>
     <path id="m53f774f8ca" d="M -3.5 3.5 
L 3.5 3.5 
L 3.5 -3.5 
L -3.5 -3.5 
z
" style="stroke: #d62728; stroke-linejoin: miter"/>
    </defs>
    <g clip-path="url(#p32f1bd5589)">
     <use xlink:href="#m53f774f8ca" x="62.378345" y="53.974701" style="fill: #d62728; stroke: #d62728; stroke-linejoin: miter"/>
     <use xlink:href="#m53f774f8ca" x="245.122734" y="259.678514" style="fill: #d62728; stroke: #d62728; stroke-linejoin: miter"/>
    </g>
   </g>
   <g id="line2d_12">
    <path d="M 62.378345 53.974701 
L 245.122734 53.747369 
L 427.867124 53.763485 
" clip-path="url(#p32f1bd5589)" style="fill: none; stroke: #1f77b4; stroke-width: 1.5; stroke-linecap: square"/>
    <defs>
     <path id="me0c4b46dc4" d="M 0 3.5 
C 0.928211 3.5 1.81853 3.131218 2.474874 2.474874 
C 3.131218 1.81853 3.5 0.928211 3.5 0 
C 3.5 -0.928211 3.131218 -1.81853 2.474874 -2.474874 
C 1.81853 -3.131218 0.928211 -3.5 0 -3.5 
C -0.928211 -3.5 -1.81853 -3.131218 -2.474874 -2.474874 
C -3.131218 -1.81853 -3.5 -0.928211 -3.5 0 
C -3.5 0.928211 -3.131218 1.81853 -2.474874 2.474874 
C -1.81853 3.131218 -0.928211 3.5 0 3.5 
z
" style="stroke: #1f77b4"/>
    </defs>
    <g clip-path="url(#p32f1bd5589)">
     <use xlink:href="#me0c4b46dc4" x="62.378345" y="53.974701" style="fill: #1f77b4; stroke: #1f77b4"/>
     <use xlink:href="#me0c4b46dc4" x="245.122734" y="53.747369" style="fill: #1f77b4; stroke: #1f77b4"/>
     <use xlink:href="#me0c4b46dc4" x="427.867124" y="53.763485" style="fill: #1f77b4; stroke: #1f77b4"/>
    </g>
   </g>
   <g id="patch_4">
    <path d="M 44.103906 270.434531 
L 44.103906 33.802148 
" style="fill: none; stroke: #000000; stroke-width: 0.8; stroke-linejoin: miter; stroke-linecap: square"/>
   </g>
   <g id="patch_5">
    <path d="M 446.141563 270.434531 
L 446.141563 33.802148 
" style="fill: none; stroke: #000000; stroke-width: 0.8; stroke-linejoin: miter; stroke-linecap: square"/>
   </g>
   <g id="patch_6">
    <path d="M 44.103906 270.434531 
L 446.141563 270.434531 
" style="fill: none; stroke: #000000; stroke-width: 0.8; stroke-linejoin: miter; stroke-linecap: square"/>
   </g>
   <g id="patch_7">
    <path d="M 44.103906 33.802148 
L 446.141563 33.802148 
" style="fill: none; stroke: #000000; stroke-width: 0.8; stroke-linejoin: miter; stroke-linecap: square"/>
   </g>
   <g id="text_13">
    <!-- Why 2-D LES is ill-posed here: -->
    <g transform="translate(170.145391 15.799414) scale(0.1 -0.1)">
     <defs>
      <path id="DejaVuSans-3a" d="M 213 4666 
L 850 4666 
L 1831 722 
L 2809 4666 
L 3519 4666 
L 4500 722 
L 5478 4666 
L 6119 4666 
L 4947 0 
L 4153 0 
L 3169 4050 
L 2175 0 
L 1381 0 
L 213 4666 
z
" transform="scale(0.015625)"/>
      <path id="DejaVuSans-5c" d="M 2059 -325 
Q 1816 -950 1584 -1140 
Q 1353 -1331 966 -1331 
L 506 -1331 
L 506 -850 
L 844 -850 
Q 1081 -850 1212 -737 
Q 1344 -625 1503 -206 
L 1606 56 
L 191 3500 
L 800 3500 
L 1894 763 
L 2988 3500 
L 3597 3500 
L 2059 -325 
z
" transform="scale(0.015625)"/>
      <path id="DejaVuSans-27" d="M 1259 4147 
L 1259 519 
L 2022 519 
Q 2988 519 3436 956 
Q 3884 1394 3884 2338 
Q 3884 3275 3436 3711 
Q 2988 4147 2022 4147 
L 1259 4147 
z
M 628 4666 
L 1925 4666 
Q 3281 4666 3915 4102 
Q 4550 3538 4550 2338 
Q 4550 1131 3912 565 
Q 3275 0 1925 0 
L 628 0 
L 628 4666 
z
" transform="scale(0.015625)"/>
      <path id="DejaVuSans-2f" d="M 628 4666 
L 1259 4666 
L 1259 531 
L 3531 531 
L 3531 0 
L 628 0 
L 628 4666 
z
" transform="scale(0.015625)"/>
      <path id="DejaVuSans-28" d="M 628 4666 
L 3578 4666 
L 3578 4134 
L 1259 4134 
L 1259 2753 
L 3481 2753 
L 3481 2222 
L 1259 2222 
L 1259 531 
L 3634 531 
L 3634 0 
L 628 0 
L 628 4666 
z
" transform="scale(0.015625)"/>
      <path id="DejaVuSans-36" d="M 3425 4513 
L 3425 3897 
Q 3066 4069 2747 4153 
Q 2428 4238 2131 4238 
Q 1616 4238 1336 4038 
Q 1056 3838 1056 3469 
Q 1056 3159 1242 3001 
Q 1428 2844 1947 2747 
L 2328 2669 
Q 3034 2534 3370 2195 
Q 3706 1856 3706 1288 
Q 3706 609 3251 259 
Q 2797 -91 1919 -91 
Q 1588 -91 1214 -16 
Q 841 59 441 206 
L 441 856 
Q 825 641 1194 531 
Q 1563 422 1919 422 
Q 2459 422 2753 634 
Q 3047 847 3047 1241 
Q 3047 1584 2836 1778 
Q 2625 1972 2144 2069 
L 1759 2144 
Q 1053 2284 737 2584 
Q 422 2884 422 3419 
Q 422 4038 858 4394 
Q 1294 4750 2059 4750 
Q 2388 4750 2728 4690 
Q 3069 4631 3425 4513 
z
" transform="scale(0.015625)"/>
      <path id="DejaVuSans-1d" d="M 750 794 
L 1409 794 
L 1409 0 
L 750 0 
L 750 794 
z
M 750 3309 
L 1409 3309 
L 1409 2516 
L 750 2516 
L 750 3309 
z
" transform="scale(0.015625)"/>
     </defs>
     <use xlink:href="#DejaVuSans-3a"/>
     <use xlink:href="#DejaVuSans-4b" transform="translate(98.875 0)"/>
     <use xlink:href="#DejaVuSans-5c" transform="translate(162.25 0)"/>
     <use xlink:href="#DejaVuSans-3" transform="translate(221.4375 0)"/>
     <use xlink:href="#DejaVuSans-15" transform="translate(253.21875 0)"/>
     <use xlink:href="#DejaVuSans-10" transform="translate(316.84375 0)"/>
     <use xlink:href="#DejaVuSans-27" transform="translate(352.921875 0)"/>
     <use xlink:href="#DejaVuSans-3" transform="translate(429.921875 0)"/>
     <use xlink:href="#DejaVuSans-2f" transform="translate(461.703125 0)"/>
     <use xlink:href="#DejaVuSans-28" transform="translate(517.421875 0)"/>
     <use xlink:href="#DejaVuSans-36" transform="translate(580.609375 0)"/>
     <use xlink:href="#DejaVuSans-3" transform="translate(644.09375 0)"/>
     <use xlink:href="#DejaVuSans-4c" transform="translate(675.875 0)"/>
     <use xlink:href="#DejaVuSans-56" transform="translate(703.65625 0)"/>
     <use xlink:href="#DejaVuSans-3" transform="translate(755.75 0)"/>
     <use xlink:href="#DejaVuSans-4c" transform="translate(787.53125 0)"/>
     <use xlink:href="#DejaVuSans-4f" transform="translate(815.3125 0)"/>
     <use xlink:href="#DejaVuSans-4f" transform="translate(843.09375 0)"/>
     <use xlink:href="#DejaVuSans-10" transform="translate(870.875 0)"/>
     <use xlink:href="#DejaVuSans-53" transform="translate(906.953125 0)"/>
     <use xlink:href="#DejaVuSans-52" transform="translate(970.4375 0)"/>
     <use xlink:href="#DejaVuSans-56" transform="translate(1031.625 0)"/>
     <use xlink:href="#DejaVuSans-48" transform="translate(1083.71875 0)"/>
     <use xlink:href="#DejaVuSans-47" transform="translate(1145.25 0)"/>
     <use xlink:href="#DejaVuSans-3" transform="translate(1208.734375 0)"/>
     <use xlink:href="#DejaVuSans-4b" transform="translate(1240.515625 0)"/>
     <use xlink:href="#DejaVuSans-48" transform="translate(1303.890625 0)"/>
     <use xlink:href="#DejaVuSans-55" transform="translate(1365.421875 0)"/>
     <use xlink:href="#DejaVuSans-48" transform="translate(1404.328125 0)"/>
     <use xlink:href="#DejaVuSans-1d" transform="translate(1465.859375 0)"/>
    </g>
    <!-- the metric diverges on refinement (LES) vs converges (laminar) -->
    <g transform="translate(85.636797 27.802148) scale(0.1 -0.1)">
     <defs>
      <path id="DejaVuSans-13af" d="M 3431 3500 
L 3431 0 
L 2853 0 
L 2853 3053 
L 1275 3053 
L 1275 0 
L 697 0 
L 697 3053 
L 147 3053 
L 147 3500 
L 697 3500 
L 697 3744 
Q 697 4316 967 4589 
Q 1238 4863 1797 4863 
L 2375 4863 
L 2375 4384 
L 1825 4384 
Q 1516 4384 1395 4259 
Q 1275 4134 1275 3809 
L 1275 3500 
L 3431 3500 
z
M 2853 4856 
L 3431 4856 
L 3431 4128 
L 2853 4128 
L 2853 4856 
z
" transform="scale(0.015625)"/>
     </defs>
     <use xlink:href="#DejaVuSans-57"/>
     <use xlink:href="#DejaVuSans-4b" transform="translate(39.203125 0)"/>
     <use xlink:href="#DejaVuSans-48" transform="translate(102.578125 0)"/>
     <use xlink:href="#DejaVuSans-3" transform="translate(164.109375 0)"/>
     <use xlink:href="#DejaVuSans-50" transform="translate(195.890625 0)"/>
     <use xlink:href="#DejaVuSans-48" transform="translate(293.296875 0)"/>
     <use xlink:href="#DejaVuSans-57" transform="translate(354.828125 0)"/>
     <use xlink:href="#DejaVuSans-55" transform="translate(394.03125 0)"/>
     <use xlink:href="#DejaVuSans-4c" transform="translate(435.140625 0)"/>
     <use xlink:href="#DejaVuSans-46" transform="translate(462.921875 0)"/>
     <use xlink:href="#DejaVuSans-3" transform="translate(517.90625 0)"/>
     <use xlink:href="#DejaVuSans-47" transform="translate(549.6875 0)"/>
     <use xlink:href="#DejaVuSans-4c" transform="translate(613.171875 0)"/>
     <use xlink:href="#DejaVuSans-59" transform="translate(640.953125 0)"/>
     <use xlink:href="#DejaVuSans-48" transform="translate(700.140625 0)"/>
     <use xlink:href="#DejaVuSans-55" transform="translate(761.671875 0)"/>
     <use xlink:href="#DejaVuSans-4a" transform="translate(801.03125 0)"/>
     <use xlink:href="#DejaVuSans-48" transform="translate(864.515625 0)"/>
     <use xlink:href="#DejaVuSans-56" transform="translate(926.046875 0)"/>
     <use xlink:href="#DejaVuSans-3" transform="translate(978.140625 0)"/>
     <use xlink:href="#DejaVuSans-52" transform="translate(1009.921875 0)"/>
     <use xlink:href="#DejaVuSans-51" transform="translate(1071.109375 0)"/>
     <use xlink:href="#DejaVuSans-3" transform="translate(1134.484375 0)"/>
     <use xlink:href="#DejaVuSans-55" transform="translate(1166.265625 0)"/>
     <use xlink:href="#DejaVuSans-48" transform="translate(1205.171875 0)"/>
     <use xlink:href="#DejaVuSans-13af" transform="translate(1266.703125 0)"/>
     <use xlink:href="#DejaVuSans-51" transform="translate(1329.6875 0)"/>
     <use xlink:href="#DejaVuSans-48" transform="translate(1393.0625 0)"/>
     <use xlink:href="#DejaVuSans-50" transform="translate(1454.59375 0)"/>
     <use xlink:href="#DejaVuSans-48" transform="translate(1552 0)"/>
     <use xlink:href="#DejaVuSans-51" transform="translate(1613.53125 0)"/>
     <use xlink:href="#DejaVuSans-57" transform="translate(1676.90625 0)"/>
     <use xlink:href="#DejaVuSans-3" transform="translate(1716.109375 0)"/>
     <use xlink:href="#DejaVuSans-b" transform="translate(1747.890625 0)"/>
     <use xlink:href="#DejaVuSans-2f" transform="translate(1786.90625 0)"/>
     <use xlink:href="#DejaVuSans-28" transform="translate(1842.625 0)"/>
     <use xlink:href="#DejaVuSans-36" transform="translate(1905.8125 0)"/>
     <use xlink:href="#DejaVuSans-c" transform="translate(1969.296875 0)"/>
     <use xlink:href="#DejaVuSans-3" transform="translate(2008.3125 0)"/>
     <use xlink:href="#DejaVuSans-59" transform="translate(2040.09375 0)"/>
     <use xlink:href="#DejaVuSans-56" transform="translate(2099.28125 0)"/>
     <use xlink:href="#DejaVuSans-3" transform="translate(2151.375 0)"/>
     <use xlink:href="#DejaVuSans-46" transform="translate(2183.15625 0)"/>
     <use xlink:href="#DejaVuSans-52" transform="translate(2238.140625 0)"/>
     <use xlink:href="#DejaVuSans-51" transform="translate(2299.328125 0)"/>
     <use xlink:href="#DejaVuSans-59" transform="translate(2362.703125 0)"/>
     <use xlink:href="#DejaVuSans-48" transform="translate(2421.890625 0)"/>
     <use xlink:href="#DejaVuSans-55" transform="translate(2483.421875 0)"/>
     <use xlink:href="#DejaVuSans-4a" transform="translate(2522.78125 0)"/>
     <use xlink:href="#DejaVuSans-48" transform="translate(2586.265625 0)"/>
     <use xlink:href="#DejaVuSans-56" transform="translate(2647.796875 0)"/>
     <use xlink:href="#DejaVuSans-3" transform="translate(2699.890625 0)"/>
     <use xlink:href="#DejaVuSans-b" transform="translate(2731.671875 0)"/>
     <use xlink:href="#DejaVuSans-4f" transform="translate(2770.6875 0)"/>
     <use xlink:href="#DejaVuSans-44" transform="translate(2798.46875 0)"/>
     <use xlink:href="#DejaVuSans-50" transform="translate(2859.75 0)"/>
     <use xlink:href="#DejaVuSans-4c" transform="translate(2957.15625 0)"/>
     <use xlink:href="#DejaVuSans-51" transform="translate(2984.9375 0)"/>
     <use xlink:href="#DejaVuSans-44" transform="translate(3048.3125 0)"/>
     <use xlink:href="#DejaVuSans-55" transform="translate(3109.59375 0)"/>
     <use xlink:href="#DejaVuSans-c" transform="translate(3150.703125 0)"/>
    </g>
   </g>
   <g id="legend_1">
    <g id="patch_8">
     <path d="M 51.303906 142.196152 
L 67.303906 142.196152 
L 67.303906 136.596152 
L 51.303906 136.596152 
z
" style="fill: #2ca02c; opacity: 0.15; stroke: #2ca02c; stroke-linejoin: miter"/>
    </g>
    <g id="text_14">
     <!-- ±3% gate -->
     <g transform="translate(73.703906 142.196152) scale(0.08 -0.08)">
      <defs>
       <path id="DejaVuSans-73" d="M 2944 4013 
L 2944 2803 
L 4684 2803 
L 4684 2272 
L 2944 2272 
L 2944 1063 
L 2419 1063 
L 2419 2272 
L 678 2272 
L 678 2803 
L 2419 2803 
L 2419 4013 
L 2944 4013 
z
M 678 531 
L 4684 531 
L 4684 0 
L 678 0 
L 678 531 
z
" transform="scale(0.015625)"/>
       <path id="DejaVuSans-16" d="M 2597 2516 
Q 3050 2419 3304 2112 
Q 3559 1806 3559 1356 
Q 3559 666 3084 287 
Q 2609 -91 1734 -91 
Q 1441 -91 1130 -33 
Q 819 25 488 141 
L 488 750 
Q 750 597 1062 519 
Q 1375 441 1716 441 
Q 2309 441 2620 675 
Q 2931 909 2931 1356 
Q 2931 1769 2642 2001 
Q 2353 2234 1838 2234 
L 1294 2234 
L 1294 2753 
L 1863 2753 
Q 2328 2753 2575 2939 
Q 2822 3125 2822 3475 
Q 2822 3834 2567 4026 
Q 2313 4219 1838 4219 
Q 1578 4219 1281 4162 
Q 984 4106 628 3988 
L 628 4550 
Q 988 4650 1302 4700 
Q 1616 4750 1894 4750 
Q 2613 4750 3031 4423 
Q 3450 4097 3450 3541 
Q 3450 3153 3228 2886 
Q 3006 2619 2597 2516 
z
" transform="scale(0.015625)"/>
       <path id="DejaVuSans-8" d="M 4653 2053 
Q 4381 2053 4226 1822 
Q 4072 1591 4072 1178 
Q 4072 772 4226 539 
Q 4381 306 4653 306 
Q 4919 306 5073 539 
Q 5228 772 5228 1178 
Q 5228 1588 5073 1820 
Q 4919 2053 4653 2053 
z
M 4653 2450 
Q 5147 2450 5437 2106 
Q 5728 1763 5728 1178 
Q 5728 594 5436 251 
Q 5144 -91 4653 -91 
Q 4153 -91 3862 251 
Q 3572 594 3572 1178 
Q 3572 1766 3864 2108 
Q 4156 2450 4653 2450 
z
M 1428 4353 
Q 1159 4353 1004 4120 
Q 850 3888 850 3481 
Q 850 3069 1003 2837 
Q 1156 2606 1428 2606 
Q 1700 2606 1854 2837 
Q 2009 3069 2009 3481 
Q 2009 3884 1853 4118 
Q 1697 4353 1428 4353 
z
M 4250 4750 
L 4750 4750 
L 1831 -91 
L 1331 -91 
L 4250 4750 
z
M 1428 4750 
Q 1922 4750 2215 4408 
Q 2509 4066 2509 3481 
Q 2509 2891 2217 2550 
Q 1925 2209 1428 2209 
Q 931 2209 642 2551 
Q 353 2894 353 3481 
Q 353 4063 643 4406 
Q 934 4750 1428 4750 
z
" transform="scale(0.015625)"/>
      </defs>
      <use xlink:href="#DejaVuSans-73"/>
      <use xlink:href="#DejaVuSans-16" transform="translate(83.796875 0)"/>
      <use xlink:href="#DejaVuSans-8" transform="translate(147.421875 0)"/>
      <use xlink:href="#DejaVuSans-3" transform="translate(242.4375 0)"/>
      <use xlink:href="#DejaVuSans-4a" transform="translate(274.21875 0)"/>
      <use xlink:href="#DejaVuSans-44" transform="translate(337.703125 0)"/>
      <use xlink:href="#DejaVuSans-57" transform="translate(398.984375 0)"/>
      <use xlink:href="#DejaVuSans-48" transform="translate(438.1875 0)"/>
     </g>
    </g>
    <g id="line2d_13">
     <path d="M 51.303906 151.396777 
L 59.303906 151.396777 
L 67.303906 151.396777 
" style="fill: none; stroke: #d62728; stroke-width: 1.5; stroke-linecap: square"/>
     <g>
      <use xlink:href="#m53f774f8ca" x="59.303906" y="151.396777" style="fill: #d62728; stroke: #d62728; stroke-linejoin: miter"/>
     </g>
    </g>
    <g id="text_15">
     <!-- MRT+LES, Re≈2000  (2.9× drift, n=24→48) -->
     <g transform="translate(73.703906 154.196777) scale(0.08 -0.08)">
      <defs>
       <path id="DejaVuSans-30" d="M 628 4666 
L 1569 4666 
L 2759 1491 
L 3956 4666 
L 4897 4666 
L 4897 0 
L 4281 0 
L 4281 4097 
L 3078 897 
L 2444 897 
L 1241 4097 
L 1241 0 
L 628 0 
L 628 4666 
z
" transform="scale(0.015625)"/>
       <path id="DejaVuSans-35" d="M 2841 2188 
Q 3044 2119 3236 1894 
Q 3428 1669 3622 1275 
L 4263 0 
L 3584 0 
L 2988 1197 
Q 2756 1666 2539 1819 
Q 2322 1972 1947 1972 
L 1259 1972 
L 1259 0 
L 628 0 
L 628 4666 
L 2053 4666 
Q 2853 4666 3247 4331 
Q 3641 3997 3641 3322 
Q 3641 2881 3436 2590 
Q 3231 2300 2841 2188 
z
M 1259 4147 
L 1259 2491 
L 2053 2491 
Q 2509 2491 2742 2702 
Q 2975 2913 2975 3322 
Q 2975 3731 2742 3939 
Q 2509 4147 2053 4147 
L 1259 4147 
z
" transform="scale(0.015625)"/>
       <path id="DejaVuSans-37" d="M -19 4666 
L 3928 4666 
L 3928 4134 
L 2272 4134 
L 2272 0 
L 1638 0 
L 1638 4134 
L -19 4134 
L -19 4666 
z
" transform="scale(0.015625)"/>
       <path id="DejaVuSans-e" d="M 2944 4013 
L 2944 2272 
L 4684 2272 
L 4684 1741 
L 2944 1741 
L 2944 0 
L 2419 0 
L 2419 1741 
L 678 1741 
L 678 2272 
L 2419 2272 
L 2419 4013 
L 2944 4013 
z
" transform="scale(0.015625)"/>
       <path id="DejaVuSans-f" d="M 750 794 
L 1409 794 
L 1409 256 
L 897 -744 
L 494 -744 
L 750 256 
L 750 794 
z
" transform="scale(0.015625)"/>
       <path id="DejaVuSans-cd2" d="M 4684 1947 
L 4684 1388 
Q 4356 1144 4076 1036 
Q 3797 928 3494 928 
Q 3150 928 2694 1113 
Q 2663 1125 2641 1134 
Q 2622 1141 2575 1159 
Q 2091 1350 1797 1350 
Q 1522 1350 1253 1231 
Q 984 1113 678 850 
L 678 1409 
Q 1006 1653 1286 1761 
Q 1566 1869 1869 1869 
Q 2213 1869 2672 1684 
Q 2706 1669 2722 1663 
Q 2741 1656 2788 1638 
Q 3272 1447 3566 1447 
Q 3834 1447 4098 1564 
Q 4363 1681 4684 1947 
z
M 4684 3163 
L 4684 2606 
Q 4356 2359 4076 2251 
Q 3797 2144 3494 2144 
Q 3150 2144 2694 2328 
Q 2663 2341 2641 2350 
Q 2622 2356 2575 2375 
Q 2091 2566 1797 2566 
Q 1522 2566 1253 2447 
Q 984 2328 678 2069 
L 678 2625 
Q 1006 2869 1286 2976 
Q 1566 3084 1869 3084 
Q 2213 3084 2672 2900 
Q 2703 2888 2719 2881 
Q 2741 2872 2788 2853 
Q 3272 2663 3566 2663 
Q 3834 2663 4098 2780 
Q 4363 2897 4684 3163 
z
" transform="scale(0.015625)"/>
       <path id="DejaVuSans-99" d="M 4488 3438 
L 3059 2003 
L 4488 575 
L 4116 197 
L 2681 1631 
L 1247 197 
L 878 575 
L 2303 2003 
L 878 3438 
L 1247 3816 
L 2681 2381 
L 4116 3816 
L 4488 3438 
z
" transform="scale(0.015625)"/>
       <path id="DejaVuSans-49" d="M 2375 4863 
L 2375 4384 
L 1825 4384 
Q 1516 4384 1395 4259 
Q 1275 4134 1275 3809 
L 1275 3500 
L 2222 3500 
L 2222 3053 
L 1275 3053 
L 1275 0 
L 697 0 
L 697 3053 
L 147 3053 
L 147 3500 
L 697 3500 
L 697 3744 
Q 697 4328 969 4595 
Q 1241 4863 1831 4863 
L 2375 4863 
z
" transform="scale(0.015625)"/>
       <path id="DejaVuSans-20" d="M 678 2906 
L 4684 2906 
L 4684 2381 
L 678 2381 
L 678 2906 
z
M 678 1631 
L 4684 1631 
L 4684 1100 
L 678 1100 
L 678 1631 
z
" transform="scale(0.015625)"/>
       <path id="DejaVuSans-c1c" d="M 5050 2147 
L 5050 1866 
L 3822 638 
L 3447 1013 
L 4175 1741 
L 366 1741 
L 366 2272 
L 4175 2272 
L 3447 3000 
L 3822 3375 
L 5050 2147 
z
" transform="scale(0.015625)"/>
      </defs>
      <use xlink:href="#DejaVuSans-30"/>
      <use xlink:href="#DejaVuSans-35" transform="translate(86.28125 0)"/>
      <use xlink:href="#DejaVuSans-37" transform="translate(148.484375 0)"/>
      <use xlink:href="#DejaVuSans-e" transform="translate(209.5625 0)"/>
      <use xlink:href="#DejaVuSans-2f" transform="translate(293.359375 0)"/>
      <use xlink:href="#DejaVuSans-28" transform="translate(349.078125 0)"/>
      <use xlink:href="#DejaVuSans-36" transform="translate(412.265625 0)"/>
      <use xlink:href="#DejaVuSans-f" transform="translate(475.75 0)"/>
      <use xlink:href="#DejaVuSans-3" transform="translate(507.53125 0)"/>
      <use xlink:href="#DejaVuSans-35" transform="translate(539.3125 0)"/>
      <use xlink:href="#DejaVuSans-48" transform="translate(604.3125 0)"/>
      <use xlink:href="#DejaVuSans-cd2" transform="translate(665.84375 0)"/>
      <use xlink:href="#DejaVuSans-15" transform="translate(749.640625 0)"/>
      <use xlink:href="#DejaVuSans-13" transform="translate(813.265625 0)"/>
      <use xlink:href="#DejaVuSans-13" transform="translate(876.890625 0)"/>
      <use xlink:href="#DejaVuSans-13" transform="translate(940.515625 0)"/>
      <use xlink:href="#DejaVuSans-3" transform="translate(1004.140625 0)"/>
      <use xlink:href="#DejaVuSans-3" transform="translate(1035.921875 0)"/>
      <use xlink:href="#DejaVuSans-b" transform="translate(1067.703125 0)"/>
      <use xlink:href="#DejaVuSans-15" transform="translate(1106.71875 0)"/>
      <use xlink:href="#DejaVuSans-11" transform="translate(1170.34375 0)"/>
      <use xlink:href="#DejaVuSans-1c" transform="translate(1202.125 0)"/>
      <use xlink:href="#DejaVuSans-99" transform="translate(1265.75 0)"/>
      <use xlink:href="#DejaVuSans-3" transform="translate(1349.546875 0)"/>
      <use xlink:href="#DejaVuSans-47" transform="translate(1381.328125 0)"/>
      <use xlink:href="#DejaVuSans-55" transform="translate(1444.8125 0)"/>
      <use xlink:href="#DejaVuSans-4c" transform="translate(1485.921875 0)"/>
      <use xlink:href="#DejaVuSans-49" transform="translate(1513.703125 0)"/>
      <use xlink:href="#DejaVuSans-57" transform="translate(1547.15625 0)"/>
      <use xlink:href="#DejaVuSans-f" transform="translate(1586.359375 0)"/>
      <use xlink:href="#DejaVuSans-3" transform="translate(1618.140625 0)"/>
      <use xlink:href="#DejaVuSans-51" transform="translate(1649.921875 0)"/>
      <use xlink:href="#DejaVuSans-20" transform="translate(1713.296875 0)"/>
      <use xlink:href="#DejaVuSans-15" transform="translate(1797.09375 0)"/>
      <use xlink:href="#DejaVuSans-17" transform="translate(1860.71875 0)"/>
      <use xlink:href="#DejaVuSans-c1c" transform="translate(1924.34375 0)"/>
      <use xlink:href="#DejaVuSans-17" transform="translate(2008.140625 0)"/>
      <use xlink:href="#DejaVuSans-1b" transform="translate(2071.765625 0)"/>
      <use xlink:href="#DejaVuSans-c" transform="translate(2135.390625 0)"/>
     </g>
    </g>
    <g id="line2d_14">
     <path d="M 51.303906 163.397402 
L 59.303906 163.397402 
L 67.303906 163.397402 
" style="fill: none; stroke: #1f77b4; stroke-width: 1.5; stroke-linecap: square"/>
     <g>
      <use xlink:href="#me0c4b46dc4" x="59.303906" y="163.397402" style="fill: #1f77b4; stroke: #1f77b4"/>
     </g>
    </g>
    <g id="text_16">
     <!-- steady laminar, Re=25 (converged) -->
     <g transform="translate(73.703906 166.197402) scale(0.08 -0.08)">
      <use xlink:href="#DejaVuSans-56"/>
      <use xlink:href="#DejaVuSans-57" transform="translate(52.09375 0)"/>
      <use xlink:href="#DejaVuSans-48" transform="translate(91.296875 0)"/>
      <use xlink:href="#DejaVuSans-44" transform="translate(152.828125 0)"/>
      <use xlink:href="#DejaVuSans-47" transform="translate(214.109375 0)"/>
      <use xlink:href="#DejaVuSans-5c" transform="translate(277.59375 0)"/>
      <use xlink:href="#DejaVuSans-3" transform="translate(336.78125 0)"/>
      <use xlink:href="#DejaVuSans-4f" transform="translate(368.5625 0)"/>
      <use xlink:href="#DejaVuSans-44" transform="translate(396.34375 0)"/>
      <use xlink:href="#DejaVuSans-50" transform="translate(457.625 0)"/>
      <use xlink:href="#DejaVuSans-4c" transform="translate(555.03125 0)"/>
      <use xlink:href="#DejaVuSans-51" transform="translate(582.8125 0)"/>
      <use xlink:href="#DejaVuSans-44" transform="translate(646.1875 0)"/>
      <use xlink:href="#DejaVuSans-55" transform="translate(707.46875 0)"/>
      <use xlink:href="#DejaVuSans-f" transform="translate(748.578125 0)"/>
      <use xlink:href="#DejaVuSans-3" transform="translate(780.359375 0)"/>
      <use xlink:href="#DejaVuSans-35" transform="translate(812.140625 0)"/>
      <use xlink:href="#DejaVuSans-48" transform="translate(877.140625 0)"/>
      <use xlink:href="#DejaVuSans-20" transform="translate(938.671875 0)"/>
      <use xlink:href="#DejaVuSans-15" transform="translate(1022.46875 0)"/>
      <use xlink:href="#DejaVuSans-18" transform="translate(1086.09375 0)"/>
      <use xlink:href="#DejaVuSans-3" transform="translate(1149.71875 0)"/>
      <use xlink:href="#DejaVuSans-b" transform="translate(1181.5 0)"/>
      <use xlink:href="#DejaVuSans-46" transform="translate(1220.515625 0)"/>
      <use xlink:href="#DejaVuSans-52" transform="translate(1275.5 0)"/>
      <use xlink:href="#DejaVuSans-51" transform="translate(1336.6875 0)"/>
      <use xlink:href="#DejaVuSans-59" transform="translate(1400.0625 0)"/>
      <use xlink:href="#DejaVuSans-48" transform="translate(1459.25 0)"/>
      <use xlink:href="#DejaVuSans-55" transform="translate(1520.78125 0)"/>
      <use xlink:href="#DejaVuSans-4a" transform="translate(1560.140625 0)"/>
      <use xlink:href="#DejaVuSans-48" transform="translate(1623.625 0)"/>
      <use xlink:href="#DejaVuSans-47" transform="translate(1685.15625 0)"/>
      <use xlink:href="#DejaVuSans-c" transform="translate(1748.640625 0)"/>
     </g>
    </g>
   </g>
  </g>
 </g>
 <defs>
  <clipPath id="p32f1bd5589">
   <rect x="44.103906" y="33.802148" width="402.037656" height="236.632383"/>
  </clipPath>
 </defs>
</svg>
