<?xml version="1.0" encoding="utf-8" standalone="no"?>
<!DOCTYPE svg PUBLIC "-//W3C//DTD SVG 1.1//EN"
  "http://www.w3.org/Graphics/SVG/1.1/DTD/svg11.dtd">
<svg xmlns:xlink="http://www.w3.org/1999/xlink" width="748.01pt" height="313.742437pt" viewBox="0 0 748.01 313.742437" xmlns="http://www.w3.org/2000/svg" version="1.1">
 <metadata>
  <rdf:RDF xmlns:dc="http://purl.org/dc/elements/1.1/" xmlns:cc="http://creativecommons.org/ns#" xmlns:rdf="http://www.w3.org/1999/02/22-rdf-syntax-ns#">
   <cc:Work>
    <dc:type rdf:resource="http://purl.org/dc/dcmitype/StillImage"/>
    <dc:date>2026-06-23T00:56:30.571255</dc:date>
    <dc:format>image/svg+xml</dc:format>
    <dc:creator>
     <cc:Agent>
      <dc:title>Matplotlib v3.11.0, https://matplotlib.org/</dc:title>
     </cc:Agent>
    </dc:creator>
   </cc:Work>
  </rdf:RDF>
 </metadata>
 <defs>
  <style type="text/css">*{stroke-linejoin: round; stroke-linecap: butt}</style>
 </defs>
 <g id="figure_1">
  <g id="patch_1">
   <path d="M 0 313.742437 
L 748.01 313.742437 
L 748.01 0 
L 0 0 
z
" style="fill: #ffffff"/>
  </g>
  <g id="axes_1">
   <g id="patch_2">
    <path d="M 53.652344 275.541656 
L 366.77 275.541656 
L 366.77 62.032164 
L 53.652344 62.032164 
z
" style="fill: #ffffff"/>
   </g>
   <g id="patch_3">
    <path d="M 88.443194 275.541656 
L 378.36695 275.541656 
L 378.36695 62.032164 
L 88.443194 62.032164 
z
" clip-path="url(#p64b302b106)" style="fill: #f6cccc; opacity: 0.4"/>
   </g>
   <g id="matplotlib.axis_1">
    <g id="xtick_1">
     <g id="line2d_1">
      <defs>
       <path id="m79d9f17fcf" d="M 0 0 
L 0 3.5 
" style="stroke: #000000; stroke-width: 0.8"/>
      </defs>
      <g>
       <use xlink:href="#m79d9f17fcf" x="65.249294" y="275.541656" style="stroke: #000000; stroke-width: 0.8"/>
      </g>
     </g>
     <g id="text_1">
      <!-- 0.5 -->
      <g transform="translate(57.297731 290.139312) scale(0.1 -0.1)">
       <defs>
        <path id="DejaVuSans-13" d="M 2034 4250 
Q 1547 4250 1301 3770 
Q 1056 3291 1056 2328 
Q 1056 1369 1301 889 
Q 1547 409 2034 409 
Q 2525 409 2770 889 
Q 3016 1369 3016 2328 
Q 3016 3291 2770 3770 
Q 2525 4250 2034 4250 
z
M 2034 4750 
Q 2819 4750 3233 4129 
Q 3647 3509 3647 2328 
Q 3647 1150 3233 529 
Q 2819 -91 2034 -91 
Q 1250 -91 836 529 
Q 422 1150 422 2328 
Q 422 3509 836 4129 
Q 1250 4750 2034 4750 
z
" transform="scale(0.015625)"/>
        <path id="DejaVuSans-11" d="M 684 794 
L 1344 794 
L 1344 0 
L 684 0 
L 684 794 
z
" transform="scale(0.015625)"/>
        <path id="DejaVuSans-18" d="M 691 4666 
L 3169 4666 
L 3169 4134 
L 1269 4134 
L 1269 2991 
Q 1406 3038 1543 3061 
Q 1681 3084 1819 3084 
Q 2600 3084 3056 2656 
Q 3513 2228 3513 1497 
Q 3513 744 3044 326 
Q 2575 -91 1722 -91 
Q 1428 -91 1123 -41 
Q 819 9 494 109 
L 494 744 
Q 775 591 1075 516 
Q 1375 441 1709 441 
Q 2250 441 2565 725 
Q 2881 1009 2881 1497 
Q 2881 1984 2565 2268 
Q 2250 2553 1709 2553 
Q 1456 2553 1204 2497 
Q 953 2441 691 2322 
L 691 4666 
z
" transform="scale(0.015625)"/>
       </defs>
       <use xlink:href="#DejaVuSans-13"/>
       <use xlink:href="#DejaVuSans-11" transform="translate(63.625 0)"/>
       <use xlink:href="#DejaVuSans-18" transform="translate(95.40625 0)"/>
      </g>
     </g>
    </g>
    <g id="xtick_2">
     <g id="line2d_2">
      <g>
       <use xlink:href="#m79d9f17fcf" x="123.234045" y="275.541656" style="stroke: #000000; stroke-width: 0.8"/>
      </g>
     </g>
     <g id="text_2">
      <!-- 1.0 -->
      <g transform="translate(115.282483 290.139312) scale(0.1 -0.1)">
       <defs>
        <path id="DejaVuSans-14" d="M 794 531 
L 1825 531 
L 1825 4091 
L 703 3866 
L 703 4441 
L 1819 4666 
L 2450 4666 
L 2450 531 
L 3481 531 
L 3481 0 
L 794 0 
L 794 531 
z
" transform="scale(0.015625)"/>
       </defs>
       <use xlink:href="#DejaVuSans-14"/>
       <use xlink:href="#DejaVuSans-11" transform="translate(63.625 0)"/>
       <use xlink:href="#DejaVuSans-13" transform="translate(95.40625 0)"/>
      </g>
     </g>
    </g>
    <g id="xtick_3">
     <g id="line2d_3">
      <g>
       <use xlink:href="#m79d9f17fcf" x="181.218796" y="275.541656" style="stroke: #000000; stroke-width: 0.8"/>
      </g>
     </g>
     <g id="text_3">
      <!-- 1.5 -->
      <g transform="translate(173.267234 290.139312) scale(0.1 -0.1)">
       <use xlink:href="#DejaVuSans-14"/>
       <use xlink:href="#DejaVuSans-11" transform="translate(63.625 0)"/>
       <use xlink:href="#DejaVuSans-18" transform="translate(95.40625 0)"/>
      </g>
     </g>
    </g>
    <g id="xtick_4">
     <g id="line2d_4">
      <g>
       <use xlink:href="#m79d9f17fcf" x="239.203547" y="275.541656" style="stroke: #000000; stroke-width: 0.8"/>
      </g>
     </g>
     <g id="text_4">
      <!-- 2.0 -->
      <g transform="translate(231.251985 290.139312) scale(0.1 -0.1)">
       <defs>
        <path id="DejaVuSans-15" d="M 1228 531 
L 3431 531 
L 3431 0 
L 469 0 
L 469 531 
Q 828 903 1448 1529 
Q 2069 2156 2228 2338 
Q 2531 2678 2651 2914 
Q 2772 3150 2772 3378 
Q 2772 3750 2511 3984 
Q 2250 4219 1831 4219 
Q 1534 4219 1204 4116 
Q 875 4013 500 3803 
L 500 4441 
Q 881 4594 1212 4672 
Q 1544 4750 1819 4750 
Q 2544 4750 2975 4387 
Q 3406 4025 3406 3419 
Q 3406 3131 3298 2873 
Q 3191 2616 2906 2266 
Q 2828 2175 2409 1742 
Q 1991 1309 1228 531 
z
" transform="scale(0.015625)"/>
       </defs>
       <use xlink:href="#DejaVuSans-15"/>
       <use xlink:href="#DejaVuSans-11" transform="translate(63.625 0)"/>
       <use xlink:href="#DejaVuSans-13" transform="translate(95.40625 0)"/>
      </g>
     </g>
    </g>
    <g id="xtick_5">
     <g id="line2d_5">
      <g>
       <use xlink:href="#m79d9f17fcf" x="297.188299" y="275.541656" style="stroke: #000000; stroke-width: 0.8"/>
      </g>
     </g>
     <g id="text_5">
      <!-- 2.5 -->
      <g transform="translate(289.236736 290.139312) scale(0.1 -0.1)">
       <use xlink:href="#DejaVuSans-15"/>
       <use xlink:href="#DejaVuSans-11" transform="translate(63.625 0)"/>
       <use xlink:href="#DejaVuSans-18" transform="translate(95.40625 0)"/>
      </g>
     </g>
    </g>
    <g id="xtick_6">
     <g id="line2d_6">
      <g>
       <use xlink:href="#m79d9f17fcf" x="355.17305" y="275.541656" style="stroke: #000000; stroke-width: 0.8"/>
      </g>
     </g>
     <g id="text_6">
      <!-- 3.0 -->
      <g transform="translate(347.221487 290.139312) scale(0.1 -0.1)">
       <defs>
        <path id="DejaVuSans-16" d="M 2597 2516 
Q 3050 2419 3304 2112 
Q 3559 1806 3559 1356 
Q 3559 666 3084 287 
Q 2609 -91 1734 -91 
Q 1441 -91 1130 -33 
Q 819 25 488 141 
L 488 750 
Q 750 597 1062 519 
Q 1375 441 1716 441 
Q 2309 441 2620 675 
Q 2931 909 2931 1356 
Q 2931 1769 2642 2001 
Q 2353 2234 1838 2234 
L 1294 2234 
L 1294 2753 
L 1863 2753 
Q 2328 2753 2575 2939 
Q 2822 3125 2822 3475 
Q 2822 3834 2567 4026 
Q 2313 4219 1838 4219 
Q 1578 4219 1281 4162 
Q 984 4106 628 3988 
L 628 4550 
Q 988 4650 1302 4700 
Q 1616 4750 1894 4750 
Q 2613 4750 3031 4423 
Q 3450 4097 3450 3541 
Q 3450 3153 3228 2886 
Q 3006 2619 2597 2516 
z
" transform="scale(0.015625)"/>
       </defs>
       <use xlink:href="#DejaVuSans-16"/>
       <use xlink:href="#DejaVuSans-11" transform="translate(63.625 0)"/>
       <use xlink:href="#DejaVuSans-13" transform="translate(95.40625 0)"/>
      </g>
     </g>
    </g>
    <g id="text_7">
     <!-- aspect ratio  H/W -->
     <g transform="translate(166.898672 304.140094) scale(0.1 -0.1)">
      <defs>
       <path id="DejaVuSans-44" d="M 2194 1759 
Q 1497 1759 1228 1600 
Q 959 1441 959 1056 
Q 959 750 1161 570 
Q 1363 391 1709 391 
Q 2188 391 2477 730 
Q 2766 1069 2766 1631 
L 2766 1759 
L 2194 1759 
z
M 3341 1997 
L 3341 0 
L 2766 0 
L 2766 531 
Q 2569 213 2275 61 
Q 1981 -91 1556 -91 
Q 1019 -91 701 211 
Q 384 513 384 1019 
Q 384 1609 779 1909 
Q 1175 2209 1959 2209 
L 2766 2209 
L 2766 2266 
Q 2766 2663 2505 2880 
Q 2244 3097 1772 3097 
Q 1472 3097 1187 3025 
Q 903 2953 641 2809 
L 641 3341 
Q 956 3463 1253 3523 
Q 1550 3584 1831 3584 
Q 2591 3584 2966 3190 
Q 3341 2797 3341 1997 
z
" transform="scale(0.015625)"/>
       <path id="DejaVuSans-56" d="M 2834 3397 
L 2834 2853 
Q 2591 2978 2328 3040 
Q 2066 3103 1784 3103 
Q 1356 3103 1142 2972 
Q 928 2841 928 2578 
Q 928 2378 1081 2264 
Q 1234 2150 1697 2047 
L 1894 2003 
Q 2506 1872 2764 1633 
Q 3022 1394 3022 966 
Q 3022 478 2636 193 
Q 2250 -91 1575 -91 
Q 1294 -91 989 -36 
Q 684 19 347 128 
L 347 722 
Q 666 556 975 473 
Q 1284 391 1588 391 
Q 1994 391 2212 530 
Q 2431 669 2431 922 
Q 2431 1156 2273 1281 
Q 2116 1406 1581 1522 
L 1381 1569 
Q 847 1681 609 1914 
Q 372 2147 372 2553 
Q 372 3047 722 3315 
Q 1072 3584 1716 3584 
Q 2034 3584 2315 3537 
Q 2597 3491 2834 3397 
z
" transform="scale(0.015625)"/>
       <path id="DejaVuSans-53" d="M 1159 525 
L 1159 -1331 
L 581 -1331 
L 581 3500 
L 1159 3500 
L 1159 2969 
Q 1341 3281 1617 3432 
Q 1894 3584 2278 3584 
Q 2916 3584 3314 3078 
Q 3713 2572 3713 1747 
Q 3713 922 3314 415 
Q 2916 -91 2278 -91 
Q 1894 -91 1617 61 
Q 1341 213 1159 525 
z
M 3116 1747 
Q 3116 2381 2855 2742 
Q 2594 3103 2138 3103 
Q 1681 3103 1420 2742 
Q 1159 2381 1159 1747 
Q 1159 1113 1420 752 
Q 1681 391 2138 391 
Q 2594 391 2855 752 
Q 3116 1113 3116 1747 
z
" transform="scale(0.015625)"/>
       <path id="DejaVuSans-48" d="M 3597 1894 
L 3597 1613 
L 953 1613 
Q 991 1019 1311 708 
Q 1631 397 2203 397 
Q 2534 397 2845 478 
Q 3156 559 3463 722 
L 3463 178 
Q 3153 47 2828 -22 
Q 2503 -91 2169 -91 
Q 1331 -91 842 396 
Q 353 884 353 1716 
Q 353 2575 817 3079 
Q 1281 3584 2069 3584 
Q 2775 3584 3186 3129 
Q 3597 2675 3597 1894 
z
M 3022 2063 
Q 3016 2534 2758 2815 
Q 2500 3097 2075 3097 
Q 1594 3097 1305 2825 
Q 1016 2553 972 2059 
L 3022 2063 
z
" transform="scale(0.015625)"/>
       <path id="DejaVuSans-46" d="M 3122 3366 
L 3122 2828 
Q 2878 2963 2633 3030 
Q 2388 3097 2138 3097 
Q 1578 3097 1268 2742 
Q 959 2388 959 1747 
Q 959 1106 1268 751 
Q 1578 397 2138 397 
Q 2388 397 2633 464 
Q 2878 531 3122 666 
L 3122 134 
Q 2881 22 2623 -34 
Q 2366 -91 2075 -91 
Q 1284 -91 818 406 
Q 353 903 353 1747 
Q 353 2603 823 3093 
Q 1294 3584 2113 3584 
Q 2378 3584 2631 3529 
Q 2884 3475 3122 3366 
z
" transform="scale(0.015625)"/>
       <path id="DejaVuSans-57" d="M 1172 4494 
L 1172 3500 
L 2356 3500 
L 2356 3053 
L 1172 3053 
L 1172 1153 
Q 1172 725 1289 603 
Q 1406 481 1766 481 
L 2356 481 
L 2356 0 
L 1766 0 
Q 1100 0 847 248 
Q 594 497 594 1153 
L 594 3053 
L 172 3053 
L 172 3500 
L 594 3500 
L 594 4494 
L 1172 4494 
z
" transform="scale(0.015625)"/>
       <path id="DejaVuSans-3" transform="scale(0.015625)"/>
       <path id="DejaVuSans-55" d="M 2631 2963 
Q 2534 3019 2420 3045 
Q 2306 3072 2169 3072 
Q 1681 3072 1420 2755 
Q 1159 2438 1159 1844 
L 1159 0 
L 581 0 
L 581 3500 
L 1159 3500 
L 1159 2956 
Q 1341 3275 1631 3429 
Q 1922 3584 2338 3584 
Q 2397 3584 2469 3576 
Q 2541 3569 2628 3553 
L 2631 2963 
z
" transform="scale(0.015625)"/>
       <path id="DejaVuSans-4c" d="M 603 3500 
L 1178 3500 
L 1178 0 
L 603 0 
L 603 3500 
z
M 603 4863 
L 1178 4863 
L 1178 4134 
L 603 4134 
L 603 4863 
z
" transform="scale(0.015625)"/>
       <path id="DejaVuSans-52" d="M 1959 3097 
Q 1497 3097 1228 2736 
Q 959 2375 959 1747 
Q 959 1119 1226 758 
Q 1494 397 1959 397 
Q 2419 397 2687 759 
Q 2956 1122 2956 1747 
Q 2956 2369 2687 2733 
Q 2419 3097 1959 3097 
z
M 1959 3584 
Q 2709 3584 3137 3096 
Q 3566 2609 3566 1747 
Q 3566 888 3137 398 
Q 2709 -91 1959 -91 
Q 1206 -91 779 398 
Q 353 888 353 1747 
Q 353 2609 779 3096 
Q 1206 3584 1959 3584 
z
" transform="scale(0.015625)"/>
       <path id="DejaVuSans-2b" d="M 628 4666 
L 1259 4666 
L 1259 2753 
L 3553 2753 
L 3553 4666 
L 4184 4666 
L 4184 0 
L 3553 0 
L 3553 2222 
L 1259 2222 
L 1259 0 
L 628 0 
L 628 4666 
z
" transform="scale(0.015625)"/>
       <path id="DejaVuSans-12" d="M 1625 4666 
L 2156 4666 
L 531 -594 
L 0 -594 
L 1625 4666 
z
" transform="scale(0.015625)"/>
       <path id="DejaVuSans-3a" d="M 213 4666 
L 850 4666 
L 1831 722 
L 2809 4666 
L 3519 4666 
L 4500 722 
L 5478 4666 
L 6119 4666 
L 4947 0 
L 4153 0 
L 3169 4050 
L 2175 0 
L 1381 0 
L 213 4666 
z
" transform="scale(0.015625)"/>
      </defs>
      <use xlink:href="#DejaVuSans-44"/>
      <use xlink:href="#DejaVuSans-56" transform="translate(61.28125 0)"/>
      <use xlink:href="#DejaVuSans-53" transform="translate(113.375 0)"/>
      <use xlink:href="#DejaVuSans-48" transform="translate(176.859375 0)"/>
      <use xlink:href="#DejaVuSans-46" transform="translate(238.390625 0)"/>
      <use xlink:href="#DejaVuSans-57" transform="translate(293.375 0)"/>
      <use xlink:href="#DejaVuSans-3" transform="translate(332.578125 0)"/>
      <use xlink:href="#DejaVuSans-55" transform="translate(364.359375 0)"/>
      <use xlink:href="#DejaVuSans-44" transform="translate(405.46875 0)"/>
      <use xlink:href="#DejaVuSans-57" transform="translate(466.75 0)"/>
      <use xlink:href="#DejaVuSans-4c" transform="translate(505.953125 0)"/>
      <use xlink:href="#DejaVuSans-52" transform="translate(533.734375 0)"/>
      <use xlink:href="#DejaVuSans-3" transform="translate(594.921875 0)"/>
      <use xlink:href="#DejaVuSans-3" transform="translate(626.703125 0)"/>
      <use xlink:href="#DejaVuSans-2b" transform="translate(658.484375 0)"/>
      <use xlink:href="#DejaVuSans-12" transform="translate(733.6875 0)"/>
      <use xlink:href="#DejaVuSans-3a" transform="translate(767.375 0)"/>
     </g>
    </g>
   </g>
   <g id="matplotlib.axis_2">
    <g id="ytick_1">
     <g id="line2d_7">
      <defs>
       <path id="ma456679bc5" d="M 0 0 
L -3.5 0 
" style="stroke: #000000; stroke-width: 0.8"/>
      </defs>
      <g>
       <use xlink:href="#ma456679bc5" x="53.652344" y="245.843703" style="stroke: #000000; stroke-width: 0.8"/>
      </g>
     </g>
     <g id="text_8">
      <!-- 1000 -->
      <g transform="translate(21.202344 249.642531) scale(0.1 -0.1)">
       <use xlink:href="#DejaVuSans-14"/>
       <use xlink:href="#DejaVuSans-13" transform="translate(63.625 0)"/>
       <use xlink:href="#DejaVuSans-13" transform="translate(127.25 0)"/>
       <use xlink:href="#DejaVuSans-13" transform="translate(190.875 0)"/>
      </g>
     </g>
    </g>
    <g id="ytick_2">
     <g id="line2d_8">
      <g>
       <use xlink:href="#ma456679bc5" x="53.652344" y="212.305473" style="stroke: #000000; stroke-width: 0.8"/>
      </g>
     </g>
     <g id="text_9">
      <!-- 1500 -->
      <g transform="translate(21.202344 216.104301) scale(0.1 -0.1)">
       <use xlink:href="#DejaVuSans-14"/>
       <use xlink:href="#DejaVuSans-18" transform="translate(63.625 0)"/>
       <use xlink:href="#DejaVuSans-13" transform="translate(127.25 0)"/>
       <use xlink:href="#DejaVuSans-13" transform="translate(190.875 0)"/>
      </g>
     </g>
    </g>
    <g id="ytick_3">
     <g id="line2d_9">
      <g>
       <use xlink:href="#ma456679bc5" x="53.652344" y="178.767244" style="stroke: #000000; stroke-width: 0.8"/>
      </g>
     </g>
     <g id="text_10">
      <!-- 2000 -->
      <g transform="translate(21.202344 182.566072) scale(0.1 -0.1)">
       <use xlink:href="#DejaVuSans-15"/>
       <use xlink:href="#DejaVuSans-13" transform="translate(63.625 0)"/>
       <use xlink:href="#DejaVuSans-13" transform="translate(127.25 0)"/>
       <use xlink:href="#DejaVuSans-13" transform="translate(190.875 0)"/>
      </g>
     </g>
    </g>
    <g id="ytick_4">
     <g id="line2d_10">
      <g>
       <use xlink:href="#ma456679bc5" x="53.652344" y="145.229014" style="stroke: #000000; stroke-width: 0.8"/>
      </g>
     </g>
     <g id="text_11">
      <!-- 2500 -->
      <g transform="translate(21.202344 149.027842) scale(0.1 -0.1)">
       <use xlink:href="#DejaVuSans-15"/>
       <use xlink:href="#DejaVuSans-18" transform="translate(63.625 0)"/>
       <use xlink:href="#DejaVuSans-13" transform="translate(127.25 0)"/>
       <use xlink:href="#DejaVuSans-13" transform="translate(190.875 0)"/>
      </g>
     </g>
    </g>
    <g id="ytick_5">
     <g id="line2d_11">
      <g>
       <use xlink:href="#ma456679bc5" x="53.652344" y="111.690785" style="stroke: #000000; stroke-width: 0.8"/>
      </g>
     </g>
     <g id="text_12">
      <!-- 3000 -->
      <g transform="translate(21.202344 115.489613) scale(0.1 -0.1)">
       <use xlink:href="#DejaVuSans-16"/>
       <use xlink:href="#DejaVuSans-13" transform="translate(63.625 0)"/>
       <use xlink:href="#DejaVuSans-13" transform="translate(127.25 0)"/>
       <use xlink:href="#DejaVuSans-13" transform="translate(190.875 0)"/>
      </g>
     </g>
    </g>
    <g id="ytick_6">
     <g id="line2d_12">
      <g>
       <use xlink:href="#ma456679bc5" x="53.652344" y="78.152555" style="stroke: #000000; stroke-width: 0.8"/>
      </g>
     </g>
     <g id="text_13">
      <!-- 3500 -->
      <g transform="translate(21.202344 81.951383) scale(0.1 -0.1)">
       <use xlink:href="#DejaVuSans-16"/>
       <use xlink:href="#DejaVuSans-18" transform="translate(63.625 0)"/>
       <use xlink:href="#DejaVuSans-13" transform="translate(127.25 0)"/>
       <use xlink:href="#DejaVuSans-13" transform="translate(190.875 0)"/>
      </g>
     </g>
    </g>
    <g id="text_14">
     <!-- equilibrium retention  (canyon-mean $c$) -->
     <g transform="translate(14.8 267.03691) rotate(-90) scale(0.1 -0.1)">
      <defs>
       <path id="DejaVuSans-54" d="M 947 1747 
Q 947 1113 1208 752 
Q 1469 391 1925 391 
Q 2381 391 2643 752 
Q 2906 1113 2906 1747 
Q 2906 2381 2643 2742 
Q 2381 3103 1925 3103 
Q 1469 3103 1208 2742 
Q 947 2381 947 1747 
z
M 2906 525 
Q 2725 213 2448 61 
Q 2172 -91 1784 -91 
Q 1150 -91 751 415 
Q 353 922 353 1747 
Q 353 2572 751 3078 
Q 1150 3584 1784 3584 
Q 2172 3584 2448 3432 
Q 2725 3281 2906 2969 
L 2906 3500 
L 3481 3500 
L 3481 -1331 
L 2906 -1331 
L 2906 525 
z
" transform="scale(0.015625)"/>
       <path id="DejaVuSans-58" d="M 544 1381 
L 544 3500 
L 1119 3500 
L 1119 1403 
Q 1119 906 1312 657 
Q 1506 409 1894 409 
Q 2359 409 2629 706 
Q 2900 1003 2900 1516 
L 2900 3500 
L 3475 3500 
L 3475 0 
L 2900 0 
L 2900 538 
Q 2691 219 2414 64 
Q 2138 -91 1772 -91 
Q 1169 -91 856 284 
Q 544 659 544 1381 
z
M 1991 3584 
L 1991 3584 
z
" transform="scale(0.015625)"/>
       <path id="DejaVuSans-4f" d="M 603 4863 
L 1178 4863 
L 1178 0 
L 603 0 
L 603 4863 
z
" transform="scale(0.015625)"/>
       <path id="DejaVuSans-45" d="M 3116 1747 
Q 3116 2381 2855 2742 
Q 2594 3103 2138 3103 
Q 1681 3103 1420 2742 
Q 1159 2381 1159 1747 
Q 1159 1113 1420 752 
Q 1681 391 2138 391 
Q 2594 391 2855 752 
Q 3116 1113 3116 1747 
z
M 1159 2969 
Q 1341 3281 1617 3432 
Q 1894 3584 2278 3584 
Q 2916 3584 3314 3078 
Q 3713 2572 3713 1747 
Q 3713 922 3314 415 
Q 2916 -91 2278 -91 
Q 1894 -91 1617 61 
Q 1341 213 1159 525 
L 1159 0 
L 581 0 
L 581 4863 
L 1159 4863 
L 1159 2969 
z
" transform="scale(0.015625)"/>
       <path id="DejaVuSans-50" d="M 3328 2828 
Q 3544 3216 3844 3400 
Q 4144 3584 4550 3584 
Q 5097 3584 5394 3201 
Q 5691 2819 5691 2113 
L 5691 0 
L 5113 0 
L 5113 2094 
Q 5113 2597 4934 2840 
Q 4756 3084 4391 3084 
Q 3944 3084 3684 2787 
Q 3425 2491 3425 1978 
L 3425 0 
L 2847 0 
L 2847 2094 
Q 2847 2600 2669 2842 
Q 2491 3084 2119 3084 
Q 1678 3084 1418 2786 
Q 1159 2488 1159 1978 
L 1159 0 
L 581 0 
L 581 3500 
L 1159 3500 
L 1159 2956 
Q 1356 3278 1631 3431 
Q 1906 3584 2284 3584 
Q 2666 3584 2933 3390 
Q 3200 3197 3328 2828 
z
" transform="scale(0.015625)"/>
       <path id="DejaVuSans-51" d="M 3513 2113 
L 3513 0 
L 2938 0 
L 2938 2094 
Q 2938 2591 2744 2837 
Q 2550 3084 2163 3084 
Q 1697 3084 1428 2787 
Q 1159 2491 1159 1978 
L 1159 0 
L 581 0 
L 581 3500 
L 1159 3500 
L 1159 2956 
Q 1366 3272 1645 3428 
Q 1925 3584 2291 3584 
Q 2894 3584 3203 3211 
Q 3513 2838 3513 2113 
z
" transform="scale(0.015625)"/>
       <path id="DejaVuSans-b" d="M 1984 4856 
Q 1566 4138 1362 3434 
Q 1159 2731 1159 2009 
Q 1159 1288 1364 580 
Q 1569 -128 1984 -844 
L 1484 -844 
Q 1016 -109 783 600 
Q 550 1309 550 2009 
Q 550 2706 781 3412 
Q 1013 4119 1484 4856 
L 1984 4856 
z
" transform="scale(0.015625)"/>
       <path id="DejaVuSans-5c" d="M 2059 -325 
Q 1816 -950 1584 -1140 
Q 1353 -1331 966 -1331 
L 506 -1331 
L 506 -850 
L 844 -850 
Q 1081 -850 1212 -737 
Q 1344 -625 1503 -206 
L 1606 56 
L 191 3500 
L 800 3500 
L 1894 763 
L 2988 3500 
L 3597 3500 
L 2059 -325 
z
" transform="scale(0.015625)"/>
       <path id="DejaVuSans-10" d="M 313 2009 
L 1997 2009 
L 1997 1497 
L 313 1497 
L 313 2009 
z
" transform="scale(0.015625)"/>
       <path id="DejaVuSans-Oblique-46" d="M 3431 3366 
L 3316 2797 
Q 3109 2947 2876 3022 
Q 2644 3097 2394 3097 
Q 2119 3097 1870 3000 
Q 1622 2903 1453 2725 
Q 1184 2453 1037 2087 
Q 891 1722 891 1331 
Q 891 859 1127 628 
Q 1363 397 1844 397 
Q 2081 397 2348 469 
Q 2616 541 2906 684 
L 2797 116 
Q 2547 13 2283 -39 
Q 2019 -91 1741 -91 
Q 1044 -91 669 257 
Q 294 606 294 1253 
Q 294 1797 489 2255 
Q 684 2713 1069 3078 
Q 1331 3328 1684 3456 
Q 2038 3584 2456 3584 
Q 2700 3584 2940 3529 
Q 3181 3475 3431 3366 
z
" transform="scale(0.015625)"/>
       <path id="DejaVuSans-c" d="M 513 4856 
L 1013 4856 
Q 1481 4119 1714 3412 
Q 1947 2706 1947 2009 
Q 1947 1309 1714 600 
Q 1481 -109 1013 -844 
L 513 -844 
Q 928 -128 1133 580 
Q 1338 1288 1338 2009 
Q 1338 2731 1133 3434 
Q 928 4138 513 4856 
z
" transform="scale(0.015625)"/>
      </defs>
      <use xlink:href="#DejaVuSans-48" transform="translate(0 0.015625)"/>
      <use xlink:href="#DejaVuSans-54" transform="translate(61.523438 0.015625)"/>
      <use xlink:href="#DejaVuSans-58" transform="translate(125 0.015625)"/>
      <use xlink:href="#DejaVuSans-4c" transform="translate(188.378906 0.015625)"/>
      <use xlink:href="#DejaVuSans-4f" transform="translate(216.162109 0.015625)"/>
      <use xlink:href="#DejaVuSans-4c" transform="translate(243.945312 0.015625)"/>
      <use xlink:href="#DejaVuSans-45" transform="translate(271.728516 0.015625)"/>
      <use xlink:href="#DejaVuSans-55" transform="translate(335.205078 0.015625)"/>
      <use xlink:href="#DejaVuSans-4c" transform="translate(376.318359 0.015625)"/>
      <use xlink:href="#DejaVuSans-58" transform="translate(404.101562 0.015625)"/>
      <use xlink:href="#DejaVuSans-50" transform="translate(467.480469 0.015625)"/>
      <use xlink:href="#DejaVuSans-3" transform="translate(564.892578 0.015625)"/>
      <use xlink:href="#DejaVuSans-55" transform="translate(596.679688 0.015625)"/>
      <use xlink:href="#DejaVuSans-48" transform="translate(635.792969 0.015625)"/>
      <use xlink:href="#DejaVuSans-57" transform="translate(697.316406 0.015625)"/>
      <use xlink:href="#DejaVuSans-48" transform="translate(736.525391 0.015625)"/>
      <use xlink:href="#DejaVuSans-51" transform="translate(798.048828 0.015625)"/>
      <use xlink:href="#DejaVuSans-57" transform="translate(861.427734 0.015625)"/>
      <use xlink:href="#DejaVuSans-4c" transform="translate(900.636719 0.015625)"/>
      <use xlink:href="#DejaVuSans-52" transform="translate(928.419922 0.015625)"/>
      <use xlink:href="#DejaVuSans-51" transform="translate(989.601562 0.015625)"/>
      <use xlink:href="#DejaVuSans-3" transform="translate(1052.980469 0.015625)"/>
      <use xlink:href="#DejaVuSans-3" transform="translate(1084.767578 0.015625)"/>
      <use xlink:href="#DejaVuSans-b" transform="translate(1116.554688 0.015625)"/>
      <use xlink:href="#DejaVuSans-46" transform="translate(1155.568359 0.015625)"/>
      <use xlink:href="#DejaVuSans-44" transform="translate(1210.548828 0.015625)"/>
      <use xlink:href="#DejaVuSans-51" transform="translate(1271.828125 0.015625)"/>
      <use xlink:href="#DejaVuSans-5c" transform="translate(1335.207031 0.015625)"/>
      <use xlink:href="#DejaVuSans-52" transform="translate(1394.386719 0.015625)"/>
      <use xlink:href="#DejaVuSans-51" transform="translate(1455.568359 0.015625)"/>
      <use xlink:href="#DejaVuSans-10" transform="translate(1518.947266 0.015625)"/>
      <use xlink:href="#DejaVuSans-50" transform="translate(1555.03125 0.015625)"/>
      <use xlink:href="#DejaVuSans-48" transform="translate(1652.443359 0.015625)"/>
      <use xlink:href="#DejaVuSans-44" transform="translate(1713.966797 0.015625)"/>
      <use xlink:href="#DejaVuSans-51" transform="translate(1775.246094 0.015625)"/>
      <use xlink:href="#DejaVuSans-3" transform="translate(1838.625 0.015625)"/>
      <use xlink:href="#DejaVuSans-Oblique-46" transform="translate(1870.412109 0.015625)"/>
      <use xlink:href="#DejaVuSans-c" transform="translate(1925.392578 0.015625)"/>
     </g>
    </g>
   </g>
   <g id="line2d_13">
    <path d="M 65.249294 261.955152 
L 123.234045 262.217415 
L 239.203547 264.248209 
L 355.17305 265.836679 
" clip-path="url(#p64b302b106)" style="fill: none; stroke: #440154; stroke-width: 1.5; stroke-linecap: square"/>
    <defs>
     <path id="m2d94994846" d="M 0 3 
C 0.795609 3 1.55874 2.683901 2.12132 2.12132 
C 2.683901 1.55874 3 0.795609 3 0 
C 3 -0.795609 2.683901 -1.55874 2.12132 -2.12132 
C 1.55874 -2.683901 0.795609 -3 0 -3 
C -0.795609 -3 -1.55874 -2.683901 -2.12132 -2.12132 
C -2.683901 -1.55874 -3 -0.795609 -3 0 
C -3 0.795609 -2.683901 1.55874 -2.12132 2.12132 
C -1.55874 2.683901 -0.795609 3 0 3 
z
" style="stroke: #440154"/>
    </defs>
    <g clip-path="url(#p64b302b106)">
     <use xlink:href="#m2d94994846" x="65.249294" y="261.955152" style="fill: #440154; stroke: #440154"/>
     <use xlink:href="#m2d94994846" x="123.234045" y="262.217415" style="fill: #440154; stroke: #440154"/>
     <use xlink:href="#m2d94994846" x="239.203547" y="264.248209" style="fill: #440154; stroke: #440154"/>
     <use xlink:href="#m2d94994846" x="355.17305" y="265.836679" style="fill: #440154; stroke: #440154"/>
    </g>
   </g>
   <g id="line2d_14">
    <path d="M 65.249294 248.266141 
L 123.234045 242.272701 
L 239.203547 242.285563 
L 355.17305 244.173084 
" clip-path="url(#p64b302b106)" style="fill: none; stroke: #31688e; stroke-width: 1.5; stroke-linecap: square"/>
    <defs>
     <path id="m43ae6c7e78" d="M 0 3 
C 0.795609 3 1.55874 2.683901 2.12132 2.12132 
C 2.683901 1.55874 3 0.795609 3 0 
C 3 -0.795609 2.683901 -1.55874 2.12132 -2.12132 
C 1.55874 -2.683901 0.795609 -3 0 -3 
C -0.795609 -3 -1.55874 -2.683901 -2.12132 -2.12132 
C -2.683901 -1.55874 -3 -0.795609 -3 0 
C -3 0.795609 -2.683901 1.55874 -2.12132 2.12132 
C -1.55874 2.683901 -0.795609 3 0 3 
z
" style="stroke: #31688e"/>
    </defs>
    <g clip-path="url(#p64b302b106)">
     <use xlink:href="#m43ae6c7e78" x="65.249294" y="248.266141" style="fill: #31688e; stroke: #31688e"/>
     <use xlink:href="#m43ae6c7e78" x="123.234045" y="242.272701" style="fill: #31688e; stroke: #31688e"/>
     <use xlink:href="#m43ae6c7e78" x="239.203547" y="242.285563" style="fill: #31688e; stroke: #31688e"/>
     <use xlink:href="#m43ae6c7e78" x="355.17305" y="244.173084" style="fill: #31688e; stroke: #31688e"/>
    </g>
   </g>
   <g id="line2d_15">
    <path d="M 65.249294 216.951201 
L 123.234045 183.71677 
L 239.203547 157.422508 
L 355.17305 159.847507 
" clip-path="url(#p64b302b106)" style="fill: none; stroke: #35b779; stroke-width: 1.5; stroke-linecap: square"/>
    <defs>
     <path id="mda2c2d934a" d="M 0 3 
C 0.795609 3 1.55874 2.683901 2.12132 2.12132 
C 2.683901 1.55874 3 0.795609 3 0 
C 3 -0.795609 2.683901 -1.55874 2.12132 -2.12132 
C 1.55874 -2.683901 0.795609 -3 0 -3 
C -0.795609 -3 -1.55874 -2.683901 -2.12132 -2.12132 
C -2.683901 -1.55874 -3 -0.795609 -3 0 
C -3 0.795609 -2.683901 1.55874 -2.12132 2.12132 
C -1.55874 2.683901 -0.795609 3 0 3 
z
" style="stroke: #35b779"/>
    </defs>
    <g clip-path="url(#p64b302b106)">
     <use xlink:href="#mda2c2d934a" x="65.249294" y="216.951201" style="fill: #35b779; stroke: #35b779"/>
     <use xlink:href="#mda2c2d934a" x="123.234045" y="183.71677" style="fill: #35b779; stroke: #35b779"/>
     <use xlink:href="#mda2c2d934a" x="239.203547" y="157.422508" style="fill: #35b779; stroke: #35b779"/>
     <use xlink:href="#mda2c2d934a" x="355.17305" y="159.847507" style="fill: #35b779; stroke: #35b779"/>
    </g>
   </g>
   <g id="line2d_16">
    <path d="M 65.249294 197.508864 
L 123.234045 144.571177 
L 239.203547 71.737141 
L 355.17305 73.359991 
" clip-path="url(#p64b302b106)" style="fill: none; stroke: #fde725; stroke-width: 1.5; stroke-linecap: square"/>
    <defs>
     <path id="me26a161d66" d="M 0 3 
C 0.795609 3 1.55874 2.683901 2.12132 2.12132 
C 2.683901 1.55874 3 0.795609 3 0 
C 3 -0.795609 2.683901 -1.55874 2.12132 -2.12132 
C 1.55874 -2.683901 0.795609 -3 0 -3 
C -0.795609 -3 -1.55874 -2.683901 -2.12132 -2.12132 
C -2.683901 -1.55874 -3 -0.795609 -3 0 
C -3 0.795609 -2.683901 1.55874 -2.12132 2.12132 
C -1.55874 2.683901 -0.795609 3 0 3 
z
" style="stroke: #fde725"/>
    </defs>
    <g clip-path="url(#p64b302b106)">
     <use xlink:href="#me26a161d66" x="65.249294" y="197.508864" style="fill: #fde725; stroke: #fde725"/>
     <use xlink:href="#me26a161d66" x="123.234045" y="144.571177" style="fill: #fde725; stroke: #fde725"/>
     <use xlink:href="#me26a161d66" x="239.203547" y="71.737141" style="fill: #fde725; stroke: #fde725"/>
     <use xlink:href="#me26a161d66" x="355.17305" y="73.359991" style="fill: #fde725; stroke: #fde725"/>
    </g>
   </g>
   <g id="line2d_17">
    <path d="M 88.443194 275.541656 
L 88.443194 62.032164 
" clip-path="url(#p64b302b106)" style="fill: none; stroke-dasharray: 1,1.65; stroke-dashoffset: 0; stroke: #808080"/>
   </g>
   <g id="patch_4">
    <path d="M 53.652344 275.541656 
L 53.652344 62.032164 
" style="fill: none; stroke: #000000; stroke-width: 0.8; stroke-linejoin: miter; stroke-linecap: square"/>
   </g>
   <g id="patch_5">
    <path d="M 366.77 275.541656 
L 366.77 62.032164 
" style="fill: none; stroke: #000000; stroke-width: 0.8; stroke-linejoin: miter; stroke-linecap: square"/>
   </g>
   <g id="patch_6">
    <path d="M 53.652344 275.541656 
L 366.77 275.541656 
" style="fill: none; stroke: #000000; stroke-width: 0.8; stroke-linejoin: miter; stroke-linecap: square"/>
   </g>
   <g id="patch_7">
    <path d="M 53.652344 62.032164 
L 366.77 62.032164 
" style="fill: none; stroke: #000000; stroke-width: 0.8; stroke-linejoin: miter; stroke-linecap: square"/>
   </g>
   <g id="text_15">
    <!-- Retention vs H/W -->
    <g transform="translate(158.323359 56.032164) scale(0.12 -0.12)">
     <defs>
      <path id="DejaVuSans-35" d="M 2841 2188 
Q 3044 2119 3236 1894 
Q 3428 1669 3622 1275 
L 4263 0 
L 3584 0 
L 2988 1197 
Q 2756 1666 2539 1819 
Q 2322 1972 1947 1972 
L 1259 1972 
L 1259 0 
L 628 0 
L 628 4666 
L 2053 4666 
Q 2853 4666 3247 4331 
Q 3641 3997 3641 3322 
Q 3641 2881 3436 2590 
Q 3231 2300 2841 2188 
z
M 1259 4147 
L 1259 2491 
L 2053 2491 
Q 2509 2491 2742 2702 
Q 2975 2913 2975 3322 
Q 2975 3731 2742 3939 
Q 2509 4147 2053 4147 
L 1259 4147 
z
" transform="scale(0.015625)"/>
      <path id="DejaVuSans-59" d="M 191 3500 
L 800 3500 
L 1894 563 
L 2988 3500 
L 3597 3500 
L 2284 0 
L 1503 0 
L 191 3500 
z
" transform="scale(0.015625)"/>
     </defs>
     <use xlink:href="#DejaVuSans-35"/>
     <use xlink:href="#DejaVuSans-48" transform="translate(65 0)"/>
     <use xlink:href="#DejaVuSans-57" transform="translate(126.53125 0)"/>
     <use xlink:href="#DejaVuSans-48" transform="translate(165.734375 0)"/>
     <use xlink:href="#DejaVuSans-51" transform="translate(227.265625 0)"/>
     <use xlink:href="#DejaVuSans-57" transform="translate(290.640625 0)"/>
     <use xlink:href="#DejaVuSans-4c" transform="translate(329.84375 0)"/>
     <use xlink:href="#DejaVuSans-52" transform="translate(357.625 0)"/>
     <use xlink:href="#DejaVuSans-51" transform="translate(418.8125 0)"/>
     <use xlink:href="#DejaVuSans-3" transform="translate(482.1875 0)"/>
     <use xlink:href="#DejaVuSans-59" transform="translate(513.96875 0)"/>
     <use xlink:href="#DejaVuSans-56" transform="translate(573.15625 0)"/>
     <use xlink:href="#DejaVuSans-3" transform="translate(625.25 0)"/>
     <use xlink:href="#DejaVuSans-2b" transform="translate(657.03125 0)"/>
     <use xlink:href="#DejaVuSans-12" transform="translate(732.234375 0)"/>
     <use xlink:href="#DejaVuSans-3a" transform="translate(765.921875 0)"/>
    </g>
   </g>
   <g id="legend_1">
    <g id="text_16">
     <!-- (skimming →) -->
     <g transform="translate(60.852344 76.830602) scale(0.1 -0.1)">
      <defs>
       <path id="DejaVuSans-4e" d="M 581 4863 
L 1159 4863 
L 1159 1991 
L 2875 3500 
L 3609 3500 
L 1753 1863 
L 3688 0 
L 2938 0 
L 1159 1709 
L 1159 0 
L 581 0 
L 581 4863 
z
" transform="scale(0.015625)"/>
       <path id="DejaVuSans-4a" d="M 2906 1791 
Q 2906 2416 2648 2759 
Q 2391 3103 1925 3103 
Q 1463 3103 1205 2759 
Q 947 2416 947 1791 
Q 947 1169 1205 825 
Q 1463 481 1925 481 
Q 2391 481 2648 825 
Q 2906 1169 2906 1791 
z
M 3481 434 
Q 3481 -459 3084 -895 
Q 2688 -1331 1869 -1331 
Q 1566 -1331 1297 -1286 
Q 1028 -1241 775 -1147 
L 775 -588 
Q 1028 -725 1275 -790 
Q 1522 -856 1778 -856 
Q 2344 -856 2625 -561 
Q 2906 -266 2906 331 
L 2906 616 
Q 2728 306 2450 153 
Q 2172 0 1784 0 
Q 1141 0 747 490 
Q 353 981 353 1791 
Q 353 2603 747 3093 
Q 1141 3584 1784 3584 
Q 2172 3584 2450 3431 
Q 2728 3278 2906 2969 
L 2906 3500 
L 3481 3500 
L 3481 434 
z
" transform="scale(0.015625)"/>
       <path id="DejaVuSans-c1c" d="M 5050 2147 
L 5050 1866 
L 3822 638 
L 3447 1013 
L 4175 1741 
L 366 1741 
L 366 2272 
L 4175 2272 
L 3447 3000 
L 3822 3375 
L 5050 2147 
z
" transform="scale(0.015625)"/>
      </defs>
      <use xlink:href="#DejaVuSans-b"/>
      <use xlink:href="#DejaVuSans-56" transform="translate(39.015625 0)"/>
      <use xlink:href="#DejaVuSans-4e" transform="translate(91.109375 0)"/>
      <use xlink:href="#DejaVuSans-4c" transform="translate(149.015625 0)"/>
      <use xlink:href="#DejaVuSans-50" transform="translate(176.796875 0)"/>
      <use xlink:href="#DejaVuSans-50" transform="translate(274.203125 0)"/>
      <use xlink:href="#DejaVuSans-4c" transform="translate(371.609375 0)"/>
      <use xlink:href="#DejaVuSans-51" transform="translate(399.390625 0)"/>
      <use xlink:href="#DejaVuSans-4a" transform="translate(462.765625 0)"/>
      <use xlink:href="#DejaVuSans-3" transform="translate(526.25 0)"/>
      <use xlink:href="#DejaVuSans-c1c" transform="translate(558.03125 0)"/>
      <use xlink:href="#DejaVuSans-c" transform="translate(641.828125 0)"/>
     </g>
    </g>
    <g id="line2d_18">
     <path d="M 67.977031 86.511695 
L 75.977031 86.511695 
L 83.977031 86.511695 
" style="fill: none; stroke: #440154; stroke-width: 1.5; stroke-linecap: square"/>
     <g>
      <use xlink:href="#m2d94994846" x="75.977031" y="86.511695" style="fill: #440154; stroke: #440154"/>
     </g>
    </g>
    <g id="text_17">
     <!-- Pe=50 -->
     <g transform="translate(90.377031 89.311695) scale(0.08 -0.08)">
      <defs>
       <path id="DejaVuSans-33" d="M 1259 4147 
L 1259 2394 
L 2053 2394 
Q 2494 2394 2734 2622 
Q 2975 2850 2975 3272 
Q 2975 3691 2734 3919 
Q 2494 4147 2053 4147 
L 1259 4147 
z
M 628 4666 
L 2053 4666 
Q 2838 4666 3239 4311 
Q 3641 3956 3641 3272 
Q 3641 2581 3239 2228 
Q 2838 1875 2053 1875 
L 1259 1875 
L 1259 0 
L 628 0 
L 628 4666 
z
" transform="scale(0.015625)"/>
       <path id="DejaVuSans-20" d="M 678 2906 
L 4684 2906 
L 4684 2381 
L 678 2381 
L 678 2906 
z
M 678 1631 
L 4684 1631 
L 4684 1100 
L 678 1100 
L 678 1631 
z
" transform="scale(0.015625)"/>
      </defs>
      <use xlink:href="#DejaVuSans-33"/>
      <use xlink:href="#DejaVuSans-48" transform="translate(56.734375 0)"/>
      <use xlink:href="#DejaVuSans-20" transform="translate(118.265625 0)"/>
      <use xlink:href="#DejaVuSans-18" transform="translate(202.0625 0)"/>
      <use xlink:href="#DejaVuSans-13" transform="translate(265.6875 0)"/>
     </g>
    </g>
    <g id="line2d_19">
     <path d="M 67.977031 98.51232 
L 75.977031 98.51232 
L 83.977031 98.51232 
" style="fill: none; stroke: #31688e; stroke-width: 1.5; stroke-linecap: square"/>
     <g>
      <use xlink:href="#m43ae6c7e78" x="75.977031" y="98.51232" style="fill: #31688e; stroke: #31688e"/>
     </g>
    </g>
    <g id="text_18">
     <!-- Pe=72 -->
     <g transform="translate(90.377031 101.31232) scale(0.08 -0.08)">
      <defs>
       <path id="DejaVuSans-1a" d="M 525 4666 
L 3525 4666 
L 3525 4397 
L 1831 0 
L 1172 0 
L 2766 4134 
L 525 4134 
L 525 4666 
z
" transform="scale(0.015625)"/>
      </defs>
      <use xlink:href="#DejaVuSans-33"/>
      <use xlink:href="#DejaVuSans-48" transform="translate(56.734375 0)"/>
      <use xlink:href="#DejaVuSans-20" transform="translate(118.265625 0)"/>
      <use xlink:href="#DejaVuSans-1a" transform="translate(202.0625 0)"/>
      <use xlink:href="#DejaVuSans-15" transform="translate(265.6875 0)"/>
     </g>
    </g>
    <g id="line2d_20">
     <path d="M 67.977031 110.512945 
L 75.977031 110.512945 
L 83.977031 110.512945 
" style="fill: none; stroke: #35b779; stroke-width: 1.5; stroke-linecap: square"/>
     <g>
      <use xlink:href="#mda2c2d934a" x="75.977031" y="110.512945" style="fill: #35b779; stroke: #35b779"/>
     </g>
    </g>
    <g id="text_19">
     <!-- Pe=144 -->
     <g transform="translate(90.377031 113.312945) scale(0.08 -0.08)">
      <defs>
       <path id="DejaVuSans-17" d="M 2419 4116 
L 825 1625 
L 2419 1625 
L 2419 4116 
z
M 2253 4666 
L 3047 4666 
L 3047 1625 
L 3713 1625 
L 3713 1100 
L 3047 1100 
L 3047 0 
L 2419 0 
L 2419 1100 
L 313 1100 
L 313 1709 
L 2253 4666 
z
" transform="scale(0.015625)"/>
      </defs>
      <use xlink:href="#DejaVuSans-33"/>
      <use xlink:href="#DejaVuSans-48" transform="translate(56.734375 0)"/>
      <use xlink:href="#DejaVuSans-20" transform="translate(118.265625 0)"/>
      <use xlink:href="#DejaVuSans-14" transform="translate(202.0625 0)"/>
      <use xlink:href="#DejaVuSans-17" transform="translate(265.6875 0)"/>
      <use xlink:href="#DejaVuSans-17" transform="translate(329.3125 0)"/>
     </g>
    </g>
    <g id="line2d_21">
     <path d="M 67.977031 122.51357 
L 75.977031 122.51357 
L 83.977031 122.51357 
" style="fill: none; stroke: #fde725; stroke-width: 1.5; stroke-linecap: square"/>
     <g>
      <use xlink:href="#me26a161d66" x="75.977031" y="122.51357" style="fill: #fde725; stroke: #fde725"/>
     </g>
    </g>
    <g id="text_20">
     <!-- Pe=200 -->
     <g transform="translate(90.377031 125.31357) scale(0.08 -0.08)">
      <use xlink:href="#DejaVuSans-33"/>
      <use xlink:href="#DejaVuSans-48" transform="translate(56.734375 0)"/>
      <use xlink:href="#DejaVuSans-20" transform="translate(118.265625 0)"/>
      <use xlink:href="#DejaVuSans-15" transform="translate(202.0625 0)"/>
      <use xlink:href="#DejaVuSans-13" transform="translate(265.6875 0)"/>
      <use xlink:href="#DejaVuSans-13" transform="translate(329.3125 0)"/>
     </g>
    </g>
   </g>
  </g>
  <g id="axes_2">
   <g id="patch_8">
    <path d="M 427.692344 275.541656 
L 740.81 275.541656 
L 740.81 62.032164 
L 427.692344 62.032164 
z
" style="fill: #ffffff"/>
   </g>
   <g id="patch_9">
    <path d="M 462.483194 275.541656 
L 752.40695 275.541656 
L 752.40695 62.032164 
L 462.483194 62.032164 
z
" clip-path="url(#p465cde97bf)" style="fill: #f6cccc; opacity: 0.4"/>
   </g>
   <g id="matplotlib.axis_3">
    <g id="xtick_7">
     <g id="line2d_22">
      <g>
       <use xlink:href="#m79d9f17fcf" x="439.289294" y="275.541656" style="stroke: #000000; stroke-width: 0.8"/>
      </g>
     </g>
     <g id="text_21">
      <!-- 0.5 -->
      <g transform="translate(431.337731 290.139312) scale(0.1 -0.1)">
       <use xlink:href="#DejaVuSans-13"/>
       <use xlink:href="#DejaVuSans-11" transform="translate(63.625 0)"/>
       <use xlink:href="#DejaVuSans-18" transform="translate(95.40625 0)"/>
      </g>
     </g>
    </g>
    <g id="xtick_8">
     <g id="line2d_23">
      <g>
       <use xlink:href="#m79d9f17fcf" x="497.274045" y="275.541656" style="stroke: #000000; stroke-width: 0.8"/>
      </g>
     </g>
     <g id="text_22">
      <!-- 1.0 -->
      <g transform="translate(489.322483 290.139312) scale(0.1 -0.1)">
       <use xlink:href="#DejaVuSans-14"/>
       <use xlink:href="#DejaVuSans-11" transform="translate(63.625 0)"/>
       <use xlink:href="#DejaVuSans-13" transform="translate(95.40625 0)"/>
      </g>
     </g>
    </g>
    <g id="xtick_9">
     <g id="line2d_24">
      <g>
       <use xlink:href="#m79d9f17fcf" x="555.258796" y="275.541656" style="stroke: #000000; stroke-width: 0.8"/>
      </g>
     </g>
     <g id="text_23">
      <!-- 1.5 -->
      <g transform="translate(547.307234 290.139312) scale(0.1 -0.1)">
       <use xlink:href="#DejaVuSans-14"/>
       <use xlink:href="#DejaVuSans-11" transform="translate(63.625 0)"/>
       <use xlink:href="#DejaVuSans-18" transform="translate(95.40625 0)"/>
      </g>
     </g>
    </g>
    <g id="xtick_10">
     <g id="line2d_25">
      <g>
       <use xlink:href="#m79d9f17fcf" x="613.243547" y="275.541656" style="stroke: #000000; stroke-width: 0.8"/>
      </g>
     </g>
     <g id="text_24">
      <!-- 2.0 -->
      <g transform="translate(605.291985 290.139312) scale(0.1 -0.1)">
       <use xlink:href="#DejaVuSans-15"/>
       <use xlink:href="#DejaVuSans-11" transform="translate(63.625 0)"/>
       <use xlink:href="#DejaVuSans-13" transform="translate(95.40625 0)"/>
      </g>
     </g>
    </g>
    <g id="xtick_11">
     <g id="line2d_26">
      <g>
       <use xlink:href="#m79d9f17fcf" x="671.228299" y="275.541656" style="stroke: #000000; stroke-width: 0.8"/>
      </g>
     </g>
     <g id="text_25">
      <!-- 2.5 -->
      <g transform="translate(663.276736 290.139312) scale(0.1 -0.1)">
       <use xlink:href="#DejaVuSans-15"/>
       <use xlink:href="#DejaVuSans-11" transform="translate(63.625 0)"/>
       <use xlink:href="#DejaVuSans-18" transform="translate(95.40625 0)"/>
      </g>
     </g>
    </g>
    <g id="xtick_12">
     <g id="line2d_27">
      <g>
       <use xlink:href="#m79d9f17fcf" x="729.21305" y="275.541656" style="stroke: #000000; stroke-width: 0.8"/>
      </g>
     </g>
     <g id="text_26">
      <!-- 3.0 -->
      <g transform="translate(721.261487 290.139312) scale(0.1 -0.1)">
       <use xlink:href="#DejaVuSans-16"/>
       <use xlink:href="#DejaVuSans-11" transform="translate(63.625 0)"/>
       <use xlink:href="#DejaVuSans-13" transform="translate(95.40625 0)"/>
      </g>
     </g>
    </g>
    <g id="text_27">
     <!-- aspect ratio  H/W -->
     <g transform="translate(540.938672 304.140094) scale(0.1 -0.1)">
      <use xlink:href="#DejaVuSans-44"/>
      <use xlink:href="#DejaVuSans-56" transform="translate(61.28125 0)"/>
      <use xlink:href="#DejaVuSans-53" transform="translate(113.375 0)"/>
      <use xlink:href="#DejaVuSans-48" transform="translate(176.859375 0)"/>
      <use xlink:href="#DejaVuSans-46" transform="translate(238.390625 0)"/>
      <use xlink:href="#DejaVuSans-57" transform="translate(293.375 0)"/>
      <use xlink:href="#DejaVuSans-3" transform="translate(332.578125 0)"/>
      <use xlink:href="#DejaVuSans-55" transform="translate(364.359375 0)"/>
      <use xlink:href="#DejaVuSans-44" transform="translate(405.46875 0)"/>
      <use xlink:href="#DejaVuSans-57" transform="translate(466.75 0)"/>
      <use xlink:href="#DejaVuSans-4c" transform="translate(505.953125 0)"/>
      <use xlink:href="#DejaVuSans-52" transform="translate(533.734375 0)"/>
      <use xlink:href="#DejaVuSans-3" transform="translate(594.921875 0)"/>
      <use xlink:href="#DejaVuSans-3" transform="translate(626.703125 0)"/>
      <use xlink:href="#DejaVuSans-2b" transform="translate(658.484375 0)"/>
      <use xlink:href="#DejaVuSans-12" transform="translate(733.6875 0)"/>
      <use xlink:href="#DejaVuSans-3a" transform="translate(767.375 0)"/>
     </g>
    </g>
   </g>
   <g id="matplotlib.axis_4">
    <g id="ytick_7">
     <g id="line2d_28">
      <g>
       <use xlink:href="#ma456679bc5" x="427.692344" y="270.59631" style="stroke: #000000; stroke-width: 0.8"/>
      </g>
     </g>
     <g id="text_28">
      <!-- 0.005 -->
      <g transform="translate(392.064219 274.395138) scale(0.1 -0.1)">
       <use xlink:href="#DejaVuSans-13"/>
       <use xlink:href="#DejaVuSans-11" transform="translate(63.625 0)"/>
       <use xlink:href="#DejaVuSans-13" transform="translate(95.40625 0)"/>
       <use xlink:href="#DejaVuSans-13" transform="translate(159.03125 0)"/>
       <use xlink:href="#DejaVuSans-18" transform="translate(222.65625 0)"/>
      </g>
     </g>
    </g>
    <g id="ytick_8">
     <g id="line2d_29">
      <g>
       <use xlink:href="#ma456679bc5" x="427.692344" y="228.272458" style="stroke: #000000; stroke-width: 0.8"/>
      </g>
     </g>
     <g id="text_29">
      <!-- 0.010 -->
      <g transform="translate(392.064219 232.071286) scale(0.1 -0.1)">
       <use xlink:href="#DejaVuSans-13"/>
       <use xlink:href="#DejaVuSans-11" transform="translate(63.625 0)"/>
       <use xlink:href="#DejaVuSans-13" transform="translate(95.40625 0)"/>
       <use xlink:href="#DejaVuSans-14" transform="translate(159.03125 0)"/>
       <use xlink:href="#DejaVuSans-13" transform="translate(222.65625 0)"/>
      </g>
     </g>
    </g>
    <g id="ytick_9">
     <g id="line2d_30">
      <g>
       <use xlink:href="#ma456679bc5" x="427.692344" y="185.948606" style="stroke: #000000; stroke-width: 0.8"/>
      </g>
     </g>
     <g id="text_30">
      <!-- 0.015 -->
      <g transform="translate(392.064219 189.747434) scale(0.1 -0.1)">
       <use xlink:href="#DejaVuSans-13"/>
       <use xlink:href="#DejaVuSans-11" transform="translate(63.625 0)"/>
       <use xlink:href="#DejaVuSans-13" transform="translate(95.40625 0)"/>
       <use xlink:href="#DejaVuSans-14" transform="translate(159.03125 0)"/>
       <use xlink:href="#DejaVuSans-18" transform="translate(222.65625 0)"/>
      </g>
     </g>
    </g>
    <g id="ytick_10">
     <g id="line2d_31">
      <g>
       <use xlink:href="#ma456679bc5" x="427.692344" y="143.624754" style="stroke: #000000; stroke-width: 0.8"/>
      </g>
     </g>
     <g id="text_31">
      <!-- 0.020 -->
      <g transform="translate(392.064219 147.423582) scale(0.1 -0.1)">
       <use xlink:href="#DejaVuSans-13"/>
       <use xlink:href="#DejaVuSans-11" transform="translate(63.625 0)"/>
       <use xlink:href="#DejaVuSans-13" transform="translate(95.40625 0)"/>
       <use xlink:href="#DejaVuSans-15" transform="translate(159.03125 0)"/>
       <use xlink:href="#DejaVuSans-13" transform="translate(222.65625 0)"/>
      </g>
     </g>
    </g>
    <g id="ytick_11">
     <g id="line2d_32">
      <g>
       <use xlink:href="#ma456679bc5" x="427.692344" y="101.300902" style="stroke: #000000; stroke-width: 0.8"/>
      </g>
     </g>
     <g id="text_32">
      <!-- 0.025 -->
      <g transform="translate(392.064219 105.09973) scale(0.1 -0.1)">
       <use xlink:href="#DejaVuSans-13"/>
       <use xlink:href="#DejaVuSans-11" transform="translate(63.625 0)"/>
       <use xlink:href="#DejaVuSans-13" transform="translate(95.40625 0)"/>
       <use xlink:href="#DejaVuSans-15" transform="translate(159.03125 0)"/>
       <use xlink:href="#DejaVuSans-18" transform="translate(222.65625 0)"/>
      </g>
     </g>
    </g>
    <g id="text_33">
     <!-- air-exchange rate  ACH* $= w_e/U_H$ -->
     <g transform="translate(385.661875 251.28691) rotate(-90) scale(0.1 -0.1)">
      <defs>
       <path id="DejaVuSans-5b" d="M 3513 3500 
L 2247 1797 
L 3578 0 
L 2900 0 
L 1881 1375 
L 863 0 
L 184 0 
L 1544 1831 
L 300 3500 
L 978 3500 
L 1906 2253 
L 2834 3500 
L 3513 3500 
z
" transform="scale(0.015625)"/>
       <path id="DejaVuSans-4b" d="M 3513 2113 
L 3513 0 
L 2938 0 
L 2938 2094 
Q 2938 2591 2744 2837 
Q 2550 3084 2163 3084 
Q 1697 3084 1428 2787 
Q 1159 2491 1159 1978 
L 1159 0 
L 581 0 
L 581 4863 
L 1159 4863 
L 1159 2956 
Q 1366 3272 1645 3428 
Q 1925 3584 2291 3584 
Q 2894 3584 3203 3211 
Q 3513 2838 3513 2113 
z
" transform="scale(0.015625)"/>
       <path id="DejaVuSans-24" d="M 2188 4044 
L 1331 1722 
L 3047 1722 
L 2188 4044 
z
M 1831 4666 
L 2547 4666 
L 4325 0 
L 3669 0 
L 3244 1197 
L 1141 1197 
L 716 0 
L 50 0 
L 1831 4666 
z
" transform="scale(0.015625)"/>
       <path id="DejaVuSans-26" d="M 4122 4306 
L 4122 3641 
Q 3803 3938 3442 4084 
Q 3081 4231 2675 4231 
Q 1875 4231 1450 3742 
Q 1025 3253 1025 2328 
Q 1025 1406 1450 917 
Q 1875 428 2675 428 
Q 3081 428 3442 575 
Q 3803 722 4122 1019 
L 4122 359 
Q 3791 134 3420 21 
Q 3050 -91 2638 -91 
Q 1578 -91 968 557 
Q 359 1206 359 2328 
Q 359 3453 968 4101 
Q 1578 4750 2638 4750 
Q 3056 4750 3426 4639 
Q 3797 4528 4122 4306 
z
" transform="scale(0.015625)"/>
       <path id="DejaVuSans-d" d="M 3009 3897 
L 1888 3291 
L 3009 2681 
L 2828 2375 
L 1778 3009 
L 1778 1831 
L 1422 1831 
L 1422 3009 
L 372 2375 
L 191 2681 
L 1313 3291 
L 191 3897 
L 372 4206 
L 1422 3572 
L 1422 4750 
L 1778 4750 
L 1778 3572 
L 2828 4206 
L 3009 3897 
z
" transform="scale(0.015625)"/>
       <path id="DejaVuSans-Oblique-5a" d="M 544 3500 
L 1113 3500 
L 1259 684 
L 2566 3500 
L 3231 3500 
L 3425 684 
L 4666 3500 
L 5241 3500 
L 3641 0 
L 2969 0 
L 2797 2900 
L 1459 0 
L 781 0 
L 544 3500 
z
" transform="scale(0.015625)"/>
       <path id="DejaVuSans-Oblique-48" d="M 3078 2063 
Q 3088 2113 3092 2166 
Q 3097 2219 3097 2272 
Q 3097 2653 2873 2875 
Q 2650 3097 2266 3097 
Q 1838 3097 1509 2826 
Q 1181 2556 1013 2059 
L 3078 2063 
z
M 3578 1613 
L 903 1613 
Q 884 1494 878 1425 
Q 872 1356 872 1306 
Q 872 872 1139 634 
Q 1406 397 1894 397 
Q 2269 397 2603 481 
Q 2938 566 3225 728 
L 3116 159 
Q 2806 34 2476 -28 
Q 2147 -91 1806 -91 
Q 1078 -91 686 257 
Q 294 606 294 1247 
Q 294 1794 489 2264 
Q 684 2734 1063 3103 
Q 1306 3334 1642 3459 
Q 1978 3584 2356 3584 
Q 2950 3584 3301 3228 
Q 3653 2872 3653 2272 
Q 3653 2128 3634 1964 
Q 3616 1800 3578 1613 
z
" transform="scale(0.015625)"/>
       <path id="DejaVuSans-Oblique-38" d="M 991 4666 
L 1625 4666 
L 1075 1831 
Q 1041 1641 1027 1517 
Q 1013 1394 1013 1300 
Q 1013 869 1253 645 
Q 1494 422 1959 422 
Q 2563 422 2898 753 
Q 3234 1084 3378 1831 
L 3928 4666 
L 4563 4666 
L 4000 1753 
Q 3816 809 3300 359 
Q 2784 -91 1888 -91 
Q 1188 -91 780 261 
Q 372 613 372 1216 
Q 372 1325 387 1461 
Q 403 1597 434 1753 
L 991 4666 
z
" transform="scale(0.015625)"/>
       <path id="DejaVuSans-Oblique-2b" d="M 1081 4666 
L 1716 4666 
L 1344 2753 
L 3634 2753 
L 4006 4666 
L 4641 4666 
L 3731 0 
L 3097 0 
L 3531 2222 
L 1241 2222 
L 806 0 
L 172 0 
L 1081 4666 
z
" transform="scale(0.015625)"/>
      </defs>
      <use xlink:href="#DejaVuSans-44" transform="translate(0 0.015625)"/>
      <use xlink:href="#DejaVuSans-4c" transform="translate(61.279297 0.015625)"/>
      <use xlink:href="#DejaVuSans-55" transform="translate(89.0625 0.015625)"/>
      <use xlink:href="#DejaVuSans-10" transform="translate(124.175781 0.015625)"/>
      <use xlink:href="#DejaVuSans-48" transform="translate(160.259766 0.015625)"/>
      <use xlink:href="#DejaVuSans-5b" transform="translate(219.783203 0.015625)"/>
      <use xlink:href="#DejaVuSans-46" transform="translate(276.962891 0.015625)"/>
      <use xlink:href="#DejaVuSans-4b" transform="translate(331.943359 0.015625)"/>
      <use xlink:href="#DejaVuSans-44" transform="translate(395.322266 0.015625)"/>
      <use xlink:href="#DejaVuSans-51" transform="translate(456.601562 0.015625)"/>
      <use xlink:href="#DejaVuSans-4a" transform="translate(519.980469 0.015625)"/>
      <use xlink:href="#DejaVuSans-48" transform="translate(583.457031 0.015625)"/>
      <use xlink:href="#DejaVuSans-3" transform="translate(644.980469 0.015625)"/>
      <use xlink:href="#DejaVuSans-55" transform="translate(676.767578 0.015625)"/>
      <use xlink:href="#DejaVuSans-44" transform="translate(717.880859 0.015625)"/>
      <use xlink:href="#DejaVuSans-57" transform="translate(779.160156 0.015625)"/>
      <use xlink:href="#DejaVuSans-48" transform="translate(818.369141 0.015625)"/>
      <use xlink:href="#DejaVuSans-3" transform="translate(879.892578 0.015625)"/>
      <use xlink:href="#DejaVuSans-3" transform="translate(911.679688 0.015625)"/>
      <use xlink:href="#DejaVuSans-24" transform="translate(943.466797 0.015625)"/>
      <use xlink:href="#DejaVuSans-26" transform="translate(1009.875 0.015625)"/>
      <use xlink:href="#DejaVuSans-2b" transform="translate(1079.699219 0.015625)"/>
      <use xlink:href="#DejaVuSans-d" transform="translate(1154.894531 0.015625)"/>
      <use xlink:href="#DejaVuSans-3" transform="translate(1204.894531 0.015625)"/>
      <use xlink:href="#DejaVuSans-20" transform="translate(1256.164062 0.015625)"/>
      <use xlink:href="#DejaVuSans-Oblique-5a" transform="translate(1359.435547 0.015625)"/>
      <use xlink:href="#DejaVuSans-Oblique-48" transform="translate(1441.222656 -14.984326) scale(0.7)"/>
      <use xlink:href="#DejaVuSans-12" transform="translate(1487.023438 0.015625)"/>
      <use xlink:href="#DejaVuSans-Oblique-38" transform="translate(1520.714844 0.015625)"/>
      <use xlink:href="#DejaVuSans-Oblique-2b" transform="translate(1593.908203 -14.984326) scale(0.7)"/>
     </g>
    </g>
   </g>
   <g id="line2d_33">
    <path d="M 439.289294 90.105794 
L 497.274045 88.953273 
L 613.243547 79.608454 
L 729.21305 71.737141 
" clip-path="url(#p465cde97bf)" style="fill: none; stroke: #440154; stroke-width: 1.5; stroke-linecap: square"/>
    <g clip-path="url(#p465cde97bf)">
     <use xlink:href="#m2d94994846" x="439.289294" y="90.105794" style="fill: #440154; stroke: #440154"/>
     <use xlink:href="#m2d94994846" x="497.274045" y="88.953273" style="fill: #440154; stroke: #440154"/>
     <use xlink:href="#m2d94994846" x="613.243547" y="79.608454" style="fill: #440154; stroke: #440154"/>
     <use xlink:href="#m2d94994846" x="729.21305" y="71.737141" style="fill: #440154; stroke: #440154"/>
    </g>
   </g>
   <g id="line2d_34">
    <path d="M 439.289294 137.281642 
L 497.274045 152.182092 
L 613.243547 152.152822 
L 729.21305 147.73879 
" clip-path="url(#p465cde97bf)" style="fill: none; stroke: #31688e; stroke-width: 1.5; stroke-linecap: square"/>
    <g clip-path="url(#p465cde97bf)">
     <use xlink:href="#m43ae6c7e78" x="439.289294" y="137.281642" style="fill: #31688e; stroke: #31688e"/>
     <use xlink:href="#m43ae6c7e78" x="497.274045" y="152.182092" style="fill: #31688e; stroke: #31688e"/>
     <use xlink:href="#m43ae6c7e78" x="613.243547" y="152.152822" style="fill: #31688e; stroke: #31688e"/>
     <use xlink:href="#m43ae6c7e78" x="729.21305" y="147.73879" style="fill: #31688e; stroke: #31688e"/>
    </g>
   </g>
   <g id="line2d_35">
    <path d="M 439.289294 194.592982 
L 497.274045 225.029772 
L 613.243547 239.891815 
L 729.21305 238.73489 
" clip-path="url(#p465cde97bf)" style="fill: none; stroke: #35b779; stroke-width: 1.5; stroke-linecap: square"/>
    <g clip-path="url(#p465cde97bf)">
     <use xlink:href="#mda2c2d934a" x="439.289294" y="194.592982" style="fill: #35b779; stroke: #35b779"/>
     <use xlink:href="#mda2c2d934a" x="497.274045" y="225.029772" style="fill: #35b779; stroke: #35b779"/>
     <use xlink:href="#mda2c2d934a" x="613.243547" y="239.891815" style="fill: #35b779; stroke: #35b779"/>
     <use xlink:href="#mda2c2d934a" x="729.21305" y="238.73489" style="fill: #35b779; stroke: #35b779"/>
    </g>
   </g>
   <g id="line2d_36">
    <path d="M 439.289294 214.526532 
L 497.274045 245.466613 
L 613.243547 265.836679 
L 729.21305 265.517722 
" clip-path="url(#p465cde97bf)" style="fill: none; stroke: #fde725; stroke-width: 1.5; stroke-linecap: square"/>
    <g clip-path="url(#p465cde97bf)">
     <use xlink:href="#me26a161d66" x="439.289294" y="214.526532" style="fill: #fde725; stroke: #fde725"/>
     <use xlink:href="#me26a161d66" x="497.274045" y="245.466613" style="fill: #fde725; stroke: #fde725"/>
     <use xlink:href="#me26a161d66" x="613.243547" y="265.836679" style="fill: #fde725; stroke: #fde725"/>
     <use xlink:href="#me26a161d66" x="729.21305" y="265.517722" style="fill: #fde725; stroke: #fde725"/>
    </g>
   </g>
   <g id="line2d_37">
    <path d="M 462.483194 275.541656 
L 462.483194 62.032164 
" clip-path="url(#p465cde97bf)" style="fill: none; stroke-dasharray: 1,1.65; stroke-dashoffset: 0; stroke: #808080"/>
   </g>
   <g id="patch_10">
    <path d="M 427.692344 275.541656 
L 427.692344 62.032164 
" style="fill: none; stroke: #000000; stroke-width: 0.8; stroke-linejoin: miter; stroke-linecap: square"/>
   </g>
   <g id="patch_11">
    <path d="M 740.81 275.541656 
L 740.81 62.032164 
" style="fill: none; stroke: #000000; stroke-width: 0.8; stroke-linejoin: miter; stroke-linecap: square"/>
   </g>
   <g id="patch_12">
    <path d="M 427.692344 275.541656 
L 740.81 275.541656 
" style="fill: none; stroke: #000000; stroke-width: 0.8; stroke-linejoin: miter; stroke-linecap: square"/>
   </g>
   <g id="patch_13">
    <path d="M 427.692344 62.032164 
L 740.81 62.032164 
" style="fill: none; stroke: #000000; stroke-width: 0.8; stroke-linejoin: miter; stroke-linecap: square"/>
   </g>
   <g id="text_34">
    <!-- Ventilation vs H/W -->
    <g transform="translate(529.306172 56.032164) scale(0.12 -0.12)">
     <defs>
      <path id="DejaVuSans-39" d="M 1831 0 
L 50 4666 
L 709 4666 
L 2188 738 
L 3669 4666 
L 4325 4666 
L 2547 0 
L 1831 0 
z
" transform="scale(0.015625)"/>
     </defs>
     <use xlink:href="#DejaVuSans-39"/>
     <use xlink:href="#DejaVuSans-48" transform="translate(60.640625 0)"/>
     <use xlink:href="#DejaVuSans-51" transform="translate(122.171875 0)"/>
     <use xlink:href="#DejaVuSans-57" transform="translate(185.546875 0)"/>
     <use xlink:href="#DejaVuSans-4c" transform="translate(224.75 0)"/>
     <use xlink:href="#DejaVuSans-4f" transform="translate(252.53125 0)"/>
     <use xlink:href="#DejaVuSans-44" transform="translate(280.3125 0)"/>
     <use xlink:href="#DejaVuSans-57" transform="translate(341.59375 0)"/>
     <use xlink:href="#DejaVuSans-4c" transform="translate(380.796875 0)"/>
     <use xlink:href="#DejaVuSans-52" transform="translate(408.578125 0)"/>
     <use xlink:href="#DejaVuSans-51" transform="translate(469.765625 0)"/>
     <use xlink:href="#DejaVuSans-3" transform="translate(533.140625 0)"/>
     <use xlink:href="#DejaVuSans-59" transform="translate(564.921875 0)"/>
     <use xlink:href="#DejaVuSans-56" transform="translate(624.109375 0)"/>
     <use xlink:href="#DejaVuSans-3" transform="translate(676.203125 0)"/>
     <use xlink:href="#DejaVuSans-2b" transform="translate(707.984375 0)"/>
     <use xlink:href="#DejaVuSans-12" transform="translate(783.1875 0)"/>
     <use xlink:href="#DejaVuSans-3a" transform="translate(816.875 0)"/>
    </g>
   </g>
   <g id="legend_2">
    <g id="text_35">
     <!-- (skimming →) -->
     <g transform="translate(665.525625 76.830602) scale(0.1 -0.1)">
      <use xlink:href="#DejaVuSans-b"/>
      <use xlink:href="#DejaVuSans-56" transform="translate(39.015625 0)"/>
      <use xlink:href="#DejaVuSans-4e" transform="translate(91.109375 0)"/>
      <use xlink:href="#DejaVuSans-4c" transform="translate(149.015625 0)"/>
      <use xlink:href="#DejaVuSans-50" transform="translate(176.796875 0)"/>
      <use xlink:href="#DejaVuSans-50" transform="translate(274.203125 0)"/>
      <use xlink:href="#DejaVuSans-4c" transform="translate(371.609375 0)"/>
      <use xlink:href="#DejaVuSans-51" transform="translate(399.390625 0)"/>
      <use xlink:href="#DejaVuSans-4a" transform="translate(462.765625 0)"/>
      <use xlink:href="#DejaVuSans-3" transform="translate(526.25 0)"/>
      <use xlink:href="#DejaVuSans-c1c" transform="translate(558.03125 0)"/>
      <use xlink:href="#DejaVuSans-c" transform="translate(641.828125 0)"/>
     </g>
    </g>
    <g id="line2d_38">
     <path d="M 672.650313 86.511695 
L 680.650313 86.511695 
L 688.650313 86.511695 
" style="fill: none; stroke: #440154; stroke-width: 1.5; stroke-linecap: square"/>
     <g>
      <use xlink:href="#m2d94994846" x="680.650313" y="86.511695" style="fill: #440154; stroke: #440154"/>
     </g>
    </g>
    <g id="text_36">
     <!-- Pe=50 -->
     <g transform="translate(695.050313 89.311695) scale(0.08 -0.08)">
      <use xlink:href="#DejaVuSans-33"/>
      <use xlink:href="#DejaVuSans-48" transform="translate(56.734375 0)"/>
      <use xlink:href="#DejaVuSans-20" transform="translate(118.265625 0)"/>
      <use xlink:href="#DejaVuSans-18" transform="translate(202.0625 0)"/>
      <use xlink:href="#DejaVuSans-13" transform="translate(265.6875 0)"/>
     </g>
    </g>
    <g id="line2d_39">
     <path d="M 672.650313 98.51232 
L 680.650313 98.51232 
L 688.650313 98.51232 
" style="fill: none; stroke: #31688e; stroke-width: 1.5; stroke-linecap: square"/>
     <g>
      <use xlink:href="#m43ae6c7e78" x="680.650313" y="98.51232" style="fill: #31688e; stroke: #31688e"/>
     </g>
    </g>
    <g id="text_37">
     <!-- Pe=72 -->
     <g transform="translate(695.050313 101.31232) scale(0.08 -0.08)">
      <use xlink:href="#DejaVuSans-33"/>
      <use xlink:href="#DejaVuSans-48" transform="translate(56.734375 0)"/>
      <use xlink:href="#DejaVuSans-20" transform="translate(118.265625 0)"/>
      <use xlink:href="#DejaVuSans-1a" transform="translate(202.0625 0)"/>
      <use xlink:href="#DejaVuSans-15" transform="translate(265.6875 0)"/>
     </g>
    </g>
    <g id="line2d_40">
     <path d="M 672.650313 110.512945 
L 680.650313 110.512945 
L 688.650313 110.512945 
" style="fill: none; stroke: #35b779; stroke-width: 1.5; stroke-linecap: square"/>
     <g>
      <use xlink:href="#mda2c2d934a" x="680.650313" y="110.512945" style="fill: #35b779; stroke: #35b779"/>
     </g>
    </g>
    <g id="text_38">
     <!-- Pe=144 -->
     <g transform="translate(695.050313 113.312945) scale(0.08 -0.08)">
      <use xlink:href="#DejaVuSans-33"/>
      <use xlink:href="#DejaVuSans-48" transform="translate(56.734375 0)"/>
      <use xlink:href="#DejaVuSans-20" transform="translate(118.265625 0)"/>
      <use xlink:href="#DejaVuSans-14" transform="translate(202.0625 0)"/>
      <use xlink:href="#DejaVuSans-17" transform="translate(265.6875 0)"/>
      <use xlink:href="#DejaVuSans-17" transform="translate(329.3125 0)"/>
     </g>
    </g>
    <g id="line2d_41">
     <path d="M 672.650313 122.51357 
L 680.650313 122.51357 
L 688.650313 122.51357 
" style="fill: none; stroke: #fde725; stroke-width: 1.5; stroke-linecap: square"/>
     <g>
      <use xlink:href="#me26a161d66" x="680.650313" y="122.51357" style="fill: #fde725; stroke: #fde725"/>
     </g>
    </g>
    <g id="text_39">
     <!-- Pe=200 -->
     <g transform="translate(695.050313 125.31357) scale(0.08 -0.08)">
      <use xlink:href="#DejaVuSans-33"/>
      <use xlink:href="#DejaVuSans-48" transform="translate(56.734375 0)"/>
      <use xlink:href="#DejaVuSans-20" transform="translate(118.265625 0)"/>
      <use xlink:href="#DejaVuSans-15" transform="translate(202.0625 0)"/>
      <use xlink:href="#DejaVuSans-13" transform="translate(265.6875 0)"/>
      <use xlink:href="#DejaVuSans-13" transform="translate(329.3125 0)"/>
     </g>
    </g>
   </g>
  </g>
  <g id="text_40">
   <!-- Skimming collapse emerges in the advection-dominated regime (2-D laminar Re=25) -->
   <g transform="translate(170.462891 15.369443) scale(0.095 -0.095)">
    <defs>
     <path id="DejaVuSans-36" d="M 3425 4513 
L 3425 3897 
Q 3066 4069 2747 4153 
Q 2428 4238 2131 4238 
Q 1616 4238 1336 4038 
Q 1056 3838 1056 3469 
Q 1056 3159 1242 3001 
Q 1428 2844 1947 2747 
L 2328 2669 
Q 3034 2534 3370 2195 
Q 3706 1856 3706 1288 
Q 3706 609 3251 259 
Q 2797 -91 1919 -91 
Q 1588 -91 1214 -16 
Q 841 59 441 206 
L 441 856 
Q 825 641 1194 531 
Q 1563 422 1919 422 
Q 2459 422 2753 634 
Q 3047 847 3047 1241 
Q 3047 1584 2836 1778 
Q 2625 1972 2144 2069 
L 1759 2144 
Q 1053 2284 737 2584 
Q 422 2884 422 3419 
Q 422 4038 858 4394 
Q 1294 4750 2059 4750 
Q 2388 4750 2728 4690 
Q 3069 4631 3425 4513 
z
" transform="scale(0.015625)"/>
     <path id="DejaVuSans-47" d="M 2906 2969 
L 2906 4863 
L 3481 4863 
L 3481 0 
L 2906 0 
L 2906 525 
Q 2725 213 2448 61 
Q 2172 -91 1784 -91 
Q 1150 -91 751 415 
Q 353 922 353 1747 
Q 353 2572 751 3078 
Q 1150 3584 1784 3584 
Q 2172 3584 2448 3432 
Q 2725 3281 2906 2969 
z
M 947 1747 
Q 947 1113 1208 752 
Q 1469 391 1925 391 
Q 2381 391 2643 752 
Q 2906 1113 2906 1747 
Q 2906 2381 2643 2742 
Q 2381 3103 1925 3103 
Q 1469 3103 1208 2742 
Q 947 2381 947 1747 
z
" transform="scale(0.015625)"/>
     <path id="DejaVuSans-27" d="M 1259 4147 
L 1259 519 
L 2022 519 
Q 2988 519 3436 956 
Q 3884 1394 3884 2338 
Q 3884 3275 3436 3711 
Q 2988 4147 2022 4147 
L 1259 4147 
z
M 628 4666 
L 1925 4666 
Q 3281 4666 3915 4102 
Q 4550 3538 4550 2338 
Q 4550 1131 3912 565 
Q 3275 0 1925 0 
L 628 0 
L 628 4666 
z
" transform="scale(0.015625)"/>
    </defs>
    <use xlink:href="#DejaVuSans-36"/>
    <use xlink:href="#DejaVuSans-4e" transform="translate(63.484375 0)"/>
    <use xlink:href="#DejaVuSans-4c" transform="translate(121.390625 0)"/>
    <use xlink:href="#DejaVuSans-50" transform="translate(149.171875 0)"/>
    <use xlink:href="#DejaVuSans-50" transform="translate(246.578125 0)"/>
    <use xlink:href="#DejaVuSans-4c" transform="translate(343.984375 0)"/>
    <use xlink:href="#DejaVuSans-51" transform="translate(371.765625 0)"/>
    <use xlink:href="#DejaVuSans-4a" transform="translate(435.140625 0)"/>
    <use xlink:href="#DejaVuSans-3" transform="translate(498.625 0)"/>
    <use xlink:href="#DejaVuSans-46" transform="translate(530.40625 0)"/>
    <use xlink:href="#DejaVuSans-52" transform="translate(585.390625 0)"/>
    <use xlink:href="#DejaVuSans-4f" transform="translate(646.578125 0)"/>
    <use xlink:href="#DejaVuSans-4f" transform="translate(674.359375 0)"/>
    <use xlink:href="#DejaVuSans-44" transform="translate(702.140625 0)"/>
    <use xlink:href="#DejaVuSans-53" transform="translate(763.421875 0)"/>
    <use xlink:href="#DejaVuSans-56" transform="translate(826.90625 0)"/>
    <use xlink:href="#DejaVuSans-48" transform="translate(879 0)"/>
    <use xlink:href="#DejaVuSans-3" transform="translate(940.53125 0)"/>
    <use xlink:href="#DejaVuSans-48" transform="translate(972.3125 0)"/>
    <use xlink:href="#DejaVuSans-50" transform="translate(1033.84375 0)"/>
    <use xlink:href="#DejaVuSans-48" transform="translate(1131.25 0)"/>
    <use xlink:href="#DejaVuSans-55" transform="translate(1192.78125 0)"/>
    <use xlink:href="#DejaVuSans-4a" transform="translate(1232.140625 0)"/>
    <use xlink:href="#DejaVuSans-48" transform="translate(1295.625 0)"/>
    <use xlink:href="#DejaVuSans-56" transform="translate(1357.15625 0)"/>
    <use xlink:href="#DejaVuSans-3" transform="translate(1409.25 0)"/>
    <use xlink:href="#DejaVuSans-4c" transform="translate(1441.03125 0)"/>
    <use xlink:href="#DejaVuSans-51" transform="translate(1468.8125 0)"/>
    <use xlink:href="#DejaVuSans-3" transform="translate(1532.1875 0)"/>
    <use xlink:href="#DejaVuSans-57" transform="translate(1563.96875 0)"/>
    <use xlink:href="#DejaVuSans-4b" transform="translate(1603.171875 0)"/>
    <use xlink:href="#DejaVuSans-48" transform="translate(1666.546875 0)"/>
    <use xlink:href="#DejaVuSans-3" transform="translate(1728.078125 0)"/>
    <use xlink:href="#DejaVuSans-44" transform="translate(1759.859375 0)"/>
    <use xlink:href="#DejaVuSans-47" transform="translate(1821.140625 0)"/>
    <use xlink:href="#DejaVuSans-59" transform="translate(1884.625 0)"/>
    <use xlink:href="#DejaVuSans-48" transform="translate(1943.8125 0)"/>
    <use xlink:href="#DejaVuSans-46" transform="translate(2005.34375 0)"/>
    <use xlink:href="#DejaVuSans-57" transform="translate(2060.328125 0)"/>
    <use xlink:href="#DejaVuSans-4c" transform="translate(2099.53125 0)"/>
    <use xlink:href="#DejaVuSans-52" transform="translate(2127.3125 0)"/>
    <use xlink:href="#DejaVuSans-51" transform="translate(2188.5 0)"/>
    <use xlink:href="#DejaVuSans-10" transform="translate(2251.875 0)"/>
    <use xlink:href="#DejaVuSans-47" transform="translate(2287.953125 0)"/>
    <use xlink:href="#DejaVuSans-52" transform="translate(2351.4375 0)"/>
    <use xlink:href="#DejaVuSans-50" transform="translate(2412.625 0)"/>
    <use xlink:href="#DejaVuSans-4c" transform="translate(2510.03125 0)"/>
    <use xlink:href="#DejaVuSans-51" transform="translate(2537.8125 0)"/>
    <use xlink:href="#DejaVuSans-44" transform="translate(2601.1875 0)"/>
    <use xlink:href="#DejaVuSans-57" transform="translate(2662.46875 0)"/>
    <use xlink:href="#DejaVuSans-48" transform="translate(2701.671875 0)"/>
    <use xlink:href="#DejaVuSans-47" transform="translate(2763.203125 0)"/>
    <use xlink:href="#DejaVuSans-3" transform="translate(2826.6875 0)"/>
    <use xlink:href="#DejaVuSans-55" transform="translate(2858.46875 0)"/>
    <use xlink:href="#DejaVuSans-48" transform="translate(2897.375 0)"/>
    <use xlink:href="#DejaVuSans-4a" transform="translate(2958.90625 0)"/>
    <use xlink:href="#DejaVuSans-4c" transform="translate(3022.390625 0)"/>
    <use xlink:href="#DejaVuSans-50" transform="translate(3050.171875 0)"/>
    <use xlink:href="#DejaVuSans-48" transform="translate(3147.578125 0)"/>
    <use xlink:href="#DejaVuSans-3" transform="translate(3209.109375 0)"/>
    <use xlink:href="#DejaVuSans-b" transform="translate(3240.890625 0)"/>
    <use xlink:href="#DejaVuSans-15" transform="translate(3279.90625 0)"/>
    <use xlink:href="#DejaVuSans-10" transform="translate(3343.53125 0)"/>
    <use xlink:href="#DejaVuSans-27" transform="translate(3379.609375 0)"/>
    <use xlink:href="#DejaVuSans-3" transform="translate(3456.609375 0)"/>
    <use xlink:href="#DejaVuSans-4f" transform="translate(3488.390625 0)"/>
    <use xlink:href="#DejaVuSans-44" transform="translate(3516.171875 0)"/>
    <use xlink:href="#DejaVuSans-50" transform="translate(3577.453125 0)"/>
    <use xlink:href="#DejaVuSans-4c" transform="translate(3674.859375 0)"/>
    <use xlink:href="#DejaVuSans-51" transform="translate(3702.640625 0)"/>
    <use xlink:href="#DejaVuSans-44" transform="translate(3766.015625 0)"/>
    <use xlink:href="#DejaVuSans-55" transform="translate(3827.296875 0)"/>
    <use xlink:href="#DejaVuSans-3" transform="translate(3868.40625 0)"/>
    <use xlink:href="#DejaVuSans-35" transform="translate(3900.1875 0)"/>
    <use xlink:href="#DejaVuSans-48" transform="translate(3965.1875 0)"/>
    <use xlink:href="#DejaVuSans-20" transform="translate(4026.71875 0)"/>
    <use xlink:href="#DejaVuSans-15" transform="translate(4110.515625 0)"/>
    <use xlink:href="#DejaVuSans-18" transform="translate(4174.140625 0)"/>
    <use xlink:href="#DejaVuSans-c" transform="translate(4237.765625 0)"/>
   </g>
   <!-- retention ↑ / ACH* ↓ with H/W at high Pe; grid-converged at Pe=200 (n=48→96: 0.2%) -->
   <g transform="translate(166.553789 26.772041) scale(0.095 -0.095)">
    <defs>
     <path id="DejaVuSans-c1b" d="M 2541 4688 
L 2822 4688 
L 4047 3456 
L 3672 3081 
L 2947 3813 
L 2947 0 
L 2416 0 
L 2416 3813 
L 1684 3081 
L 1309 3456 
L 2541 4688 
z
" transform="scale(0.015625)"/>
     <path id="DejaVuSans-c1d" d="M 2822 -22 
L 2541 -22 
L 1309 1209 
L 1684 1584 
L 2416 853 
L 2416 4666 
L 2947 4666 
L 2947 853 
L 3672 1584 
L 4047 1209 
L 2822 -22 
z
" transform="scale(0.015625)"/>
     <path id="DejaVuSans-5a" d="M 269 3500 
L 844 3500 
L 1563 769 
L 2278 3500 
L 2956 3500 
L 3675 769 
L 4391 3500 
L 4966 3500 
L 4050 0 
L 3372 0 
L 2619 2869 
L 1863 0 
L 1184 0 
L 269 3500 
z
" transform="scale(0.015625)"/>
     <path id="DejaVuSans-1e" d="M 750 3309 
L 1409 3309 
L 1409 2516 
L 750 2516 
L 750 3309 
z
M 750 794 
L 1409 794 
L 1409 256 
L 897 -744 
L 494 -744 
L 750 256 
L 750 794 
z
" transform="scale(0.015625)"/>
     <path id="DejaVuSans-1b" d="M 2034 2216 
Q 1584 2216 1326 1975 
Q 1069 1734 1069 1313 
Q 1069 891 1326 650 
Q 1584 409 2034 409 
Q 2484 409 2743 651 
Q 3003 894 3003 1313 
Q 3003 1734 2745 1975 
Q 2488 2216 2034 2216 
z
M 1403 2484 
Q 997 2584 770 2862 
Q 544 3141 544 3541 
Q 544 4100 942 4425 
Q 1341 4750 2034 4750 
Q 2731 4750 3128 4425 
Q 3525 4100 3525 3541 
Q 3525 3141 3298 2862 
Q 3072 2584 2669 2484 
Q 3125 2378 3379 2068 
Q 3634 1759 3634 1313 
Q 3634 634 3220 271 
Q 2806 -91 2034 -91 
Q 1263 -91 848 271 
Q 434 634 434 1313 
Q 434 1759 690 2068 
Q 947 2378 1403 2484 
z
M 1172 3481 
Q 1172 3119 1398 2916 
Q 1625 2713 2034 2713 
Q 2441 2713 2670 2916 
Q 2900 3119 2900 3481 
Q 2900 3844 2670 4047 
Q 2441 4250 2034 4250 
Q 1625 4250 1398 4047 
Q 1172 3844 1172 3481 
z
" transform="scale(0.015625)"/>
     <path id="DejaVuSans-1c" d="M 703 97 
L 703 672 
Q 941 559 1184 500 
Q 1428 441 1663 441 
Q 2288 441 2617 861 
Q 2947 1281 2994 2138 
Q 2813 1869 2534 1725 
Q 2256 1581 1919 1581 
Q 1219 1581 811 2004 
Q 403 2428 403 3163 
Q 403 3881 828 4315 
Q 1253 4750 1959 4750 
Q 2769 4750 3195 4129 
Q 3622 3509 3622 2328 
Q 3622 1225 3098 567 
Q 2575 -91 1691 -91 
Q 1453 -91 1209 -44 
Q 966 3 703 97 
z
M 1959 2075 
Q 2384 2075 2632 2365 
Q 2881 2656 2881 3163 
Q 2881 3666 2632 3958 
Q 2384 4250 1959 4250 
Q 1534 4250 1286 3958 
Q 1038 3666 1038 3163 
Q 1038 2656 1286 2365 
Q 1534 2075 1959 2075 
z
" transform="scale(0.015625)"/>
     <path id="DejaVuSans-19" d="M 2113 2584 
Q 1688 2584 1439 2293 
Q 1191 2003 1191 1497 
Q 1191 994 1439 701 
Q 1688 409 2113 409 
Q 2538 409 2786 701 
Q 3034 994 3034 1497 
Q 3034 2003 2786 2293 
Q 2538 2584 2113 2584 
z
M 3366 4563 
L 3366 3988 
Q 3128 4100 2886 4159 
Q 2644 4219 2406 4219 
Q 1781 4219 1451 3797 
Q 1122 3375 1075 2522 
Q 1259 2794 1537 2939 
Q 1816 3084 2150 3084 
Q 2853 3084 3261 2657 
Q 3669 2231 3669 1497 
Q 3669 778 3244 343 
Q 2819 -91 2113 -91 
Q 1303 -91 875 529 
Q 447 1150 447 2328 
Q 447 3434 972 4092 
Q 1497 4750 2381 4750 
Q 2619 4750 2861 4703 
Q 3103 4656 3366 4563 
z
" transform="scale(0.015625)"/>
     <path id="DejaVuSans-1d" d="M 750 794 
L 1409 794 
L 1409 0 
L 750 0 
L 750 794 
z
M 750 3309 
L 1409 3309 
L 1409 2516 
L 750 2516 
L 750 3309 
z
" transform="scale(0.015625)"/>
     <path id="DejaVuSans-8" d="M 4653 2053 
Q 4381 2053 4226 1822 
Q 4072 1591 4072 1178 
Q 4072 772 4226 539 
Q 4381 306 4653 306 
Q 4919 306 5073 539 
Q 5228 772 5228 1178 
Q 5228 1588 5073 1820 
Q 4919 2053 4653 2053 
z
M 4653 2450 
Q 5147 2450 5437 2106 
Q 5728 1763 5728 1178 
Q 5728 594 5436 251 
Q 5144 -91 4653 -91 
Q 4153 -91 3862 251 
Q 3572 594 3572 1178 
Q 3572 1766 3864 2108 
Q 4156 2450 4653 2450 
z
M 1428 4353 
Q 1159 4353 1004 4120 
Q 850 3888 850 3481 
Q 850 3069 1003 2837 
Q 1156 2606 1428 2606 
Q 1700 2606 1854 2837 
Q 2009 3069 2009 3481 
Q 2009 3884 1853 4118 
Q 1697 4353 1428 4353 
z
M 4250 4750 
L 4750 4750 
L 1831 -91 
L 1331 -91 
L 4250 4750 
z
M 1428 4750 
Q 1922 4750 2215 4408 
Q 2509 4066 2509 3481 
Q 2509 2891 2217 2550 
Q 1925 2209 1428 2209 
Q 931 2209 642 2551 
Q 353 2894 353 3481 
Q 353 4063 643 4406 
Q 934 4750 1428 4750 
z
" transform="scale(0.015625)"/>
    </defs>
    <use xlink:href="#DejaVuSans-55"/>
    <use xlink:href="#DejaVuSans-48" transform="translate(38.90625 0)"/>
    <use xlink:href="#DejaVuSans-57" transform="translate(100.4375 0)"/>
    <use xlink:href="#DejaVuSans-48" transform="translate(139.640625 0)"/>
    <use xlink:href="#DejaVuSans-51" transform="translate(201.171875 0)"/>
    <use xlink:href="#DejaVuSans-57" transform="translate(264.546875 0)"/>
    <use xlink:href="#DejaVuSans-4c" transform="translate(303.75 0)"/>
    <use xlink:href="#DejaVuSans-52" transform="translate(331.53125 0)"/>
    <use xlink:href="#DejaVuSans-51" transform="translate(392.71875 0)"/>
    <use xlink:href="#DejaVuSans-3" transform="translate(456.09375 0)"/>
    <use xlink:href="#DejaVuSans-c1b" transform="translate(487.875 0)"/>
    <use xlink:href="#DejaVuSans-3" transform="translate(571.671875 0)"/>
    <use xlink:href="#DejaVuSans-12" transform="translate(603.453125 0)"/>
    <use xlink:href="#DejaVuSans-3" transform="translate(637.140625 0)"/>
    <use xlink:href="#DejaVuSans-24" transform="translate(668.921875 0)"/>
    <use xlink:href="#DejaVuSans-26" transform="translate(735.578125 0)"/>
    <use xlink:href="#DejaVuSans-2b" transform="translate(805.40625 0)"/>
    <use xlink:href="#DejaVuSans-d" transform="translate(880.609375 0)"/>
    <use xlink:href="#DejaVuSans-3" transform="translate(930.609375 0)"/>
    <use xlink:href="#DejaVuSans-c1d" transform="translate(962.390625 0)"/>
    <use xlink:href="#DejaVuSans-3" transform="translate(1046.1875 0)"/>
    <use xlink:href="#DejaVuSans-5a" transform="translate(1077.96875 0)"/>
    <use xlink:href="#DejaVuSans-4c" transform="translate(1159.75 0)"/>
    <use xlink:href="#DejaVuSans-57" transform="translate(1187.53125 0)"/>
    <use xlink:href="#DejaVuSans-4b" transform="translate(1226.734375 0)"/>
    <use xlink:href="#DejaVuSans-3" transform="translate(1290.109375 0)"/>
    <use xlink:href="#DejaVuSans-2b" transform="translate(1321.890625 0)"/>
    <use xlink:href="#DejaVuSans-12" transform="translate(1397.09375 0)"/>
    <use xlink:href="#DejaVuSans-3a" transform="translate(1430.78125 0)"/>
    <use xlink:href="#DejaVuSans-3" transform="translate(1529.65625 0)"/>
    <use xlink:href="#DejaVuSans-44" transform="translate(1561.4375 0)"/>
    <use xlink:href="#DejaVuSans-57" transform="translate(1622.71875 0)"/>
    <use xlink:href="#DejaVuSans-3" transform="translate(1661.921875 0)"/>
    <use xlink:href="#DejaVuSans-4b" transform="translate(1693.703125 0)"/>
    <use xlink:href="#DejaVuSans-4c" transform="translate(1757.078125 0)"/>
    <use xlink:href="#DejaVuSans-4a" transform="translate(1784.859375 0)"/>
    <use xlink:href="#DejaVuSans-4b" transform="translate(1848.34375 0)"/>
    <use xlink:href="#DejaVuSans-3" transform="translate(1911.71875 0)"/>
    <use xlink:href="#DejaVuSans-33" transform="translate(1943.5 0)"/>
    <use xlink:href="#DejaVuSans-48" transform="translate(2000.234375 0)"/>
    <use xlink:href="#DejaVuSans-1e" transform="translate(2061.765625 0)"/>
    <use xlink:href="#DejaVuSans-3" transform="translate(2095.453125 0)"/>
    <use xlink:href="#DejaVuSans-4a" transform="translate(2127.234375 0)"/>
    <use xlink:href="#DejaVuSans-55" transform="translate(2190.71875 0)"/>
    <use xlink:href="#DejaVuSans-4c" transform="translate(2231.828125 0)"/>
    <use xlink:href="#DejaVuSans-47" transform="translate(2259.609375 0)"/>
    <use xlink:href="#DejaVuSans-10" transform="translate(2323.09375 0)"/>
    <use xlink:href="#DejaVuSans-46" transform="translate(2359.171875 0)"/>
    <use xlink:href="#DejaVuSans-52" transform="translate(2414.15625 0)"/>
    <use xlink:href="#DejaVuSans-51" transform="translate(2475.34375 0)"/>
    <use xlink:href="#DejaVuSans-59" transform="translate(2538.71875 0)"/>
    <use xlink:href="#DejaVuSans-48" transform="translate(2597.90625 0)"/>
    <use xlink:href="#DejaVuSans-55" transform="translate(2659.4375 0)"/>
    <use xlink:href="#DejaVuSans-4a" transform="translate(2698.796875 0)"/>
    <use xlink:href="#DejaVuSans-48" transform="translate(2762.28125 0)"/>
    <use xlink:href="#DejaVuSans-47" transform="translate(2823.8125 0)"/>
    <use xlink:href="#DejaVuSans-3" transform="translate(2887.296875 0)"/>
    <use xlink:href="#DejaVuSans-44" transform="translate(2919.078125 0)"/>
    <use xlink:href="#DejaVuSans-57" transform="translate(2980.359375 0)"/>
    <use xlink:href="#DejaVuSans-3" transform="translate(3019.5625 0)"/>
    <use xlink:href="#DejaVuSans-33" transform="translate(3051.34375 0)"/>
    <use xlink:href="#DejaVuSans-48" transform="translate(3108.078125 0)"/>
    <use xlink:href="#DejaVuSans-20" transform="translate(3169.609375 0)"/>
    <use xlink:href="#DejaVuSans-15" transform="translate(3253.40625 0)"/>
    <use xlink:href="#DejaVuSans-13" transform="translate(3317.03125 0)"/>
    <use xlink:href="#DejaVuSans-13" transform="translate(3380.65625 0)"/>
    <use xlink:href="#DejaVuSans-3" transform="translate(3444.28125 0)"/>
    <use xlink:href="#DejaVuSans-b" transform="translate(3476.0625 0)"/>
    <use xlink:href="#DejaVuSans-51" transform="translate(3515.078125 0)"/>
    <use xlink:href="#DejaVuSans-20" transform="translate(3578.453125 0)"/>
    <use xlink:href="#DejaVuSans-17" transform="translate(3662.25 0)"/>
    <use xlink:href="#DejaVuSans-1b" transform="translate(3725.875 0)"/>
    <use xlink:href="#DejaVuSans-c1c" transform="translate(3789.5 0)"/>
    <use xlink:href="#DejaVuSans-1c" transform="translate(3873.296875 0)"/>
    <use xlink:href="#DejaVuSans-19" transform="translate(3936.921875 0)"/>
    <use xlink:href="#DejaVuSans-1d" transform="translate(4000.546875 0)"/>
    <use xlink:href="#DejaVuSans-3" transform="translate(4034.234375 0)"/>
    <use xlink:href="#DejaVuSans-13" transform="translate(4066.015625 0)"/>
    <use xlink:href="#DejaVuSans-11" transform="translate(4129.640625 0)"/>
    <use xlink:href="#DejaVuSans-15" transform="translate(4161.421875 0)"/>
    <use xlink:href="#DejaVuSans-8" transform="translate(4225.046875 0)"/>
    <use xlink:href="#DejaVuSans-c" transform="translate(4320.0625 0)"/>
   </g>
  </g>
 </g>
 <defs>
  <clipPath id="p64b302b106">
   <rect x="53.652344" y="62.032164" width="313.117656" height="213.509492"/>
  </clipPath>
  <clipPath id="p465cde97bf">
   <rect x="427.692344" y="62.032164" width="313.117656" height="213.509492"/>
  </clipPath>
 </defs>
</svg>
